<svg width="6" height="10" viewBox="0 0 6 10" fill="none" xmlns="http://www.w3.org/2000/svg">
<path d="M4.6464 0.646447C4.84166 0.451184 5.15817 0.451184 5.35343 0.646447C5.5487 0.841709 5.5487 1.15822 5.35343 1.35348L1.82479 4.88212C1.77814 4.92877 1.74044 4.96672 1.70825 4.99996C1.74044 5.0332 1.77814 5.07115 1.82479 5.1178L5.35343 8.64645C5.5487 8.84171 5.5487 9.15822 5.35343 9.35348C5.15817 9.54874 4.84166 9.54874 4.6464 9.35348L1.11776 5.82483C1.01665 5.72373 0.90481 5.61286 0.824137 5.50712C0.745828 5.40448 0.662144 5.26338 0.642497 5.08069L0.637939 4.99996L0.642497 4.91923C0.662144 4.73655 0.745828 4.59544 0.824137 4.4928C0.90481 4.38707 1.01665 4.27619 1.11776 4.17509L4.6464 0.646447Z" fill="white"/>
</svg>
