<svg xmlns="http://www.w3.org/2000/svg" width="22" height="23" viewBox="0 0 22 23" fill="none">
<path d="M12.7276 2.71224L14.4874 6.26094C14.7274 6.75494 15.3673 7.22877 15.9073 7.3195L19.0969 7.85382C21.1367 8.19659 21.6167 9.68866 20.1468 11.1606L17.6671 13.6608C17.2471 14.0842 17.0172 14.9008 17.1471 15.4855L17.8571 18.5806C18.417 21.0304 17.1271 21.978 14.9774 20.6977L11.9877 18.9133C11.4478 18.5906 10.5579 18.5906 10.0079 18.9133L7.01827 20.6977C4.8785 21.978 3.57865 21.0203 4.13859 18.5806L4.84851 15.4855C4.97849 14.9008 4.74852 14.0842 4.32856 13.6608L1.84884 11.1606C0.389 9.68866 0.858948 8.19659 2.89872 7.85382L6.08837 7.3195C6.61831 7.22877 7.25824 6.75494 7.49821 6.26094L9.25802 2.71224C10.2179 0.786674 11.7777 0.786674 12.7276 2.71224Z" fill="white" stroke="#F79548" stroke-width="1.5" stroke-linecap="round" stroke-linejoin="round"/>
</svg>