<svg xmlns="http://www.w3.org/2000/svg" width="24" height="24" viewBox="0 0 24 24" fill="none">
  <g clip-path="url(#clip0_2500_16511)">
    <path d="M13.3398 0.127154C13.9244 -0.0953937 14.583 -0.0242532 15.1934 0.328326C16.1724 0.894061 16.4437 2.53976 16.0469 5.50606C15.8944 6.64586 15.6748 7.73457 15.5146 8.46016H20.7393C22.1038 8.46016 23.2146 9.57028 23.2148 10.9348C23.2148 11.4564 23.052 11.9416 22.7754 12.341C23.4973 12.7738 23.9824 13.5638 23.9824 14.465C23.9824 15.3663 23.4975 16.1572 22.7754 16.59C23.052 16.9895 23.2148 17.4737 23.2148 17.9953C23.2148 18.9729 22.6443 19.8201 21.8193 20.2219C22.0549 20.6006 22.1914 21.0477 22.1914 21.5256C22.1912 22.89 21.0812 24 19.7168 24.0002H14.0234C11.415 24.0002 8.85838 23.5647 6.4082 22.7063V9.87813C7.73028 8.88013 9.86142 7.07481 10.5576 5.35567L11.9307 1.75997C12.2782 0.722178 12.8882 0.29924 13.3398 0.127154Z" fill="#F79548"/>
    <path d="M4.98828 10.5451V22.3928H0.710938C0.318901 22.3928 4.31247e-05 22.0749 0 21.6828V11.2551C0 10.863 0.318827 10.5451 0.710938 10.5451H4.98828Z" fill="#F79548"/>
  </g>
  <defs>
    <clipPath id="clip0_2500_16511">
      <rect width="24" height="24" fill="white"/>
    </clipPath>
  </defs>
</svg>