<svg width="24" height="25" viewBox="0 0 24 25" fill="none" xmlns="http://www.w3.org/2000/svg">
<path d="M10.9382 1.19778C11.4184 0.378084 12.5816 0.378085 13.0618 1.19778L13.155 1.38631L15.8621 8.14788L22.8498 8.75342C23.9563 8.84908 24.4046 10.2918 23.5633 11.0493L18.2499 15.8313L19.8601 22.97C20.115 24.1001 18.9406 24.9915 17.9917 24.3888L12 20.5814L6.0083 24.3888C5.0594 24.9915 3.88498 24.1 4.1399 22.97L5.74859 15.8313L0.436722 11.0493C-0.40465 10.2918 0.0437185 8.84908 1.15017 8.75342L8.13641 8.14788L10.845 1.38631L10.9382 1.19778ZM9.50677 8.96432C9.32637 9.41476 8.92104 9.72282 8.4557 9.76318L2.02249 10.3176L6.91424 14.7225C7.26804 15.0411 7.423 15.5398 7.31602 16.0151L5.83414 22.5833L11.3507 19.0811L11.505 18.998C11.8736 18.8319 12.3002 18.8595 12.6493 19.0811L18.1643 22.5833L16.684 16.0151C16.577 15.5398 16.732 15.0411 17.0858 14.7225L21.976 10.3176L15.5443 9.76318C15.079 9.72282 14.6736 9.41476 14.4932 8.96432L12 2.73798L9.50677 8.96432Z" fill="#4CC6CF"/>
<path d="M9.50677 8.96432C9.32637 9.41476 8.92104 9.72282 8.4557 9.76318L2.02249 10.3176L6.91424 14.7225C7.26804 15.0411 7.423 15.5398 7.31602 16.0151L5.83414 22.5833L11.3507 19.0811L11.505 18.998C11.8736 18.8319 12.3002 18.8595 12.6493 19.0811L18.1643 22.5833L16.684 16.0151C16.577 15.5398 16.732 15.0411 17.0858 14.7225L21.976 10.3176L15.5443 9.76318C15.079 9.72282 14.6736 9.41476 14.4932 8.96432L12 2.73798L9.50677 8.96432Z" fill="#4CC6CF"/>
</svg>
