<svg width="24" height="25" viewBox="0 0 24 25" fill="none" xmlns="http://www.w3.org/2000/svg">
<path d="M10.9382 1.06399C11.4184 0.244295 12.5816 0.244296 13.0618 1.06399L13.155 1.25252L15.8621 8.01409L22.8498 8.61963C23.9563 8.71529 24.4046 10.158 23.5633 10.9156L18.2499 15.6975L19.8601 22.8362C20.115 23.9663 18.9406 24.8577 17.9917 24.255L12 20.4476L6.0083 24.255C5.0594 24.8577 3.88498 23.9663 4.1399 22.8362L5.74859 15.6975L0.436722 10.9156C-0.40465 10.158 0.0437184 8.71529 1.15017 8.61963L8.13641 8.01409L10.845 1.25252L10.9382 1.06399ZM9.50677 8.83053C9.32637 9.28097 8.92104 9.58903 8.4557 9.62939L2.02249 10.1838L6.91424 14.5887C7.26804 14.9073 7.423 15.4061 7.31602 15.8813L5.83414 22.4495L11.3507 18.9473L11.505 18.8642C11.8736 18.6981 12.3002 18.7257 12.6493 18.9473L18.1643 22.4495L16.684 15.8813C16.577 15.4061 16.732 14.9073 17.0858 14.5887L21.976 10.1838L15.5443 9.62939C15.079 9.58903 14.6736 9.28097 14.4932 8.83053L12 2.60419L9.50677 8.83053Z" fill="#F79548"/>
</svg>
