<svg width="20" height="20" viewBox="0 0 20 20" fill="none" xmlns="http://www.w3.org/2000/svg">
<path d="M10.001 12.4998C10.4612 12.4998 10.8342 12.873 10.8343 13.3332C10.8343 13.7934 10.4612 14.1665 10.001 14.1665H9.99366C9.53342 14.1665 9.16032 13.7934 9.16032 13.3332C9.16043 12.873 9.53349 12.4998 9.99366 12.4998H10.001Z" fill="#F79548"/>
<path d="M10.0002 6.87483C10.3453 6.87483 10.6251 7.15475 10.6252 7.49983V10.8332C10.6252 11.1783 10.3453 11.4582 10.0002 11.4582C9.65499 11.4582 9.37517 11.1783 9.37517 10.8332V7.49983C9.37528 7.15475 9.65506 6.87483 10.0002 6.87483Z" fill="#F79548"/>
<path fill-rule="evenodd" clip-rule="evenodd" d="M8.63542 1.6787C9.52221 1.38446 10.4781 1.38442 11.3649 1.6787C12.2482 1.97193 12.9419 2.66784 13.6387 3.64485C14.3377 4.62504 15.1109 5.99423 16.1094 7.76106C17.108 9.52805 17.8823 10.8968 18.3636 12.005C18.8441 13.1115 19.0835 14.0674 18.8926 14.9852C18.7003 15.909 18.2262 16.7492 17.536 17.3843C16.8472 18.0178 15.9091 18.2853 14.7284 18.4137C13.5461 18.5423 11.9967 18.5415 10.0002 18.5415C8.0036 18.5415 6.45426 18.5423 5.27198 18.4137C4.09112 18.2853 3.15313 18.0178 2.46436 17.3843C1.77407 16.7492 1.30004 15.9091 1.10775 14.9852C0.916847 14.0674 1.1562 13.1115 1.63672 12.005C2.11806 10.8968 2.89239 9.528 3.89096 7.76106C4.88943 5.99428 5.66268 4.62502 6.36166 3.64485C7.05839 2.66788 7.75213 1.9719 8.63542 1.6787ZM10.971 2.86523C10.3399 2.65582 9.66041 2.65586 9.0293 2.86523C8.53268 3.03008 8.03275 3.45392 7.37891 4.37076C6.72733 5.28451 5.99161 6.58452 4.97901 8.3763C3.96643 10.168 3.23233 11.4694 2.78337 12.5031C2.33368 13.5385 2.22103 14.1983 2.33171 14.7305C2.47141 15.4017 2.8148 16.0085 3.31071 16.4647C3.70022 16.823 4.30721 17.0515 5.40707 17.1711C6.50574 17.2905 7.97407 17.2915 10.0002 17.2915C12.0263 17.2915 13.4946 17.2905 14.5933 17.1711C15.693 17.0515 16.3001 16.8229 16.6896 16.4647C17.1855 16.0085 17.5289 15.4016 17.6686 14.7305C17.7793 14.1983 17.6666 13.5385 17.217 12.5031C16.768 11.4694 16.0339 10.1681 15.0213 8.3763C14.0087 6.58447 13.273 5.28453 12.6214 4.37076C11.9676 3.45388 11.4677 3.0301 10.971 2.86523Z" fill="#F79548"/>
</svg>
