<svg xmlns="http://www.w3.org/2000/svg" width="11" height="11" viewBox="0 0 11 11" fill="none">
  <path fill-rule="evenodd" clip-rule="evenodd" d="M5.46582 1.49366e-08C4.72984 -5.8166e-08 4.16076 -0.000138372 3.70215 0.0283203C3.24061 0.0569716 2.86592 0.115523 2.521 0.244141C1.46792 0.636917 0.636917 1.46792 0.244141 2.521C0.115524 2.86592 0.0569716 3.24061 0.0283204 3.70215C0.00125549 4.1383 0.000541092 4.67437 0.000488399 5.35889C0.000446902 5.36425 1.18655e-07 5.36962 1.18229e-07 5.375C1.1797e-07 5.3768 0.000463248 5.37858 0.000488399 5.38037C0.000487109 5.4086 1.20033e-07 5.43708 1.18229e-07 5.46582L1.18229e-07 6.73877C-4.28648e-09 7.4975 -0.000431847 8.09755 0.0522462 8.57324C0.105746 9.05617 0.217721 9.45648 0.473633 9.79834C0.60936 9.97965 0.77035 10.1406 0.95166 10.2764C1.29352 10.5323 1.69383 10.6443 2.17676 10.6978C2.65245 10.7504 3.2525 10.75 4.01123 10.75H6.125C6.33211 10.75 6.5 10.5821 6.5 10.375C6.5 10.1679 6.33211 10 6.125 10H4.01123C3.2354 10 2.6841 9.99968 2.25928 9.95264C1.84191 9.9064 1.59231 9.81869 1.40137 9.67578C1.27731 9.58292 1.16708 9.47269 1.07422 9.34863C0.931309 9.15769 0.843602 8.90809 0.797363 8.49072C0.750318 8.0659 0.75 7.5146 0.75 6.73877L0.75 5.46582C0.75 5.43287 0.750485 5.40032 0.750488 5.36816C0.75417 4.658 1.33049 4.08358 2.0415 4.0835H2.59717C2.83126 4.0835 3.02186 4.08634 3.1875 4.04199C3.60449 3.93026 3.93026 3.60449 4.04199 3.1875C4.08633 3.02186 4.0835 2.83126 4.0835 2.59717V2.0415C4.08358 1.33033 4.65826 0.753418 5.36865 0.75C5.40065 0.749997 5.43304 0.75 5.46582 0.75C5.89379 0.75 6.1979 0.750263 6.4375 0.765137C6.67407 0.779829 6.823 0.80783 6.94287 0.852539C7.38447 1.01725 7.73275 1.36553 7.89746 1.80713C7.94217 1.927 7.97017 2.07593 7.98486 2.3125C7.99974 2.5521 8 2.85621 8 3.28418V3.875C8 4.08211 8.16789 4.25 8.375 4.25C8.58211 4.25 8.75 4.08211 8.75 3.875L8.75 3.28418C8.75 2.86552 8.75005 2.53434 8.7334 2.26611C8.71656 1.99494 8.68148 1.76311 8.6001 1.54492C8.35936 0.899602 7.8504 0.39064 7.20508 0.149902C6.98689 0.0685229 6.75506 0.0334376 6.48389 0.0166016C6.21566 -4.95166e-05 5.88448 4.4739e-08 5.46582 1.49366e-08ZM3.77393 0.775391C3.49836 1.1234 3.33353 1.56312 3.3335 2.0415V2.59717C3.3335 2.87961 3.33026 2.94739 3.31787 2.99365C3.27549 3.15182 3.15182 3.27549 2.99365 3.31787C2.94739 3.33026 2.87961 3.3335 2.59717 3.3335H2.0415C1.56337 3.33353 1.12381 3.49813 0.775879 3.77344C0.776372 3.76511 0.776344 3.75678 0.776856 3.74854C0.803368 3.32146 0.855261 3.02939 0.947266 2.78271C1.26403 1.93367 1.93367 1.26403 2.78271 0.947266C3.02939 0.855261 3.32146 0.803368 3.74854 0.776855C3.75695 0.776333 3.76542 0.775893 3.77393 0.775391Z" fill="#94A7BF"/>
  <path d="M7.64941 5.00098C7.51462 5.0102 7.39672 5.09075 7.33838 5.20947L7.31738 5.2627L6.50488 7.84717L6.11816 7.02686C6.04743 6.87682 5.98294 6.73901 5.91748 6.62988C5.84806 6.51417 5.7612 6.40103 5.62988 6.31494C5.49715 6.22795 5.35876 6.1944 5.22461 6.17969C5.10022 6.16606 4.95208 6.1665 4.79492 6.1665H4.375C4.16795 6.1665 4.00009 6.33447 4 6.5415C4.00006 6.74856 4.16793 6.9165 4.375 6.9165H4.79492C4.96847 6.9165 5.06887 6.91716 5.14307 6.92529C5.20747 6.93236 5.21875 6.94238 5.21875 6.94238C5.22083 6.9437 5.23735 6.95384 5.27441 7.01563C5.31611 7.08514 5.3628 7.18305 5.43994 7.34668L6.23584 9.03467C6.30171 9.1743 6.44655 9.25951 6.60059 9.24902C6.75458 9.23849 6.8863 9.13455 6.93262 8.9873L7.74463 6.40234L8.13184 7.22314C8.20257 7.37318 8.26706 7.51099 8.33252 7.62012C8.40194 7.73582 8.4888 7.84898 8.62012 7.93506C8.75284 8.02203 8.89126 8.0556 9.02539 8.07031C9.14977 8.08394 9.29793 8.0835 9.45508 8.0835H9.875C10.082 8.0835 10.2499 7.91548 10.25 7.7085C10.25 7.50139 10.0821 7.3335 9.875 7.3335H9.45508C9.28154 7.3335 9.18113 7.33284 9.10693 7.32471C9.04462 7.31787 9.03214 7.30832 9.03125 7.30762C9.0294 7.30643 9.01292 7.2966 8.97559 7.23438C8.93389 7.16487 8.8872 7.06696 8.81006 6.90332L8.01416 5.21533C7.94831 5.07564 7.80349 4.99048 7.64941 5.00098Z" fill="#94A7BF"/>
</svg>