<svg xmlns="http://www.w3.org/2000/svg" width="11" height="11" viewBox="0 0 11 11" fill="none">
  <path d="M8.625 6.74994C8.41789 6.74994 8.25 6.91784 8.25 7.12494C8.25 7.58509 8.09806 7.8478 7.91455 8.00238C7.71997 8.16627 7.44014 8.24994 7.125 8.24994C6.91789 8.24994 6.75 8.41784 6.75 8.62494C6.75 8.83205 6.91789 8.99994 7.125 8.99994C7.55982 8.99994 8.03004 8.88604 8.39795 8.57611C8.77694 8.25684 9 7.76937 9 7.12494C9 6.91784 8.83211 6.74994 8.625 6.74994Z" fill="#94A7BF"/>
  <path fill-rule="evenodd" clip-rule="evenodd" d="M8.12793 2.02045C7.42009 1.32672 6.32991 1.32672 5.62207 2.02045C5.09304 2.53901 4.44339 3.2548 3.92432 4.0766C3.40783 4.89438 3.00002 5.84939 3 6.83832C3.00011 8.7529 4.45913 10.7499 6.875 10.7499C9.29087 10.7499 10.7499 8.7529 10.75 6.83832C10.75 5.84939 10.3422 4.89438 9.82568 4.0766C9.30661 3.2548 8.65697 2.53901 8.12793 2.02045ZM6.14697 2.5561C6.5632 2.14815 7.1868 2.14815 7.60303 2.5561C8.10887 3.05192 8.71455 3.72203 9.19141 4.47699C9.67075 5.23592 9.99998 6.04914 10 6.83832C9.99989 8.41063 8.8082 9.99994 6.875 9.99994C4.9418 9.99994 3.75011 8.41063 3.75 6.83832C3.75002 6.04914 4.07925 5.23592 4.55859 4.47699C5.03545 3.72204 5.64113 3.05192 6.14697 2.5561Z" fill="#94A7BF"/>
  <path d="M4.17188 0.453556C3.58308 -0.151185 2.66692 -0.151186 2.07812 0.453556C1.66015 0.882973 1.14616 1.47665 0.734863 2.15912C0.325681 2.83814 0 3.63481 0 4.46235C5.47857e-05 5.72765 0.72219 6.96837 1.98584 7.47309C2.17812 7.54987 2.39628 7.45633 2.47314 7.2641C2.54994 7.07181 2.45641 6.85366 2.26416 6.7768C1.31592 6.3981 0.750055 5.45511 0.75 4.46235C0.75 3.82545 1.00363 3.16584 1.37695 2.54633C1.7481 1.93044 2.22015 1.38291 2.61523 0.976994C2.90963 0.674542 3.34037 0.674542 3.63477 0.976994C3.86032 1.20878 4.04026 1.47943 4.32764 1.85346C4.45382 2.01762 4.68931 2.04845 4.85352 1.92231C5.01771 1.79613 5.04851 1.56065 4.92236 1.39643C4.67468 1.07406 4.43821 0.727186 4.17188 0.453556Z" fill="#94A7BF"/>
</svg>