<svg width="18" height="18" viewBox="0 0 18 18" fill="none" xmlns="http://www.w3.org/2000/svg">
<path fill-rule="evenodd" clip-rule="evenodd" d="M9.9847 0.0417481C8.75807 0.0417479 7.8096 0.0415174 7.04525 0.0889486C6.27602 0.136701 5.65153 0.234287 5.07666 0.448649C3.32154 1.10328 1.93653 2.48828 1.2819 4.24341C1.06754 4.81828 0.969953 5.44277 0.922201 6.212C0.877092 6.93891 0.875902 7.83236 0.875814 8.97323C0.875745 8.98217 0.875 8.99112 0.875 9.00008C0.875 9.00307 0.875772 9.00605 0.875814 9.00903C0.875812 9.05609 0.875 9.10355 0.875 9.15145L0.875 11.273C0.875 12.5376 0.87428 13.5377 0.962077 14.3305C1.05124 15.1354 1.23787 15.8025 1.66439 16.3723C1.8906 16.6745 2.15892 16.9428 2.4611 17.169C3.03087 17.5955 3.69805 17.7822 4.50293 17.8713C5.29574 17.9591 6.29584 17.9584 7.56038 17.9584L11.0833 17.9584C11.4285 17.9584 11.7083 17.6786 11.7083 17.3334C11.7083 16.9882 11.4285 16.7084 11.0833 16.7084L7.56038 16.7084C6.26734 16.7084 5.34851 16.7079 4.64046 16.6295C3.94486 16.5524 3.52885 16.4062 3.21061 16.1681C3.00386 16.0133 2.82014 15.8296 2.66536 15.6228C2.42718 15.3046 2.281 14.8886 2.20394 14.193C2.12553 13.4849 2.125 12.5661 2.125 11.273L2.125 9.15145C2.125 9.09654 2.12581 9.04229 2.12581 8.98869C2.13195 7.80508 3.09249 6.84772 4.27751 6.84758H5.20361C5.59378 6.84758 5.91144 6.85231 6.1875 6.7784C6.88248 6.59218 7.42544 6.04922 7.61165 5.35425C7.68556 5.07818 7.68083 4.76052 7.68083 4.37036V3.44425C7.68097 2.25896 8.63877 1.29744 9.82275 1.29175C9.87609 1.29174 9.93007 1.29175 9.9847 1.29175C10.698 1.29175 11.2048 1.29219 11.6042 1.31698C11.9985 1.34146 12.2467 1.38813 12.4465 1.46265C13.1824 1.73717 13.7629 2.31764 14.0374 3.05363C14.112 3.25341 14.1586 3.50163 14.1831 3.89591C14.2079 4.29525 14.2083 4.80211 14.2083 5.51538V6.50008C14.2083 6.84526 14.4882 7.12508 14.8333 7.12508C15.1785 7.12508 15.4583 6.84526 15.4583 6.50008V5.51538C15.4583 4.81762 15.4584 4.26565 15.4307 3.8186C15.4026 3.36665 15.3441 2.98026 15.2085 2.61662C14.8073 1.54108 13.959 0.692815 12.8835 0.291585C12.5198 0.155953 12.1334 0.0974773 11.6815 0.0694173C11.2344 0.0416655 10.6825 0.0417481 9.9847 0.0417481ZM7.16488 1.33407C6.70561 1.91408 6.43089 2.64695 6.43083 3.44425V4.37036C6.43083 4.8411 6.42544 4.95406 6.40479 5.03117C6.33415 5.29478 6.12803 5.5009 5.86442 5.57153C5.78731 5.59219 5.67435 5.59758 5.20361 5.59758H4.27751C3.48061 5.59764 2.74801 5.87197 2.16813 6.33081C2.16895 6.31692 2.16891 6.30306 2.16976 6.28931C2.21395 5.57751 2.30043 5.09073 2.45378 4.67961C2.98171 3.26453 4.09779 2.14846 5.51286 1.62052C5.92398 1.46718 6.41076 1.38069 7.12256 1.33651C7.13659 1.33564 7.1507 1.3349 7.16488 1.33407Z" fill="url(#paint0_linear_2215_3887)"/>
<path d="M13.624 8.37671C13.3994 8.39208 13.2029 8.52633 13.1056 8.7242L13.0706 8.81291L11.7165 13.1204L11.0719 11.7532C10.9541 11.5031 10.8466 11.2734 10.7375 11.0916C10.6218 10.8987 10.477 10.7101 10.2581 10.5667C10.0369 10.4217 9.80626 10.3657 9.58268 10.3412C9.37537 10.3185 9.12847 10.3193 8.86654 10.3193H8.16667C7.82158 10.3193 7.54181 10.5992 7.54167 10.9443C7.54176 11.2894 7.82155 11.5693 8.16667 11.5693H8.86654C9.15578 11.5693 9.32312 11.5703 9.44678 11.5839C9.55411 11.5957 9.57292 11.6124 9.57292 11.6124C9.57638 11.6146 9.60391 11.6315 9.66569 11.7345C9.73518 11.8503 9.813 12.0135 9.94157 12.2862L11.2681 15.0995C11.3779 15.3323 11.6192 15.4743 11.876 15.4568C12.1326 15.4392 12.3522 15.266 12.4294 15.0206L13.7827 10.7123L14.4281 12.0803C14.5459 12.3304 14.6534 12.5601 14.7625 12.7419C14.8782 12.9348 15.023 13.1234 15.2419 13.2668C15.4631 13.4118 15.6938 13.4678 15.9173 13.4923C16.1246 13.515 16.3715 13.5142 16.6335 13.5142H17.3333C17.6784 13.5142 17.9581 13.2342 17.9583 12.8892C17.9583 12.5441 17.6785 12.2642 17.3333 12.2642H16.6335C16.3442 12.2642 16.1769 12.2632 16.0532 12.2496C15.9494 12.2382 15.9286 12.2223 15.9271 12.2211C15.924 12.2191 15.8965 12.2027 15.8343 12.099C15.7648 11.9832 15.687 11.82 15.5584 11.5473L14.2319 8.73397C14.1222 8.50116 13.8808 8.35922 13.624 8.37671Z" fill="url(#paint1_linear_2215_3887)"/>
<defs>
<linearGradient id="paint0_linear_2215_3887" x1="0.875" y1="0.041748" x2="19.8148" y2="2.28516" gradientUnits="userSpaceOnUse">
<stop stop-color="#F79548"/>
<stop offset="1" stop-color="#E94262"/>
</linearGradient>
<linearGradient id="paint1_linear_2215_3887" x1="0.875" y1="0.041748" x2="19.8148" y2="2.28516" gradientUnits="userSpaceOnUse">
<stop stop-color="#F79548"/>
<stop offset="1" stop-color="#E94262"/>
</linearGradient>
</defs>
</svg>
