<svg xmlns="http://www.w3.org/2000/svg" width="19" height="19" viewBox="0 0 19 19" fill="none">
  <path fill-rule="evenodd" clip-rule="evenodd" d="M9.16667 18.3333C14.2096 18.3333 18.3333 14.2096 18.3333 9.16667C18.3333 4.12372 14.2096 4.4355e-07 9.16667 0C4.12372 0 4.4355e-07 4.12372 0 9.16667C0 14.2096 4.12372 18.3333 9.16667 18.3333ZM9.16667 17.0641C4.82448 17.0641 1.26919 13.5089 1.26919 9.16667C1.26919 7.17469 2.01905 5.34976 3.24821 3.95626C3.26714 4.0075 3.28752 4.05829 3.30485 4.11026C3.71116 5.32921 4.47385 6.3875 5.48035 7.15667C5.48881 7.36211 5.5085 7.56615 5.53788 7.76826C4.58188 7.5523 3.5485 7.87952 2.85435 8.57367L2.81541 8.61261C2.15323 9.27516 2.15302 10.3496 2.81541 11.012C3.1425 11.339 3.57009 11.5045 3.99874 11.5086C3.99195 11.6456 3.98977 11.7895 3.99697 11.9378C4.03763 12.7722 4.32885 13.7882 5.18739 14.647C6.67933 16.139 9.09866 16.1387 10.5907 14.647L11.1165 14.1213C12.138 13.0997 12.7084 11.7974 12.8309 10.4633C13.3002 10.2772 13.7408 9.99487 14.1204 9.6154C15.6125 8.12334 15.6125 5.7041 14.1204 4.21205C12.6284 2.72052 10.2099 2.72051 8.71794 4.21205C8.42843 4.50162 8.19585 4.8265 8.01873 5.17235C7.80112 5.04835 7.55346 4.96899 7.28678 4.95196C6.65431 4.91254 6.0821 5.22552 5.75915 5.72109C5.1953 5.16313 4.76405 4.47585 4.50854 3.70933C4.42941 3.47194 4.33489 3.24153 4.22975 3.0172C5.58475 1.92582 7.30262 1.26919 9.16667 1.26919C13.5089 1.26919 17.0641 4.82448 17.0641 9.16667C17.0641 13.5089 13.5089 17.0641 9.16667 17.0641ZM9.69417 13.7504C8.69761 14.7466 7.08129 14.7468 6.08485 13.7504C5.49547 13.161 5.29331 12.4689 5.26439 11.8767C5.24991 11.5791 5.28064 11.3131 5.32458 11.112C5.36176 10.9421 5.39927 10.8572 5.40689 10.8377L5.40246 10.8403L5.69011 10.4589L5.40335 10.0774L5.39273 10.0624L4.95373 9.47821L4.31737 10.1146C4.15031 10.2812 3.87889 10.2815 3.71198 10.1146C3.54546 9.9477 3.54558 9.67703 3.71198 9.51007L3.75181 9.47113C4.31366 8.90928 5.17464 8.81504 5.7441 9.22508L5.8804 9.33483C5.98192 9.42653 6.06594 9.52952 6.13619 9.63841C6.17334 9.71056 6.21201 9.78195 6.25213 9.8526C6.48792 10.3976 6.38328 11.0525 5.93882 11.4971L6.83628 12.3945C7.75634 11.4744 7.88915 10.0658 7.23898 9.0047C6.87421 8.27398 6.70091 7.45202 6.75308 6.61855L6.76724 6.5327C6.81947 6.34069 7.00072 6.20688 7.20624 6.21938C7.44368 6.23464 7.62177 6.43621 7.60717 6.67165C7.54084 7.72811 7.91063 8.80808 8.71794 9.6154C9.09264 9.99008 9.52721 10.272 9.99155 10.4589L10.2279 9.8703L10.4651 9.28172C10.1564 9.1575 9.86614 8.97043 9.61451 8.71882C8.61813 7.72241 8.61838 6.10607 9.61451 5.10951C10.611 4.11297 12.2273 4.11299 13.2238 5.10951C14.2203 6.10606 14.2203 7.7223 13.2238 8.71882C12.8907 9.05181 12.4885 9.27218 12.0635 9.38262L11.5962 9.50388L11.5882 9.98713C11.588 10.0037 11.5877 10.0201 11.5873 10.0358L11.5776 10.2535C11.5002 11.3365 11.0477 12.3969 10.2199 13.2247L9.69417 13.7504Z" fill="url(#paint0_linear_2215_4776)"/>
  <defs>
<linearGradient id="paint0_linear_2215_4776" x1="0.261719" y1="0.833496" x2="20.5593" y2="3.35501" gradientUnits="userSpaceOnUse">
<stop stop-color="#F79548"/>
<stop offset="1" stop-color="#E94262"/>
</linearGradient>
</defs>
</svg>
