<svg xmlns="http://www.w3.org/2000/svg" width="10" height="11" viewBox="0 0 10 11" fill="none">
  <path fill-rule="evenodd" clip-rule="evenodd" d="M9.29619 5.68709C8.36418 4.07293 6.30004 3.51978 4.68584 4.45174C3.07166 5.3837 2.51861 7.44788 3.45049 9.06209C4.38246 10.6763 6.44661 11.2294 8.06084 10.2974C9.67508 9.36546 10.2282 7.30133 9.29619 5.68709ZM8.81035 6.39998C9.2891 7.59273 8.83123 8.98673 7.68584 9.64803C6.54054 10.3092 5.10444 10.0089 4.31084 8.99812L8.81035 6.39998ZM5.06084 5.10115C6.20589 4.44009 7.64164 4.7403 8.43535 5.75057L3.93584 8.34871C3.45756 7.15612 3.91569 5.76232 5.06084 5.10115Z" fill="url(#paint1_linear_2215_4790)"/>
  <path d="M9.43877 1.19295C8.7972 0.0557462 7.36838 -0.341076 6.24785 0.320878L1.16289 3.32576C0.047716 3.98481 -0.327903 5.43656 0.310839 6.56893C0.696415 7.25239 1.36628 7.66872 2.08379 7.74764C2.28958 7.77019 2.47471 7.62189 2.49736 7.41609C2.51988 7.21037 2.37152 7.02524 2.16582 7.00252C1.68292 6.94942 1.22848 6.66883 0.96416 6.20027C0.522137 5.41658 0.787839 4.4185 1.54473 3.97127L3.76396 2.65926L4.30205 3.56648C4.40768 3.7446 4.63807 3.80344 4.81621 3.69783C4.99417 3.59215 5.05313 3.36174 4.94756 3.18367L4.40996 2.27742L6.62969 0.966386C7.38119 0.522689 8.34614 0.782655 8.78545 1.56111C9.13958 2.18886 9.03991 2.95832 8.59258 3.46883C8.45608 3.62457 8.47199 3.86161 8.62773 3.99812C8.78348 4.1346 9.02053 4.11919 9.15703 3.96346C9.80938 3.21901 9.95285 2.10439 9.43877 1.19295Z" fill="url(#paint1_linear_2215_4790)"/>
  <defs>
<linearGradient id="paint0_linear_2215_4790" x1="0.446289" y1="0.0415039" x2="18.4855" y2="2.07392" gradientUnits="userSpaceOnUse">
<stop stop-color="#F79548"/>
<stop offset="1" stop-color="#E94262"/>
</linearGradient>
<linearGradient id="paint1_linear_2215_4790" x1="0.446289" y1="0.0415039" x2="18.4855" y2="2.07392" gradientUnits="userSpaceOnUse">
<stop stop-color="#F79548"/>
<stop offset="1" stop-color="#E94262"/>
</linearGradient>
</defs>
</svg>
