<svg width="19" height="18" viewBox="0 0 19 18" fill="none" xmlns="http://www.w3.org/2000/svg">
<path d="M14.5596 11.2917C14.2144 11.2917 13.9346 11.5715 13.9346 11.9167C13.9346 12.6836 13.6813 13.1214 13.3755 13.3791C13.0512 13.6522 12.5848 13.7917 12.0596 13.7917C11.7144 13.7917 11.4346 14.0715 11.4346 14.4167C11.4346 14.7618 11.7144 15.0417 12.0596 15.0417C12.7843 15.0417 13.568 14.8518 14.1812 14.3353C14.8128 13.8032 15.1846 12.9907 15.1846 11.9167C15.1846 11.5715 14.9047 11.2917 14.5596 11.2917Z" fill="url(#paint0_linear_2215_4780)"/>
<path fill-rule="evenodd" clip-rule="evenodd" d="M13.7311 3.40917C12.5514 2.25294 10.7344 2.25294 9.55469 3.40917C8.67296 4.27343 7.59023 5.46641 6.7251 6.83609C5.86428 8.19905 5.1846 9.79073 5.18457 11.439C5.18475 14.6299 7.61645 17.9583 11.6429 17.9583C15.6694 17.9583 18.1011 14.6299 18.1012 11.439C18.1012 9.79073 17.4215 8.19905 16.5607 6.83609C15.6956 5.46641 14.6128 4.27343 13.7311 3.40917ZM10.4295 4.30191C11.1232 3.62199 12.1626 3.62199 12.8563 4.30191C13.6994 5.12829 14.7088 6.24514 15.5036 7.5034C16.3025 8.76828 16.8512 10.1237 16.8512 11.439C16.8511 14.0595 14.8649 16.7083 11.6429 16.7083C8.42091 16.7083 6.43475 14.0595 6.43457 11.439C6.4346 10.1237 6.98332 8.76828 7.78223 7.5034C8.57699 6.24514 9.58645 5.12829 10.4295 4.30191Z" fill="url(#paint1_linear_2215_4780)"/>
<path d="M7.1377 0.797675C6.15638 -0.210227 4.62943 -0.210228 3.64811 0.797675C2.95149 1.51337 2.09484 2.50284 1.40934 3.64029C0.727373 4.77198 0.18457 6.09977 0.18457 7.47899C0.184662 9.58784 1.38822 11.6557 3.4943 12.4969C3.81477 12.6249 4.17837 12.469 4.30648 12.1486C4.43447 11.8281 4.27859 11.4645 3.95817 11.3364C2.37777 10.7052 1.43466 9.13361 1.43457 7.47899C1.43457 6.4175 1.85729 5.31815 2.47949 4.28563C3.09807 3.25915 3.88482 2.3466 4.54329 1.67007C5.03395 1.16598 5.75186 1.16598 6.24251 1.67007C6.61845 2.05637 6.91834 2.50747 7.3973 3.13085C7.60761 3.40445 8.00008 3.45583 8.27376 3.24559C8.54742 3.0353 8.59875 2.64283 8.38851 2.36913C7.97571 1.83185 7.58158 1.25373 7.1377 0.797675Z" fill="url(#paint2_linear_2215_4780)"/>
<defs>
<linearGradient id="paint0_linear_2215_4780" x1="0.18457" y1="0.041748" x2="20.0209" y2="2.50597" gradientUnits="userSpaceOnUse">
<stop stop-color="#F79548"/>
<stop offset="1" stop-color="#E94262"/>
</linearGradient>
<linearGradient id="paint1_linear_2215_4780" x1="0.18457" y1="0.041748" x2="20.0209" y2="2.50597" gradientUnits="userSpaceOnUse">
<stop stop-color="#F79548"/>
<stop offset="1" stop-color="#E94262"/>
</linearGradient>
<linearGradient id="paint2_linear_2215_4780" x1="0.18457" y1="0.041748" x2="20.0209" y2="2.50597" gradientUnits="userSpaceOnUse">
<stop stop-color="#F79548"/>
<stop offset="1" stop-color="#E94262"/>
</linearGradient>
</defs>
</svg>
