<svg width="16" height="18" viewBox="0 0 16 18" fill="none" xmlns="http://www.w3.org/2000/svg">
<path fill-rule="evenodd" clip-rule="evenodd" d="M6.63072 2.12508C7.73773 2.12516 8.6286 3.02763 8.6286 4.13192V7.3269L10.4393 7.61825C11.1873 7.73119 11.7798 7.82078 12.2492 7.92342C12.7219 8.02682 13.1205 8.15364 13.4715 8.36532C14.4816 8.97448 15.2911 9.94936 15.2912 11.391C15.2912 12.3251 15.0479 12.979 14.5767 14.4021C14.2821 15.2917 14.1006 15.8585 13.7889 16.3153C13.2955 17.0385 12.5669 17.5673 11.7276 17.8103C11.197 17.9639 10.6037 17.9584 9.67271 17.9584H8.84996C7.61177 17.9584 6.81715 17.9691 6.10094 17.672C5.9774 17.6207 5.8562 17.5628 5.73879 17.4986C5.05879 17.1268 4.56659 16.4999 3.78567 15.5325L1.1522 12.2691C0.563669 11.54 0.559511 10.4978 1.14244 9.76424C1.84486 8.88052 3.13801 8.75705 3.99319 9.49487L4.63365 10.0474V4.13192C4.63365 3.02768 5.52378 2.12524 6.63072 2.12508ZM6.63072 3.37508C6.22185 3.37524 5.88365 3.7103 5.88365 4.13192V11.4122C5.88365 11.6565 5.74103 11.8783 5.51907 11.9802C5.29685 12.082 5.0352 12.0446 4.85012 11.885L3.17694 10.4413C2.86059 10.1684 2.38298 10.2132 2.12144 10.5422C1.90258 10.8177 1.90384 11.2101 2.1247 11.4838L4.75898 14.7472C5.60506 15.7953 5.92698 16.1766 6.33857 16.4016C6.41689 16.4444 6.49789 16.4838 6.58027 16.518C7.01254 16.6972 7.50851 16.7084 8.84996 16.7084H9.67271C10.6826 16.7084 11.061 16.7023 11.3801 16.6099C11.9393 16.448 12.4266 16.095 12.757 15.6106C12.9457 15.3338 13.0711 14.9726 13.3902 14.009C13.8861 12.5113 14.0412 12.0774 14.0412 11.391C14.0411 10.5065 13.5757 9.8875 12.8262 9.43547C12.6446 9.32598 12.398 9.2352 11.9815 9.14412C11.7715 9.09821 11.5305 9.05471 11.2466 9.00822L10.2538 8.85441L10.2481 8.8536L7.90432 8.47681L7.79446 8.44832C7.54917 8.36138 7.37878 8.12815 7.3786 7.85995V4.13192C7.3786 3.71025 7.03966 3.37516 6.63072 3.37508Z" fill="url(#paint0_linear_2215_4810)"/>
<path d="M6.59654 0.041748C8.78267 0.041748 10.5549 1.81395 10.5549 4.00008C10.5549 4.34526 10.2751 4.62508 9.92987 4.62508C9.5847 4.62508 9.30487 4.34526 9.30487 4.00008C9.30487 2.50431 8.09231 1.29175 6.59654 1.29175C5.10077 1.29175 3.88821 2.50431 3.88821 4.00008C3.88821 4.34526 3.60839 4.62508 3.26321 4.62508C2.91803 4.62508 2.63821 4.34526 2.63821 4.00008C2.63821 1.81395 4.41041 0.041748 6.59654 0.041748Z" fill="url(#paint1_linear_2215_4810)"/>
<defs>
<linearGradient id="paint0_linear_2215_4810" x1="0.708008" y1="0.041748" x2="16.9369" y2="1.68272" gradientUnits="userSpaceOnUse">
<stop stop-color="#F79548"/>
<stop offset="1" stop-color="#E94262"/>
</linearGradient>
<linearGradient id="paint1_linear_2215_4810" x1="0.708008" y1="0.041748" x2="16.9369" y2="1.68272" gradientUnits="userSpaceOnUse">
<stop stop-color="#F79548"/>
<stop offset="1" stop-color="#E94262"/>
</linearGradient>
</defs>
</svg>
