<svg width="15" height="18" viewBox="0 0 15 18" fill="none" xmlns="http://www.w3.org/2000/svg">
<path d="M0.618164 10.0417C0.273107 10.0419 -0.00683594 10.3217 -0.00683594 10.6667C-0.00683594 11.0118 0.273107 11.2916 0.618164 11.2917H2.61361C2.76493 11.2917 2.91365 11.3264 3.04736 11.391L4.74902 12.2138C5.05362 12.3612 5.38934 12.4375 5.72803 12.4376H6.59635C6.95171 12.4376 7.24387 12.6279 7.39063 12.8933L5.7793 13.3393C5.54512 13.404 5.29388 13.3803 5.0778 13.2758L3.25895 12.3961C2.94828 12.2459 2.5743 12.376 2.42399 12.6866C2.27388 12.9972 2.40404 13.3712 2.71452 13.5216L4.53337 14.4013C5.0238 14.6386 5.58678 14.6889 6.11214 14.5437L8.22966 13.9586C8.52139 13.8779 8.74316 13.6107 8.74316 13.2847C8.74316 13.2605 8.74074 13.2364 8.73991 13.2123L12.1294 12.1715L12.131 12.1707C12.5454 12.0415 13.0036 12.1909 13.276 12.5678C13.3726 12.7016 13.3221 12.8855 13.2044 12.9535L6.94141 16.5676C6.69058 16.7123 6.3977 16.7462 6.12516 16.6653L0.795573 15.0841C0.464963 14.9864 0.117461 15.1751 0.0192057 15.5056C-0.0789605 15.8364 0.110013 16.1845 0.440755 16.2828L5.76953 17.864C6.37324 18.0432 7.02059 17.9649 7.56641 17.65L13.8294 14.0367C14.6069 13.588 14.807 12.5533 14.2892 11.8362C13.7119 11.037 12.7034 10.685 11.7616 10.9776L8.31836 12.0347C7.92371 11.5181 7.29389 11.1876 6.59635 11.1876H5.72803C5.57665 11.1875 5.42719 11.1538 5.29346 11.0891L3.5918 10.2655C3.28725 10.1183 2.9522 10.0417 2.61361 10.0417H0.618164Z" fill="url(#paint0_linear_2215_4796)"/>
<path fill-rule="evenodd" clip-rule="evenodd" d="M8.9515 0.041748C7.22573 0.0418906 5.8265 1.44095 5.8265 3.16675L5.8265 6.50008C5.8265 8.22588 7.22573 9.62494 8.9515 9.62508C10.6774 9.62508 12.0765 8.22597 12.0765 6.50008L12.0765 3.16675C12.0765 1.44086 10.6774 0.041748 8.9515 0.041748ZM10.8265 6.50008C10.8265 7.53561 9.98703 8.37508 8.9515 8.37508C7.91609 8.37494 7.0765 7.53553 7.0765 6.50008L7.0765 5.45841L10.8265 5.45841V6.50008ZM8.9515 1.29175C9.98703 1.29175 10.8265 2.13121 10.8265 3.16675L10.8265 4.20841L7.0765 4.20841V3.16675C7.0765 2.1313 7.91609 1.29189 8.9515 1.29175Z" fill="url(#paint1_linear_2215_4796)"/>
<defs>
<linearGradient id="paint0_linear_2215_4796" x1="-0.00683594" y1="0.041748" x2="16.222" y2="1.68271" gradientUnits="userSpaceOnUse">
<stop stop-color="#F79548"/>
<stop offset="1" stop-color="#E94262"/>
</linearGradient>
<linearGradient id="paint1_linear_2215_4796" x1="-0.00683594" y1="0.041748" x2="16.222" y2="1.68271" gradientUnits="userSpaceOnUse">
<stop stop-color="#F79548"/>
<stop offset="1" stop-color="#E94262"/>
</linearGradient>
</defs>
</svg>
