<svg width="19" height="18" viewBox="0 0 19 18" fill="none" xmlns="http://www.w3.org/2000/svg">
<path d="M11.4604 9.68355C12.4936 10.7167 14.1689 10.7165 15.2022 9.68355C16.024 8.86177 16.1918 7.63496 15.7084 6.64807C15.6679 6.56548 15.6525 6.48194 15.6555 6.42183C15.6582 6.36867 15.6729 6.35471 15.6742 6.35347L18.6324 3.3953C18.8764 3.15126 18.8764 2.7556 18.6324 2.51151C18.3883 2.26743 17.9927 2.26743 17.7486 2.51151L14.7904 5.46968C14.265 5.99525 14.3616 6.74153 14.5854 7.1982C14.8409 7.71999 14.7509 8.36725 14.3184 8.79976C13.7732 9.34453 12.8892 9.34472 12.3441 8.79976C12.122 8.57765 11.9921 8.29884 11.9511 8.00956C12.303 7.88137 12.6345 7.67851 12.9162 7.39677C13.1601 7.15276 13.1601 6.75704 12.9162 6.51298C12.6722 6.26893 12.2765 6.269 12.0325 6.51298C11.8098 6.73562 11.5318 6.8666 11.2431 6.90767C10.8215 6.9675 10.38 6.83559 10.0574 6.51298C9.51239 5.9679 9.51258 5.08389 10.0574 4.53869C10.4899 4.10617 11.1371 4.01618 11.6589 4.27176C12.1156 4.49552 12.8619 4.59217 13.3874 4.06669L16.3456 1.10852C16.5897 0.864442 16.5897 0.468806 16.3456 0.224727C16.1015 -0.0192534 15.7059 -0.0193181 15.4618 0.224727L12.5036 3.1829C12.5024 3.18424 12.4884 3.19889 12.4353 3.20162C12.3752 3.20461 12.2916 3.18919 12.2091 3.14872C11.2221 2.6653 9.99535 2.83312 9.17357 3.6549C8.14064 4.68826 8.14044 6.36353 9.17357 7.39677C9.60429 7.82748 10.1473 8.07697 10.7076 8.14872C10.7792 8.70928 11.0294 9.2526 11.4604 9.68355Z" fill="#94A7BF"/>
<path d="M6.52383 4.62495C6.86901 4.62495 7.14883 4.34513 7.14883 3.99996V2.33329C7.14883 1.98811 6.86901 1.70829 6.52383 1.70829C6.17865 1.70829 5.89883 1.98811 5.89883 2.33329V3.99996C5.89883 4.34513 6.17865 4.62495 6.52383 4.62495Z" fill="#94A7BF"/>
<path d="M4.85716 6.29162C5.20234 6.29162 5.48216 6.0118 5.48216 5.66662C5.48216 5.32144 5.20234 5.04162 4.85716 5.04162H3.1905C2.84532 5.04162 2.5655 5.32144 2.5655 5.66662C2.5655 6.0118 2.84532 6.29162 3.1905 6.29162H4.85716Z" fill="#94A7BF"/>
<path d="M3.36872 17.7752C3.61281 18.0192 4.00847 18.0192 4.25251 17.7752L7.21068 14.817C7.21192 14.8157 7.22588 14.801 7.27904 14.7983C7.33915 14.7953 7.42269 14.8107 7.50527 14.8512C8.49217 15.3346 9.71898 15.1668 10.5408 14.345C11.5737 13.3117 11.5739 11.6364 10.5408 10.6031C10.1098 10.1722 9.56649 9.92197 9.00593 9.85038C8.93418 9.29013 8.68469 8.74709 8.25397 8.31636C7.22074 7.28323 5.54547 7.28343 4.51211 8.31636C3.69033 9.13814 3.52251 10.3649 4.00593 11.3518C4.0464 11.4344 4.06182 11.518 4.05882 11.5781C4.0561 11.6312 4.04145 11.6452 4.04011 11.6464L1.08194 14.6046C0.83789 14.8487 0.837955 15.2443 1.08194 15.4884C1.32601 15.7325 1.72165 15.7325 1.96572 15.4884L4.92389 12.5302C5.44937 12.0047 5.35273 11.2584 5.12897 10.8017C4.87339 10.2799 4.96338 9.63267 5.3959 9.20015C5.9411 8.65538 6.8251 8.65518 7.37018 9.20015C7.59206 9.42203 7.72123 9.70058 7.76244 9.98954C7.41067 10.1177 7.07973 10.3215 6.79808 10.6031C6.55418 10.8472 6.55426 11.2429 6.79808 11.4869C7.04213 11.731 7.43779 11.7309 7.68187 11.4869C7.90455 11.2643 8.18251 11.1333 8.47126 11.0922C8.8928 11.0324 9.33435 11.1643 9.65697 11.4869C10.2019 12.032 10.2017 12.916 9.65697 13.4612C9.22445 13.8937 8.5772 13.9837 8.0554 13.7281C7.59874 13.5044 6.85246 13.4077 6.32689 13.9332L3.36872 16.8914C3.12464 17.1355 3.12464 17.5311 3.36872 17.7752Z" fill="#94A7BF"/>
<path d="M16.5238 12.9583C16.869 12.9583 17.1488 12.6785 17.1488 12.3333C17.1488 11.9881 16.869 11.7083 16.5238 11.7083H14.8572C14.512 11.7083 14.2322 11.9881 14.2322 12.3333C14.2322 12.6785 14.512 12.9583 14.8572 12.9583H16.5238Z" fill="#94A7BF"/>
<path d="M13.1905 16.2916C13.5357 16.2916 13.8155 16.0118 13.8155 15.6666V14C13.8155 13.6548 13.5357 13.375 13.1905 13.375C12.8453 13.375 12.5655 13.6548 12.5655 14V15.6666C12.5655 16.0118 12.8453 16.2916 13.1905 16.2916Z" fill="#94A7BF"/>
</svg>
