<svg width="16" height="16" viewBox="0 0 16 16" fill="none" xmlns="http://www.w3.org/2000/svg">
<g clip-path="url(#clip0_2147_1906)">
<path d="M3.66568 4.16651C3.94176 4.16651 4.16559 4.39043 4.16568 4.66651C4.1657 4.94265 3.94182 5.16649 3.66568 5.16651C3.14246 5.16655 2.75977 5.16311 2.45799 5.22315C2.18377 5.27776 2.05625 5.36971 1.97492 5.51286C1.84557 5.74061 1.79675 6.02464 1.85903 6.51612C1.92314 7.0217 2.09279 7.66905 2.3369 8.5949L3.01724 11.1756C3.26134 12.1014 3.43284 12.7477 3.62596 13.2179C3.81388 13.6754 3.99556 13.8942 4.21646 14.0239C4.43619 14.1528 4.71006 14.202 5.19041 14.1392C5.686 14.0743 6.32119 13.903 7.23273 13.6548L7.8675 13.4816C8.13385 13.4091 8.40877 13.5662 8.48143 13.8325C8.55397 14.0989 8.39688 14.3738 8.13052 14.4465L7.49575 14.6196C6.612 14.8603 5.89957 15.0549 5.32062 15.1307C4.72673 15.2084 4.1974 15.1726 3.70995 14.8866C3.22394 14.6013 2.93083 14.1564 2.70148 13.5982C2.47725 13.0522 2.28744 12.329 2.05044 11.4302L1.3701 8.84945C1.13314 7.95072 0.9419 7.22888 0.867498 6.64242C0.791383 6.04207 0.826238 5.5097 1.10513 5.01872C1.37695 4.54026 1.81282 4.33228 2.26268 4.24268C2.68516 4.15861 3.1892 4.16654 3.66568 4.16651Z" fill="url(#paint0_linear_2147_1906)"/>
<path d="M7.42154 7.07992C7.49276 6.81328 7.76679 6.65469 8.03351 6.72575L9.62466 7.14958C9.8912 7.2208 10.0497 7.49493 9.97883 7.76156C9.90766 8.0282 9.63354 8.18667 9.36685 8.11573L7.77635 7.6919C7.50952 7.62081 7.35044 7.34675 7.42154 7.07992Z" fill="url(#paint1_linear_2147_1906)"/>
<path d="M8.10383 4.54867C8.1751 4.28209 8.44911 4.12345 8.71581 4.1945L11.8974 5.04216C12.1641 5.11332 12.3232 5.38746 12.2523 5.65414C12.1812 5.92087 11.907 6.07919 11.6403 6.00831L8.45799 5.16065C8.19128 5.08948 8.03275 4.81544 8.10383 4.54867Z" fill="url(#paint2_linear_2147_1906)"/>
<path fill-rule="evenodd" clip-rule="evenodd" d="M7.05435 1.10661C7.54111 0.827286 8.06885 0.792277 8.66242 0.868333C9.2418 0.942624 9.95471 1.13355 10.8408 1.36964L11.4775 1.53891C12.3636 1.77499 13.077 1.96424 13.6162 2.18799C14.1685 2.41726 14.6086 2.71064 14.8903 3.19581C15.1721 3.68127 15.2077 4.20746 15.1312 4.79867C15.0564 5.3755 14.864 6.08557 14.6266 6.96664L13.9443 9.49789C13.7069 10.3788 13.5166 11.0889 13.2913 11.6255C13.0603 12.1757 12.7654 12.6133 12.2783 12.8931C11.7915 13.1725 11.2638 13.2074 10.6702 13.1314C10.0909 13.0571 9.37797 12.8661 8.49185 12.6301L7.85513 12.4608C6.96903 12.2247 6.25565 12.0354 5.71646 11.8117C5.16408 11.5824 4.7241 11.2891 4.44237 10.8039C4.16053 10.3184 4.12489 9.79231 4.20148 9.20101C4.27626 8.62417 4.46862 7.91411 4.70604 7.03305L5.38833 4.5018C5.62572 3.62083 5.81606 2.91079 6.04133 2.37419C6.27235 1.82397 6.56718 1.38629 7.05435 1.10661ZM8.53547 1.85987C8.05227 1.79796 7.77447 1.84646 7.55239 1.9738C7.33074 2.10105 7.15047 2.31501 6.9632 2.76091C6.77013 3.22083 6.59862 3.85377 6.35383 4.76221L5.67153 7.29346C5.42673 8.20193 5.2571 8.83503 5.19302 9.32927C5.13088 9.80884 5.17964 10.0826 5.30695 10.3019C5.43454 10.5217 5.64949 10.7011 6.09927 10.8879C6.56232 11.08 7.19946 11.2512 8.11294 11.4946L8.74901 11.6639C9.66247 11.9073 10.3001 12.076 10.7978 12.1398C11.2809 12.2016 11.5582 12.1533 11.7803 12.0259C12.0018 11.8986 12.1822 11.6847 12.3695 11.2388C12.5625 10.7788 12.734 10.1459 12.9788 9.23747L13.6611 6.70622C13.9059 5.79775 14.0756 5.16464 14.1396 4.67042C14.2017 4.19097 14.153 3.91707 14.0257 3.69776C13.8981 3.47806 13.683 3.29852 13.2334 3.11182C12.7704 2.91963 12.1332 2.74844 11.2197 2.50505L10.5836 2.33578C9.67042 2.09246 9.03313 1.9237 8.53547 1.85987Z" fill="url(#paint3_linear_2147_1906)"/>
</g>
<defs>
<linearGradient id="paint0_linear_2147_1906" x1="0.83252" y1="0.833435" x2="16.7019" y2="2.80495" gradientUnits="userSpaceOnUse">
<stop stop-color="#F79548"/>
<stop offset="1" stop-color="#E94262"/>
</linearGradient>
<linearGradient id="paint1_linear_2147_1906" x1="0.83252" y1="0.833435" x2="16.7019" y2="2.80495" gradientUnits="userSpaceOnUse">
<stop stop-color="#F79548"/>
<stop offset="1" stop-color="#E94262"/>
</linearGradient>
<linearGradient id="paint2_linear_2147_1906" x1="0.83252" y1="0.833435" x2="16.7019" y2="2.80495" gradientUnits="userSpaceOnUse">
<stop stop-color="#F79548"/>
<stop offset="1" stop-color="#E94262"/>
</linearGradient>
<linearGradient id="paint3_linear_2147_1906" x1="0.83252" y1="0.833435" x2="16.7019" y2="2.80495" gradientUnits="userSpaceOnUse">
<stop stop-color="#F79548"/>
<stop offset="1" stop-color="#E94262"/>
</linearGradient>
<clipPath id="clip0_2147_1906">
<rect width="16" height="16" fill="white"/>
</clipPath>
</defs>
</svg>
