<svg width="24" height="24" viewBox="0 0 24 24" fill="none" xmlns="http://www.w3.org/2000/svg">
<path d="M12.001 16C12.5533 16 13.001 16.4477 13.001 17C13.001 17.5523 12.5533 18 12.001 18H11.9922C11.4399 18 10.9922 17.5523 10.9922 17C10.9922 16.4477 11.4399 16 11.9922 16H12.001Z" fill="url(#paint0_linear_4767_17492)"/>
<path d="M12 6.25C13.5188 6.25 14.75 7.48122 14.75 9C14.75 9.54631 14.5895 10.0573 14.3135 10.4863C14.1406 10.755 13.9384 11.0115 13.752 11.2432C13.5577 11.4846 13.3828 11.6973 13.2236 11.916C12.9002 12.3606 12.75 12.6948 12.75 13V13.5C12.75 13.9142 12.4142 14.25 12 14.25C11.5858 14.25 11.25 13.9142 11.25 13.5V13C11.25 12.2008 11.6422 11.5397 12.0107 11.0332C12.1976 10.7763 12.4067 10.5241 12.584 10.3037C12.7692 10.0736 12.9268 9.8705 13.0527 9.6748C13.1776 9.48059 13.25 9.24986 13.25 9C13.25 8.30964 12.6904 7.75 12 7.75C11.3096 7.75 10.75 8.30964 10.75 9C10.75 9.41421 10.4142 9.75 10 9.75C9.58579 9.75 9.25 9.41421 9.25 9C9.25 7.48122 10.4812 6.25 12 6.25Z" fill="url(#paint1_linear_4767_17492)"/>
<path fill-rule="evenodd" clip-rule="evenodd" d="M12 1.25C17.9371 1.25 22.75 6.06294 22.75 12C22.75 17.9371 17.9371 22.75 12 22.75C6.06294 22.75 1.25 17.9371 1.25 12C1.25 6.06294 6.06294 1.25 12 1.25ZM12 2.75C6.89137 2.75 2.75 6.89137 2.75 12C2.75 17.1086 6.89137 21.25 12 21.25C17.1086 21.25 21.25 17.1086 21.25 12C21.25 6.89137 17.1086 2.75 12 2.75Z" fill="url(#paint2_linear_4767_17492)"/>
<defs>
<linearGradient id="paint0_linear_4767_17492" x1="1.25" y1="1.25" x2="25.0535" y2="4.20705" gradientUnits="userSpaceOnUse">
<stop stop-color="#F79548"/>
<stop offset="1" stop-color="#E94262"/>
</linearGradient>
<linearGradient id="paint1_linear_4767_17492" x1="1.25" y1="1.25" x2="25.0535" y2="4.20705" gradientUnits="userSpaceOnUse">
<stop stop-color="#F79548"/>
<stop offset="1" stop-color="#E94262"/>
</linearGradient>
<linearGradient id="paint2_linear_4767_17492" x1="1.25" y1="1.25" x2="25.0535" y2="4.20705" gradientUnits="userSpaceOnUse">
<stop stop-color="#F79548"/>
<stop offset="1" stop-color="#E94262"/>
</linearGradient>
</defs>
</svg>
