<svg width="16" height="16" viewBox="0 0 16 16" fill="none" xmlns="http://www.w3.org/2000/svg">
<path d="M8.00016 10.1668C8.27631 10.1668 8.50016 10.3907 8.50016 10.6668C8.50008 10.9429 8.27625 11.1668 8.00016 11.1668L5.3335 11.1668C5.05741 11.1668 4.83358 10.9429 4.8335 10.6668C4.8335 10.3907 5.05735 10.1668 5.3335 10.1668L8.00016 10.1668Z" fill="url(#paint0_linear_2147_1924)"/>
<path d="M10.6668 6.83347C10.943 6.83347 11.1668 7.05733 11.1668 7.33347C11.1667 7.60954 10.9429 7.83347 10.6668 7.83347L5.3335 7.83347C5.05741 7.83347 4.83358 7.60954 4.8335 7.33347C4.8335 7.05733 5.05735 6.83347 5.3335 6.83347L10.6668 6.83347Z" fill="url(#paint1_linear_2147_1924)"/>
<path fill-rule="evenodd" clip-rule="evenodd" d="M9.00016 0.833468C9.576 0.833468 10.0903 0.833041 10.5477 0.847139C10.6116 0.831354 10.6798 0.828539 10.7489 0.839978C10.7737 0.844117 10.7979 0.850684 10.8211 0.858207C11.1163 0.872201 11.3856 0.893882 11.6304 0.92852C12.326 1.02697 12.897 1.236 13.3459 1.70847C13.7912 2.17729 13.9857 2.76748 14.0776 3.48711C14.168 4.19496 14.1668 5.10135 14.1668 6.24558V9.75469C14.1668 10.8989 14.168 11.8053 14.0776 12.5132C13.9857 13.2328 13.7912 13.823 13.3459 14.2918C12.897 14.7642 12.326 14.9733 11.6304 15.0717C10.9518 15.1678 10.0852 15.1668 9.00016 15.1668H7.00016C5.91516 15.1668 5.04849 15.1678 4.36996 15.0717C3.67433 14.9733 3.10332 14.7642 2.65446 14.2918C2.2091 13.823 2.01464 13.2328 1.92269 12.5132C1.83228 11.8053 1.8335 10.8989 1.8335 9.75469L1.8335 6.24558C1.8335 5.10135 1.8323 4.19496 1.92269 3.48711C2.01463 2.76748 2.20912 2.17729 2.65446 1.70847C3.10332 1.236 3.6743 1.02697 4.36996 0.92852C4.61493 0.893856 4.88442 0.871549 5.17985 0.857556C5.20295 0.850097 5.22682 0.844103 5.25147 0.839978C5.3204 0.828518 5.38877 0.831461 5.45264 0.847139C5.90999 0.833041 6.42432 0.833468 7.00016 0.833468L9.00016 0.833468ZM11.0822 1.87579C11.0268 2.20701 10.9765 2.49729 10.9064 2.73256C10.8232 3.0118 10.6978 3.27309 10.4559 3.478C10.214 3.68278 9.93573 3.76416 9.64665 3.80026C9.37137 3.8346 9.03097 3.83347 8.63949 3.83347L7.36084 3.83347C6.96933 3.83347 6.62894 3.83463 6.35368 3.80026C6.0646 3.76413 5.78629 3.68287 5.54443 3.478C5.30257 3.27307 5.17707 3.01182 5.09391 2.73256C5.02386 2.49726 4.97357 2.20705 4.91813 1.87579C4.7724 1.88698 4.63677 1.9008 4.50993 1.91875C3.93495 2.00013 3.61425 2.15047 3.37972 2.39727C3.14179 2.64777 2.99379 2.99622 2.91488 3.61407C2.83447 4.24379 2.8335 5.0745 2.8335 6.24558L2.8335 9.75469C2.8335 10.9258 2.83445 11.7565 2.91488 12.3862C2.9938 13.004 3.14176 13.3525 3.37972 13.603C3.61424 13.8498 3.935 14.0001 4.50993 14.0815C5.10217 14.1653 5.88538 14.1668 7.00016 14.1668H9.00016C10.1149 14.1668 10.8982 14.1653 11.4904 14.0815C12.0653 14.0001 12.3861 13.8498 12.6206 13.603C12.8586 13.3525 13.0065 13.004 13.0854 12.3862C13.1659 11.7565 13.1668 10.9258 13.1668 9.75469V6.24558C13.1668 5.0745 13.1659 4.24379 13.0854 3.61407C13.0065 2.99622 12.8585 2.64777 12.6206 2.39727C12.3861 2.15046 12.0654 2.00013 11.4904 1.91875C11.3636 1.9008 11.2279 1.88698 11.0822 1.87579ZM7.00016 1.83347C6.60217 1.83347 6.24646 1.83462 5.9266 1.83868C5.97265 2.10761 6.00802 2.29884 6.05225 2.4474C6.10543 2.62593 6.1532 2.68299 6.19092 2.71498C6.22867 2.74693 6.29313 2.78431 6.47803 2.80743C6.67704 2.83225 6.94391 2.83347 7.36084 2.83347L8.63949 2.83347C9.05636 2.83347 9.32327 2.83221 9.5223 2.80743C9.707 2.78437 9.7716 2.7469 9.80941 2.71498C9.84713 2.68302 9.89486 2.62596 9.94808 2.4474C9.9923 2.29886 10.0277 2.10756 10.0737 1.83868C9.75387 1.83462 9.39815 1.83347 9.00016 1.83347L7.00016 1.83347Z" fill="url(#paint2_linear_2147_1924)"/>
<defs>
<linearGradient id="paint0_linear_2147_1924" x1="1.8335" y1="0.833008" x2="15.5423" y2="2.29834" gradientUnits="userSpaceOnUse">
<stop stop-color="#F79548"/>
<stop offset="1" stop-color="#E94262"/>
</linearGradient>
<linearGradient id="paint1_linear_2147_1924" x1="1.8335" y1="0.833008" x2="15.5423" y2="2.29834" gradientUnits="userSpaceOnUse">
<stop stop-color="#F79548"/>
<stop offset="1" stop-color="#E94262"/>
</linearGradient>
<linearGradient id="paint2_linear_2147_1924" x1="1.8335" y1="0.833008" x2="15.5423" y2="2.29834" gradientUnits="userSpaceOnUse">
<stop stop-color="#F79548"/>
<stop offset="1" stop-color="#E94262"/>
</linearGradient>
</defs>
</svg>
