<svg width="16" height="16" viewBox="0 0 16 16" fill="none" xmlns="http://www.w3.org/2000/svg">
<path fill-rule="evenodd" clip-rule="evenodd" d="M9.21224 0.83334C10.3692 0.83334 11.0759 0.826489 11.6556 1.02995C12.555 1.34567 13.2764 2.01772 13.6198 2.88412C13.7361 3.17784 13.7859 3.48973 13.8099 3.85287C13.8336 4.2117 13.8333 4.65443 13.8333 5.21225V6.66667C13.8333 6.94282 13.6095 7.16667 13.3333 7.16667C13.0572 7.16667 12.8333 6.94282 12.8333 6.66667V5.21225C12.8333 4.64124 12.8328 4.23691 12.8118 3.91863C12.7912 3.60512 12.7522 3.40949 12.6901 3.25261C12.4591 2.66962 11.9648 2.19819 11.3242 1.97331C10.946 1.84064 10.4536 1.83334 9.21224 1.83334C9.00538 1.83334 8.80972 1.83494 8.62435 1.83529C7.69284 1.85778 6.94478 2.61845 6.94466 3.55535C6.94466 3.65343 6.94893 3.75921 6.95443 3.87761C6.95976 3.99247 6.96609 4.12122 6.96875 4.24936C6.974 4.50263 6.96572 4.79806 6.88932 5.08334C6.74035 5.63932 6.30598 6.07369 5.75 6.22266C5.46472 6.29906 5.16929 6.30734 4.91602 6.30209C4.78788 6.29943 4.65913 6.2931 4.54427 6.28777C4.42587 6.28227 4.32009 6.278 4.22201 6.278C3.27399 6.27812 2.50491 7.044 2.5 7.99089V9.81837C2.5 10.8534 2.50068 11.5861 2.56706 12.1504C2.63208 12.703 2.7545 13.0333 2.95638 13.2871C3.08809 13.4527 3.24523 13.6005 3.42318 13.7259C3.70124 13.9218 4.06497 14.0405 4.66276 14.1029C5.26871 14.166 6.05388 14.1667 7.15169 14.1667H10C10.2761 14.1667 10.5 14.3905 10.5 14.6667C10.5 14.9428 10.2761 15.1667 10 15.1667H7.15169C6.07537 15.1667 5.2291 15.1675 4.55925 15.0977C3.88159 15.027 3.32439 14.8794 2.84766 14.5436C2.59317 14.3643 2.36587 14.1509 2.17383 13.9095C1.8106 13.4528 1.65048 12.9156 1.57422 12.2676C1.49935 11.6313 1.5 10.8293 1.5 9.81837V7.97462C1.50009 7.06402 1.502 6.34941 1.54036 5.76758C1.58107 5.15038 1.66422 4.64777 1.84766 4.1849C2.4064 2.77498 3.58303 1.67405 5.0599 1.15561C5.89985 0.860749 6.91421 0.836681 8.59115 0.834642C8.61624 0.833959 8.64141 0.83334 8.66667 0.83334C8.67629 0.83334 8.68582 0.834106 8.69531 0.834642C8.86111 0.834527 9.03327 0.83334 9.21224 0.83334ZM6.51432 1.88933C6.05291 1.92729 5.70364 1.98996 5.39128 2.09962C4.17318 2.52722 3.22377 3.42688 2.77734 4.55339C2.64816 4.87939 2.57521 5.26563 2.53776 5.83334C2.53711 5.84328 2.53644 5.85326 2.53581 5.86329C2.99948 5.4969 3.58514 5.27805 4.22201 5.278C4.34584 5.278 4.47246 5.28294 4.5905 5.28842C4.71204 5.29406 4.82479 5.29976 4.93685 5.30209C5.1638 5.30679 5.34548 5.2963 5.49154 5.25717C5.70243 5.20066 5.86732 5.03577 5.92383 4.82488C5.96296 4.67882 5.97345 4.49714 5.96875 4.27019C5.96642 4.15813 5.96072 4.04538 5.95508 3.92383C5.9496 3.8058 5.94466 3.67918 5.94466 3.55535C5.94471 2.92765 6.15741 2.34978 6.51432 1.88933Z" fill="url(#paint0_linear_2147_1934)"/>
<path fill-rule="evenodd" clip-rule="evenodd" d="M5.80339 8.16667C6.53943 8.16684 7.15559 8.75319 7.1556 9.50001C7.1556 10.2468 6.53944 10.8332 5.80339 10.8333H5.16667V12C5.16667 12.2761 4.94281 12.5 4.66667 12.5C4.39053 12.5 4.16667 12.2761 4.16667 12V9.33334C4.16667 9.19076 4.16539 9.03242 4.18359 8.89975C4.20398 8.75152 4.25656 8.56358 4.41667 8.40691L4.47786 8.35352C4.62202 8.23991 4.78155 8.19977 4.90951 8.18295C5.04239 8.16551 5.20158 8.16667 5.34831 8.16667H5.80339ZM5.16732 9.16732C5.16655 9.21356 5.16667 9.26711 5.16667 9.33334V9.83334H5.80339C6.00847 9.83318 6.1556 9.67346 6.1556 9.50001C6.15559 9.32656 6.00846 9.16683 5.80339 9.16667H5.34831C5.27561 9.16667 5.21743 9.16639 5.16732 9.16732Z" fill="url(#paint1_linear_2147_1934)"/>
<path fill-rule="evenodd" clip-rule="evenodd" d="M9.35547 8.16667C10.0916 8.16676 10.7077 8.75314 10.7077 9.50001C10.7077 10.2469 10.0916 10.8333 9.35547 10.8333H8.71875V12C8.71875 12.2761 8.49489 12.5 8.21875 12.5C7.94269 12.4999 7.71875 12.2761 7.71875 12V9.33334C7.71875 9.19074 7.71811 9.03243 7.73633 8.89975C7.75672 8.75145 7.80912 8.56362 7.9694 8.40691L8.02995 8.35352C8.17413 8.23985 8.3336 8.19978 8.46159 8.18295C8.59457 8.16548 8.7542 8.16667 8.90104 8.16667H9.35547ZM8.7194 9.16732C8.71863 9.21356 8.71875 9.26711 8.71875 9.33334V9.83334H9.35547C9.56063 9.83326 9.70768 9.67351 9.70768 9.50001C9.70767 9.32651 9.56063 9.16675 9.35547 9.16667H8.90104C8.82817 9.16667 8.76959 9.16638 8.7194 9.16732Z" fill="url(#paint2_linear_2147_1934)"/>
<path d="M14 8.16667C14.2761 8.16667 14.5 8.39054 14.5 8.66667C14.5 8.94282 14.2761 9.16667 14 9.16667H13.3854V12C13.3854 12.2761 13.1616 12.5 12.8854 12.5C12.6094 12.4999 12.3854 12.2761 12.3854 12V9.16667H11.7708C11.4948 9.16649 11.2708 8.94271 11.2708 8.66667C11.2708 8.39065 11.4948 8.16685 11.7708 8.16667H14Z" fill="url(#paint3_linear_2147_1934)"/>
<defs>
<linearGradient id="paint0_linear_2147_1934" x1="1.5" y1="0.833313" x2="15.9317" y2="2.45935" gradientUnits="userSpaceOnUse">
<stop stop-color="#F79548"/>
<stop offset="1" stop-color="#E94262"/>
</linearGradient>
<linearGradient id="paint1_linear_2147_1934" x1="1.5" y1="0.833313" x2="15.9317" y2="2.45935" gradientUnits="userSpaceOnUse">
<stop stop-color="#F79548"/>
<stop offset="1" stop-color="#E94262"/>
</linearGradient>
<linearGradient id="paint2_linear_2147_1934" x1="1.5" y1="0.833313" x2="15.9317" y2="2.45935" gradientUnits="userSpaceOnUse">
<stop stop-color="#F79548"/>
<stop offset="1" stop-color="#E94262"/>
</linearGradient>
<linearGradient id="paint3_linear_2147_1934" x1="1.5" y1="0.833313" x2="15.9317" y2="2.45935" gradientUnits="userSpaceOnUse">
<stop stop-color="#F79548"/>
<stop offset="1" stop-color="#E94262"/>
</linearGradient>
</defs>
</svg>
