<svg width="14" height="14" viewBox="0 0 14 14" fill="none" xmlns="http://www.w3.org/2000/svg">
<path d="M3.67236 2.33335C4.04055 2.33335 4.33903 2.63183 4.33903 3.00002C4.33903 3.36821 4.04055 3.66669 3.67236 3.66669H3.6665C3.29831 3.66669 2.99984 3.36821 2.99984 3.00002C2.99984 2.63183 3.29831 2.33335 3.6665 2.33335H3.67236Z" fill="url(#paint0_linear_2444_2170)"/>
<path d="M6.33903 2.33335C6.70722 2.33335 7.0057 2.63183 7.0057 3.00002C7.0057 3.36821 6.70722 3.66669 6.33903 3.66669H6.33317C5.96498 3.66669 5.6665 3.36821 5.6665 3.00002C5.6665 2.63183 5.96498 2.33335 6.33317 2.33335H6.33903Z" fill="url(#paint1_linear_2444_2170)"/>
<path fill-rule="evenodd" clip-rule="evenodd" d="M6.99984 0.166687C8.47832 0.166687 9.63751 0.165712 10.5409 0.28713C11.4586 0.410521 12.1868 0.668774 12.759 1.24091C13.3311 1.81304 13.5893 2.54123 13.7127 3.45901C13.8341 4.36235 13.8332 5.52153 13.8332 7.00002C13.8332 8.47851 13.8341 9.63769 13.7127 10.541C13.5893 11.4588 13.3311 12.187 12.759 12.7591C12.1868 13.3313 11.4586 13.5895 10.5409 13.7129C9.63751 13.8343 8.47832 13.8334 6.99984 13.8334C5.52135 13.8334 4.36217 13.8343 3.45882 13.7129C2.54105 13.5895 1.81285 13.3313 1.24072 12.7591C0.668591 12.187 0.410338 11.4588 0.286947 10.541C0.165529 9.63769 0.166504 8.47851 0.166504 7.00002C0.166504 5.52153 0.165529 4.36235 0.286947 3.45901C0.410338 2.54123 0.668591 1.81304 1.24072 1.24091C1.81286 0.668774 2.54105 0.410521 3.45882 0.28713C4.36217 0.165712 5.52135 0.166687 6.99984 0.166687ZM1.17432 5.50002C1.16864 5.9477 1.1665 6.44488 1.1665 7.00002C1.1665 8.50694 1.16742 9.58696 1.27783 10.4082C1.38632 11.215 1.59241 11.6968 1.94775 12.0521C2.3031 12.4075 2.78482 12.6135 3.59163 12.722C4.4129 12.8324 5.49292 12.8334 6.99984 12.8334C8.50675 12.8334 9.58677 12.8324 10.408 12.722C11.2149 12.6135 11.6966 12.4075 12.0519 12.0521C12.4073 11.6968 12.6134 11.215 12.7218 10.4082C12.8323 9.58696 12.8332 8.50694 12.8332 7.00002C12.8332 6.44488 12.831 5.9477 12.8254 5.50002H1.17432ZM6.99984 1.16669C5.49292 1.16669 4.4129 1.1676 3.59163 1.27802C2.78482 1.3865 2.3031 1.59259 1.94775 1.94794C1.59241 2.30328 1.38632 2.785 1.27783 3.59182C1.24123 3.86406 1.2175 4.16478 1.20101 4.50002H12.7987C12.7822 4.16478 12.7584 3.86406 12.7218 3.59182C12.6134 2.785 12.4073 2.30328 12.0519 1.94794C11.6966 1.59259 11.2149 1.3865 10.408 1.27802C9.58677 1.1676 8.50675 1.16669 6.99984 1.16669Z" fill="url(#paint2_linear_2444_2170)"/>
<defs>
<linearGradient id="paint0_linear_2444_2170" x1="0.166504" y1="0.166687" x2="15.2974" y2="2.04636" gradientUnits="userSpaceOnUse">
<stop stop-color="#F79548"/>
<stop offset="1" stop-color="#E94262"/>
</linearGradient>
<linearGradient id="paint1_linear_2444_2170" x1="0.166504" y1="0.166687" x2="15.2974" y2="2.04636" gradientUnits="userSpaceOnUse">
<stop stop-color="#F79548"/>
<stop offset="1" stop-color="#E94262"/>
</linearGradient>
<linearGradient id="paint2_linear_2444_2170" x1="0.166504" y1="0.166687" x2="15.2974" y2="2.04636" gradientUnits="userSpaceOnUse">
<stop stop-color="#F79548"/>
<stop offset="1" stop-color="#E94262"/>
</linearGradient>
</defs>
</svg>
