<svg width="16" height="18" viewBox="0 0 16 18" fill="none" xmlns="http://www.w3.org/2000/svg">
<path fill-rule="evenodd" clip-rule="evenodd" d="M6.63121 2.12501C7.73822 2.12508 8.62909 3.02755 8.62909 4.13184V7.32683L10.4398 7.61817C11.1878 7.73111 11.7803 7.8207 12.2497 7.92335C12.7224 8.02674 13.121 8.15356 13.472 8.36524C14.4821 8.97441 15.2916 9.94928 15.2917 11.391C15.2917 12.3251 15.0484 12.9789 14.5772 14.402C14.2826 15.2916 14.1011 15.8584 13.7894 16.3153C13.296 17.0385 12.5674 17.5672 11.7281 17.8102C11.1975 17.9638 10.6042 17.9583 9.6732 17.9583H8.85045C7.61226 17.9583 6.81763 17.969 6.10142 17.6719C5.97789 17.6206 5.85669 17.5627 5.73928 17.4985C5.05928 17.1267 4.56707 16.4998 3.78616 15.5324L1.15269 12.269C0.564158 11.5399 0.56 10.4977 1.14293 9.76417C1.84535 8.88044 3.1385 8.75697 3.99368 9.4948L4.63414 10.0474V4.13184C4.63414 3.02761 5.52427 2.12516 6.63121 2.12501ZM6.63121 3.37501C6.22234 3.37517 5.88414 3.71022 5.88414 4.13184V11.4121C5.88413 11.6564 5.74152 11.8783 5.51956 11.9801C5.29734 12.0819 5.03569 12.0446 4.85061 11.8849L3.17743 10.4412C2.86108 10.1683 2.38347 10.2132 2.12193 10.5422C1.90307 10.8176 1.90432 11.21 2.12519 11.4837L4.75946 14.7471C5.60555 15.7953 5.92747 16.1765 6.33905 16.4015C6.41737 16.4443 6.49838 16.4837 6.58075 16.5179C7.01303 16.6971 7.509 16.7083 8.85045 16.7083H9.6732C10.6831 16.7083 11.0615 16.7022 11.3806 16.6099C11.9398 16.4479 12.4271 16.0949 12.7575 15.6105C12.9462 15.3338 13.0716 14.9725 13.3906 14.009C13.8866 12.5113 14.0417 12.0773 14.0417 11.391C14.0416 10.5064 13.5762 9.88742 12.8267 9.43539C12.6451 9.32591 12.3984 9.23513 11.982 9.14405C11.772 9.09814 11.531 9.05463 11.2471 9.00814L10.2543 8.85433L10.2486 8.85352L7.90481 8.47673L7.79495 8.44825C7.54965 8.3613 7.37926 8.12807 7.37909 7.85987V4.13184C7.37909 3.71017 7.04015 3.37508 6.63121 3.37501Z" fill="#94A7BF"/>
<path d="M6.59703 0.0416718C8.78316 0.0416718 10.5554 1.81388 10.5554 4.00001C10.5554 4.34518 10.2755 4.62501 9.93036 4.62501C9.58518 4.62501 9.30536 4.34518 9.30536 4.00001C9.30536 2.50423 8.0928 1.29167 6.59703 1.29167C5.10126 1.29167 3.8887 2.50423 3.8887 4.00001C3.8887 4.34518 3.60887 4.62501 3.2637 4.62501C2.91852 4.62501 2.6387 4.34518 2.6387 4.00001C2.6387 1.81388 4.4109 0.0416718 6.59703 0.0416718Z" fill="#94A7BF"/>
</svg>
