<svg width="20" height="8" viewBox="0 0 20 8" fill="none" xmlns="http://www.w3.org/2000/svg">
<path fill-rule="evenodd" clip-rule="evenodd" d="M11.6849 4.74938C12.545 4.7494 13.2182 5.48397 13.2182 6.37246C13.2182 7.26093 12.5319 7.99998 11.6849 8C10.8379 8 10.1471 7.26094 10.1471 6.37246C10.1471 5.48282 10.8247 4.74938 11.6849 4.74938ZM11.6805 5.42348C11.1778 5.42348 10.8367 5.8478 10.8367 6.37246C10.8367 6.8971 11.1734 7.32591 11.6805 7.32591C12.1876 7.32589 12.5286 6.89709 12.5286 6.37246C12.5286 5.84781 12.1833 5.42349 11.6805 5.42348Z" fill="#94A7BF"/>
<path d="M21.6317 7.181C21.8351 7.181 22 7.3531 22 7.56538C22 7.77765 21.8351 7.94976 21.6317 7.94977C21.4282 7.94977 21.2633 7.77766 21.2633 7.56538C21.2633 7.3531 21.4282 7.181 21.6317 7.181Z" fill="#94A7BF"/>
<path fill-rule="evenodd" clip-rule="evenodd" d="M4.21784 6.98374L5.04182 6.94631V4.80407H6.28227L6.28345 4.80296C6.98291 4.80298 7.29763 5.32308 7.29763 5.84317C7.29762 6.36325 6.9829 6.87879 6.28345 6.87881H5.72822V7.94631H5.04182V7.57151L3.55877 7.63956L3.42652 4.50078L4.11175 4.46881L4.21784 6.98374ZM5.72822 6.25373H6.25282C6.51074 6.25373 6.60695 6.0439 6.60696 5.84317C6.60696 5.64243 6.51075 5.42805 6.25719 5.42804H5.72822V6.25373Z" fill="#94A7BF"/>
<path fill-rule="evenodd" clip-rule="evenodd" d="M8.87375 4.80296C9.57324 4.80296 9.88804 5.32307 9.88804 5.84317C9.88803 6.28569 9.5733 6.70991 9.18424 6.80118L9.95805 7.94631H9.15798L9.15905 7.9452L8.46827 6.84117H8.32845V7.9452H7.64205V4.80296H8.87375ZM8.32845 6.27656H8.76563C9.06725 6.27655 9.19842 6.07128 9.19843 5.86144C9.19843 5.65158 9.0629 5.42807 8.78314 5.42804H8.32845V6.27656Z" fill="#94A7BF"/>
<path fill-rule="evenodd" clip-rule="evenodd" d="M14.8665 4.80296C15.566 4.80298 15.8807 5.32308 15.8807 5.84317C15.8807 6.36325 15.5659 6.87879 14.8665 6.87881H14.3113V7.94631H13.6249V4.80407H14.8653L14.8665 4.80296ZM14.3113 6.25373H14.8359C15.0938 6.25372 15.19 6.0439 15.19 5.84317C15.19 5.64243 15.0938 5.42805 14.8402 5.42804H14.3113V6.25373Z" fill="#94A7BF"/>
<path d="M16.9102 6.06215H17.9026V4.80296H18.5889V7.9452H17.9026V6.70428H16.9102V7.9452H16.2238V4.80296H16.9102V6.06215Z" fill="#94A7BF"/>
<path d="M20.3234 5.96179L21.0317 4.80296H21.8492L20.6732 6.5401V7.94409H19.9824V6.5264L18.8108 4.80296H19.6284L20.3234 5.96179Z" fill="#94A7BF"/>
<path d="M1.00454 7.75585L0.472258 7.7798L0.00337982 6.20361L-0.317993 7.81633L-0.854541 7.84139L-2 4.74938L-1.26226 4.71508L-0.629441 6.56627L-0.319061 5.11884L0.24385 5.09267L0.671209 6.51492L1.1466 4.60336L1.14767 4.60447L1.89416 4.57028L1.00454 7.75585Z" fill="#94A7BF"/>
<path d="M2.97291 7.66574L2.28757 7.69771L2.15533 4.55892L2.84056 4.52695L2.97291 7.66574Z" fill="#94A7BF"/>
<path d="M2.47457 3.36132C2.67798 3.36133 2.84291 3.53343 2.84291 3.74571C2.8429 3.95798 2.67798 4.13008 2.47457 4.13009C2.27116 4.13009 2.10624 3.95798 2.10624 3.74571C2.10624 3.53343 2.27115 3.36132 2.47457 3.36132Z" fill="#94A7BF"/>
<path d="M16.2248 0.00233174C16.3603 -0.0147757 16.5089 0.0639174 16.5712 0.183664C16.5931 0.225865 16.6041 0.273796 16.5997 0.325121C16.5943 0.393539 16.5626 0.456263 16.532 0.516701C16.3341 0.91361 16.18 1.33449 16.0729 1.76676C15.9232 2.37239 15.815 3.07955 15.3024 3.4012C14.7876 3.72398 14.1034 3.47646 13.6422 3.07384C13.181 2.67123 12.841 2.13063 12.3656 1.74626C12.2705 1.6687 12.159 1.59565 12.0388 1.60592C11.9131 1.61619 11.8136 1.71548 11.7349 1.81699C11.3426 2.32682 11.2333 3.03855 10.7928 3.50389C10.419 3.8985 9.83759 4.05024 9.32064 3.92136C8.8037 3.79248 8.3611 3.40008 8.12064 2.9051C7.90096 2.45115 7.84079 1.92191 7.5905 1.48507C7.13802 0.695801 6.11502 0.39242 5.26799 0.643344C4.42099 0.894271 3.75211 1.60594 3.34007 2.41913C3.22859 2.6404 3.11491 2.8891 2.89414 2.98719C2.65588 3.09326 2.38373 2.88109 2.39794 2.61762C2.41216 2.35529 2.63625 2.01994 2.76958 1.80552C3.08434 1.29914 3.51932 0.873755 4.0286 0.585202C4.79585 0.150646 5.72382 0.0342186 6.56757 0.265754C7.05174 0.398062 7.526 0.658198 7.81016 1.08932C8.0976 1.52502 8.15884 2.07591 8.33262 2.57206C8.50531 3.06934 8.88464 3.57119 9.39066 3.56549C9.92399 3.55975 10.2879 3.00993 10.5131 2.50467C10.7382 1.99942 10.9743 1.42004 11.4759 1.22956C11.8027 1.10523 12.1754 1.18626 12.4804 1.36076C12.7853 1.53527 13.0356 1.79639 13.2815 2.05301C13.5646 2.34842 13.8488 2.64497 14.1319 2.94152C14.2237 3.03733 14.3297 3.13998 14.4597 3.14568C14.5843 3.15137 14.6947 3.06358 14.781 2.96892C15.4094 2.27319 15.2499 1.10644 15.7832 0.328574C15.8914 0.171183 16.0401 0.0251537 16.2248 0.00233174Z" fill="#94A7BF"/>
</svg>
