<svg width="17" height="18" viewBox="0 0 17 18" fill="none" xmlns="http://www.w3.org/2000/svg">
<path fill-rule="evenodd" clip-rule="evenodd" d="M15.9395 9.52002C14.3861 6.82976 10.9459 5.90783 8.25553 7.4611C5.56523 9.01437 4.64348 12.4547 6.19661 15.145C7.7499 17.8354 11.1901 18.7572 13.8805 17.2039C16.5709 15.6506 17.4928 12.2104 15.9395 9.52002ZM15.1297 10.7082C15.9276 12.6961 15.1645 15.0194 13.2555 16.1216C11.3467 17.2236 8.9532 16.7231 7.63053 15.0384L15.1297 10.7082ZM8.88053 8.54346C10.789 7.44168 13.1819 7.94203 14.5047 9.62581L7.00553 13.9561C6.20841 11.9684 6.97196 9.6454 8.88053 8.54346Z" fill="#94A7BF"/>
<path d="M16.1771 2.02978C15.1078 0.134445 12.7264 -0.526925 10.8589 0.576332L2.38395 5.58447C0.525327 6.68288 -0.100704 9.10247 0.963866 10.9897C1.60649 12.1289 2.72293 12.8227 3.91878 12.9543C4.26177 12.9918 4.57031 12.7447 4.60807 12.4017C4.64559 12.0588 4.39833 11.7503 4.0555 11.7124C3.25066 11.6239 2.49327 11.1562 2.05273 10.3753C1.31603 9.06917 1.75887 7.40571 3.02034 6.66032L6.71908 4.47363L7.61588 5.98567C7.79193 6.28253 8.17592 6.3806 8.47282 6.20459C8.76941 6.02845 8.86768 5.64443 8.69173 5.34765L7.79573 3.83724L11.4953 1.65218C12.7478 0.912683 14.356 1.34596 15.0882 2.64339C15.6784 3.68964 15.5123 4.97207 14.7668 5.82291C14.5393 6.08249 14.5658 6.47756 14.8254 6.70508C15.0849 6.93254 15.48 6.90685 15.7075 6.6473C16.7948 5.40655 17.0339 3.54885 16.1771 2.02978Z" fill="#94A7BF"/>
</svg>
