<svg width="36" height="36" viewBox="0 0 36 36" fill="none" xmlns="http://www.w3.org/2000/svg">
<path fill-rule="evenodd" clip-rule="evenodd" d="M17.9167 0C27.8118 0 35.8333 8.02157 35.8333 17.9167C35.8333 27.8118 27.8118 35.8333 17.9167 35.8333C8.02157 35.8333 0 27.8118 0 17.9167C0 8.02157 8.02157 0 17.9167 0ZM17.9183 21.25C18.8388 21.25 19.585 21.9962 19.585 22.9167C19.585 23.8371 18.8388 24.5833 17.9183 24.5833H17.9036C16.9832 24.5833 16.237 23.8371 16.237 22.9167C16.237 21.9962 16.9832 21.25 17.9036 21.25H17.9183ZM19.1667 11.25C19.1667 10.5596 18.607 10 17.9167 10C17.2263 10 16.6667 10.5596 16.6667 11.25V17.9167C16.6667 18.607 17.2263 19.1667 17.9167 19.1667C18.607 19.1667 19.1667 18.607 19.1667 17.9167V11.25Z" fill="#E94262"/>
</svg>
