<svg width="24" height="24" viewBox="0 0 24 24" fill="none" xmlns="http://www.w3.org/2000/svg">
<path d="M12.1435 16.6354C12.4683 16.6005 12.7192 16.4517 12.9016 16.3125C13.0896 16.1691 13.2867 15.9702 13.4664 15.7905L19.7396 9.51731C20.0868 9.17017 20.0868 8.60749 19.7396 8.26035C19.3925 7.91322 18.8298 7.91322 18.4827 8.26035L12.2095 14.5336C12.1266 14.6165 12.0591 14.6835 12 14.7407C11.9409 14.6835 11.8734 14.6165 11.7905 14.5336L5.51731 8.26035C5.17017 7.91322 4.60749 7.91322 4.26035 8.26035C3.91322 8.60749 3.91322 9.17017 4.26035 9.51731L10.5336 15.7905C10.7133 15.9702 10.9104 16.1691 11.0984 16.3125C11.3069 16.4716 11.6048 16.6435 12 16.6435L12.1435 16.6354Z" fill="url(#paint0_linear_3101_3088)"/>
<defs>
<linearGradient id="paint0_linear_3101_3088" x1="4" y1="8" x2="21.0842" y2="11.9286" gradientUnits="userSpaceOnUse">
<stop stop-color="#F79548"/>
<stop offset="1" stop-color="#E94262"/>
</linearGradient>
</defs>
</svg>
