<svg width="32" height="32" viewBox="0 0 32 32" fill="none" xmlns="http://www.w3.org/2000/svg">
<path fill-rule="evenodd" clip-rule="evenodd" d="M10.6055 13C10.9336 13.0001 11.3356 13.0746 11.748 13.1797C12.1738 13.2882 12.6621 13.4427 13.1816 13.627C14.2217 13.9958 15.4213 14.4986 16.5576 15.042C17.6906 15.5838 18.785 16.177 19.6055 16.7295C20.0127 17.0037 20.3776 17.2851 20.6494 17.5605C20.7854 17.6984 20.9158 17.8529 21.0156 18.0205C21.1125 18.1834 21.21 18.4083 21.21 18.6729C21.2099 18.9371 21.1125 19.1614 21.0156 19.3242C20.9158 19.4918 20.7854 19.6463 20.6494 19.7842C20.4059 20.031 20.0869 20.2814 19.7305 20.5283V26.9092C19.8683 27.2211 20.0743 27.5773 20.3457 28.1084C20.6297 28.6641 20.9362 29.3359 21.1191 30.1055C21.2408 30.6178 21.3134 31.2963 20.8311 31.7803C20.6053 32.0065 20.3271 32.1135 20.082 32.168C19.8376 32.2222 19.5685 32.2373 19.3018 32.2373H18.6787C18.4121 32.2373 18.1429 32.2221 17.8984 32.168C17.6533 32.1135 17.3752 32.0065 17.1494 31.7803C16.6668 31.2962 16.7396 30.6178 16.8613 30.1055C17.0443 29.3358 17.3508 28.6641 17.6348 28.1084C17.9062 27.5773 18.1121 27.2211 18.25 26.9092V21.4336C17.9298 21.6108 17.5932 21.7872 17.249 21.9609L17.0215 27.2178C17.0154 27.3564 16.9993 27.5382 16.9414 27.7295C16.806 28.1764 16.5415 28.6295 16.0996 28.9463C15.4389 29.4196 14.5614 29.7433 13.6299 29.9512C12.6888 30.1612 11.6425 30.2636 10.6055 30.2637C9.56825 30.2637 8.52133 30.1612 7.58008 29.9512C6.64855 29.7433 5.77106 29.4196 5.11035 28.9463C4.66841 28.6295 4.40398 28.1765 4.26855 27.7295C4.21065 27.5382 4.19452 27.3564 4.18848 27.2178L3.95996 21.9609C3.08124 21.5173 2.25687 21.0538 1.60547 20.6152C1.19803 20.3409 0.832449 20.0598 0.560547 19.7842C0.424571 19.6463 0.294134 19.4918 0.194336 19.3242C0.0974904 19.1614 0.000100714 18.9371 0 18.6729C5.76741e-08 18.4083 0.0974178 18.1834 0.194336 18.0205C0.294153 17.8529 0.424543 17.6984 0.560547 17.5605C0.832449 17.285 1.19803 17.0038 1.60547 16.7295C2.42594 16.177 3.51943 15.5838 4.65234 15.042C5.78866 14.4986 6.98827 13.9958 8.02832 13.627C8.54797 13.4427 9.03706 13.2882 9.46289 13.1797C9.87535 13.0746 10.2774 13 10.6055 13ZM18.9531 28.7822C18.6901 29.297 18.4437 29.8468 18.3008 30.4482C18.2708 30.5746 18.2587 30.6655 18.2539 30.7275C18.345 30.7438 18.4807 30.7568 18.6787 30.7568H19.3018C19.4993 30.7568 19.6346 30.7437 19.7256 30.7275C19.7208 30.6655 19.7097 30.5746 19.6797 30.4482C19.5368 29.8469 19.2913 29.2969 19.0283 28.7822C19.0163 28.7586 19.0026 28.7349 18.9902 28.7109C18.9779 28.7348 18.9652 28.7587 18.9531 28.7822ZM15.7373 22.6816C14.8586 23.0768 13.9738 23.4369 13.1816 23.7178C12.6621 23.902 12.1738 24.0566 11.748 24.165C11.3356 24.2701 10.9336 24.3447 10.6055 24.3447C10.2773 24.3447 9.87536 24.2701 9.46289 24.165C9.03705 24.0565 8.54798 23.902 8.02832 23.7178C7.2359 23.4368 6.35063 23.0769 5.47168 22.6816L5.66797 27.1543C5.67163 27.2375 5.67804 27.2792 5.68457 27.3008C5.74858 27.512 5.85303 27.658 5.97168 27.7432C6.40806 28.0558 7.07187 28.3216 7.90137 28.5068C8.72165 28.6899 9.65976 28.7842 10.6055 28.7842C11.551 28.7841 12.4885 28.6899 13.3086 28.5068C14.1381 28.3216 14.8019 28.0559 15.2383 27.7432C15.3569 27.6579 15.4614 27.512 15.5254 27.3008C15.5319 27.2792 15.5383 27.2374 15.542 27.1543L15.7373 22.6816ZM10.6055 14.4795C10.4668 14.4795 10.2092 14.5169 9.82715 14.6143C9.45833 14.7082 9.01576 14.8479 8.52344 15.0225C7.53875 15.3716 6.38731 15.8537 5.29102 16.3779C4.19154 16.9037 3.16878 17.4607 2.43164 17.957C2.0604 18.207 1.78594 18.4256 1.61328 18.6006C1.58753 18.6267 1.56643 18.6518 1.54785 18.6729C1.56651 18.694 1.58738 18.7189 1.61328 18.7451C1.78596 18.9202 2.06033 19.1386 2.43164 19.3887C3.16875 19.885 4.19167 20.4411 5.29102 20.9668C6.38731 21.491 7.53875 21.9731 8.52344 22.3223C9.01576 22.4968 9.45833 22.6365 9.82715 22.7305C10.2092 22.8278 10.4668 22.8652 10.6055 22.8652C10.7443 22.8652 11.0012 22.8277 11.3828 22.7305C11.7516 22.6365 12.1942 22.4968 12.6865 22.3223C13.6712 21.9731 14.8227 21.491 15.9189 20.9668C17.0183 20.4411 18.0412 19.885 18.7783 19.3887C19.1496 19.1387 19.424 18.9202 19.5967 18.7451C19.6224 18.7191 19.6426 18.6939 19.6611 18.6729C19.6426 18.6519 19.6222 18.6265 19.5967 18.6006C19.424 18.4256 19.1496 18.207 18.7783 17.957C18.0412 17.4607 17.0184 16.9037 15.9189 16.3779C14.8227 15.8537 13.6712 15.3716 12.6865 15.0225C12.1942 14.8479 11.7516 14.7082 11.3828 14.6143C11.0012 14.517 10.7443 14.4796 10.6055 14.4795Z" fill="white"/>
<path d="M25.0059 9.44238C25.2755 9.44246 25.4941 9.66098 25.4941 9.93066C25.494 10.2002 25.2754 10.4189 25.0059 10.4189H25C24.7304 10.4189 24.5119 10.2003 24.5117 9.93066C24.5117 9.66094 24.7303 9.44238 25 9.44238H25.0059Z" fill="white"/>
<path d="M25 3.90723C25.9513 3.90723 26.7908 4.62807 26.791 5.59766C26.7909 5.94217 26.6813 6.26196 26.4971 6.52637C26.3832 6.68966 26.2502 6.84525 26.1289 6.98438C26.002 7.12994 25.8881 7.25704 25.7852 7.3877C25.5736 7.65623 25.4884 7.84366 25.4883 8.00195V8.30273C25.4881 8.57234 25.2696 8.79102 25 8.79102C24.7304 8.79102 24.5119 8.57234 24.5117 8.30273V8.00195C24.5118 7.49656 24.7799 7.08504 25.0186 6.78223C25.1409 6.6271 25.2776 6.47473 25.3926 6.34277C25.5132 6.20443 25.6146 6.0835 25.6953 5.96777C25.7719 5.85784 25.8134 5.73126 25.8135 5.59766C25.8133 5.23961 25.4869 4.88379 25 4.88379C24.5131 4.88379 24.1867 5.23961 24.1865 5.59766C24.1863 5.86722 23.9669 6.08594 23.6973 6.08594C23.4279 6.08572 23.2092 5.86708 23.209 5.59766C23.2092 4.62807 24.0487 3.90723 25 3.90723Z" fill="white"/>
<path fill-rule="evenodd" clip-rule="evenodd" d="M25 0C28.8449 0 31.9999 2.98773 32 6.71777C32 10.4479 28.845 13.4355 25 13.4355C24.547 13.4361 24.0953 13.3941 23.6504 13.3105C23.496 13.2816 23.3972 13.2639 23.3242 13.2539C23.2954 13.25 23.2768 13.2459 23.2656 13.2451C23.2822 13.2421 23.2687 13.241 23.1943 13.2764C23.1199 13.3118 23.0208 13.3646 22.8691 13.4453C21.9369 13.9411 20.8488 14.117 19.7998 13.9219C19.6305 13.8903 19.4901 13.772 19.4307 13.6104C19.3714 13.4487 19.4021 13.2674 19.5107 13.1338L19.6201 12.9902C19.8656 12.6461 20.0362 12.2466 20.1172 11.8213C20.1418 11.6878 20.0849 11.5067 19.9111 11.3301C18.7294 10.1301 18 8.50698 18 6.71777C18.0001 2.98773 21.1551 1.85514e-07 25 0ZM25 0.976562C21.6533 0.976563 18.9767 3.56751 18.9766 6.71777C18.9766 8.23429 19.5932 9.61548 20.6064 10.6445C20.9152 10.9581 21.1811 11.4474 21.0762 12.0039L21.0234 12.2432C20.9546 12.5132 20.856 12.7737 20.7334 13.0215C21.316 13.008 21.893 12.858 22.4102 12.583C22.5535 12.5068 22.6761 12.4417 22.7754 12.3945C22.8693 12.3499 22.9874 12.2997 23.1143 12.2803L23.2051 12.2715C23.2956 12.2673 23.3821 12.2759 23.457 12.2861C23.5596 12.3002 23.6866 12.3244 23.8311 12.3516C24.2162 12.4238 24.6071 12.4595 24.999 12.459C28.3458 12.459 31.0234 9.86813 31.0234 6.71777C31.0233 3.56751 28.3467 0.976562 25 0.976562Z" fill="white"/>
</svg>
