<svg width="11" height="11" viewBox="0 0 11 11" fill="none" xmlns="http://www.w3.org/2000/svg">
<path fill-rule="evenodd" clip-rule="evenodd" d="M5.375 0C8.34353 0 10.75 2.40647 10.75 5.375C10.75 8.34353 8.34353 10.75 5.375 10.75C2.40647 10.75 0 8.34353 0 5.375C0 2.40647 2.40647 0 5.375 0ZM5.375 0.75C2.82068 0.75 0.75 2.82068 0.75 5.375C0.75 7.92932 2.82068 10 5.375 10C7.92932 10 10 7.92932 10 5.375C10 2.82068 7.92932 0.75 5.375 0.75Z" fill="white"/>
<path fill-rule="evenodd" clip-rule="evenodd" d="M5.375 0.75C2.82068 0.75 0.75 2.82068 0.75 5.375C0.75 7.92932 2.82068 10 5.375 10C7.92932 10 10 7.92932 10 5.375C10 2.82068 7.92932 0.75 5.375 0.75ZM7.7041 3.19531C7.60479 3.01371 7.37697 2.94677 7.19531 3.0459C6.3096 3.53027 5.56729 4.47286 5.06104 5.24805C4.8333 5.59677 4.64636 5.92317 4.5083 6.17871C4.35484 6.01619 4.19645 5.87735 4.05762 5.76758C3.92235 5.66063 3.80053 5.57612 3.71191 5.51807C3.66756 5.48901 3.63088 5.46644 3.60498 5.45068C3.59208 5.44283 3.58168 5.43652 3.57422 5.43213C3.5706 5.43 3.56766 5.42806 3.56543 5.42676L3.56055 5.42432C3.38068 5.32184 3.1519 5.38463 3.04932 5.56445C2.94684 5.74431 3.00964 5.97309 3.18945 6.07568C3.18945 6.07568 3.19171 6.07736 3.19385 6.07861C3.1983 6.08123 3.20571 6.08545 3.21533 6.09131C3.23474 6.10312 3.26405 6.12144 3.30078 6.14551C3.37463 6.19389 3.47776 6.26541 3.59229 6.35596C3.82635 6.54102 4.08692 6.78902 4.25342 7.06738C4.32494 7.18688 4.45664 7.25719 4.5957 7.24951C4.73471 7.24178 4.8581 7.15737 4.91602 7.03076L4.9165 7.02979L4.91846 7.02539C4.92045 7.0211 4.92351 7.01431 4.92773 7.00537C4.93622 6.9874 4.94963 6.9604 4.9668 6.92529C5.00117 6.85501 5.05248 6.75239 5.11914 6.62646C5.2527 6.37416 5.44679 6.02904 5.68896 5.6582C6.18265 4.90225 6.84053 4.09475 7.55469 3.7041C7.73624 3.60476 7.80323 3.37695 7.7041 3.19531Z" fill="white"/>
</svg>
