<svg width="40" height="40" viewBox="0 0 40 40" fill="none" xmlns="http://www.w3.org/2000/svg">
<path d="M3.06297 13.6473C6.28885 5.13378 15.5423 0.292955 24.5571 2.70003C34.1584 5.26427 39.8732 15.086 37.3029 24.6466C34.7325 34.206 24.8574 39.8628 15.257 37.2996C8.12543 35.3952 3.1421 29.4894 2.09943 22.6626C1.99537 21.9803 2.4637 21.3427 3.14598 21.2384C3.82803 21.1347 4.46575 21.603 4.57013 22.285C5.46721 28.1588 9.75838 33.2435 15.9031 34.8843C24.1836 37.0947 32.6802 32.2122 34.8891 23.9972C37.0969 15.7841 32.1894 7.32613 23.911 5.11539C16.7176 3.195 9.36273 6.63026 6.10822 12.9507L8.49103 13.0972C9.17949 13.1396 9.7046 13.7318 9.66291 14.4204C9.62081 15.1091 9.02675 15.6339 8.33804 15.5923L4.15509 15.3367C3.75882 15.3126 3.39752 15.102 3.18179 14.7687C2.96616 14.4352 2.92239 14.0187 3.06297 13.6473Z" fill="#94A7BF" fill-opacity="0.2"/>
<path d="M19.9998 12.0832C20.69 12.0833 21.2496 12.643 21.2498 13.3332V19.4823L24.2169 22.4494C24.705 22.9374 24.7048 23.7288 24.2169 24.217C23.7288 24.7051 22.9375 24.7051 22.4494 24.217L19.116 20.8836C18.8817 20.6492 18.7498 20.3313 18.7498 19.9998V13.3332C18.75 12.643 19.3096 12.0832 19.9998 12.0832Z" fill="#94A7BF" fill-opacity="0.2"/>
</svg>
