<svg width="7" height="12" viewBox="0 0 7 12" fill="none" xmlns="http://www.w3.org/2000/svg">
<path d="M1.05806 0.692275C1.30214 0.448197 1.69777 0.448197 1.94185 0.692275L6.35265 5.10308C6.47903 5.22946 6.61884 5.36805 6.71968 5.50022C6.83154 5.64683 6.95243 5.85629 6.95243 6.13417C6.95243 6.41205 6.83154 6.62151 6.71968 6.76812C6.61884 6.90029 6.47903 7.03888 6.35265 7.16526L1.94185 11.5761C1.69777 11.8201 1.30214 11.8201 1.05806 11.5761C0.813981 11.332 0.813981 10.9364 1.05806 10.6923L5.46887 6.28147C5.52699 6.22334 5.57357 6.17562 5.61372 6.13417C5.57357 6.09272 5.52699 6.04499 5.46887 5.98687L1.05806 1.57606C0.813981 1.33199 0.813981 0.936352 1.05806 0.692275Z" fill="white"/>
</svg>
