<svg width="16" height="9" viewBox="0 0 16 9" fill="none" xmlns="http://www.w3.org/2000/svg">
<path d="M8.14352 8.89189C8.4683 8.85696 8.71915 8.70819 8.90163 8.56897C9.0896 8.42555 9.28671 8.22672 9.46645 8.04698L15.7396 1.77378C16.0868 1.42664 16.0868 0.863957 15.7396 0.516821C15.3925 0.169686 14.8298 0.169686 14.4827 0.516821L8.20949 6.79002C8.12656 6.87296 8.0591 6.93998 8 6.9972C7.94091 6.93998 7.87344 6.87296 7.79051 6.79002L1.51731 0.516821C1.17017 0.169686 0.607487 0.169686 0.260352 0.516821C-0.0867839 0.863957 -0.0867839 1.42664 0.260352 1.77378L6.53355 8.04698C6.71329 8.22672 6.9104 8.42555 7.09837 8.56897C7.30689 8.72806 7.60479 8.89999 8 8.89999L8.14352 8.89189Z" fill="url(#paint0_linear_1941_1816)"/>
<defs>
<linearGradient id="paint0_linear_1941_1816" x1="0" y1="0.25647" x2="17.0842" y2="4.1851" gradientUnits="userSpaceOnUse">
<stop stop-color="#F79548"/>
<stop offset="1" stop-color="#E94262"/>
</linearGradient>
</defs>
</svg>
