<svg width="18" height="18" viewBox="0 0 18 18" fill="none" xmlns="http://www.w3.org/2000/svg">
<path fill-rule="evenodd" clip-rule="evenodd" d="M11.6285 0.453449C12.6155 -0.133485 13.8334 -0.151847 14.8373 0.405435C15.2724 0.647056 15.6679 1.06099 16.2761 1.68229C16.8849 2.30426 17.2884 2.70686 17.5236 3.14876C18.0641 4.16462 18.046 5.39383 17.4764 6.39339C17.2286 6.82831 16.8139 7.21896 16.1874 7.82243L8.35046 15.3704C7.13974 16.5366 6.41574 17.2502 5.49238 17.6108C4.56765 17.972 3.55937 17.9343 1.89619 17.8908L1.66345 17.8843C1.42096 17.8779 1.17278 17.8733 0.970087 17.8395C0.748044 17.8024 0.484523 17.7166 0.275914 17.4798C0.0692278 17.2451 0.015706 16.9742 0.00328986 16.7515C-0.00816009 16.5454 0.0124472 16.2964 0.0317729 16.0483L0.0545594 15.7594C0.167875 14.305 0.227677 13.4319 0.571324 12.6409C0.915497 11.849 1.51051 11.2163 2.49027 10.1548L10.2271 1.77262C10.8173 1.1332 11.2006 0.707932 11.6285 0.453449ZM3.40905 11.0028C2.37261 12.1257 1.95841 12.5859 1.71797 13.139C1.47711 13.6934 1.42036 14.3185 1.30049 15.8571L1.27852 16.1452C1.26095 16.3707 1.25302 16.5123 1.25248 16.6123C1.28395 16.6153 1.32148 16.6213 1.36722 16.6237C1.45762 16.6284 1.56309 16.6316 1.696 16.6351L1.92956 16.6408C3.69547 16.687 4.40248 16.6942 5.03747 16.4463C5.67395 16.1977 6.19834 15.7085 7.48376 14.4704L14.4125 7.79639L10.2287 3.61263L3.40905 11.0028ZM14.2302 1.49837C13.6155 1.15722 12.8722 1.16872 12.2673 1.52848C12.0354 1.66646 11.7974 1.91475 11.1459 2.6206L11.0775 2.69385L15.3125 6.92887L15.3199 6.92236C16.0101 6.2575 16.2546 6.01393 16.3908 5.7749C16.748 5.14807 16.7593 4.37397 16.4201 3.73633C16.2907 3.49314 16.0533 3.24158 15.3825 2.55631C14.7108 1.87014 14.4658 1.62919 14.2302 1.49837Z" fill="#5E7683"/>
<path d="M17.2917 16.6668C17.6368 16.6668 17.9166 16.9467 17.9167 17.2918C17.9167 17.637 17.6369 17.9168 17.2917 17.9168H10.625C10.2799 17.9168 10 17.637 10 17.2918C10.0001 16.9467 10.2799 16.6668 10.625 16.6668H17.2917Z" fill="#5E7683"/>
</svg>
