<svg width="20" height="20" viewBox="0 0 20 20" fill="none" xmlns="http://www.w3.org/2000/svg">
<path d="M10.0007 11.667C10.4609 11.667 10.834 12.0401 10.834 12.5003C10.834 12.9606 10.4609 13.3337 10.0007 13.3337H9.99333C9.53309 13.3337 9.15999 12.9606 9.15999 12.5003C9.15999 12.0401 9.53309 11.667 9.99333 11.667H10.0007Z" fill="#E94262"/>
<path d="M9.99984 6.04199C10.345 6.04199 10.6248 6.32181 10.6248 6.66699V10.0003C10.6248 10.3455 10.345 10.6253 9.99984 10.6253C9.65466 10.6253 9.37484 10.3455 9.37484 10.0003V6.66699C9.37484 6.32181 9.65466 6.04199 9.99984 6.04199Z" fill="#E94262"/>
<path fill-rule="evenodd" clip-rule="evenodd" d="M9.99984 1.04199C14.9474 1.04199 18.9582 5.05277 18.9582 10.0003C18.9582 14.9479 14.9474 18.9587 9.99984 18.9587C5.05229 18.9587 1.0415 14.9479 1.0415 10.0003C1.0415 5.05277 5.05229 1.04199 9.99984 1.04199ZM9.99984 2.29199C5.74264 2.29199 2.2915 5.74313 2.2915 10.0003C2.2915 14.2575 5.74264 17.7087 9.99984 17.7087C14.257 17.7087 17.7082 14.2575 17.7082 10.0003C17.7082 5.74313 14.257 2.29199 9.99984 2.29199Z" fill="#E94262"/>
</svg>
