<svg width="18" height="19" viewBox="0 0 18 19" fill="none" xmlns="http://www.w3.org/2000/svg">
<path d="M8.36833 7.79816C8.54705 7.79816 8.74392 7.79717 8.90869 7.81932C9.09146 7.84389 9.32499 7.90684 9.52148 8.10333C9.71798 8.29983 9.78093 8.53336 9.8055 8.71613C9.82765 8.8809 9.82666 9.07777 9.82666 9.25649V13.4232C9.82666 13.7683 9.54684 14.0482 9.20166 14.0482C8.85648 14.0482 8.57666 13.7683 8.57666 13.4232V9.25649C8.57666 9.17385 8.57597 9.10688 8.57503 9.04897C8.51731 9.04805 8.45057 9.04816 8.36833 9.04816C8.02315 9.04816 7.74333 8.76834 7.74333 8.42316C7.74333 8.07798 8.02315 7.79816 8.36833 7.79816Z" fill="#4CC6CF"/>
<path d="M9.00065 5.08982C9.46089 5.08982 9.83398 5.46292 9.83398 5.92316C9.83398 6.38339 9.46089 6.75649 9.00065 6.75649H8.99333C8.53309 6.75649 8.15999 6.38339 8.15999 5.92316C8.15999 5.46292 8.53309 5.08982 8.99333 5.08982H9.00065Z" fill="#4CC6CF"/>
<path fill-rule="evenodd" clip-rule="evenodd" d="M8.99984 0.298157C13.9474 0.298157 17.9582 4.30894 17.9582 9.25649C17.9582 14.204 13.9474 18.2148 8.99984 18.2148C4.05229 18.2148 0.0415039 14.204 0.0415039 9.25649C0.0415039 4.30894 4.05229 0.298157 8.99984 0.298157ZM8.99984 1.54816C4.74264 1.54816 1.2915 4.9993 1.2915 9.25649C1.2915 13.5137 4.74264 16.9648 8.99984 16.9648C13.257 16.9648 16.7082 13.5137 16.7082 9.25649C16.7082 4.9993 13.257 1.54816 8.99984 1.54816Z" fill="#4CC6CF"/>
</svg>
