<svg width="14" height="14" viewBox="0 0 14 14" fill="none" xmlns="http://www.w3.org/2000/svg">
<mask id="path-1-inside-1_4073_6581" fill="white">
<path d="M13.3232 8.03612C13.3232 7.53542 13.0542 7.09635 12.6531 6.85589C12.8067 6.63398 12.8969 6.36479 12.8969 6.07503C12.8969 5.31688 12.2801 4.70005 11.5219 4.70005H8.61935C8.70831 4.29693 8.82997 3.69201 8.91469 3.05875C9.13515 1.41081 8.98448 0.496877 8.44055 0.18258C8.10143 -0.0133315 7.73581 -0.0530711 7.41102 0.0705747C7.1601 0.166148 6.82125 0.401121 6.62815 0.977814L5.86529 2.97524C5.35935 4.22479 3.48812 5.55589 3.04523 5.858H0.394427C0.176589 5.858 0 6.03461 0 6.25242V12.0456C0 12.2634 0.176615 12.44 0.394427 12.44H3.09034C4.59315 13.0327 6.17409 13.3333 7.79073 13.3333H10.9534C11.7115 13.3333 12.3284 12.7165 12.3284 11.9584C12.3284 11.6929 12.2527 11.4447 12.1218 11.2343C12.5802 11.0111 12.8968 10.5404 12.8968 9.99724C12.8968 9.70745 12.8067 9.43828 12.653 9.21638C13.0542 8.97591 13.3232 8.53682 13.3232 8.03612ZM2.77081 11.6512H0.788854V6.6469H2.77081V11.6512ZM11.9482 8.62224H11.5219C11.304 8.62224 11.1274 8.79885 11.1274 9.01667C11.1274 9.23451 11.3041 9.41109 11.5219 9.41109C11.8451 9.41109 12.108 9.67404 12.108 9.99724C12.108 10.3204 11.8451 10.5834 11.5219 10.5834H10.9534C10.7356 10.5834 10.559 10.76 10.559 10.9778C10.559 11.1956 10.7356 11.3722 10.9534 11.3722C11.2766 11.3722 11.5395 11.6352 11.5395 11.9583C11.5395 12.2815 11.2766 12.5445 10.9534 12.5445H7.79075C6.33805 12.5445 4.91607 12.286 3.55971 11.7758V6.46235C4.15536 6.05141 6.03099 4.67469 6.59833 3.26685C6.59922 3.26461 6.6001 3.26237 6.60096 3.26013L7.36823 1.2512C7.37039 1.24557 7.37242 1.23987 7.37427 1.23417C7.44867 1.00891 7.56143 0.857476 7.69185 0.807814C7.81831 0.759611 7.95419 0.812658 8.04588 0.865653C8.04927 0.867606 8.37831 1.113 8.13362 2.9481C7.99463 3.99031 7.74221 4.98714 7.73971 4.99708C7.70963 5.11508 7.73581 5.24037 7.81047 5.33651C7.88521 5.43266 8.00013 5.48893 8.12193 5.48893H11.522C11.8451 5.48893 12.1081 5.75188 12.1081 6.07505C12.1081 6.39823 11.8451 6.66117 11.522 6.66117C11.3041 6.66117 11.1275 6.83779 11.1275 7.0556C11.1275 7.27344 11.3041 7.45003 11.522 7.45003H11.9483C12.2715 7.45003 12.5344 7.71297 12.5344 8.03615C12.5344 8.3593 12.2714 8.62224 11.9482 8.62224Z"/>
</mask>
<path d="M13.3232 8.03612C13.3232 7.53542 13.0542 7.09635 12.6531 6.85589C12.8067 6.63398 12.8969 6.36479 12.8969 6.07503C12.8969 5.31688 12.2801 4.70005 11.5219 4.70005H8.61935C8.70831 4.29693 8.82997 3.69201 8.91469 3.05875C9.13515 1.41081 8.98448 0.496877 8.44055 0.18258C8.10143 -0.0133315 7.73581 -0.0530711 7.41102 0.0705747C7.1601 0.166148 6.82125 0.401121 6.62815 0.977814L5.86529 2.97524C5.35935 4.22479 3.48812 5.55589 3.04523 5.858H0.394427C0.176589 5.858 0 6.03461 0 6.25242V12.0456C0 12.2634 0.176615 12.44 0.394427 12.44H3.09034C4.59315 13.0327 6.17409 13.3333 7.79073 13.3333H10.9534C11.7115 13.3333 12.3284 12.7165 12.3284 11.9584C12.3284 11.6929 12.2527 11.4447 12.1218 11.2343C12.5802 11.0111 12.8968 10.5404 12.8968 9.99724C12.8968 9.70745 12.8067 9.43828 12.653 9.21638C13.0542 8.97591 13.3232 8.53682 13.3232 8.03612ZM2.77081 11.6512H0.788854V6.6469H2.77081V11.6512ZM11.9482 8.62224H11.5219C11.304 8.62224 11.1274 8.79885 11.1274 9.01667C11.1274 9.23451 11.3041 9.41109 11.5219 9.41109C11.8451 9.41109 12.108 9.67404 12.108 9.99724C12.108 10.3204 11.8451 10.5834 11.5219 10.5834H10.9534C10.7356 10.5834 10.559 10.76 10.559 10.9778C10.559 11.1956 10.7356 11.3722 10.9534 11.3722C11.2766 11.3722 11.5395 11.6352 11.5395 11.9583C11.5395 12.2815 11.2766 12.5445 10.9534 12.5445H7.79075C6.33805 12.5445 4.91607 12.286 3.55971 11.7758V6.46235C4.15536 6.05141 6.03099 4.67469 6.59833 3.26685C6.59922 3.26461 6.6001 3.26237 6.60096 3.26013L7.36823 1.2512C7.37039 1.24557 7.37242 1.23987 7.37427 1.23417C7.44867 1.00891 7.56143 0.857476 7.69185 0.807814C7.81831 0.759611 7.95419 0.812658 8.04588 0.865653C8.04927 0.867606 8.37831 1.113 8.13362 2.9481C7.99463 3.99031 7.74221 4.98714 7.73971 4.99708C7.70963 5.11508 7.73581 5.24037 7.81047 5.33651C7.88521 5.43266 8.00013 5.48893 8.12193 5.48893H11.522C11.8451 5.48893 12.1081 5.75188 12.1081 6.07505C12.1081 6.39823 11.8451 6.66117 11.522 6.66117C11.3041 6.66117 11.1275 6.83779 11.1275 7.0556C11.1275 7.27344 11.3041 7.45003 11.522 7.45003H11.9483C12.2715 7.45003 12.5344 7.71297 12.5344 8.03615C12.5344 8.3593 12.2714 8.62224 11.9482 8.62224Z" fill="#141B34"/>
<path d="M12.6531 6.85589L11.831 6.28656L11.223 7.16446L12.1389 7.71356L12.6531 6.85589ZM8.61935 4.70005L7.64284 4.48457L7.37462 5.70005H8.61935V4.70005ZM8.91469 3.05875L7.92352 2.92615L7.92352 2.92616L8.91469 3.05875ZM8.44055 0.18258L8.94085 -0.683268L8.94078 -0.683309L8.44055 0.18258ZM7.41102 0.0705747L7.05523 -0.863994L7.05506 -0.863928L7.41102 0.0705747ZM6.62815 0.977814L7.56234 1.3346L7.56978 1.31511L7.5764 1.29533L6.62815 0.977814ZM5.86529 2.97524L6.79219 3.35053L6.79592 3.34132L6.79947 3.33202L5.86529 2.97524ZM3.04523 5.858V6.858H3.35382L3.60875 6.6841L3.04523 5.858ZM3.09034 12.44L3.45722 11.5098L3.28041 11.44H3.09034V12.44ZM12.1218 11.2343L11.684 10.3352L10.687 10.8208L11.2727 11.7625L12.1218 11.2343ZM12.653 9.21638L12.1389 8.35868L11.2229 8.90776L11.8309 9.78571L12.653 9.21638ZM2.77081 11.6512V12.6512H3.77081V11.6512H2.77081ZM0.788854 11.6512H-0.211146V12.6512H0.788854V11.6512ZM0.788854 6.6469V5.6469H-0.211146V6.6469H0.788854ZM2.77081 6.6469H3.77081V5.6469H2.77081V6.6469ZM3.55971 11.7758H2.55971V12.468L3.20764 12.7118L3.55971 11.7758ZM3.55971 6.46235L2.99185 5.63923L2.55971 5.93735V6.46235H3.55971ZM6.59833 3.26685L7.52587 3.64064L7.52829 3.63451L6.59833 3.26685ZM6.60096 3.26013L7.53459 3.61838L7.53515 3.61692L6.60096 3.26013ZM7.36823 1.2512L6.43477 0.892509L6.43404 0.894409L7.36823 1.2512ZM7.37427 1.23417L6.42471 0.920539L6.42301 0.92577L7.37427 1.23417ZM7.69185 0.807814L8.04771 1.74235L8.04803 1.74223L7.69185 0.807814ZM8.04588 0.865653L7.54549 1.73145L7.54616 1.73184L8.04588 0.865653ZM8.13362 2.9481L9.12484 3.08029L9.12485 3.08027L8.13362 2.9481ZM7.73971 4.99708L8.70873 5.2441L8.70956 5.24081L7.73971 4.99708ZM7.81047 5.33651L7.02064 5.94984L7.02095 5.95024L7.81047 5.33651ZM12.5344 8.03615L13.5344 8.03623V8.03615H12.5344ZM13.3232 8.03612H14.3232C14.3232 7.16853 13.8562 6.41125 13.1673 5.99822L12.6531 6.85589L12.1389 7.71356C12.2521 7.78146 12.3232 7.90231 12.3232 8.03612H13.3232ZM12.6531 6.85589L13.4752 7.42522C13.7406 7.04191 13.8969 6.57525 13.8969 6.07503H12.8969H11.8969C11.8969 6.15433 11.8729 6.22606 11.831 6.28656L12.6531 6.85589ZM12.8969 6.07503H13.8969C13.8969 4.76459 12.8323 3.70005 11.5219 3.70005V4.70005V5.70005C11.7278 5.70005 11.8969 5.86916 11.8969 6.07503H12.8969ZM11.5219 4.70005V3.70005H8.61935V4.70005V5.70005H11.5219V4.70005ZM8.61935 4.70005L9.59585 4.91554C9.68818 4.49715 9.81607 3.8625 9.90586 3.19135L8.91469 3.05875L7.92352 2.92616C7.84387 3.52151 7.72843 4.09671 7.64284 4.48457L8.61935 4.70005ZM8.91469 3.05875L9.90586 3.19135C10.0208 2.33188 10.0529 1.57652 9.95095 0.957889C9.84906 0.339842 9.58051 -0.31366 8.94085 -0.683268L8.44055 0.18258L7.94024 1.04843C7.84451 0.993116 7.92327 0.953729 7.97758 1.28321C8.0318 1.61211 8.029 2.13768 7.92352 2.92615L8.91469 3.05875ZM8.44055 0.18258L8.94078 -0.683309C8.37841 -1.0082 7.69902 -1.10908 7.05523 -0.863994L7.41102 0.0705747L7.7668 1.00514C7.77637 1.0015 7.78958 0.998411 7.81228 1.00088C7.83648 1.00351 7.88021 1.01375 7.94031 1.04847L8.44055 0.18258ZM7.41102 0.0705747L7.05506 -0.863928C6.54014 -0.667794 5.97334 -0.216071 5.6799 0.660302L6.62815 0.977814L7.5764 1.29533C7.62868 1.13921 7.68576 1.07054 7.71138 1.04445C7.73807 1.01727 7.75828 1.00839 7.76697 1.00508L7.41102 0.0705747ZM6.62815 0.977814L5.69396 0.621026L4.9311 2.61845L5.86529 2.97524L6.79947 3.33202L7.56234 1.3346L6.62815 0.977814ZM5.86529 2.97524L4.93838 2.59994C4.77683 2.99894 4.33379 3.5156 3.76338 4.02796C3.22327 4.51311 2.68492 4.89328 2.48172 5.03189L3.04523 5.858L3.60875 6.6841C3.84843 6.52061 4.46715 6.08417 5.09985 5.51586C5.70226 4.97475 6.44781 4.20109 6.79219 3.35053L5.86529 2.97524ZM3.04523 5.858V4.858H0.394427V5.858V6.858H3.04523V5.858ZM0.394427 5.858V4.858C-0.375739 4.858 -1 5.48237 -1 6.25242H0H1C1 6.58685 0.728916 6.858 0.394427 6.858V5.858ZM0 6.25242H-1V12.0456H0H1V6.25242H0ZM0 12.0456H-1C-1 12.8158 -0.375627 13.44 0.394427 13.44V12.44V11.44C0.728856 11.44 1 11.7111 1 12.0456H0ZM0.394427 12.44V13.44H3.09034V12.44V11.44H0.394427V12.44ZM3.09034 12.44L2.72346 13.3703C4.34309 14.009 6.04849 14.3333 7.79073 14.3333V13.3333V12.3333C6.29969 12.3333 4.84321 12.0564 3.45722 11.5098L3.09034 12.44ZM7.79073 13.3333V14.3333H10.9534V13.3333V12.3333H7.79073V13.3333ZM10.9534 13.3333V14.3333C12.2638 14.3333 13.3284 13.2688 13.3284 11.9584H12.3284H11.3284C11.3284 12.1642 11.1592 12.3333 10.9534 12.3333V13.3333ZM12.3284 11.9584H13.3284C13.3284 11.5003 13.1973 11.07 12.971 10.7061L12.1218 11.2343L11.2727 11.7625C11.3081 11.8194 11.3284 11.8854 11.3284 11.9584H12.3284ZM12.1218 11.2343L12.5597 12.1333C13.3478 11.7495 13.8968 10.9385 13.8968 9.99724H12.8968H11.8968C11.8968 10.1423 11.8126 10.2726 11.684 10.3352L12.1218 11.2343ZM12.8968 9.99724H13.8968C13.8968 9.49698 13.7406 9.03035 13.4751 8.64705L12.653 9.21638L11.8309 9.78571C11.8728 9.84621 11.8968 9.91792 11.8968 9.99724H12.8968ZM12.653 9.21638L13.1672 10.0741C13.8562 9.66104 14.3232 8.90371 14.3232 8.03612H13.3232H12.3232C12.3232 8.16994 12.2521 8.29079 12.1389 8.35868L12.653 9.21638ZM2.77081 11.6512V10.6512H0.788854V11.6512V12.6512H2.77081V11.6512ZM0.788854 11.6512H1.78885V6.6469H0.788854H-0.211146V11.6512H0.788854ZM0.788854 6.6469V7.6469H2.77081V6.6469V5.6469H0.788854V6.6469ZM2.77081 6.6469H1.77081V11.6512H2.77081H3.77081V6.6469H2.77081ZM11.9482 8.62224V7.62224H11.5219V8.62224V9.62224H11.9482V8.62224ZM11.5219 8.62224V7.62224C10.7517 7.62224 10.1274 8.24661 10.1274 9.01667H11.1274H12.1274C12.1274 9.3511 11.8564 9.62224 11.5219 9.62224V8.62224ZM11.1274 9.01667H10.1274C10.1274 9.78683 10.7518 10.4111 11.5219 10.4111V9.41109V8.41109C11.8563 8.41109 12.1274 8.68218 12.1274 9.01667H11.1274ZM11.5219 9.41109V10.4111C11.2927 10.4111 11.108 10.2263 11.108 9.99724H12.108H13.108C13.108 9.12178 12.3974 8.41109 11.5219 8.41109V9.41109ZM12.108 9.99724H11.108C11.108 9.76813 11.2928 9.58336 11.5219 9.58336V10.5834V11.5834C12.3973 11.5834 13.108 10.8727 13.108 9.99724H12.108ZM11.5219 10.5834V9.58336H10.9534V10.5834V11.5834H11.5219V10.5834ZM10.9534 10.5834V9.58336C10.1832 9.58336 9.55898 10.2077 9.55898 10.9778H10.559H11.559C11.559 11.3122 11.2879 11.5834 10.9534 11.5834V10.5834ZM10.559 10.9778H9.55898C9.55898 11.7479 10.1833 12.3722 10.9534 12.3722V11.3722V10.3722C11.2879 10.3722 11.559 10.6433 11.559 10.9778H10.559ZM10.9534 11.3722V12.3722C10.7243 12.3722 10.5395 12.1874 10.5395 11.9583H11.5395H12.5395C12.5395 11.0829 11.8289 10.3722 10.9534 10.3722V11.3722ZM11.5395 11.9583H10.5395C10.5395 11.7292 10.7243 11.5445 10.9534 11.5445V12.5445V13.5445C11.8289 13.5445 12.5395 12.8338 12.5395 11.9583H11.5395ZM10.9534 12.5445V11.5445H7.79075V12.5445V13.5445H10.9534V12.5445ZM7.79075 12.5445V11.5445C6.45809 11.5445 5.15539 11.3076 3.91179 10.8398L3.55971 11.7758L3.20764 12.7118C4.67675 13.2644 6.21801 13.5445 7.79075 13.5445V12.5445ZM3.55971 11.7758H4.55971V6.46235H3.55971H2.55971V11.7758H3.55971ZM3.55971 6.46235L4.12758 7.28547C4.44647 7.06546 5.10747 6.58773 5.77081 5.97056C6.41273 5.37332 7.15756 4.55453 7.52585 3.64063L6.59833 3.26685L5.67081 2.89307C5.47176 3.38701 4.99511 3.9605 4.40847 4.50631C3.84325 5.03219 3.2686 5.44829 2.99185 5.63923L3.55971 6.46235ZM6.59833 3.26685L7.52829 3.63451C7.52888 3.63302 7.53162 3.62611 7.53459 3.61838L6.60096 3.26013L5.66734 2.90188C5.66809 2.89993 5.66862 2.89858 5.66876 2.8982C5.66886 2.89795 5.66888 2.8979 5.66837 2.89919L6.59833 3.26685ZM6.60096 3.26013L7.53515 3.61692L8.30241 1.60799L7.36823 1.2512L6.43404 0.894409L5.66678 2.90334L6.60096 3.26013ZM7.36823 1.2512L8.30169 1.60989C8.30973 1.58894 8.31779 1.56645 8.32553 1.54257L7.37427 1.23417L6.42301 0.92577C6.42706 0.913297 6.43105 0.902206 6.43477 0.89251L7.36823 1.2512ZM7.37427 1.23417L8.32382 1.54779C8.33651 1.50938 8.33969 1.51805 8.31405 1.55247C8.29003 1.58472 8.20901 1.68093 8.04771 1.74235L7.69185 0.807814L7.33598 -0.126724C6.77714 0.0860793 6.52945 0.603476 6.42472 0.920543L7.37427 1.23417ZM7.69185 0.807814L8.04803 1.74223C7.87833 1.80692 7.73379 1.79056 7.66115 1.77411C7.59221 1.75851 7.55296 1.73577 7.54549 1.73145L8.04588 0.865653L8.54628 -0.000143709C8.40297 -0.0829703 7.91012 -0.345571 7.33567 -0.126603L7.69185 0.807814ZM8.04588 0.865653L7.54616 1.73184C7.50789 1.70976 7.47922 1.68961 7.47611 1.68745C7.46563 1.68018 7.45699 1.67389 7.45082 1.66931C7.43815 1.65992 7.42728 1.65139 7.41841 1.64422C7.40033 1.62961 7.38424 1.61551 7.37004 1.60234C7.34137 1.57575 7.31697 1.54971 7.29636 1.52529C7.25494 1.4762 7.22806 1.4327 7.21161 1.40162C7.17967 1.34129 7.18592 1.3258 7.19843 1.39568C7.22495 1.54378 7.25796 1.94921 7.14239 2.81593L8.13362 2.9481L9.12485 3.08027C9.25397 2.11188 9.2448 1.47707 9.16713 1.04321C9.12754 0.82211 9.06619 0.630217 8.97925 0.465974C8.9353 0.382939 8.88407 0.305616 8.82496 0.235562C8.79551 0.200657 8.76393 0.167356 8.73019 0.136061C8.71346 0.120538 8.69535 0.104729 8.67585 0.0889582C8.66627 0.0812113 8.65482 0.0722415 8.64174 0.0625416C8.63535 0.0578108 8.62655 0.0514016 8.61593 0.0440356C8.61269 0.0417898 8.58394 0.0215799 8.54561 -0.000532866L8.04588 0.865653ZM8.13362 2.9481L7.14239 2.81592C7.01129 3.799 6.77066 4.7502 6.76987 4.75335L7.73971 4.99708L8.70956 5.24081C8.70945 5.24125 8.711 5.23511 8.71332 5.22581C8.71564 5.21648 8.71887 5.20346 8.72291 5.18699C8.73098 5.15405 8.74229 5.10732 8.75611 5.04865C8.78374 4.93141 8.82154 4.76597 8.8637 4.56727C8.94756 4.17207 9.05081 3.63545 9.12484 3.08029L8.13362 2.9481ZM7.73971 4.99708L6.7707 4.75007C6.66428 5.16755 6.75695 5.61027 7.02064 5.94984L7.81047 5.33651L8.60029 4.72318C8.71466 4.87046 8.75499 5.06261 8.70872 5.2441L7.73971 4.99708ZM7.81047 5.33651L7.02095 5.95024C7.28498 6.28989 7.69119 6.48893 8.12193 6.48893V5.48893V4.48893C8.30907 4.48893 8.48543 4.57542 8.59998 4.72278L7.81047 5.33651ZM8.12193 5.48893V6.48893H11.522V5.48893V4.48893H8.12193V5.48893ZM11.522 5.48893V6.48893C11.2928 6.48893 11.1081 6.30416 11.1081 6.07505H12.1081H13.1081C13.1081 5.19959 12.3974 4.48893 11.522 4.48893V5.48893ZM12.1081 6.07505H11.1081C11.1081 5.84595 11.2928 5.66117 11.522 5.66117V6.66117V7.66117C12.3974 7.66117 13.1081 6.95052 13.1081 6.07505H12.1081ZM11.522 6.66117V5.66117C10.7518 5.66117 10.1275 6.28554 10.1275 7.0556H11.1275H12.1275C12.1275 7.39003 11.8564 7.66117 11.522 7.66117V6.66117ZM11.1275 7.0556H10.1275C10.1275 7.82577 10.7519 8.45003 11.522 8.45003V7.45003V6.45003C11.8564 6.45003 12.1275 6.72111 12.1275 7.0556H11.1275ZM11.522 7.45003V8.45003H11.9483V7.45003V6.45003H11.522V7.45003ZM11.9483 7.45003V8.45003C11.7192 8.45003 11.5344 8.26525 11.5344 8.03615H12.5344H13.5344C13.5344 7.16069 12.8237 6.45003 11.9483 6.45003V7.45003ZM12.5344 8.03615L11.5344 8.03607C11.5344 7.80686 11.7192 7.62224 11.9482 7.62224V8.62224V9.62224C12.8235 9.62224 13.5343 8.91173 13.5344 8.03623L12.5344 8.03615Z" fill="url(#paint0_linear_4073_6581)" mask="url(#path-1-inside-1_4073_6581)"/>
<defs>
<linearGradient id="paint0_linear_4073_6581" x1="0" y1="0" x2="14.751" y2="1.83109" gradientUnits="userSpaceOnUse">
<stop stop-color="#F79548"/>
<stop offset="1" stop-color="#E94262"/>
</linearGradient>
</defs>
</svg>
