<svg width="353" height="217" viewBox="0 0 353 217" fill="none" xmlns="http://www.w3.org/2000/svg">
<path d="M267.242 21.0064C267.242 32.3388 258.055 41.5256 246.723 41.5256C235.391 41.5256 226.204 32.3388 226.204 21.0064C226.204 9.67403 235.391 0.487305 246.723 0.487305C258.055 0.487305 267.242 9.67403 267.242 21.0064Z" fill="url(#paint0_linear_1271_32)"/>
<path d="M214.244 41.5227C201.42 42.3778 198.506 51.8185 196.047 64.1135L182.135 134.736C180.082 145.156 170.944 152.668 160.324 152.668H135.588C146.646 152.293 150.932 144.344 153.116 133.424L167.921 59.4036C169.998 49.017 179.116 41.5394 189.708 41.5344L214.244 41.5227ZM216.864 44.9465C223.4 44.9465 229.045 49.6106 230.232 56.0374L243.918 130.08C246.377 142.376 248.436 150.962 262.115 152.652H237.861C227.143 152.652 217.951 145.003 216.003 134.463L202.698 62.4797C200.721 53.4729 207.643 44.9465 216.864 44.9465ZM318.549 88.5452C285.206 60.3301 308.291 36.054 327.552 50.0012C341.228 59.9044 356.626 87.154 351.487 112.413C345.907 139.843 321.114 159.507 291.19 144.118C338.213 152.668 343.343 109.527 318.549 88.5452ZM316.798 41.6379C304.509 42.748 294.246 51.8184 291.787 64.1135L278.102 138.157C276.914 144.584 271.269 149.248 264.733 149.248C255.512 149.248 248.59 140.722 250.567 131.715L263.873 59.7239C265.821 49.1872 275.008 41.5398 285.723 41.5354L316.824 41.5227L316.798 41.6379ZM111.965 41.5227C122.683 41.5229 131.875 49.1715 133.823 59.7112L147.128 131.695C149.105 140.701 142.183 149.228 132.962 149.228C126.426 149.228 120.781 144.565 119.593 138.138L105.908 64.094C103.449 51.7987 101.39 43.2126 87.7109 41.5227H111.965Z" fill="url(#paint1_linear_1271_32)"/>
<path d="M171.49 21.0064C171.49 32.3388 162.303 41.5256 150.971 41.5256C139.639 41.5256 130.452 32.3388 130.452 21.0064C130.452 9.67403 139.639 0.487305 150.971 0.487305C162.303 0.487305 171.49 9.67403 171.49 21.0064Z" fill="url(#paint2_linear_1271_32)"/>
<path d="M18.6969 106.846C16.2379 94.5503 14.1793 85.9641 0.5 84.2742L24.5002 84.2742C35.331 84.2742 44.5852 92.0802 46.4109 102.756L51.4388 132.157C52.9668 141.092 46.0841 149.251 37.0194 149.251C30.2943 149.251 24.5708 144.354 23.5303 137.71L18.6969 106.846Z" fill="#00ADBA"/>
<path d="M63.7901 60.3361C63.7901 69.7798 56.1345 77.4354 46.6909 77.4354C37.2473 77.4354 29.5918 69.7798 29.5918 60.3361C29.5918 50.8924 37.2473 43.2368 46.6909 43.2368C56.1345 43.2368 63.7901 50.8924 63.7901 60.3361Z" fill="url(#paint3_linear_1271_32)"/>
<path d="M64.0611 152.652C74.7796 152.652 83.9716 145.003 85.9197 134.463L99.2245 62.48C101.202 53.4732 94.2795 44.9465 85.0582 44.9465C78.5227 44.9465 72.8775 49.6104 71.6896 56.0371L58.0046 130.081C55.5455 142.376 53.4869 150.962 39.8076 152.652L64.0611 152.652Z" fill="#00ADBA"/>
<path d="M39.2341 170.55V194.01C39.2341 197.265 38.2925 199.803 36.4093 201.622C34.5261 203.41 32.0046 204.304 28.8447 204.304C25.6528 204.304 23.0674 203.378 21.0885 201.527C19.1415 199.675 18.168 197.09 18.168 193.77H24.8708C24.9027 195.207 25.2379 196.324 25.8763 197.122C26.5465 197.92 27.5041 198.319 28.7489 198.319C29.9618 198.319 30.8874 197.936 31.5258 197.17C32.1642 196.404 32.4834 195.35 32.4834 194.01V170.55H39.2341Z" fill="url(#paint4_linear_1271_32)"/>
<path d="M81.3334 204.399C78.78 204.399 76.4818 203.841 74.4391 202.724C72.3963 201.575 70.7844 199.963 69.6034 197.888C68.4544 195.813 67.8798 193.419 67.8798 190.706C67.8798 187.993 68.4703 185.599 69.6513 183.524C70.8642 181.45 72.508 179.854 74.5827 178.737C76.6574 177.588 78.9715 177.013 81.5249 177.013C84.0784 177.013 86.3925 177.588 88.4672 178.737C90.5419 179.854 92.1697 181.45 93.3507 183.524C94.5636 185.599 95.17 187.993 95.17 190.706C95.17 193.419 94.5476 195.813 93.3028 197.888C92.0899 199.963 90.4302 201.575 88.3236 202.724C86.2489 203.841 83.9188 204.399 81.3334 204.399ZM81.3334 198.558C82.5463 198.558 83.6794 198.271 84.7327 197.696C85.818 197.09 86.6798 196.196 87.3181 195.015C87.9565 193.834 88.2757 192.398 88.2757 190.706C88.2757 188.185 87.6054 186.254 86.2648 184.913C84.9562 183.54 83.3443 182.854 81.4292 182.854C79.5141 182.854 77.9022 183.54 76.5936 184.913C75.3168 186.254 74.6785 188.185 74.6785 190.706C74.6785 193.228 75.3009 195.175 76.5457 196.547C77.8224 197.888 79.4183 198.558 81.3334 198.558Z" fill="url(#paint5_linear_1271_32)"/>
<path d="M147.629 177.444V203.968H140.879V200.617C140.017 201.766 138.884 202.676 137.479 203.346C136.107 203.984 134.607 204.304 132.979 204.304C130.904 204.304 129.069 203.873 127.473 203.011C125.877 202.117 124.616 200.824 123.69 199.133C122.797 197.409 122.35 195.366 122.35 193.004V177.444H129.053V192.047C129.053 194.153 129.579 195.781 130.633 196.93C131.686 198.047 133.122 198.606 134.942 198.606C136.793 198.606 138.245 198.047 139.299 196.93C140.352 195.781 140.879 194.153 140.879 192.047V177.444H147.629Z" fill="url(#paint6_linear_1271_32)"/>
<path d="M183.448 181.562C184.31 180.157 185.427 179.056 186.799 178.258C188.204 177.46 189.8 177.061 191.587 177.061V184.099H189.816C187.709 184.099 186.113 184.594 185.028 185.583C183.975 186.573 183.448 188.296 183.448 190.754V203.968H176.745V177.444H183.448V181.562Z" fill="url(#paint7_linear_1271_32)"/>
<path d="M233.303 177.061C236.463 177.061 239.016 178.066 240.963 180.077C242.91 182.056 243.884 184.833 243.884 188.408V203.968H237.181V189.318C237.181 187.211 236.654 185.599 235.601 184.482C234.548 183.333 233.111 182.758 231.292 182.758C229.441 182.758 227.972 183.333 226.887 184.482C225.834 185.599 225.307 187.211 225.307 189.318V203.968H218.604V177.444H225.307V180.748C226.201 179.599 227.334 178.705 228.707 178.066C230.111 177.396 231.643 177.061 233.303 177.061Z" fill="url(#paint8_linear_1271_32)"/>
<path d="M297.417 190.132C297.417 191.089 297.353 191.951 297.226 192.717H277.835C277.995 194.632 278.665 196.132 279.846 197.218C281.027 198.303 282.479 198.845 284.203 198.845C286.693 198.845 288.464 197.776 289.517 195.638H296.747C295.981 198.191 294.513 200.298 292.342 201.958C290.172 203.585 287.507 204.399 284.347 204.399C281.793 204.399 279.495 203.841 277.452 202.724C275.441 201.575 273.861 199.963 272.712 197.888C271.595 195.813 271.037 193.419 271.037 190.706C271.037 187.961 271.595 185.551 272.712 183.477C273.83 181.402 275.394 179.806 277.404 178.689C279.415 177.572 281.729 177.013 284.347 177.013C286.868 177.013 289.118 177.556 291.097 178.641C293.108 179.726 294.656 181.274 295.741 183.285C296.859 185.264 297.417 187.546 297.417 190.132ZM290.475 188.217C290.443 186.493 289.821 185.12 288.608 184.099C287.395 183.046 285.911 182.519 284.155 182.519C282.495 182.519 281.091 183.03 279.942 184.051C278.825 185.041 278.139 186.429 277.883 188.217H290.475Z" fill="url(#paint9_linear_1271_32)"/>
<path d="M350.187 177.444L333.765 216.512H326.632L332.377 203.298L321.748 177.444H329.265L336.111 195.973L343.053 177.444H350.187Z" fill="url(#paint10_linear_1271_32)"/>
<defs>
<linearGradient id="paint0_linear_1271_32" x1="227.059" y1="51.7851" x2="190.296" y2="49.2203" gradientUnits="userSpaceOnUse">
<stop stop-color="#F79548"/>
<stop offset="1" stop-color="#E94262"/>
</linearGradient>
<linearGradient id="paint1_linear_1271_32" x1="219.373" y1="97.9504" x2="323.676" y2="97.9504" gradientUnits="userSpaceOnUse">
<stop stop-color="#F79548"/>
<stop offset="1" stop-color="#E94262"/>
</linearGradient>
<linearGradient id="paint2_linear_1271_32" x1="170.635" y1="56.9149" x2="230.482" y2="52.6402" gradientUnits="userSpaceOnUse">
<stop stop-color="#F79548"/>
<stop offset="1" stop-color="#E94262"/>
</linearGradient>
<linearGradient id="paint3_linear_1271_32" x1="65.5" y1="64.6109" x2="128.767" y2="43.2371" gradientUnits="userSpaceOnUse">
<stop stop-color="#00ADBA"/>
<stop offset="1" stop-color="#183B4D"/>
</linearGradient>
<linearGradient id="paint4_linear_1271_32" x1="55.43" y1="186.869" x2="351.043" y2="186.869" gradientUnits="userSpaceOnUse">
<stop stop-color="#00ADBA"/>
<stop offset="0.30898" stop-color="#F79548"/>
<stop offset="1" stop-color="#E94262"/>
</linearGradient>
<linearGradient id="paint5_linear_1271_32" x1="55.43" y1="186.869" x2="351.043" y2="186.869" gradientUnits="userSpaceOnUse">
<stop stop-color="#00ADBA"/>
<stop offset="0.30898" stop-color="#F79548"/>
<stop offset="1" stop-color="#E94262"/>
</linearGradient>
<linearGradient id="paint6_linear_1271_32" x1="55.43" y1="186.869" x2="351.043" y2="186.869" gradientUnits="userSpaceOnUse">
<stop stop-color="#00ADBA"/>
<stop offset="0.30898" stop-color="#F79548"/>
<stop offset="1" stop-color="#E94262"/>
</linearGradient>
<linearGradient id="paint7_linear_1271_32" x1="55.43" y1="186.869" x2="351.043" y2="186.869" gradientUnits="userSpaceOnUse">
<stop stop-color="#00ADBA"/>
<stop offset="0.30898" stop-color="#F79548"/>
<stop offset="1" stop-color="#E94262"/>
</linearGradient>
<linearGradient id="paint8_linear_1271_32" x1="55.43" y1="186.869" x2="351.043" y2="186.869" gradientUnits="userSpaceOnUse">
<stop stop-color="#00ADBA"/>
<stop offset="0.30898" stop-color="#F79548"/>
<stop offset="1" stop-color="#E94262"/>
</linearGradient>
<linearGradient id="paint9_linear_1271_32" x1="55.43" y1="186.869" x2="351.043" y2="186.869" gradientUnits="userSpaceOnUse">
<stop stop-color="#00ADBA"/>
<stop offset="0.30898" stop-color="#F79548"/>
<stop offset="1" stop-color="#E94262"/>
</linearGradient>
<linearGradient id="paint10_linear_1271_32" x1="55.43" y1="186.869" x2="351.043" y2="186.869" gradientUnits="userSpaceOnUse">
<stop stop-color="#00ADBA"/>
<stop offset="0.30898" stop-color="#F79548"/>
<stop offset="1" stop-color="#E94262"/>
</linearGradient>
</defs>
</svg>
