<svg width="16" height="16" viewBox="0 0 16 16" fill="none" xmlns="http://www.w3.org/2000/svg">
<path d="M7.53125 1.50068C9.18678 1.46018 10.4396 2.72709 10.4994 4.2305C10.5101 4.50615 10.2958 4.73825 10.0202 4.74938C9.7444 4.76034 9.51183 4.54595 9.50066 4.27022C9.46227 3.30438 8.65706 2.47375 7.55599 2.50068C7.31481 2.50659 6.99542 2.59271 6.16993 2.82555C4.30375 3.35194 2.9035 4.17691 2.56381 5.90889C2.50245 6.22197 2.5 6.58275 2.5 7.44209V8.55798C2.5 9.41733 2.50244 9.77809 2.56381 10.0912C2.90352 11.8231 4.30376 12.6481 6.16993 13.1745C6.99541 13.4074 7.31481 13.4935 7.55599 13.4994C8.65704 13.5263 9.46224 12.6957 9.50066 11.7299C9.51179 11.4542 9.74386 11.2399 10.0195 11.2507C10.2954 11.2616 10.5102 11.4938 10.4994 11.7696C10.4396 13.273 9.18676 14.5399 7.53125 14.4994C7.1312 14.4895 6.65801 14.3517 5.89844 14.1374C3.9493 13.5876 2.03768 12.6036 1.58269 10.2839C1.49804 9.85228 1.5 9.37445 1.5 8.55798V7.44209C1.5 6.62562 1.49805 6.14778 1.58269 5.71618C2.03766 3.39643 3.9493 2.41245 5.89844 1.86266C6.65802 1.64841 7.1312 1.51053 7.53125 1.50068Z" fill="#E94262"/>
<path d="M11.9746 5.98506C12.167 5.78711 12.4836 5.78236 12.6816 5.97464C12.7425 6.03378 12.864 6.13139 13.0449 6.27347C13.2145 6.40664 13.4208 6.56721 13.6165 6.73311C13.8101 6.89711 14.011 7.08086 14.1673 7.26436C14.2456 7.35628 14.3231 7.4602 14.3828 7.57165C14.4404 7.67927 14.5 7.82789 14.5 8.00003C14.5 8.17217 14.4404 8.32082 14.3828 8.42842C14.3231 8.53986 14.2456 8.64379 14.1673 8.73571C14.011 8.9192 13.8101 9.10296 13.6165 9.26696C13.4208 9.43286 13.2145 9.59343 13.0449 9.7266C12.864 9.8687 12.7425 9.9663 12.6816 10.0254C12.4836 10.2176 12.167 10.2129 11.9746 10.015C11.7824 9.817 11.7871 9.50039 11.985 9.30798C12.0927 9.20334 12.2641 9.06881 12.4271 8.94079C12.6016 8.80374 12.7914 8.65529 12.9701 8.50394C12.9716 8.50266 12.9731 8.50131 12.9746 8.50003H6.66667C6.39057 8.50003 6.16674 8.27612 6.16667 8.00003C6.16667 7.72389 6.39053 7.50003 6.66667 7.50003H12.9746C12.9731 7.49876 12.9716 7.49741 12.9701 7.49613C12.7914 7.34477 12.6016 7.19633 12.4271 7.05928C12.2641 6.93127 12.0927 6.79673 11.985 6.69209C11.7871 6.4997 11.7824 6.18309 11.9746 5.98506Z" fill="#E94262"/>
</svg>
