<svg width="16" height="17" viewBox="0 0 16 17" fill="none" xmlns="http://www.w3.org/2000/svg">
<g clip-path="url(#clip0_1_2622)">
<path d="M10.5 2.26123C10.5 3.3658 9.60457 4.26123 8.5 4.26123C7.39543 4.26123 6.5 3.3658 6.5 2.26123C6.5 1.15666 7.39543 0.26123 8.5 0.26123C9.60457 0.26123 10.5 1.15666 10.5 2.26123Z" fill="#94A7BF"/>
<path d="M10.5 8.26123C10.5 9.3658 9.60457 10.2612 8.5 10.2612C7.39543 10.2612 6.5 9.3658 6.5 8.26123C6.5 7.15666 7.39543 6.26123 8.5 6.26123C9.60457 6.26123 10.5 7.15666 10.5 8.26123Z" fill="#94A7BF"/>
<path d="M10.5 14.2612C10.5 15.3658 9.60457 16.2612 8.5 16.2612C7.39543 16.2612 6.5 15.3658 6.5 14.2612C6.5 13.1567 7.39543 12.2612 8.5 12.2612C9.60457 12.2612 10.5 13.1567 10.5 14.2612Z" fill="#94A7BF"/>
</g>
<defs>
<clipPath id="clip0_1_2622">
<rect width="16" height="16" fill="white" transform="translate(0 0.26123)"/>
</clipPath>
</defs>
</svg>
