<svg width="15" height="15" viewBox="0 0 15 15" fill="none" xmlns="http://www.w3.org/2000/svg">
<path d="M7.17253 9.66667C7.44867 9.66667 7.67253 9.89052 7.67253 10.1667C7.67253 10.4428 7.44867 10.6667 7.17253 10.6667H7.16667C6.89052 10.6667 6.66667 10.4428 6.66667 10.1667C6.66667 9.89052 6.89052 9.66667 7.16667 9.66667H7.17253Z" fill="url(#paint0_linear_4073_18562)"/>
<path d="M7.16667 4C8.14066 4 8.99983 4.73781 9 5.73047C9 6.08335 8.88793 6.41083 8.69922 6.68164C8.58268 6.84882 8.44642 7.00796 8.32227 7.15039C8.19236 7.29942 8.07614 7.42939 7.9707 7.56315C7.75391 7.83822 7.66676 8.02995 7.66667 8.19206V8.5C7.66667 8.77614 7.44281 9 7.16667 9C6.89052 9 6.66667 8.77614 6.66667 8.5V8.19206C6.66676 7.67465 6.94118 7.25403 7.18555 6.94401C7.31082 6.78508 7.45052 6.62867 7.56836 6.49349C7.69183 6.35185 7.79564 6.22851 7.87826 6.11003C7.95684 5.9973 8 5.86751 8 5.73047C7.99982 5.36391 7.6652 5 7.16667 5C6.66813 5 6.33352 5.36391 6.33333 5.73047C6.33333 6.00661 6.10948 6.23047 5.83333 6.23047C5.55719 6.23047 5.33333 6.00661 5.33333 5.73047C5.33351 4.73781 6.19268 4 7.16667 4Z" fill="url(#paint1_linear_4073_18562)"/>
<path fill-rule="evenodd" clip-rule="evenodd" d="M7.16667 0C11.1031 0 14.3332 3.05881 14.3333 6.8776C14.3333 10.6965 11.1032 13.7552 7.16667 13.7552C6.70276 13.7558 6.24008 13.7132 5.78451 13.6276C5.62647 13.5979 5.5259 13.5793 5.45117 13.569C5.42128 13.5649 5.40202 13.5613 5.39063 13.5605C5.40824 13.5574 5.3951 13.556 5.31836 13.5924C5.24205 13.6287 5.14058 13.6829 4.98503 13.7656C4.03055 14.2732 2.9165 14.453 1.84245 14.2533C1.66912 14.2209 1.52566 14.0998 1.46484 13.9342C1.40407 13.7687 1.43497 13.5835 1.54622 13.4466L1.6582 13.2988C1.90954 12.9465 2.08438 12.5383 2.16732 12.1029C2.1927 11.9661 2.1346 11.7806 1.95638 11.5996C0.746515 10.3711 0 8.70938 0 6.8776C0.000116875 3.05881 3.23022 0 7.16667 0ZM7.16667 1C3.74029 1 1.00012 3.65239 1 6.8776C1 8.43023 1.63118 9.84425 2.66862 10.8978C2.98474 11.2188 3.25718 11.7194 3.14974 12.2891V12.2904L3.09505 12.5345C3.0246 12.8111 2.92378 13.0776 2.79818 13.3314C3.39473 13.3176 3.98537 13.1644 4.51497 12.8828C4.662 12.8046 4.78759 12.7378 4.88932 12.6895C4.98545 12.6438 5.10575 12.5921 5.23568 12.5723L5.32943 12.5632C5.42217 12.5589 5.51051 12.5676 5.58724 12.5781C5.69223 12.5925 5.82147 12.6174 5.9694 12.6452C6.36398 12.7193 6.76447 12.7564 7.16602 12.7559C10.5925 12.7559 13.3333 10.1029 13.3333 6.8776C13.3332 3.65239 10.593 1 7.16667 1Z" fill="url(#paint2_linear_4073_18562)"/>
<defs>
<linearGradient id="paint0_linear_4073_18562" x1="0" y1="0" x2="15.869" y2="1.9714" gradientUnits="userSpaceOnUse">
<stop stop-color="#F79548"/>
<stop offset="1" stop-color="#E94262"/>
</linearGradient>
<linearGradient id="paint1_linear_4073_18562" x1="0" y1="0" x2="15.869" y2="1.9714" gradientUnits="userSpaceOnUse">
<stop stop-color="#F79548"/>
<stop offset="1" stop-color="#E94262"/>
</linearGradient>
<linearGradient id="paint2_linear_4073_18562" x1="0" y1="0" x2="15.869" y2="1.9714" gradientUnits="userSpaceOnUse">
<stop stop-color="#F79548"/>
<stop offset="1" stop-color="#E94262"/>
</linearGradient>
</defs>
</svg>
