<svg width="12" height="7" viewBox="0 0 12 7" fill="none" xmlns="http://www.w3.org/2000/svg">
<path d="M6.09601 6.09032C6.31252 6.06704 6.47976 5.96785 6.60141 5.87504C6.72673 5.77943 6.85813 5.64687 6.97796 5.52705L11.1601 1.34491C11.3915 1.11349 11.3915 0.738366 11.1601 0.506942C10.9287 0.275518 10.5535 0.275518 10.3221 0.506942L6.13999 4.68908C6.0847 4.74437 6.03972 4.78905 6.00033 4.82719C5.96093 4.78905 5.91595 4.74437 5.86066 4.68908L1.67853 0.506942C1.44711 0.275518 1.07198 0.275518 0.84056 0.506942C0.609136 0.738366 0.609136 1.11349 0.84056 1.34491L5.02269 5.52705C5.14252 5.64687 5.27392 5.77943 5.39924 5.87504C5.53825 5.9811 5.73685 6.09572 6.00033 6.09572L6.09601 6.09032Z" fill="#4CC6CF"/>
</svg>
