<svg width="16" height="16" viewBox="0 0 16 16" fill="none" xmlns="http://www.w3.org/2000/svg">
<path d="M5.64645 3.64651C5.84171 3.45125 6.15822 3.45125 6.35348 3.64651L9.88212 7.17515C9.98323 7.27626 10.0951 7.38713 10.1757 7.49286C10.2652 7.61015 10.3619 7.77772 10.3619 8.00002C10.3619 8.22233 10.2652 8.38989 10.1757 8.50718C10.0951 8.61292 9.98323 8.72379 9.88212 8.82489L6.35348 12.3535C6.15822 12.5488 5.84171 12.5488 5.64645 12.3535C5.45118 12.1583 5.45118 11.8418 5.64645 11.6465L9.17509 8.11786C9.22159 8.07136 9.25886 8.03319 9.29098 8.00002C9.25886 7.96686 9.22159 7.92868 9.17509 7.88218L5.64645 4.35354C5.45118 4.15828 5.45118 3.84177 5.64645 3.64651Z" fill="#94A7BF"/>
</svg>
