<svg width="14" height="14" viewBox="0 0 14 14" fill="none" xmlns="http://www.w3.org/2000/svg">
<path d="M12.3907 0.724562C12.6348 0.480484 13.0305 0.480484 13.2745 0.724562C13.5186 0.96864 13.5186 1.36427 13.2745 1.60835L7.88309 6.99979L13.2745 12.3912C13.5186 12.6353 13.5186 13.0309 13.2745 13.275C13.0305 13.5191 12.6348 13.5191 12.3907 13.275L6.9993 7.88358L1.60786 13.275C1.36379 13.5191 0.968151 13.5191 0.724074 13.275C0.479996 13.0309 0.479996 12.6353 0.724074 12.3912L6.11551 6.99979L0.724074 1.60835C0.479996 1.36427 0.479996 0.96864 0.724074 0.724562C0.968152 0.480484 1.36379 0.480484 1.60786 0.724562L6.9993 6.116L12.3907 0.724562Z" fill="#94A7BF"/>
</svg>
