<svg
                      width="18"
                      height="16"
                      viewBox="0 0 18 16"
                      fill="none"
                      xmlns="http://www.w3.org/2000/svg"
                    >
                      <path
                        fillRule="evenodd"
                        clipRule="evenodd"
                        d="M14 0.291992C15.7259 0.291992 17.125 1.6911 17.125 3.41699C17.125 5.14288 15.7259 6.54199 14 6.54199C12.9586 6.54199 12.0369 6.03207 11.4691 5.24886L7.04281 7.29232C7.09555 7.51992 7.125 7.75668 7.125 8.00033C7.125 8.24424 7.09567 8.48131 7.04281 8.70915L11.4683 10.751C12.0361 9.96785 12.9587 9.45866 14 9.45866C15.7259 9.45866 17.125 10.8578 17.125 12.5837C17.125 14.3095 15.7259 15.7087 14 15.7087C12.2741 15.7087 10.875 14.3095 10.875 12.5837C10.875 12.3454 10.9018 12.1133 10.9523 11.8903L6.52116 9.84522C5.95253 10.621 5.03554 11.1253 4 11.1253C2.27411 11.1253 0.875 9.72622 0.875 8.00033C0.875 6.27444 2.27411 4.87533 4 4.87533C5.03572 4.87533 5.95337 5.37947 6.52197 6.15544L10.9531 4.11117C10.9025 3.88786 10.875 3.65563 10.875 3.41699C10.875 1.6911 12.2741 0.291992 14 0.291992ZM14 10.7087C12.9645 10.7087 12.125 11.5481 12.125 12.5837C12.125 13.6192 12.9645 14.4587 14 14.4587C15.0355 14.4587 15.875 13.6192 15.875 12.5837C15.875 11.5481 15.0355 10.7087 14 10.7087ZM4 6.12533C2.96447 6.12533 2.125 6.96479 2.125 8.00033C2.125 9.03586 2.96447 9.87533 4 9.87533C5.03553 9.87533 5.875 9.03586 5.875 8.00033C5.875 6.96479 5.03553 6.12533 4 6.12533ZM14 1.54199C12.9645 1.54199 12.125 2.38146 12.125 3.41699C12.125 4.45253 12.9645 5.29199 14 5.29199C15.0355 5.29199 15.875 4.45253 15.875 3.41699C15.875 2.38146 15.0355 1.54199 14 1.54199Z"
                        fill="#94A7BF"
                      />
                    </svg>