<svg width="32" height="32" viewBox="0 0 32 32" fill="none" xmlns="http://www.w3.org/2000/svg">
<g clip-path="url(#clip0_1709_4339)">
<path d="M17.3398 4.12715C17.9244 3.90461 18.583 3.97575 19.1934 4.32833C20.1724 4.89406 20.4437 6.53976 20.0469 9.50606C19.8944 10.6459 19.6748 11.7346 19.5146 12.4602H24.7393C26.1038 12.4602 27.2146 13.5703 27.2148 14.9348C27.2148 15.4564 27.052 15.9416 26.7754 16.341C27.4973 16.7738 27.9824 17.5638 27.9824 18.465C27.9824 19.3663 27.4975 20.1572 26.7754 20.59C27.052 20.9895 27.2148 21.4737 27.2148 21.9953C27.2148 22.9729 26.6443 23.8201 25.8193 24.2219C26.0549 24.6006 26.1914 25.0477 26.1914 25.5256C26.1912 26.89 25.0812 28 23.7168 28.0002H18.0234C15.415 28.0002 12.8584 27.5647 10.4082 26.7063V13.8781C11.7303 12.8801 13.8614 11.0748 14.5576 9.35567L15.9307 5.75997C16.2782 4.72218 16.8882 4.29924 17.3398 4.12715Z" fill="#F79548"/>
<path d="M8.98828 14.5451V26.3928H4.71094C4.3189 26.3928 4.00004 26.0749 4 25.6828V15.2551C4 14.863 4.31883 14.5451 4.71094 14.5451H8.98828Z" fill="#F79548"/>
</g>
<circle cx="5.5" cy="11.5" r="1.5" fill="#4CC6CF"/>
<circle cx="24" cy="9" r="2" fill="#E94262"/>
<circle cx="11" cy="7" r="1" fill="#F06C55"/>
<circle cx="28" cy="4" r="1" fill="#F79548"/>
<circle cx="13" cy="30" r="1" fill="#7DB8A8"/>
<circle cx="28" cy="26" r="1" fill="#183B4D"/>
<circle cx="3.5" cy="29.5" r="0.5" fill="#F79548"/>
<circle cx="30.5" cy="28.5" r="0.5" fill="#4CC6CF"/>
<circle cx="5.5" cy="4.5" r="0.5" fill="#7DB8A8"/>
<defs>
<clipPath id="clip0_1709_4339">
<rect width="24" height="24" fill="white" transform="translate(4 4)"/>
</clipPath>
</defs>
</svg>
