<svg xmlns="http://www.w3.org/2000/svg" width="24" height="24" viewBox="0 0 24 24" fill="none">
  <g clip-path="url(#clip0_2500_16485)">
    <path d="M13.3398 0.127154C13.9244 -0.0953937 14.583 -0.0242532 15.1934 0.328326C16.1724 0.894061 16.4437 2.53976 16.0469 5.50606C15.8944 6.64586 15.6748 7.73457 15.5146 8.46016H20.7393C22.1038 8.46016 23.2146 9.57028 23.2148 10.9348C23.2148 11.4564 23.052 11.9416 22.7754 12.341C23.4973 12.7738 23.9824 13.5638 23.9824 14.465C23.9824 15.3663 23.4975 16.1572 22.7754 16.59C23.052 16.9895 23.2148 17.4737 23.2148 17.9953C23.2148 18.9729 22.6443 19.8201 21.8193 20.2219C22.0549 20.6006 22.1914 21.0477 22.1914 21.5256C22.1912 22.89 21.0812 24 19.7168 24.0002H14.0234C11.415 24.0002 8.85838 23.5647 6.4082 22.7063V9.87813C7.73028 8.88013 9.86142 7.07481 10.5576 5.35567L11.9307 1.75997C12.2782 0.722178 12.8882 0.29924 13.3398 0.127154Z" fill="#F9B57F"/>
    <path d="M4.98828 10.5451V22.3928H0.710938C0.318901 22.3928 4.31247e-05 22.0749 0 21.6828V11.2551C0 10.863 0.318827 10.5451 0.710938 10.5451H4.98828Z" fill="#F9B57F"/>
    <path d="M23.9818 14.465C23.9818 13.5638 23.4975 12.7734 22.7755 12.3406C23.0521 11.9412 23.2144 11.4566 23.2144 10.935C23.2144 9.57038 22.1041 8.4601 20.7394 8.4601H15.5148C15.675 7.73447 15.894 6.64561 16.0464 5.50575C16.4433 2.53946 16.1721 0.894378 15.193 0.328644C14.5826 -0.0239967 13.9245 -0.095528 13.3398 0.127035C12.8882 0.299066 12.2782 0.722019 11.9307 1.76007L10.5575 5.35542C9.64683 7.60463 6.27862 10.0006 5.48142 10.5444H0.709969C0.317859 10.5444 0 10.8623 0 11.2544V21.6821C0 22.0742 0.317906 22.392 0.709969 22.392H5.56261C8.26767 23.4589 11.1134 24 14.0233 24H19.7161C21.0808 24 22.191 22.8897 22.191 21.525C22.191 21.0472 22.0549 20.6004 21.8193 20.2217C22.6444 19.8199 23.2143 18.9727 23.2143 17.995C23.2143 17.4734 23.052 16.9889 22.7754 16.5895C23.4975 16.1566 23.9818 15.3663 23.9818 14.465ZM4.98745 20.9722H1.41994V11.9644H4.98745V20.9722ZM21.5068 15.52H20.7394C20.3473 15.52 20.0294 15.8379 20.0294 16.23C20.0294 16.6221 20.3473 16.94 20.7394 16.94C21.3211 16.94 21.7944 17.4133 21.7944 17.995C21.7944 18.5768 21.3211 19.05 20.7394 19.05H19.7161C19.324 19.05 19.0062 19.368 19.0062 19.76C19.0062 20.1521 19.3241 20.47 19.7161 20.47C20.2979 20.47 20.7712 20.9433 20.7712 21.525C20.7712 22.1067 20.2979 22.58 19.7161 22.58H14.0234C11.4085 22.58 8.84892 22.1148 6.40748 21.1964V11.6322C7.47965 10.8925 10.8558 8.41444 11.877 5.88033C11.8786 5.8763 11.8802 5.87227 11.8817 5.86824L13.2628 2.25216C13.2667 2.24203 13.2704 2.23177 13.2737 2.2215C13.4076 1.81603 13.6106 1.54346 13.8453 1.45407C14.073 1.3673 14.3175 1.46278 14.4826 1.55817C14.4887 1.56169 15.081 2.00339 14.6405 5.30658C14.3903 7.18256 13.936 8.97685 13.9315 8.99475C13.8773 9.20714 13.9245 9.43266 14.0588 9.60572C14.1934 9.77878 14.4002 9.88008 14.6195 9.88008H20.7395C21.3212 9.88008 21.7945 10.3534 21.7945 10.9351C21.7945 11.5168 21.3212 11.9901 20.7395 11.9901C20.3474 11.9901 20.0295 12.308 20.0295 12.7001C20.0295 13.0922 20.3474 13.41 20.7395 13.41H21.5069C22.0886 13.41 22.5619 13.8833 22.5619 14.4651C22.5619 15.0467 22.0885 15.52 21.5068 15.52Z" fill="#F79548"/>
  </g>
  <defs>
    <clipPath id="clip0_2500_16485">
      <rect width="24" height="24" fill="white"/>
    </clipPath>
  </defs>
</svg>