<svg width="40" height="40" viewBox="0 0 40 40" fill="none" xmlns="http://www.w3.org/2000/svg">
<path d="M36.6542 23.4233C36.6542 22.1716 35.9816 21.0739 34.9789 20.4727C35.3631 19.918 35.5884 19.245 35.5884 18.5206C35.5884 16.6252 34.0463 15.0831 32.1509 15.0831H24.8946C25.117 14.0753 25.4211 12.563 25.6329 10.9799C26.1841 6.86003 25.8074 4.5752 24.4476 3.78946C23.5998 3.29968 22.6857 3.20033 21.8737 3.50944C21.2465 3.74838 20.3993 4.33581 19.9166 5.77754L18.0094 10.7711C16.7446 13.895 12.0665 17.2227 10.9593 17.978H4.33226C3.78766 17.978 3.34619 18.4195 3.34619 18.9641V33.447C3.34619 33.9916 3.78773 34.4331 4.33226 34.4331H11.072C14.8291 35.9148 18.7814 36.6663 22.823 36.6663H30.7297C32.625 36.6663 34.1671 35.1243 34.1671 33.2289C34.1671 32.5652 33.978 31.9447 33.6508 31.4187C34.7967 30.8607 35.5882 29.684 35.5882 28.3261C35.5882 27.6016 35.3629 26.9287 34.9787 26.374C35.9816 25.7728 36.6542 24.6751 36.6542 23.4233ZM10.2732 32.461H5.31833V19.9503H10.2732V32.461ZM33.2167 24.8886H32.1509C31.6063 24.8886 31.1648 25.3301 31.1648 25.8747C31.1648 26.4193 31.6063 26.8607 32.1509 26.8607C32.9588 26.8607 33.6162 27.5181 33.6162 28.3261C33.6162 29.1341 32.9588 29.7914 32.1509 29.7914H30.7297C30.1851 29.7914 29.7437 30.2329 29.7437 30.7775C29.7437 31.322 30.1852 31.7635 30.7297 31.7635C31.5377 31.7635 32.195 32.4209 32.195 33.2288C32.195 34.0368 31.5377 34.6941 30.7297 34.6941H22.8231C19.1913 34.6941 15.6364 34.048 12.2455 32.7725V19.4889C13.7346 18.4615 18.4237 15.0197 19.842 11.5001C19.8442 11.4945 19.8465 11.4889 19.8486 11.4833L21.7668 6.46101C21.7722 6.44694 21.7772 6.43269 21.7819 6.41843C21.9679 5.85528 22.2498 5.4767 22.5758 5.35254C22.892 5.23204 23.2317 5.36465 23.4609 5.49714C23.4694 5.50202 24.292 6.1155 23.6802 10.7033C23.3328 13.3088 22.7017 15.8008 22.6955 15.8257C22.6203 16.1207 22.6857 16.4339 22.8724 16.6743C23.0592 16.9147 23.3465 17.0553 23.651 17.0553H32.1511C32.959 17.0553 33.6164 17.7127 33.6164 18.5206C33.6164 19.3286 32.959 19.9859 32.1511 19.9859C31.6065 19.9859 31.165 20.4275 31.165 20.972C31.165 21.5166 31.6065 21.9581 32.1511 21.9581H33.2169C34.0248 21.9581 34.6822 22.6154 34.6822 23.4234C34.6821 24.2313 34.0246 24.8886 33.2167 24.8886Z" fill="#94A7BF" fill-opacity="0.2"/>
</svg>
