<svg width="19" height="18" viewBox="0 0 19 18" fill="none" xmlns="http://www.w3.org/2000/svg">
<path d="M11.4608 9.68358C12.4941 10.7167 14.1694 10.7165 15.2027 9.68358C16.0245 8.86181 16.1923 7.63499 15.7089 6.6481C15.6684 6.56551 15.653 6.48197 15.656 6.42186C15.6587 6.3687 15.6734 6.35474 15.6747 6.3535L18.6329 3.39533C18.8769 3.15129 18.8768 2.75563 18.6329 2.51154C18.3888 2.26746 17.9932 2.26746 17.7491 2.51154L14.7909 5.46971C14.2654 5.99528 14.3621 6.74156 14.5858 7.19823C14.8414 7.72003 14.7514 8.36728 14.3189 8.79979C13.7737 9.34456 12.8897 9.34475 12.3446 8.79979C12.1225 8.57768 11.9926 8.29887 11.9516 8.00959C12.3035 7.8814 12.635 7.67854 12.9167 7.3968C13.1606 7.15279 13.1605 6.75707 12.9167 6.51301C12.6727 6.26896 12.277 6.26903 12.0329 6.51301C11.8103 6.73565 11.5323 6.86663 11.2436 6.9077C10.822 6.96753 10.3805 6.83562 10.0578 6.51301C9.51287 5.96793 9.51307 5.08392 10.0578 4.53872C10.4904 4.1062 11.1376 4.01621 11.6594 4.2718C12.1161 4.49555 12.8624 4.5922 13.3879 4.06672L16.3461 1.10855C16.5902 0.864473 16.5902 0.468836 16.3461 0.224758C16.102 -0.0192229 15.7064 -0.0192876 15.4623 0.224758L12.5041 3.18293C12.5029 3.18427 12.4889 3.19892 12.4358 3.20165C12.3757 3.20464 12.2921 3.18922 12.2095 3.14875C11.2226 2.66533 9.99584 2.83315 9.17406 3.65493C8.14113 4.68829 8.14093 6.36356 9.17406 7.3968C9.60478 7.82752 10.1478 8.07701 10.7081 8.14875C10.7797 8.70931 11.0299 9.25263 11.4608 9.68358Z" fill="url(#paint0_linear_2215_4786)"/>
<path d="M6.52432 4.62499C6.8695 4.62499 7.14932 4.34516 7.14932 3.99999V2.33332C7.14932 1.98814 6.8695 1.70832 6.52432 1.70832C6.17914 1.70832 5.89932 1.98814 5.89932 2.33332V3.99999C5.89932 4.34516 6.17914 4.62499 6.52432 4.62499Z" fill="url(#paint1_linear_2215_4786)"/>
<path d="M4.85765 6.29165C5.20283 6.29165 5.48265 6.01183 5.48265 5.66665C5.48265 5.32147 5.20283 5.04165 4.85765 5.04165H3.19098C2.84581 5.04165 2.56598 5.32147 2.56598 5.66665C2.56598 6.01183 2.84581 6.29165 3.19098 6.29165H4.85765Z" fill="url(#paint2_linear_2215_4786)"/>
<path d="M3.36921 17.7752C3.61329 18.0192 4.00895 18.0193 4.253 17.7752L7.21117 14.817C7.21241 14.8157 7.22636 14.8011 7.27953 14.7983C7.33964 14.7953 7.42317 14.8108 7.50576 14.8512C8.49266 15.3346 9.71947 15.1668 10.5412 14.345C11.5742 13.3117 11.5744 11.6364 10.5412 10.6032C10.1103 10.1722 9.56698 9.922 9.00641 9.85041C8.93467 9.29016 8.68518 8.74712 8.25446 8.31639C7.22123 7.28326 5.54596 7.28346 4.5126 8.31639C3.69082 9.13817 3.523 10.365 4.00641 11.3519C4.04689 11.4345 4.06231 11.518 4.05931 11.5781C4.05659 11.6313 4.04194 11.6452 4.04059 11.6465L1.08242 14.6046C0.838378 14.8487 0.838444 15.2443 1.08242 15.4884C1.3265 15.7325 1.72214 15.7325 1.96621 15.4884L4.92438 12.5303C5.44986 12.0047 5.35322 11.2584 5.12946 10.8017C4.87388 10.2799 4.96387 9.6327 5.39639 9.20018C5.94159 8.65541 6.82559 8.65521 7.37067 9.20018C7.59255 9.42206 7.72172 9.70061 7.76292 9.98957C7.41116 10.1178 7.08022 10.3216 6.79857 10.6032C6.55466 10.8472 6.55475 11.2429 6.79857 11.487C7.04262 11.731 7.43828 11.7309 7.68236 11.487C7.90504 11.2643 8.183 11.1333 8.47175 11.0923C8.89329 11.0324 9.33484 11.1644 9.65746 11.487C10.2024 12.032 10.2022 12.9161 9.65746 13.4612C9.22494 13.8938 8.57769 13.9837 8.05589 13.7282C7.59923 13.5044 6.85295 13.4078 6.32738 13.9333L3.36921 16.8914C3.12513 17.1355 3.12513 17.5311 3.36921 17.7752Z" fill="url(#paint3_linear_2215_4786)"/>
<path d="M16.5243 12.9583C16.8695 12.9583 17.1493 12.6785 17.1493 12.3333C17.1493 11.9881 16.8695 11.7083 16.5243 11.7083H14.8577C14.5125 11.7083 14.2327 11.9881 14.2327 12.3333C14.2327 12.6785 14.5125 12.9583 14.8577 12.9583H16.5243Z" fill="url(#paint4_linear_2215_4786)"/>
<path d="M13.191 16.2917C13.5362 16.2917 13.816 16.0118 13.816 15.6667V14C13.816 13.6548 13.5362 13.375 13.191 13.375C12.8458 13.375 12.566 13.6548 12.566 14V15.6667C12.566 16.0118 12.8458 16.2917 13.191 16.2917Z" fill="url(#paint5_linear_2215_4786)"/>
<defs>
<linearGradient id="paint0_linear_2215_4786" x1="0.899414" y1="0.041748" x2="20.7355" y2="2.50593" gradientUnits="userSpaceOnUse">
<stop stop-color="#F79548"/>
<stop offset="1" stop-color="#E94262"/>
</linearGradient>
<linearGradient id="paint1_linear_2215_4786" x1="0.899414" y1="0.041748" x2="20.7355" y2="2.50593" gradientUnits="userSpaceOnUse">
<stop stop-color="#F79548"/>
<stop offset="1" stop-color="#E94262"/>
</linearGradient>
<linearGradient id="paint2_linear_2215_4786" x1="0.899414" y1="0.041748" x2="20.7355" y2="2.50593" gradientUnits="userSpaceOnUse">
<stop stop-color="#F79548"/>
<stop offset="1" stop-color="#E94262"/>
</linearGradient>
<linearGradient id="paint3_linear_2215_4786" x1="0.899414" y1="0.041748" x2="20.7355" y2="2.50593" gradientUnits="userSpaceOnUse">
<stop stop-color="#F79548"/>
<stop offset="1" stop-color="#E94262"/>
</linearGradient>
<linearGradient id="paint4_linear_2215_4786" x1="0.899414" y1="0.041748" x2="20.7355" y2="2.50593" gradientUnits="userSpaceOnUse">
<stop stop-color="#F79548"/>
<stop offset="1" stop-color="#E94262"/>
</linearGradient>
<linearGradient id="paint5_linear_2215_4786" x1="0.899414" y1="0.041748" x2="20.7355" y2="2.50593" gradientUnits="userSpaceOnUse">
<stop stop-color="#F79548"/>
<stop offset="1" stop-color="#E94262"/>
</linearGradient>
</defs>
</svg>
