<svg width="17" height="18" viewBox="0 0 17 18" fill="none" xmlns="http://www.w3.org/2000/svg">
<path fill-rule="evenodd" clip-rule="evenodd" d="M15.9399 9.51999C14.3866 6.82973 10.9464 5.9078 8.25602 7.46107C5.56572 9.01434 4.64397 12.4546 6.1971 15.145C7.75039 17.8354 11.1906 18.7572 13.881 17.2039C16.5714 15.6506 17.4932 12.2104 15.9399 9.51999ZM15.1302 10.7081C15.9281 12.6961 15.165 15.0194 13.256 16.1215C11.3472 17.2235 8.95368 16.723 7.63102 15.0384L15.1302 10.7081ZM8.88102 8.54342C10.7894 7.44165 13.1824 7.942 14.5052 9.62578L7.00602 13.956C6.2089 11.9684 6.97245 9.64537 8.88102 8.54342Z" fill="url(#paint0_linear_2215_4790)"/>
<path d="M16.1776 2.02975C15.1083 0.134414 12.7269 -0.526956 10.8594 0.576301L2.38444 5.58444C0.525816 6.68285 -0.100216 9.10244 0.964355 10.9897C1.60698 12.1288 2.72342 12.8227 3.91927 12.9542C4.26226 12.9918 4.5708 12.7447 4.60856 12.4017C4.64608 12.0588 4.39882 11.7502 4.05599 11.7124C3.25115 11.6239 2.49376 11.1562 2.05322 10.3753C1.31652 9.06914 1.75935 7.40568 3.02083 6.66029L6.71956 4.4736L7.61637 5.98564C7.79242 6.2825 8.17641 6.38057 8.47331 6.20456C8.7699 6.02842 8.86817 5.6444 8.69222 5.34762L7.79622 3.83721L11.4958 1.65215C12.7483 0.912653 14.3565 1.34593 15.0887 2.64336C15.6789 3.68961 15.5128 4.97204 14.7673 5.82288C14.5398 6.08246 14.5663 6.47753 14.8258 6.70505C15.0854 6.93251 15.4805 6.90682 15.708 6.64727C16.7953 5.40652 17.0344 3.54882 16.1776 2.02975Z" fill="url(#paint1_linear_2215_4790)"/>
<defs>
<linearGradient id="paint0_linear_2215_4790" x1="0.446289" y1="0.0415039" x2="18.4855" y2="2.07392" gradientUnits="userSpaceOnUse">
<stop stop-color="#F79548"/>
<stop offset="1" stop-color="#E94262"/>
</linearGradient>
<linearGradient id="paint1_linear_2215_4790" x1="0.446289" y1="0.0415039" x2="18.4855" y2="2.07392" gradientUnits="userSpaceOnUse">
<stop stop-color="#F79548"/>
<stop offset="1" stop-color="#E94262"/>
</linearGradient>
</defs>
</svg>
