<svg width="19" height="20" viewBox="0 0 19 20" fill="none" xmlns="http://www.w3.org/2000/svg">
<path fill-rule="evenodd" clip-rule="evenodd" d="M9.42838 19.1668C14.4713 19.1668 18.5951 15.0431 18.5951 10.0002C18.595 4.95721 14.4713 0.833497 9.42838 0.833496C4.38544 0.833496 0.261719 4.95721 0.261719 10.0002C0.261719 15.0431 4.38544 19.1668 9.42838 19.1668ZM9.42838 17.8976C5.0862 17.8976 1.53091 14.3424 1.53091 10.0002C1.53091 8.00818 2.28077 6.18325 3.50992 4.78976C3.52886 4.841 3.54924 4.89179 3.56657 4.94376C3.97288 6.1627 4.73556 7.22099 5.74207 7.99017C5.75053 8.19561 5.77022 8.39965 5.7996 8.60175C4.8436 8.38579 3.81022 8.71301 3.11607 9.40717L3.07713 9.44611C2.41495 10.1087 2.41474 11.1831 3.07713 11.8455C3.40422 12.1725 3.83181 12.338 4.26046 12.3421C4.25367 12.4791 4.25149 12.6229 4.25869 12.7713C4.29935 13.6057 4.59057 14.6217 5.44911 15.4805C6.94105 16.9725 9.36038 16.9722 10.8525 15.4805L11.3782 14.9548C12.3997 13.9332 12.9702 12.6309 13.0926 11.2968C13.5619 11.1107 14.0026 10.8284 14.3821 10.4489C15.8742 8.95684 15.8742 6.5376 14.3821 5.04554C12.8902 3.55401 10.4716 3.554 8.97965 5.04554C8.69015 5.33512 8.45757 5.66 8.28045 6.00584C8.06284 5.88185 7.81518 5.80249 7.5485 5.78546C6.91602 5.74603 6.34382 6.05902 6.02087 6.55459C5.45701 5.99663 5.02577 5.30935 4.77026 4.54282C4.69113 4.30544 4.59661 4.07503 4.49147 3.8507C5.84647 2.75932 7.56434 2.10269 9.42838 2.10269C13.7706 2.10269 17.3259 5.65797 17.3259 10.0002C17.3259 14.3424 13.7706 17.8976 9.42838 17.8976ZM9.95589 14.5839C8.95933 15.5801 7.34301 15.5803 6.34657 14.5839C5.75719 13.9945 5.55503 13.3024 5.52611 12.7102C5.51163 12.4126 5.54236 12.1466 5.5863 11.9455C5.62347 11.7756 5.66099 11.6907 5.66861 11.6712L5.66418 11.6738L5.95183 11.2924L5.66507 10.9109L5.65445 10.8959L5.21545 10.3117L4.57909 10.9481C4.41203 11.1147 4.14061 11.115 3.9737 10.9481C3.80717 10.7812 3.8073 10.5105 3.9737 10.3436L4.01353 10.3046C4.57538 9.74277 5.43636 9.64854 6.00582 10.0586L6.14212 10.1683C6.24364 10.26 6.32765 10.363 6.39791 10.4719C6.43506 10.5441 6.47373 10.6154 6.51385 10.6861C6.74964 11.2311 6.645 11.886 6.20054 12.3306L7.098 13.228C8.01806 12.3079 8.15087 10.8993 7.5007 9.83819C7.13593 9.10748 6.96263 8.28551 7.0148 7.45205L7.02896 7.36619C7.08119 7.17418 7.26244 7.04038 7.46796 7.05288C7.7054 7.06814 7.88348 7.2697 7.86889 7.50515C7.80256 8.56161 8.17235 9.64157 8.97965 10.4489C9.35436 10.8236 9.78893 11.1055 10.2533 11.2924L10.4896 10.7038L10.7268 10.1152C10.4181 9.991 10.1279 9.80393 9.87623 9.55232C8.87985 8.5559 8.8801 6.93957 9.87623 5.943C10.8728 4.94647 12.489 4.94649 13.4855 5.943C14.482 6.93955 14.4821 8.5558 13.4855 9.55232C13.1524 9.88531 12.7503 10.1057 12.3252 10.2161L11.8579 10.3374L11.8499 10.8206C11.8497 10.8371 11.8494 10.8536 11.8491 10.8693L11.8393 11.087C11.7619 12.17 11.3094 13.2304 10.4816 14.0582L9.95589 14.5839Z" fill="url(#paint0_linear_2215_4776)"/>
<defs>
<linearGradient id="paint0_linear_2215_4776" x1="0.261719" y1="0.833496" x2="20.5593" y2="3.35501" gradientUnits="userSpaceOnUse">
<stop stop-color="#F79548"/>
<stop offset="1" stop-color="#E94262"/>
</linearGradient>
</defs>
</svg>
