<svg width="16" height="16" viewBox="0 0 16 16" fill="none" xmlns="http://www.w3.org/2000/svg">
<g clip-path="url(#clip0_2147_3682)">
<path fill-rule="evenodd" clip-rule="evenodd" d="M6.86605 5.21417C7.23344 5.10081 7.58571 5.20847 7.89469 5.35154C8.20582 5.49564 8.58274 5.72943 9.03272 6.00779C9.49902 6.29626 9.88758 6.53581 10.1675 6.75844C10.4499 6.98316 10.6984 7.24902 10.7879 7.61912C10.8482 7.86875 10.8483 8.13122 10.7879 8.38084C10.6984 8.7509 10.4499 9.01681 10.1675 9.24152C9.88757 9.46415 9.49901 9.70371 9.03272 9.99217C8.58274 10.2705 8.20581 10.5043 7.89469 10.6484C7.58574 10.7915 7.23341 10.8991 6.86605 10.7858C6.62331 10.7109 6.4075 10.5705 6.23714 10.3834C5.98924 10.1111 5.90759 9.75482 5.87061 9.39907C5.83313 9.03847 5.8335 8.57072 5.8335 7.99998C5.8335 7.42925 5.83314 6.9615 5.87061 6.60089C5.90758 6.24513 5.98927 5.88888 6.23714 5.61652C6.4075 5.42943 6.62329 5.2891 6.86605 5.21417ZM7.16097 6.16925C7.0965 6.18915 7.03217 6.22885 6.97673 6.28969C6.95141 6.31755 6.89604 6.40325 6.86475 6.70441C6.83396 7.00097 6.8335 7.40663 6.8335 7.99998C6.8335 8.59334 6.83394 8.999 6.86475 9.29555C6.89607 9.59687 6.95145 9.68249 6.97673 9.71027C7.03217 9.77108 7.09651 9.81082 7.16097 9.83071C7.16669 9.83251 7.23248 9.85308 7.47477 9.74087C7.71796 9.62822 8.03398 9.43367 8.50667 9.14126C8.99449 8.83948 9.3219 8.63593 9.54443 8.45896C9.76385 8.28444 9.80435 8.19337 9.81592 8.14581C9.83893 8.05059 9.83891 7.94938 9.81592 7.85415C9.80439 7.80663 9.76399 7.71565 9.54443 7.541C9.32191 7.36402 8.9945 7.16049 8.50667 6.8587C8.03398 6.56629 7.71796 6.37174 7.47477 6.25909C7.23188 6.1466 7.16642 6.16753 7.16097 6.16925Z" fill="url(#paint0_linear_2147_3682)"/>
<path fill-rule="evenodd" clip-rule="evenodd" d="M8.00016 0.833313C11.9582 0.833313 15.1668 4.04194 15.1668 7.99998C15.1668 11.958 11.9582 15.1666 8.00016 15.1666C4.04212 15.1666 0.833496 11.958 0.833496 7.99998C0.833496 4.04194 4.04212 0.833313 8.00016 0.833313ZM8.00016 1.83331C4.59441 1.83331 1.8335 4.59422 1.8335 7.99998C1.8335 11.4057 4.59441 14.1666 8.00016 14.1666C11.4059 14.1666 14.1668 11.4057 14.1668 7.99998C14.1668 4.59422 11.4059 1.83331 8.00016 1.83331Z" fill="url(#paint1_linear_2147_3682)"/>
</g>
<defs>
<linearGradient id="paint0_linear_2147_3682" x1="0.833496" y1="0.833313" x2="16.7025" y2="2.80468" gradientUnits="userSpaceOnUse">
<stop stop-color="#F79548"/>
<stop offset="1" stop-color="#E94262"/>
</linearGradient>
<linearGradient id="paint1_linear_2147_3682" x1="0.833496" y1="0.833313" x2="16.7025" y2="2.80468" gradientUnits="userSpaceOnUse">
<stop stop-color="#F79548"/>
<stop offset="1" stop-color="#E94262"/>
</linearGradient>
<clipPath id="clip0_2147_3682">
<rect width="16" height="16" fill="white"/>
</clipPath>
</defs>
</svg>
