<svg width="16" height="16" viewBox="0 0 16 16" fill="none" xmlns="http://www.w3.org/2000/svg">
<g clip-path="url(#clip0_2147_1950)">
<path fill-rule="evenodd" clip-rule="evenodd" d="M4.66683 10.1666C4.97062 10.1666 5.22359 10.1662 5.4305 10.1803C5.64187 10.1947 5.84175 10.2258 6.03532 10.306C6.48444 10.492 6.84144 10.849 7.02751 11.2982C7.10769 11.4917 7.13873 11.6916 7.15316 11.903C7.16728 12.1099 7.16683 12.3629 7.16683 12.6666C7.16683 12.9704 7.16728 13.2234 7.15316 13.4303C7.13873 13.6417 7.10769 13.8416 7.02751 14.0351C6.84144 14.4843 6.48444 14.8413 6.03532 15.0273C5.84175 15.1075 5.64187 15.1385 5.4305 15.153C5.22359 15.1671 4.97062 15.1666 4.66683 15.1666H3.3335C3.02971 15.1666 2.77673 15.1671 2.56983 15.153C2.35846 15.1385 2.15857 15.1075 1.96501 15.0273C1.51589 14.8413 1.15889 14.4843 0.972821 14.0351C0.892643 13.8416 0.861596 13.6417 0.84717 13.4303C0.833052 13.2234 0.833498 12.9704 0.833498 12.6666C0.833498 12.3629 0.833052 12.1099 0.84717 11.903C0.861596 11.6916 0.892643 11.4917 0.972821 11.2982C1.15889 10.849 1.51589 10.492 1.96501 10.306C2.15858 10.2258 2.35846 10.1947 2.56983 10.1803C2.77673 10.1662 3.02971 10.1666 3.3335 10.1666H4.66683ZM3.3335 11.1666C3.01614 11.1666 2.80314 11.1671 2.63819 11.1784C2.47771 11.1893 2.39926 11.2085 2.34782 11.2298C2.14363 11.3144 1.98123 11.4768 1.89665 11.681C1.87534 11.7324 1.85617 11.8109 1.84522 11.9713C1.83397 12.1363 1.8335 12.3493 1.8335 12.6666C1.8335 12.984 1.83397 13.197 1.84522 13.362C1.85617 13.5224 1.87535 13.6009 1.89665 13.6523C1.98123 13.8565 2.14363 14.0189 2.34782 14.1035C2.39926 14.1248 2.47771 14.144 2.63819 14.1549C2.80314 14.1662 3.01614 14.1666 3.3335 14.1666H4.66683C4.98418 14.1666 5.19719 14.1662 5.36214 14.1549C5.52262 14.144 5.60107 14.1248 5.65251 14.1035C5.8567 14.0189 6.0191 13.8565 6.10368 13.6523C6.12498 13.6009 6.14416 13.5224 6.15511 13.362C6.16636 13.197 6.16683 12.984 6.16683 12.6666C6.16683 12.3493 6.16636 12.1363 6.15511 11.9713C6.14416 11.8109 6.12498 11.7324 6.10368 11.681C6.0191 11.4768 5.8567 11.3144 5.65251 11.2298C5.60107 11.2085 5.52262 11.1893 5.36214 11.1784C5.19719 11.1671 4.98418 11.1666 4.66683 11.1666H3.3335Z" fill="url(#paint0_linear_2147_1950)"/>
<path fill-rule="evenodd" clip-rule="evenodd" d="M12.0002 7.49998C12.6146 7.49998 13.126 7.49903 13.5301 7.55337C13.9485 7.60966 14.3261 7.73352 14.6297 8.03709C14.9333 8.34066 15.0572 8.71829 15.1134 9.1367C15.1678 9.54085 15.1668 10.0522 15.1668 10.6666V12C15.1668 12.6144 15.1678 13.1258 15.1134 13.5299C15.0572 13.9483 14.9333 14.326 14.6297 14.6295C14.3261 14.9331 13.9485 15.057 13.5301 15.1133C13.126 15.1676 12.6146 15.1666 12.0002 15.1666C11.3858 15.1666 10.8744 15.1676 10.4702 15.1133C10.0518 15.057 9.67418 14.9331 9.37061 14.6295C9.06703 14.326 8.94317 13.9483 8.88688 13.5299C8.83255 13.1258 8.8335 12.6144 8.8335 12V10.6666C8.8335 10.0522 8.83255 9.54085 8.88688 9.1367C8.94317 8.71829 9.06703 8.34066 9.37061 8.03709C9.67418 7.73352 10.0518 7.60966 10.4702 7.55337C10.8744 7.49903 11.3858 7.49998 12.0002 7.49998ZM12.0002 8.49998C11.3575 8.49998 10.9257 8.50096 10.6037 8.54425C10.2961 8.58561 10.1645 8.65725 10.0776 8.74412C9.99077 8.83099 9.91913 8.96257 9.87777 9.27016C9.83447 9.59219 9.8335 10.024 9.8335 10.6666V12C9.8335 12.6427 9.83447 13.0744 9.87777 13.3965C9.91913 13.7041 9.99077 13.8356 10.0776 13.9225C10.1645 14.0094 10.2961 14.081 10.6037 14.1224C10.9257 14.1657 11.3575 14.1666 12.0002 14.1666C12.6428 14.1666 13.0746 14.1657 13.3966 14.1224C13.7042 14.081 13.8358 14.0094 13.9227 13.9225C14.0096 13.8356 14.0812 13.7041 14.1226 13.3965C14.1659 13.0744 14.1668 12.6427 14.1668 12V10.6666C14.1668 10.024 14.1659 9.59219 14.1226 9.27016C14.0812 8.96257 14.0096 8.83099 13.9227 8.74412C13.8358 8.65725 13.7042 8.58561 13.3966 8.54425C13.0746 8.50096 12.6428 8.49998 12.0002 8.49998Z" fill="url(#paint1_linear_2147_1950)"/>
<path fill-rule="evenodd" clip-rule="evenodd" d="M4.00016 0.833315C4.61457 0.833315 5.12597 0.832364 5.53011 0.8867C5.94852 0.942989 6.32615 1.06685 6.62972 1.37042C6.93329 1.674 7.05716 2.05163 7.11345 2.47003C7.16778 2.87418 7.16683 3.38558 7.16683 3.99998V5.33331C7.16683 5.94772 7.16778 6.45912 7.11345 6.86326C7.05716 7.28167 6.93329 7.6593 6.62972 7.96287C6.32615 8.26644 5.94852 8.39031 5.53011 8.4466C5.12597 8.50093 4.61457 8.49998 4.00016 8.49998C3.38576 8.49998 2.87436 8.50093 2.47022 8.4466C2.05181 8.39031 1.67418 8.26644 1.37061 7.96287C1.06703 7.6593 0.943172 7.28167 0.886883 6.86326C0.832547 6.45912 0.833498 5.94772 0.833498 5.33331V3.99998C0.833498 3.38558 0.832547 2.87418 0.886883 2.47003C0.943172 2.05163 1.06703 1.674 1.37061 1.37042C1.67418 1.06685 2.05181 0.942989 2.47022 0.8867C2.87436 0.832364 3.38576 0.833315 4.00016 0.833315ZM4.00016 1.83331C3.35749 1.83331 2.9257 1.83429 2.60368 1.87759C2.29609 1.91895 2.16451 1.99058 2.07764 2.07746C1.99077 2.16433 1.91913 2.2959 1.87777 2.6035C1.83447 2.92552 1.8335 3.35731 1.8335 3.99998V5.33331C1.8335 5.97599 1.83447 6.40777 1.87777 6.7298C1.91913 7.03739 1.99077 7.16897 2.07764 7.25584C2.16451 7.34271 2.29609 7.41435 2.60368 7.45571C2.9257 7.49901 3.35749 7.49998 4.00016 7.49998C4.64284 7.49998 5.07462 7.49901 5.39665 7.45571C5.70424 7.41435 5.83582 7.34271 5.92269 7.25584C6.00956 7.16897 6.0812 7.03739 6.12256 6.7298C6.16586 6.40777 6.16683 5.97599 6.16683 5.33331V3.99998C6.16683 3.35731 6.16586 2.92552 6.12256 2.6035C6.0812 2.2959 6.00956 2.16433 5.92269 2.07746C5.83582 1.99058 5.70424 1.91895 5.39665 1.87759C5.07462 1.83429 4.64284 1.83331 4.00016 1.83331Z" fill="url(#paint2_linear_2147_1950)"/>
<path fill-rule="evenodd" clip-rule="evenodd" d="M12.6668 0.833315C12.9706 0.833315 13.2236 0.832869 13.4305 0.846986C13.6419 0.861413 13.8418 0.89246 14.0353 0.972637C14.4844 1.15871 14.8414 1.5157 15.0275 1.96483C15.1077 2.15839 15.1387 2.35827 15.1532 2.56964C15.1673 2.77655 15.1668 3.02953 15.1668 3.33331C15.1668 3.6371 15.1673 3.89008 15.1532 4.09699C15.1387 4.30836 15.1077 4.50824 15.0275 4.7018C14.8414 5.15093 14.4844 5.50792 14.0353 5.69399C13.8418 5.77417 13.6419 5.80522 13.4305 5.81964C13.2236 5.83376 12.9706 5.83331 12.6668 5.83331H11.3335C11.0297 5.83331 10.7767 5.83376 10.5698 5.81964C10.3585 5.80522 10.1586 5.77417 9.96501 5.69399C9.51589 5.50792 9.15889 5.15093 8.97282 4.7018C8.89264 4.50824 8.8616 4.30836 8.84717 4.09699C8.83305 3.89008 8.8335 3.6371 8.8335 3.33331C8.8335 3.02953 8.83305 2.77655 8.84717 2.56964C8.8616 2.35827 8.89264 2.15839 8.97282 1.96483C9.15889 1.5157 9.51589 1.15871 9.96501 0.972637C10.1586 0.892459 10.3585 0.861413 10.5698 0.846986C10.7767 0.832869 11.0297 0.833315 11.3335 0.833315H12.6668ZM11.3335 1.83331C11.0161 1.83331 10.8031 1.83379 10.6382 1.84503C10.4777 1.85598 10.3993 1.87516 10.3478 1.89647C10.1436 1.98104 9.98123 2.14345 9.89665 2.34764C9.87534 2.39907 9.85617 2.47753 9.84522 2.638C9.83397 2.80295 9.8335 3.01596 9.8335 3.33331C9.8335 3.65067 9.83397 3.86368 9.84522 4.02863C9.85617 4.1891 9.87535 4.26756 9.89665 4.31899C9.98123 4.52318 10.1436 4.68559 10.3478 4.77016C10.3993 4.79147 10.4777 4.81065 10.6382 4.8216C10.8031 4.83284 11.0161 4.83331 11.3335 4.83331H12.6668C12.9842 4.83331 13.1972 4.83284 13.3621 4.8216C13.5226 4.81065 13.6011 4.79147 13.6525 4.77016C13.8567 4.68559 14.0191 4.52318 14.1037 4.31899C14.125 4.26756 14.1442 4.1891 14.1551 4.02863C14.1664 3.86368 14.1668 3.65067 14.1668 3.33331C14.1668 3.01596 14.1664 2.80295 14.1551 2.638C14.1442 2.47753 14.125 2.39907 14.1037 2.34764C14.0191 2.14345 13.8567 1.98104 13.6525 1.89647C13.6011 1.87516 13.5226 1.85598 13.3621 1.84503C13.1972 1.83379 12.9842 1.83331 12.6668 1.83331H11.3335Z" fill="url(#paint3_linear_2147_1950)"/>
</g>
<defs>
<linearGradient id="paint0_linear_2147_1950" x1="0.833496" y1="0.833313" x2="16.7025" y2="2.80468" gradientUnits="userSpaceOnUse">
<stop stop-color="#F79548"/>
<stop offset="1" stop-color="#E94262"/>
</linearGradient>
<linearGradient id="paint1_linear_2147_1950" x1="0.833496" y1="0.833313" x2="16.7025" y2="2.80468" gradientUnits="userSpaceOnUse">
<stop stop-color="#F79548"/>
<stop offset="1" stop-color="#E94262"/>
</linearGradient>
<linearGradient id="paint2_linear_2147_1950" x1="0.833496" y1="0.833313" x2="16.7025" y2="2.80468" gradientUnits="userSpaceOnUse">
<stop stop-color="#F79548"/>
<stop offset="1" stop-color="#E94262"/>
</linearGradient>
<linearGradient id="paint3_linear_2147_1950" x1="0.833496" y1="0.833313" x2="16.7025" y2="2.80468" gradientUnits="userSpaceOnUse">
<stop stop-color="#F79548"/>
<stop offset="1" stop-color="#E94262"/>
</linearGradient>
<clipPath id="clip0_2147_1950">
<rect width="16" height="16" fill="white"/>
</clipPath>
</defs>
</svg>
