<svg width="16" height="16" viewBox="0 0 16 16" fill="none" xmlns="http://www.w3.org/2000/svg">
<path d="M10.6668 10.8333C10.943 10.8333 11.1668 11.0571 11.1668 11.3333C11.1668 11.6094 10.943 11.8333 10.6668 11.8333H6.00016C5.72402 11.8333 5.50016 11.6094 5.50016 11.3333C5.50016 11.0571 5.72402 10.8333 6.00016 10.8333H10.6668Z" fill="url(#paint0_linear_2147_4060)"/>
<path d="M10.6668 8.16661C10.943 8.16661 11.1668 8.39047 11.1668 8.66661C11.1668 8.94276 10.943 9.16661 10.6668 9.16661H8.66683C8.39069 9.16661 8.16683 8.94276 8.16683 8.66661C8.16683 8.39047 8.39069 8.16661 8.66683 8.16661H10.6668Z" fill="url(#paint1_linear_2147_4060)"/>
<path fill-rule="evenodd" clip-rule="evenodd" d="M9.54574 0.833279C10.7027 0.833279 11.4094 0.826428 11.9891 1.02989C12.8885 1.34561 13.6099 2.01766 13.9533 2.88406C14.0696 3.17778 14.1194 3.48967 14.1434 3.85281C14.1671 4.21163 14.1668 4.65436 14.1668 5.21219V9.33328C14.1668 10.5754 14.1681 11.5603 14.0581 12.33C13.9456 13.1174 13.7084 13.7525 13.1798 14.2499C12.6557 14.7433 11.9936 14.9611 11.172 15.0651C10.3618 15.1676 9.32248 15.1666 8.00016 15.1666H7.48519C6.40887 15.1666 5.56259 15.1674 4.89274 15.0976C4.21509 15.027 3.65788 14.8794 3.18115 14.5436C2.92666 14.3643 2.69936 14.1509 2.50732 13.9095C2.14409 13.4528 1.98398 12.9156 1.90772 12.2675C1.83284 11.6312 1.8335 10.8292 1.8335 9.81831V7.97456C1.83359 7.06396 1.8355 6.34935 1.87386 5.76752C1.91457 5.15032 1.99772 4.64771 2.18115 4.18484C2.7399 2.77492 3.91653 1.67399 5.39339 1.15554C6.23335 0.860688 7.2477 0.83662 8.92464 0.834581C8.94973 0.833898 8.9749 0.833279 9.00016 0.833279C9.00979 0.833279 9.01932 0.834045 9.02881 0.834581C9.1946 0.834466 9.36676 0.833279 9.54574 0.833279ZM8.95784 1.83523C8.02633 1.85771 7.27827 2.61838 7.27816 3.55528C7.27816 3.65337 7.28243 3.75915 7.28792 3.87755C7.29325 3.99241 7.29958 4.12116 7.30225 4.2493C7.3075 4.50257 7.29922 4.798 7.22282 5.08328C7.07384 5.63926 6.63948 6.07363 6.0835 6.2226C5.79822 6.299 5.50279 6.30728 5.24951 6.30203C5.12137 6.29937 4.99263 6.29304 4.87777 6.28771C4.75937 6.28221 4.65359 6.27794 4.5555 6.27794C3.60748 6.27806 2.8384 7.04394 2.8335 7.99083V9.81831C2.8335 10.8533 2.83418 11.586 2.90055 12.1503C2.96558 12.703 3.088 13.0332 3.28988 13.2871C3.42159 13.4526 3.57873 13.6005 3.75667 13.7259C4.03474 13.9218 4.39847 14.0405 4.99626 14.1028C5.60221 14.166 6.38737 14.1666 7.48519 14.1666H8.00016C9.34913 14.1666 10.3135 14.1656 11.0464 14.0729C11.7678 13.9816 12.1887 13.8091 12.4943 13.5214C12.7956 13.2378 12.9729 12.8536 13.0679 12.1887C13.1654 11.5061 13.1668 10.6054 13.1668 9.33328V5.21219C13.1668 4.64118 13.1663 4.23685 13.1453 3.91857C13.1247 3.60506 13.0857 3.40943 13.0236 3.25255C12.7926 2.66956 12.2983 2.19813 11.6577 1.97325C11.2795 1.84057 10.7871 1.83328 9.54574 1.83328C9.33888 1.83328 9.14322 1.83487 8.95784 1.83523ZM6.84782 1.88927C6.3864 1.92723 6.03713 1.9899 5.72477 2.09956C4.50668 2.52716 3.55727 3.42682 3.11084 4.55333C2.98166 4.87932 2.9087 5.26557 2.87126 5.83328C2.8706 5.84322 2.86994 5.8532 2.8693 5.86323C3.33298 5.49684 3.91864 5.27799 4.5555 5.27794C4.67934 5.27794 4.80596 5.28288 4.92399 5.28836C5.04554 5.294 5.15828 5.2997 5.27035 5.30203C5.4973 5.30673 5.67898 5.29624 5.82503 5.25711C6.03592 5.2006 6.20082 5.03571 6.25732 4.82482C6.29646 4.67876 6.30695 4.49708 6.30225 4.27013C6.29992 4.15806 6.29421 4.04532 6.28857 3.92377C6.2831 3.80574 6.27816 3.67912 6.27816 3.55528C6.27821 2.92759 6.49091 2.34972 6.84782 1.88927Z" fill="url(#paint2_linear_2147_4060)"/>
<defs>
<linearGradient id="paint0_linear_2147_4060" x1="1.8335" y1="0.833252" x2="15.5423" y2="2.29863" gradientUnits="userSpaceOnUse">
<stop stop-color="#F79548"/>
<stop offset="1" stop-color="#E94262"/>
</linearGradient>
<linearGradient id="paint1_linear_2147_4060" x1="1.8335" y1="0.833252" x2="15.5423" y2="2.29863" gradientUnits="userSpaceOnUse">
<stop stop-color="#F79548"/>
<stop offset="1" stop-color="#E94262"/>
</linearGradient>
<linearGradient id="paint2_linear_2147_4060" x1="1.8335" y1="0.833252" x2="15.5423" y2="2.29863" gradientUnits="userSpaceOnUse">
<stop stop-color="#F79548"/>
<stop offset="1" stop-color="#E94262"/>
</linearGradient>
</defs>
</svg>
