<svg width="16" height="16" viewBox="0 0 16 16" fill="none" xmlns="http://www.w3.org/2000/svg">
<path fill-rule="evenodd" clip-rule="evenodd" d="M5.53141 10.8568C7.04275 9.93646 8.9589 9.93642 10.4702 10.8568C10.7045 10.9994 11.3176 11.3171 11.7085 11.7083C11.9101 11.9102 12.1227 12.1956 12.1616 12.5592C12.2036 12.9521 12.0321 13.3086 11.7261 13.6068C11.2326 14.0876 10.6126 14.4999 9.79704 14.5H6.20459C5.38906 14.5 4.76908 14.0876 4.27555 13.6068C3.96952 13.3086 3.79805 12.9522 3.84001 12.5592C3.87894 12.1955 4.09149 11.9102 4.29313 11.7083C4.68413 11.3169 5.29733 10.9993 5.53141 10.8568ZM9.95003 11.7109C8.75818 10.9851 7.24347 10.9852 6.0516 11.7109C5.70938 11.9193 5.27938 12.136 5.00081 12.4147C4.86768 12.548 4.83841 12.6323 4.8348 12.666C4.83381 12.6732 4.82248 12.7435 4.97347 12.8906C5.37906 13.2857 5.76117 13.5 6.20459 13.5H9.79704C10.2404 13.4999 10.6226 13.2858 11.0282 12.8906C11.1787 12.744 11.1679 12.6735 11.1668 12.666C11.1632 12.6323 11.1338 12.5479 11.0008 12.4147C10.7223 12.1361 10.2922 11.9193 9.95003 11.7109Z" fill="url(#paint0_linear_2147_1896)"/>
<path d="M9.3335 1.5C10.5764 1.5 11.5591 1.49906 12.3263 1.60221C13.1079 1.70731 13.7402 1.92886 14.2391 2.42773C14.738 2.92661 14.9595 3.55896 15.0646 4.3405C15.1678 5.10773 15.1668 6.09039 15.1668 7.33333C15.1668 8.57628 15.1678 9.55894 15.0646 10.3262C14.9595 11.1077 14.738 11.7401 14.2391 12.2389C14.1311 12.3469 14.0155 12.444 13.8908 12.5299C13.6633 12.6866 13.3514 12.6291 13.1948 12.4017C13.0383 12.1744 13.0959 11.863 13.3231 11.7064C13.3973 11.6552 13.4667 11.5973 13.5321 11.5319C13.8142 11.2498 13.9836 10.8634 14.0737 10.1927C14.1658 9.50761 14.1668 8.6045 14.1668 7.33333C14.1668 6.06216 14.1658 5.15906 14.0737 4.47396C13.9836 3.80323 13.8142 3.41691 13.5321 3.13477C13.2499 2.85263 12.8636 2.68328 12.1929 2.5931C11.5078 2.501 10.6047 2.5 9.3335 2.5H6.66683C5.39566 2.5 4.49256 2.501 3.80745 2.5931C3.13673 2.68328 2.7504 2.85263 2.46826 3.13477C2.18612 3.41691 2.01677 3.80323 1.9266 4.47396C1.83449 5.15906 1.8335 6.06216 1.8335 7.33333C1.8335 8.6045 1.83449 9.50761 1.9266 10.1927C2.01677 10.8634 2.18612 11.2498 2.46826 11.5319C2.53366 11.5973 2.60299 11.6552 2.67725 11.7064C2.90442 11.863 2.96201 12.1744 2.8055 12.4017C2.64889 12.6291 2.33698 12.6866 2.10954 12.5299C1.98478 12.444 1.86924 12.3469 1.76123 12.2389C1.26236 11.7401 1.0408 11.1077 0.93571 10.3262C0.832558 9.55894 0.833496 8.57628 0.833496 7.33333C0.833496 6.09039 0.832558 5.10773 0.93571 4.3405C1.0408 3.55896 1.26236 2.92661 1.76123 2.42773C2.2601 1.92886 2.89245 1.70731 3.67399 1.60221C4.44122 1.49906 5.42389 1.5 6.66683 1.5H9.3335Z" fill="url(#paint1_linear_2147_1896)"/>
<path fill-rule="evenodd" clip-rule="evenodd" d="M8.00016 5.16667C9.19678 5.16667 10.1668 6.13672 10.1668 7.33333C10.1668 8.52995 9.19678 9.5 8.00016 9.5C6.80355 9.5 5.8335 8.52995 5.8335 7.33333C5.8335 6.13672 6.80355 5.16667 8.00016 5.16667ZM8.00016 6.16667C7.35583 6.16667 6.8335 6.689 6.8335 7.33333C6.8335 7.97767 7.35583 8.5 8.00016 8.5C8.64449 8.5 9.16683 7.97767 9.16683 7.33333C9.16683 6.689 8.64449 6.16667 8.00016 6.16667Z" fill="url(#paint2_linear_2147_1896)"/>
<defs>
<linearGradient id="paint0_linear_2147_1896" x1="0.833496" y1="1.5" x2="16.6507" y2="3.66646" gradientUnits="userSpaceOnUse">
<stop stop-color="#F79548"/>
<stop offset="1" stop-color="#E94262"/>
</linearGradient>
<linearGradient id="paint1_linear_2147_1896" x1="0.833496" y1="1.5" x2="16.6507" y2="3.66646" gradientUnits="userSpaceOnUse">
<stop stop-color="#F79548"/>
<stop offset="1" stop-color="#E94262"/>
</linearGradient>
<linearGradient id="paint2_linear_2147_1896" x1="0.833496" y1="1.5" x2="16.6507" y2="3.66646" gradientUnits="userSpaceOnUse">
<stop stop-color="#F79548"/>
<stop offset="1" stop-color="#E94262"/>
</linearGradient>
</defs>
</svg>
