<svg width="16" height="16" viewBox="0 0 16 16" fill="none" xmlns="http://www.w3.org/2000/svg">
<path fill-rule="evenodd" clip-rule="evenodd" d="M10.9623 6.50002C11.7634 6.50002 12.4212 6.49851 12.9245 6.57359C13.4413 6.65069 13.903 6.82314 14.2129 7.25523C14.521 7.68477 14.5415 8.17915 14.4577 8.69924C14.3757 9.2085 14.1755 9.84527 13.9323 10.6244L13.4532 12.1595C13.1548 13.1154 12.8413 13.8414 12.2481 14.2884C11.6515 14.738 10.8694 14.8333 9.86007 14.8334H6.14002C5.13071 14.8333 4.34862 14.738 3.752 14.2884C3.15885 13.8414 2.84527 13.1154 2.54692 12.1595L2.06776 10.6244C1.82458 9.84527 1.62439 9.2085 1.54236 8.69924C1.45864 8.17916 1.47914 7.68476 1.78716 7.25523C2.09709 6.82313 2.55876 6.6507 3.07557 6.57359C3.57889 6.4985 4.2367 6.50002 5.03781 6.50002H10.9623ZM5.03781 7.50002C4.20408 7.50002 3.63549 7.50107 3.22335 7.56252C2.82472 7.622 2.68158 7.7237 2.59966 7.83791C2.51602 7.95457 2.46393 8.13009 2.52999 8.54039C2.59788 8.96187 2.76962 9.51701 3.02218 10.3262L3.50135 11.862C3.79995 12.8186 4.04031 13.2542 4.35356 13.4903C4.6634 13.7237 5.14098 13.8333 6.14002 13.8334H9.86007C10.8591 13.8333 11.3367 13.7237 11.6465 13.4903C11.9598 13.2542 12.2001 12.8187 12.4987 11.862L12.9779 10.3262C13.2305 9.517 13.4022 8.96187 13.4701 8.54039C13.5362 8.13005 13.4841 7.95457 13.4004 7.83791C13.3185 7.7237 13.1754 7.62199 12.7767 7.56252C12.3646 7.50108 11.796 7.50002 10.9623 7.50002H5.03781Z" fill="url(#paint0_linear_2147_1882)"/>
<path d="M9.67062 3.83335C10.4627 3.83335 11.1139 3.83227 11.6127 3.90692C12.1256 3.98373 12.5839 4.15513 12.8926 4.58466C13.0401 4.78982 13.1258 5.01608 13.1615 5.26109C13.2013 5.5343 13.0122 5.78825 12.739 5.82815C12.4658 5.86792 12.2118 5.67877 12.1719 5.40562C12.1572 5.30453 12.1265 5.23161 12.0808 5.16799C11.9993 5.05473 11.8581 4.95475 11.4649 4.89585C11.0575 4.83486 10.4957 4.83335 9.67062 4.83335H6.32947C5.50441 4.83336 4.94257 4.83485 4.5352 4.89585C4.14196 4.95475 4.00076 5.05472 3.91932 5.16799C3.87361 5.2316 3.8429 5.30455 3.82817 5.40562C3.78827 5.67879 3.53432 5.86797 3.26111 5.82815C2.98798 5.78821 2.79878 5.53426 2.83859 5.26109C2.87432 5.01609 2.96003 4.78981 3.10747 4.58466C3.41618 4.15512 3.87455 3.98373 4.38742 3.90692C4.88623 3.83226 5.53741 3.83335 6.32947 3.83335H9.67062Z" fill="url(#paint1_linear_2147_1882)"/>
<path d="M8.67713 1.16669C9.28173 1.16669 9.79019 1.16574 10.1823 1.22203C10.5856 1.27996 10.9729 1.41169 11.2409 1.76369C11.4559 2.04605 11.514 2.3661 11.4974 2.69208C11.4834 2.96783 11.2485 3.18002 10.9727 3.16604C10.6969 3.15203 10.4848 2.91707 10.4987 2.6413C10.5073 2.47245 10.4755 2.40953 10.4454 2.36981C10.4089 2.32192 10.3329 2.25369 10.0398 2.21161C9.73542 2.16795 9.31304 2.16669 8.67713 2.16669H7.32296C6.68705 2.16669 6.26467 2.16795 5.96033 2.21161C5.66717 2.2537 5.5912 2.32192 5.55473 2.36981C5.52457 2.40953 5.4928 2.47248 5.50135 2.6413C5.51533 2.91708 5.30318 3.15205 5.02739 3.16604C4.75164 3.18 4.51667 2.96782 4.50265 2.69208C4.48613 2.36611 4.5442 2.04605 4.75916 1.76369C5.0272 1.41169 5.41448 1.27996 5.81776 1.22203C6.20991 1.16573 6.71836 1.16669 7.32296 1.16669H8.67713Z" fill="url(#paint2_linear_2147_1882)"/>
<defs>
<linearGradient id="paint0_linear_2147_1882" x1="1.5" y1="1.16669" x2="15.9138" y2="2.86994" gradientUnits="userSpaceOnUse">
<stop stop-color="#F79548"/>
<stop offset="1" stop-color="#E94262"/>
</linearGradient>
<linearGradient id="paint1_linear_2147_1882" x1="1.5" y1="1.16669" x2="15.9138" y2="2.86994" gradientUnits="userSpaceOnUse">
<stop stop-color="#F79548"/>
<stop offset="1" stop-color="#E94262"/>
</linearGradient>
<linearGradient id="paint2_linear_2147_1882" x1="1.5" y1="1.16669" x2="15.9138" y2="2.86994" gradientUnits="userSpaceOnUse">
<stop stop-color="#F79548"/>
<stop offset="1" stop-color="#E94262"/>
</linearGradient>
</defs>
</svg>
