<svg width="16" height="16" viewBox="0 0 16 16" fill="none" xmlns="http://www.w3.org/2000/svg">
<g clip-path="url(#clip0_2147_2833)">
<path d="M7.3335 10.8333C7.60964 10.8333 7.8335 11.0572 7.8335 11.3333C7.8335 11.6095 7.60964 11.8333 7.3335 11.8333H4.00016C3.72402 11.8333 3.50016 11.6095 3.50016 11.3333C3.50016 11.0572 3.72402 10.8333 4.00016 10.8333H7.3335Z" fill="url(#paint0_linear_2147_2833)"/>
<path d="M6.00016 7.49998C6.27631 7.49998 6.50016 7.72384 6.50016 7.99998C6.50016 8.27612 6.27631 8.49998 6.00016 8.49998H4.00016C3.72402 8.49998 3.50016 8.27612 3.50016 7.99998C3.50016 7.72384 3.72402 7.49998 4.00016 7.49998H6.00016Z" fill="url(#paint1_linear_2147_2833)"/>
<path fill-rule="evenodd" clip-rule="evenodd" d="M10.9741 0.833314C11.8301 0.833314 12.523 0.832271 13.0672 0.90623C13.6265 0.982244 14.1027 1.14592 14.4813 1.52863C14.8591 1.91057 15.0197 2.38971 15.0946 2.95245C15.1676 3.50135 15.1668 4.20054 15.1668 5.06639V6.93357C15.1668 7.79942 15.1676 8.49861 15.0946 9.04751C15.0197 9.61025 14.8591 10.0894 14.4813 10.4713C14.1027 10.854 13.6265 11.0177 13.0672 11.0937C12.5638 11.1621 11.9333 11.1657 11.1642 11.166C11.16 11.8108 11.145 12.355 11.0835 12.8079C10.997 13.4452 10.8122 13.9765 10.3875 14.3971C9.9636 14.8169 9.42953 14.9986 8.78857 15.084C8.16137 15.1675 7.36022 15.1666 6.35889 15.1666H5.64144C4.64011 15.1666 3.83895 15.1675 3.21175 15.084C2.5708 14.9986 2.03673 14.8169 1.61279 14.3971C1.18814 13.9765 1.00333 13.4452 0.91683 12.8079C0.832371 12.1856 0.833497 11.391 0.833497 10.3997V8.26691C0.833497 7.2756 0.832371 6.48106 0.91683 5.8587C1.00333 5.22145 1.18814 4.69012 1.61279 4.26951C2.03673 3.84972 2.5708 3.66803 3.21175 3.58266C3.83895 3.49914 4.64011 3.49998 5.64144 3.49998H6.18897C6.20399 3.22296 6.22915 2.97153 6.27035 2.74477C6.35663 2.26986 6.52163 1.86174 6.85107 1.52863C7.22961 1.14593 7.70592 0.982249 8.26514 0.90623C8.80937 0.832258 9.50227 0.833314 10.3582 0.833314H10.9741ZM5.64144 4.49998C4.61216 4.49998 3.88974 4.50087 3.34391 4.57355C2.81197 4.64439 2.52278 4.77491 2.31592 4.9798C2.10976 5.184 1.97893 5.46835 1.90772 5.99282C1.83449 6.53231 1.8335 7.24698 1.8335 8.26691V10.3997C1.8335 11.4197 1.83449 12.1343 1.90772 12.6738C1.97893 13.1983 2.10976 13.4826 2.31592 13.6868C2.52278 13.8917 2.81197 14.0222 3.34391 14.0931C3.88974 14.1658 4.61216 14.1666 5.64144 14.1666H6.35889C7.38816 14.1666 8.11058 14.1658 8.65641 14.0931C9.18836 14.0222 9.47755 13.8917 9.68441 13.6868C9.89057 13.4826 10.0214 13.1983 10.0926 12.6738C10.1658 12.1343 10.1668 11.4196 10.1668 10.3997V8.26691C10.1668 7.24698 10.1658 6.53231 10.0926 5.99282C10.0214 5.46835 9.89057 5.184 9.68441 4.9798C9.47755 4.77491 9.18836 4.64439 8.65641 4.57355C8.11058 4.50087 7.38816 4.49998 6.35889 4.49998H5.64144ZM10.3582 1.83331C9.47372 1.83331 8.86115 1.83442 8.3999 1.89712C8.14464 1.93181 7.96051 1.98294 7.81917 2.05076L9.99756 3.95701L9.99235 3.96222C10.1331 4.04718 10.265 4.14822 10.3875 4.26951C10.8122 4.69012 10.997 5.22145 11.0835 5.8587C11.168 6.48106 11.1668 7.2756 11.1668 8.26691V10.166C11.9488 10.1655 12.5055 10.1609 12.9325 10.1028C13.3788 10.0422 13.6081 9.9322 13.7703 9.76821C13.9333 9.60343 14.0433 9.36921 14.1037 8.91535C14.1658 8.44773 14.1668 7.82718 14.1668 6.93357V5.06639C14.1668 4.17278 14.1658 3.55223 14.1037 3.08462C14.0433 2.63075 13.9333 2.39653 13.7703 2.23175C13.6081 2.06777 13.3788 1.95778 12.9325 1.89712C12.4712 1.83445 11.8586 1.83331 10.9741 1.83331H10.3582ZM7.25407 2.92316C7.2239 3.08918 7.20479 3.27971 7.19157 3.50258C7.47259 3.50477 7.73426 3.50843 7.97738 3.51821L7.26058 2.89126C7.25854 2.90178 7.25603 2.91235 7.25407 2.92316Z" fill="url(#paint2_linear_2147_2833)"/>
</g>
<defs>
<linearGradient id="paint0_linear_2147_2833" x1="0.833496" y1="0.833313" x2="16.7025" y2="2.80468" gradientUnits="userSpaceOnUse">
<stop stop-color="#F79548"/>
<stop offset="1" stop-color="#E94262"/>
</linearGradient>
<linearGradient id="paint1_linear_2147_2833" x1="0.833496" y1="0.833313" x2="16.7025" y2="2.80468" gradientUnits="userSpaceOnUse">
<stop stop-color="#F79548"/>
<stop offset="1" stop-color="#E94262"/>
</linearGradient>
<linearGradient id="paint2_linear_2147_2833" x1="0.833496" y1="0.833313" x2="16.7025" y2="2.80468" gradientUnits="userSpaceOnUse">
<stop stop-color="#F79548"/>
<stop offset="1" stop-color="#E94262"/>
</linearGradient>
<clipPath id="clip0_2147_2833">
<rect width="16" height="16" fill="white"/>
</clipPath>
</defs>
</svg>
