<svg width="20" height="11" viewBox="0 0 20 11" fill="none" xmlns="http://www.w3.org/2000/svg">
<path d="M0.0180164 10.1124C0.0277308 10.0616 0.0423024 10.01 0.0607597 9.95738C0.542594 8.61232 0.619338 7.15173 0.834997 5.74749C1.06231 4.26342 1.42563 2.7568 2.29896 1.59584C3.16645 0.442394 4.61875 -0.283676 6.03511 0.106129C7.0901 0.396369 7.96051 1.24079 8.65411 2.13123C9.65858 3.42181 10.4046 4.87114 11.3168 6.14011C12.2067 7.37903 13.3199 8.47612 14.644 8.79924C16.2906 9.20031 17.9605 8.34087 19.5342 8.60199C19.6712 8.62453 19.816 8.6621 19.9102 8.77857C20.0705 8.97676 20.0005 9.32712 19.8257 9.51591C19.6498 9.70471 19.405 9.7714 19.17 9.8193C16.0915 10.4505 12.571 9.05472 10.2599 6.10724C9.06989 4.58935 7.99062 2.55579 6.11866 2.08333C4.55561 1.68883 2.97702 2.62906 2.14547 4.00605C1.31003 5.38774 1.11089 7.09537 1.05357 8.74476C1.04191 9.08008 1.17694 9.47271 1.19637 9.81555C1.21094 10.0795 1.18957 10.3538 1.06037 10.5876C0.59408 11.4283 -0.122842 10.8412 0.0180164 10.1133V10.1124Z" fill="#94A7BF"/>
</svg>