<svg width="19" height="18" viewBox="0 0 19 18" fill="none" xmlns="http://www.w3.org/2000/svg">
<path d="M9.57236 16.1382C9.89372 16.1383 10.1545 16.4058 10.1545 16.7358C10.1545 17.0657 9.89372 17.3332 9.57236 17.3333H8.20874C7.88723 17.3333 7.6266 17.0658 7.6266 16.7358C7.6266 16.4057 7.88723 16.1382 8.20874 16.1382H9.57236ZM12.6771 16.1382C12.9985 16.1382 13.2592 16.4057 13.2592 16.7358C13.2592 17.0658 12.9985 17.3333 12.6771 17.3333H11.3134C10.9919 17.3333 10.7313 17.0658 10.7313 16.7358C10.7313 16.4057 10.9919 16.1382 11.3134 16.1382L12.6771 16.1382ZM15.1943 16.1382C15.5158 16.1382 15.7765 16.4057 15.7765 16.7358C15.7765 17.0658 15.5158 17.3333 15.1943 17.3333H14.4182C14.0968 17.3332 13.836 17.0657 13.836 16.7358C13.836 16.4058 14.0968 16.1383 14.4182 16.1382H15.1943ZM18.2991 16.1382C18.6206 16.1382 18.8812 16.4057 18.8812 16.7358C18.8812 17.0658 18.6206 17.3333 18.2991 17.3333H16.9453C16.6239 17.3332 16.3632 17.0657 16.3632 16.7358C16.3632 16.4058 16.6239 16.1383 16.9453 16.1382H18.2991ZM14.0066 1.36811C14.576 0.78351 15.2696 0.59315 15.9364 0.691157C16.5807 0.785888 17.1705 1.1425 17.6153 1.59843C18.0601 2.05429 18.4038 2.65358 18.5105 3.29237C18.6204 3.94989 18.4747 4.65186 17.9345 5.20652C17.4882 5.66463 17.3608 5.77844 17.1446 5.98385C16.9357 6.18244 16.6273 6.48221 15.8045 7.32687C14.9615 8.19222 14.1432 9.03309 13.4767 9.71721L11.9532 11.2812C11.9437 11.291 11.936 11.298 11.9312 11.303L11.9244 11.31L11.6803 11.5613L10.8624 11.3154C10.7952 11.2997 10.724 11.2839 10.651 11.2719C10.4707 11.2422 10.3039 11.2328 10.1712 11.2493C10.0355 11.2662 9.99163 11.3029 9.98394 11.3108C9.96343 11.3318 9.90051 11.4471 9.91951 11.759C9.93643 12.0363 10.0097 12.3285 10.0658 12.5145C10.1131 12.6713 10.1125 12.8325 10.0931 12.9604C10.0749 13.08 10.0252 13.2724 9.88161 13.4327C9.67328 13.6652 9.15125 14.2217 7.84339 15.5647C6.66403 16.7756 5.1213 16.9941 3.84046 16.8945C2.55777 16.7947 1.44517 16.3712 0.998015 16.181C0.50729 15.9722 0.403263 15.3353 0.757734 14.964L2.86948 12.7604C3.89082 11.6982 5.15649 10.3877 6.4449 9.06516L11.8774 3.48846C12.7876 2.55406 13.109 2.24037 13.3145 2.04662C13.5115 1.86095 13.5805 1.80561 14.0066 1.36811ZM7.02401 10.1607C4.97572 12.2657 3.02183 14.3032 2.05995 15.3087C2.54689 15.4712 3.21156 15.6466 3.92839 15.7024C5.03648 15.7886 6.1776 15.5849 7.02022 14.7197C8.13716 13.5728 8.66674 13.0093 8.9167 12.7378C8.85337 12.5075 8.77847 12.1772 8.75752 11.8337C8.73921 11.5333 8.7548 11.1079 8.95687 10.742L7.02401 10.1607ZM7.96163 9.19744L11.1421 10.1537C11.2171 10.1716 11.2866 10.1918 11.3498 10.2098L12.2283 9.30793L9.97257 7.13312C9.29775 7.82584 8.62093 8.52065 7.96163 9.19744ZM15.7712 1.87388C15.4507 1.82685 15.1281 1.90678 14.8297 2.21314C14.3834 2.67138 14.297 2.74368 14.1021 2.92744C13.9156 3.10326 13.6083 3.40167 12.7006 4.33348C12.0873 4.96299 11.4464 5.62013 10.7965 6.28731L13.0523 8.46213C13.6344 7.86458 14.2999 7.18134 14.9813 6.48184C15.8091 5.63213 16.1288 5.32029 16.3533 5.10692C16.5703 4.90067 16.6827 4.80147 17.1113 4.36149C17.3471 4.11939 17.4183 3.82618 17.3629 3.49468C17.3044 3.1444 17.1006 2.76028 16.7922 2.44424C16.4839 2.12831 16.1142 1.92432 15.7712 1.87388Z" fill="#94A7BF"/>
</svg>
