<svg width="20" height="20" viewBox="0 0 20 20" fill="none" xmlns="http://www.w3.org/2000/svg">
<path fill-rule="evenodd" clip-rule="evenodd" d="M10.9847 1.04167C9.75807 1.04167 8.8096 1.04144 8.04525 1.08887C7.27602 1.13662 6.65153 1.23421 6.07666 1.44857C4.32154 2.1032 2.93653 3.48821 2.2819 5.24333C2.06754 5.8182 1.96995 6.44269 1.9222 7.21192C1.87709 7.93884 1.8759 8.83228 1.87581 9.97315C1.87574 9.9821 1.875 9.99104 1.875 10C1.875 10.003 1.87577 10.006 1.87581 10.009C1.87581 10.056 1.875 10.1035 1.875 10.1514L1.875 12.273C1.875 13.5375 1.87428 14.5376 1.96208 15.3304C2.05124 16.1353 2.23787 16.8025 2.66439 17.3722C2.8906 17.6744 3.15892 17.9427 3.4611 18.169C4.03087 18.5955 4.69805 18.7821 5.50293 18.8713C6.29574 18.9591 7.29584 18.9583 8.56038 18.9583L12.0833 18.9583C12.4285 18.9583 12.7083 18.6785 12.7083 18.3333C12.7083 17.9882 12.4285 17.7083 12.0833 17.7083L8.56038 17.7083C7.26734 17.7083 6.34851 17.7078 5.64046 17.6294C4.94486 17.5523 4.52885 17.4062 4.21061 17.168C4.00386 17.0132 3.82014 16.8295 3.66536 16.6227C3.42718 16.3045 3.281 15.8885 3.20394 15.1929C3.12553 14.4848 3.125 13.566 3.125 12.273L3.125 10.1514C3.125 10.0965 3.12581 10.0422 3.12581 9.98861C3.13195 8.805 4.09249 7.84765 5.27751 7.8475H6.20361C6.59378 7.8475 6.91144 7.85223 7.1875 7.77833C7.88248 7.59211 8.42544 7.04915 8.61165 6.35417C8.68556 6.07811 8.68083 5.76045 8.68083 5.37029V4.44418C8.68097 3.25888 9.63877 2.29737 10.8228 2.29167C10.8761 2.29167 10.9301 2.29167 10.9847 2.29167C11.698 2.29167 12.2048 2.29211 12.6042 2.3169C12.9985 2.34139 13.2467 2.38805 13.4465 2.46257C14.1824 2.73709 14.7629 3.31756 15.0374 4.05355C15.112 4.25334 15.1586 4.50155 15.1831 4.89584C15.2079 5.29518 15.2083 5.80203 15.2083 6.5153V7.50001C15.2083 7.84518 15.4882 8.12501 15.8333 8.12501C16.1785 8.12501 16.4583 7.84518 16.4583 7.50001V6.5153C16.4583 5.81755 16.4584 5.26558 16.4307 4.81853C16.4026 4.36657 16.3441 3.98019 16.2085 3.61654C15.8073 2.54101 14.959 1.69274 13.8835 1.29151C13.5198 1.15588 13.1334 1.0974 12.6815 1.06934C12.2344 1.04159 11.6825 1.04167 10.9847 1.04167ZM8.16488 2.33399C7.70561 2.91401 7.43089 3.64687 7.43083 4.44418V5.37029C7.43083 5.84102 7.42544 5.95399 7.40479 6.03109C7.33415 6.2947 7.12803 6.50082 6.86442 6.57146C6.78731 6.59211 6.67435 6.5975 6.20361 6.5975H5.27751C4.48061 6.59756 3.74801 6.87189 3.16813 7.33073C3.16895 7.31685 3.16891 7.30298 3.16976 7.28923C3.21395 6.57743 3.30043 6.09065 3.45378 5.67953C3.98171 4.26446 5.09779 3.14839 6.51286 2.62045C6.92398 2.46711 7.41076 2.38062 8.12256 2.33643C8.13659 2.33556 8.1507 2.33483 8.16488 2.33399Z" fill="#94A7BF"/>
<path d="M14.624 9.37663C14.3994 9.392 14.2029 9.52625 14.1056 9.72413L14.0706 9.81283L12.7165 14.1203L12.0719 12.7531C11.9541 12.503 11.8466 12.2734 11.7375 12.0915C11.6218 11.8986 11.477 11.7101 11.2581 11.5666C11.0369 11.4216 10.8063 11.3657 10.5827 11.3412C10.3754 11.3184 10.1285 11.3192 9.86654 11.3192H9.16667C8.82158 11.3192 8.54181 11.5991 8.54167 11.9442C8.54176 12.2893 8.82155 12.5692 9.16667 12.5692H9.86654C10.1558 12.5692 10.3231 12.5703 10.4468 12.5838C10.5541 12.5956 10.5729 12.6123 10.5729 12.6123C10.5764 12.6145 10.6039 12.6314 10.6657 12.7344C10.7352 12.8502 10.813 13.0134 10.9416 13.2861L12.2681 16.0995C12.3779 16.3322 12.6192 16.4742 12.876 16.4567C13.1326 16.4392 13.3522 16.2659 13.4294 16.0205L14.7827 11.7122L15.4281 13.0802C15.5459 13.3303 15.6534 13.56 15.7625 13.7419C15.8782 13.9347 16.023 14.1233 16.2419 14.2668C16.4631 14.4117 16.6938 14.4677 16.9173 14.4922C17.1246 14.5149 17.3715 14.5142 17.6335 14.5142H18.3333C18.6784 14.5142 18.9581 14.2341 18.9583 13.8892C18.9583 13.544 18.6785 13.2642 18.3333 13.2642H17.6335C17.3442 13.2642 17.1769 13.2631 17.0532 13.2495C16.9494 13.2381 16.9286 13.2222 16.9271 13.221C16.924 13.2191 16.8965 13.2027 16.8343 13.099C16.7648 12.9831 16.687 12.8199 16.5584 12.5472L15.2319 9.73389C15.1222 9.50108 14.8808 9.35914 14.624 9.37663Z" fill="#94A7BF"/>
</svg>
