<svg width="18" height="18" viewBox="0 0 18 18" fill="none" xmlns="http://www.w3.org/2000/svg">
<path fill-rule="evenodd" clip-rule="evenodd" d="M9.9847 0.0416718C8.75807 0.0416717 7.8096 0.0414411 7.04525 0.0888723C6.27602 0.136624 5.65153 0.234211 5.07666 0.448573C3.32154 1.1032 1.93653 2.48821 1.2819 4.24333C1.06754 4.8182 0.969953 5.44269 0.922201 6.21192C0.877092 6.93884 0.875902 7.83228 0.875814 8.97315C0.875745 8.9821 0.875 8.99104 0.875 9.00001C0.875 9.003 0.875772 9.00597 0.875814 9.00896C0.875812 9.05601 0.875 9.10348 0.875 9.15137L0.875 11.273C0.875 12.5375 0.87428 13.5376 0.962077 14.3304C1.05124 15.1353 1.23787 15.8025 1.66439 16.3722C1.8906 16.6744 2.15892 16.9427 2.4611 17.169C3.03087 17.5955 3.69805 17.7821 4.50293 17.8713C5.29574 17.9591 6.29584 17.9583 7.56038 17.9583L11.0833 17.9583C11.4285 17.9583 11.7083 17.6785 11.7083 17.3333C11.7083 16.9882 11.4285 16.7083 11.0833 16.7083L7.56038 16.7083C6.26734 16.7083 5.34851 16.7078 4.64046 16.6294C3.94486 16.5523 3.52885 16.4062 3.21061 16.168C3.00386 16.0132 2.82014 15.8295 2.66536 15.6227C2.42718 15.3045 2.281 14.8885 2.20394 14.1929C2.12553 13.4848 2.125 12.566 2.125 11.273L2.125 9.15137C2.125 9.09646 2.12581 9.04221 2.12581 8.98861C2.13195 7.805 3.09249 6.84765 4.27751 6.8475H5.20361C5.59378 6.8475 5.91144 6.85223 6.1875 6.77833C6.88248 6.59211 7.42544 6.04915 7.61165 5.35417C7.68556 5.07811 7.68083 4.76045 7.68083 4.37029V3.44418C7.68097 2.25888 8.63877 1.29737 9.82275 1.29167C9.87609 1.29167 9.93007 1.29167 9.9847 1.29167C10.698 1.29167 11.2048 1.29211 11.6042 1.3169C11.9985 1.34139 12.2467 1.38805 12.4465 1.46257C13.1824 1.73709 13.7629 2.31756 14.0374 3.05355C14.112 3.25334 14.1586 3.50155 14.1831 3.89584C14.2079 4.29518 14.2083 4.80203 14.2083 5.5153V6.50001C14.2083 6.84518 14.4882 7.12501 14.8333 7.12501C15.1785 7.12501 15.4583 6.84518 15.4583 6.50001V5.5153C15.4583 4.81755 15.4584 4.26558 15.4307 3.81853C15.4026 3.36657 15.3441 2.98019 15.2085 2.61654C14.8073 1.54101 13.959 0.692739 12.8835 0.291509C12.5198 0.155877 12.1334 0.097401 11.6815 0.069341C11.2344 0.0415892 10.6825 0.0416718 9.9847 0.0416718ZM7.16488 1.33399C6.70561 1.91401 6.43089 2.64687 6.43083 3.44418V4.37029C6.43083 4.84102 6.42544 4.95399 6.40479 5.03109C6.33415 5.2947 6.12803 5.50082 5.86442 5.57146C5.78731 5.59211 5.67435 5.5975 5.20361 5.5975H4.27751C3.48061 5.59756 2.74801 5.87189 2.16813 6.33073C2.16895 6.31685 2.16891 6.30298 2.16976 6.28923C2.21395 5.57743 2.30043 5.09065 2.45378 4.67953C2.98171 3.26446 4.09779 2.14839 5.51286 1.62045C5.92398 1.46711 6.41076 1.38062 7.12256 1.33643C7.13659 1.33556 7.1507 1.33483 7.16488 1.33399Z" fill="#94A7BF"/>
<path d="M13.624 8.37663C13.3994 8.392 13.2029 8.52625 13.1056 8.72413L13.0706 8.81283L11.7165 13.1203L11.0719 11.7531C10.9541 11.503 10.8466 11.2734 10.7375 11.0915C10.6218 10.8986 10.477 10.7101 10.2581 10.5666C10.0369 10.4216 9.80626 10.3657 9.58268 10.3412C9.37537 10.3184 9.12847 10.3192 8.86654 10.3192H8.16667C7.82158 10.3192 7.54181 10.5991 7.54167 10.9442C7.54176 11.2893 7.82155 11.5692 8.16667 11.5692H8.86654C9.15578 11.5692 9.32312 11.5703 9.44678 11.5838C9.55411 11.5956 9.57292 11.6123 9.57292 11.6123C9.57638 11.6145 9.60391 11.6314 9.66569 11.7344C9.73518 11.8502 9.813 12.0134 9.94157 12.2861L11.2681 15.0995C11.3779 15.3322 11.6192 15.4742 11.876 15.4567C12.1326 15.4392 12.3522 15.2659 12.4294 15.0205L13.7827 10.7122L14.4281 12.0802C14.5459 12.3303 14.6534 12.56 14.7625 12.7419C14.8782 12.9347 15.023 13.1233 15.2419 13.2668C15.4631 13.4117 15.6938 13.4677 15.9173 13.4922C16.1246 13.5149 16.3715 13.5142 16.6335 13.5142H17.3333C17.6784 13.5142 17.9581 13.2341 17.9583 12.8892C17.9583 12.544 17.6785 12.2642 17.3333 12.2642H16.6335C16.3442 12.2642 16.1769 12.2631 16.0532 12.2495C15.9494 12.2381 15.9286 12.2222 15.9271 12.221C15.924 12.2191 15.8965 12.2027 15.8343 12.099C15.7648 11.9831 15.687 11.8199 15.5584 11.5472L14.2319 8.73389C14.1222 8.50108 13.8808 8.35914 13.624 8.37663Z" fill="#94A7BF"/>
</svg>
