<svg width="19" height="18" viewBox="0 0 19 18" fill="none" xmlns="http://www.w3.org/2000/svg">
<path d="M14.5591 11.2917C14.2139 11.2917 13.9341 11.5715 13.9341 11.9167C13.9341 12.6836 13.6808 13.1214 13.375 13.3791C13.0507 13.6522 12.5843 13.7917 12.0591 13.7917C11.7139 13.7917 11.4341 14.0715 11.4341 14.4167C11.4341 14.7618 11.7139 15.0417 12.0591 15.0417C12.7838 15.0417 13.5675 14.8518 14.1807 14.3353C14.8123 13.8032 15.1841 12.9907 15.1841 11.9167C15.1841 11.5715 14.9043 11.2917 14.5591 11.2917Z" fill="#94A7BF"/>
<path fill-rule="evenodd" clip-rule="evenodd" d="M13.7306 3.40918C12.5509 2.25296 10.7339 2.25296 9.5542 3.40918C8.67247 4.27345 7.58974 5.46642 6.72461 6.8361C5.86379 8.19907 5.18412 9.79075 5.18408 11.439C5.18426 14.6299 7.61596 17.9583 11.6424 17.9583C15.6689 17.9583 18.1006 14.6299 18.1007 11.439C18.1007 9.79075 17.421 8.19907 16.5602 6.8361C15.6951 5.46642 14.6124 4.27345 13.7306 3.40918ZM10.429 4.30192C11.1227 3.62201 12.1621 3.62201 12.8558 4.30192C13.6989 5.1283 14.7083 6.24516 15.5031 7.50342C16.302 8.76829 16.8507 10.1237 16.8507 11.439C16.8506 14.0595 14.8644 16.7083 11.6424 16.7083C8.42042 16.7083 6.43426 14.0595 6.43408 11.439C6.43412 10.1237 6.98284 8.76829 7.78174 7.50342C8.5765 6.24516 9.58597 5.1283 10.429 4.30192Z" fill="#94A7BF"/>
<path d="M7.13721 0.79769C6.15589 -0.210212 4.62894 -0.210213 3.64762 0.79769C2.951 1.51339 2.09435 2.50285 1.40885 3.6403C0.726884 4.772 0.184082 6.09978 0.184082 7.47901C0.184173 9.58785 1.38773 11.6557 3.49382 12.4969C3.81428 12.6249 4.17788 12.469 4.30599 12.1486C4.43398 11.8281 4.2781 11.4645 3.95768 11.3364C2.37728 10.7053 1.43417 9.13362 1.43408 7.47901C1.43408 6.41752 1.8568 5.31817 2.479 4.28565C3.09758 3.25917 3.88433 2.34662 4.54281 1.67009C5.03346 1.166 5.75137 1.166 6.24203 1.67009C6.61796 2.05639 6.91785 2.50748 7.39681 3.13086C7.60712 3.40447 7.9996 3.45584 8.27328 3.24561C8.54693 3.03531 8.59826 2.64284 8.38802 2.36914C7.97522 1.83186 7.58109 1.25374 7.13721 0.79769Z" fill="#94A7BF"/>
</svg>
