<svg width="93" height="36" viewBox="0 0 93 36" fill="none" xmlns="http://www.w3.org/2000/svg">
<path d="M18.1428 0.5H74.1428C83.8078 0.5 91.6428 8.33502 91.6428 18C91.6428 27.665 83.8078 35.5 74.1428 35.5H18.1428C8.47784 35.5 0.642822 27.665 0.642822 18C0.642822 8.33502 8.47784 0.5 18.1428 0.5Z" stroke="#94A7BF"/>
<path d="M24.8521 12.354V22H23.5361V17.8H18.8741V22H17.5721V12.354H18.8741V16.61H23.5361V12.354H24.8521ZM32.7062 19.438L36.1082 12.354H37.2982L38.4742 22H37.1862L36.3042 14.748L33.2942 20.936H32.1462L29.1082 14.748L28.2262 22H26.9382L28.1142 12.354H29.3042L32.7062 19.438ZM46.8125 14.846C46.8125 15.658 46.5045 16.526 45.5945 16.862C46.6725 17.086 47.3305 18.262 47.3305 19.214C47.3305 20.712 46.2945 22 44.5025 22H40.5545V12.354H44.1945C45.8185 12.354 46.8125 13.32 46.8125 14.846ZM41.8705 16.358H44.1945C45.0485 16.358 45.4825 15.672 45.4825 14.888C45.4825 14.048 44.9365 13.558 44.0545 13.558H41.8705V16.358ZM44.4045 17.506H41.8705V20.782H44.4465C45.3985 20.782 45.9865 20.026 45.9865 19.2C45.9865 18.416 45.3705 17.506 44.4045 17.506Z" fill="#94A7BF"/>
<path d="M71.5596 20.2917C71.2144 20.2917 70.9346 20.5715 70.9346 20.9167C70.9346 21.6836 70.6813 22.1214 70.3755 22.3791C70.0512 22.6522 69.5848 22.7917 69.0596 22.7917C68.7144 22.7917 68.4346 23.0715 68.4346 23.4167C68.4346 23.7618 68.7144 24.0417 69.0596 24.0417C69.7843 24.0417 70.568 23.8518 71.1812 23.3353C71.8128 22.8032 72.1846 21.9907 72.1846 20.9167C72.1846 20.5715 71.9047 20.2917 71.5596 20.2917Z" fill="#94A7BF"/>
<path fill-rule="evenodd" clip-rule="evenodd" d="M70.7311 12.4092C69.5514 11.253 67.7344 11.253 66.5547 12.4092C65.673 13.2734 64.5902 14.4664 63.7251 15.8361C62.8643 17.1991 62.1846 18.7907 62.1846 20.439C62.1847 23.6299 64.6165 26.9583 68.6429 26.9583C72.6694 26.9583 75.1011 23.6299 75.1012 20.439C75.1012 18.7907 74.4215 17.1991 73.5607 15.8361C72.6956 14.4664 71.6128 13.2734 70.7311 12.4092ZM67.4295 13.3019C68.1232 12.622 69.1626 12.622 69.8563 13.3019C70.6994 14.1283 71.7088 15.2452 72.5036 16.5034C73.3025 17.7683 73.8512 19.1237 73.8512 20.439C73.8511 23.0595 71.8649 25.7083 68.6429 25.7083C65.4209 25.7083 63.4347 23.0595 63.4346 20.439C63.4346 19.1237 63.9833 17.7683 64.7822 16.5034C65.577 15.2452 66.5865 14.1283 67.4295 13.3019Z" fill="#94A7BF"/>
<path d="M64.1377 9.79769C63.1564 8.78979 61.6294 8.78979 60.6481 9.79769C59.9515 10.5134 59.0948 11.5029 58.4093 12.6403C57.7274 13.772 57.1846 15.0998 57.1846 16.479C57.1847 18.5879 58.3882 20.6557 60.4943 21.4969C60.8148 21.6249 61.1784 21.469 61.3065 21.1486C61.4345 20.8281 61.2786 20.4645 60.9582 20.3364C59.3778 19.7053 58.4347 18.1336 58.4346 16.479C58.4346 15.4175 58.8573 14.3182 59.4795 13.2856C60.0981 12.2592 60.8848 11.3466 61.5433 10.6701C62.0339 10.166 62.7519 10.166 63.2425 10.6701C63.6184 11.0564 63.9183 11.5075 64.3973 12.1309C64.6076 12.4045 65.0001 12.4558 65.2738 12.2456C65.5474 12.0353 65.5987 11.6428 65.3885 11.3691C64.9757 10.8319 64.5816 10.2537 64.1377 9.79769Z" fill="#94A7BF"/>
</svg>
