<svg width="19" height="18" viewBox="0 0 19 18" fill="none" xmlns="http://www.w3.org/2000/svg">
<path d="M9.57138 16.1382C9.89274 16.1384 10.1535 16.4059 10.1535 16.7358C10.1535 17.0658 9.89274 17.3332 9.57138 17.3334H8.20776C7.88626 17.3334 7.62563 17.0659 7.62563 16.7358C7.62563 16.4058 7.88626 16.1382 8.20776 16.1382H9.57138ZM12.6761 16.1382C12.9976 16.1383 13.2582 16.4058 13.2582 16.7358C13.2582 17.0658 12.9976 17.3334 12.6761 17.3334H11.3125C10.991 17.3334 10.7303 17.0659 10.7303 16.7358C10.7303 16.4058 10.991 16.1382 11.3125 16.1382L12.6761 16.1382ZM15.1934 16.1382C15.5149 16.1382 15.7755 16.4058 15.7755 16.7358C15.7755 17.0659 15.5149 17.3334 15.1934 17.3334H14.4172C14.0958 17.3333 13.8351 17.0658 13.8351 16.7358C13.8351 16.4059 14.0958 16.1384 14.4172 16.1382H15.1934ZM18.2981 16.1382C18.6196 16.1382 18.8802 16.4058 18.8802 16.7358C18.8802 17.0659 18.6196 17.3334 18.2981 17.3334H16.9443C16.6229 17.3333 16.3622 17.0658 16.3622 16.7358C16.3622 16.4059 16.6229 16.1384 16.9443 16.1382H18.2981ZM14.0056 1.36819C14.575 0.783586 15.2686 0.593227 15.9354 0.691234C16.5797 0.785964 17.1695 1.14257 17.6144 1.59851C18.0591 2.05437 18.4028 2.65366 18.5096 3.29245C18.6194 3.94997 18.4738 4.65194 17.9335 5.2066C17.4873 5.6647 17.3598 5.77852 17.1437 5.98393C16.9347 6.18252 16.6264 6.48228 15.8035 7.32694C14.9606 8.1923 14.1422 9.03317 13.4758 9.71729L11.9522 11.2813C11.9427 11.291 11.9351 11.2981 11.9302 11.3031L11.9234 11.3101L11.6793 11.5614L10.8615 11.3155C10.7942 11.2998 10.723 11.284 10.65 11.272C10.4697 11.2423 10.3029 11.2329 10.1702 11.2494C10.0345 11.2663 9.99065 11.303 9.98297 11.3109C9.96246 11.3319 9.89953 11.4472 9.91854 11.759C9.93545 12.0363 10.0087 12.3286 10.0648 12.5146C10.1121 12.6714 10.1115 12.8326 10.0921 12.9604C10.0739 13.0801 10.0242 13.2724 9.88064 13.4328C9.6723 13.6653 9.15028 14.2218 7.84241 15.5648C6.66306 16.7757 5.12032 16.9942 3.83949 16.8946C2.55679 16.7947 1.44419 16.3713 0.997039 16.181C0.506314 15.9723 0.402287 15.3354 0.756757 14.9641L2.86851 12.7605C3.88985 11.6983 5.15552 10.3878 6.44393 9.06524L11.8764 3.48853C12.7866 2.55414 13.108 2.24045 13.3136 2.0467C13.5105 1.86103 13.5795 1.80568 14.0056 1.36819ZM7.02303 10.1608C4.97474 12.2658 3.02086 14.3033 2.05898 15.3088C2.54592 15.4713 3.21059 15.6467 3.92741 15.7025C5.0355 15.7887 6.17662 15.585 7.01924 14.7197C8.13619 13.5728 8.66577 13.0094 8.91572 12.7379C8.85239 12.5076 8.77749 12.1772 8.75654 11.8337C8.73823 11.5333 8.75382 11.108 8.95589 10.7421L7.02303 10.1608ZM7.96066 9.19751L11.1412 10.1538C11.2162 10.1717 11.2857 10.1919 11.3489 10.2098L12.2274 9.30801L9.9716 7.13319C9.29678 7.82592 8.61995 8.52073 7.96066 9.19751ZM15.7702 1.87396C15.4497 1.82693 15.1272 1.90685 14.8288 2.21321C14.3825 2.67146 14.296 2.74376 14.1011 2.92752C13.9146 3.10333 13.6073 3.40175 12.6996 4.33356C12.0864 4.96307 11.4455 5.62021 10.7955 6.28739L13.0513 8.4622C13.6334 7.86466 14.299 7.18141 14.9804 6.48192C15.8081 5.6322 16.1278 5.32037 16.3523 5.107C16.5693 4.90074 16.6817 4.80155 17.1103 4.36157C17.3461 4.11947 17.4173 3.82625 17.362 3.49476C17.3034 3.14448 17.0996 2.76036 16.7912 2.44431C16.4829 2.12839 16.1132 1.9244 15.7702 1.87396Z" fill="url(#paint0_linear_2215_3860)"/>
<defs>
<linearGradient id="paint0_linear_2215_3860" x1="0.546875" y1="0.666748" x2="20.7799" y2="3.43159" gradientUnits="userSpaceOnUse">
<stop stop-color="#F79548"/>
<stop offset="1" stop-color="#E94262"/>
</linearGradient>
</defs>
</svg>
