<svg width="182" height="36" viewBox="0 0 182 36" fill="none" xmlns="http://www.w3.org/2000/svg">
<path d="M18.8569 0.5H163.857C173.522 0.5 181.357 8.33502 181.357 18C181.357 27.665 173.522 35.5 163.857 35.5H18.8569C9.19195 35.5 1.35693 27.665 1.35693 18C1.35693 8.33502 9.19195 0.5 18.8569 0.5Z" stroke="#94A7BF"/>
<path d="M15.6708 25.36L15.7968 24.128C16.0068 24.198 16.6088 24.24 16.7208 24.24C17.9388 24.24 18.3868 23.386 18.3868 22.378V12.354H19.6888V22.378C19.6888 24.072 18.8908 25.514 16.7208 25.514C16.4548 25.514 16.0068 25.43 15.6708 25.36ZM24.9176 22.14C23.0556 22.14 21.5016 20.782 21.5016 18.71C21.5016 16.638 23.0556 15.322 24.9176 15.322C26.7796 15.322 28.3476 16.638 28.3476 18.71C28.3476 20.782 26.7796 22.14 24.9176 22.14ZM24.9176 20.908C26.0796 20.908 27.0736 20.054 27.0736 18.71C27.0736 17.394 26.0796 16.568 24.9176 16.568C23.7276 16.568 22.7616 17.394 22.7616 18.71C22.7616 20.054 23.7276 20.908 24.9176 20.908ZM31.303 15.462V22H30.043V15.462H31.303ZM29.791 13.054C29.791 12.564 30.183 12.228 30.673 12.228C31.163 12.228 31.555 12.564 31.555 13.054C31.555 13.544 31.163 13.88 30.673 13.88C30.183 13.88 29.791 13.544 29.791 13.054ZM34.7076 18.472V22H33.4336V15.462H34.7076V16.442C35.0856 15.658 36.0376 15.322 36.7516 15.322C38.3896 15.322 39.2716 16.372 39.2716 18.22V22H37.9976V18.304C37.9976 17.198 37.4516 16.568 36.5556 16.568C35.6316 16.568 34.7076 17.086 34.7076 18.472ZM43.0863 15.462H44.4723V16.54H43.0863V22H41.8123V16.54H40.6363V15.462H41.8123V12.998H43.0863V15.462ZM52.191 16.092H54.081V14.846H55.285V16.106H56.503V17.128H55.285V19.046C55.285 20.11 55.467 20.95 56.741 20.95V22.126C55.677 22.126 54.907 21.692 54.529 21.09C54.039 21.762 53.115 22.126 52.149 22.126C50.287 22.126 48.999 20.768 48.999 19.046C48.999 17.982 49.531 17.058 50.427 16.498C49.979 16.064 49.741 15.434 49.741 14.762C49.741 13.432 50.847 12.354 52.247 12.354C53.241 12.354 54.081 12.9 54.571 13.726L53.535 14.37C53.255 13.88 52.793 13.572 52.247 13.572C51.505 13.572 50.959 14.076 50.959 14.762C50.959 15.434 51.463 16.092 52.191 16.092ZM54.081 17.128H52.163C51.043 17.128 50.217 18.052 50.217 19.046C50.217 20.11 50.987 20.908 52.149 20.908C53.255 20.908 54.039 20.138 54.081 19.13V17.128ZM63.4049 20.992V22H62.1309V11.906H63.4049V16.442C63.8389 15.7 64.7489 15.322 65.7009 15.322C67.5069 15.322 69.0049 16.638 69.0049 18.724C69.0049 20.796 67.4789 22.14 65.6869 22.14C64.7769 22.14 63.8389 21.72 63.4049 20.992ZM63.4189 18.71C63.4189 20.096 64.4269 20.894 65.5889 20.894C66.7649 20.894 67.7029 19.998 67.7029 18.71C67.7029 17.422 66.7649 16.568 65.5889 16.568C64.5249 16.568 63.4189 17.31 63.4189 18.71ZM73.6852 22.14C71.8232 22.14 70.2692 20.782 70.2692 18.71C70.2692 16.638 71.8232 15.322 73.6852 15.322C75.5472 15.322 77.1152 16.638 77.1152 18.71C77.1152 20.782 75.5472 22.14 73.6852 22.14ZM73.6852 20.908C74.8472 20.908 75.8412 20.054 75.8412 18.71C75.8412 17.394 74.8472 16.568 73.6852 16.568C72.4952 16.568 71.5292 17.394 71.5292 18.71C71.5292 20.054 72.4952 20.908 73.6852 20.908ZM80.0846 18.472V22H78.8106V15.462H80.0846V16.442C80.4626 15.658 81.4146 15.322 82.1286 15.322C83.7666 15.322 84.6486 16.372 84.6486 18.22V22H83.3746V18.304C83.3746 17.198 82.8286 16.568 81.9326 16.568C81.0086 16.568 80.0846 17.086 80.0846 18.472ZM87.5393 18.22H91.5993C91.4453 17.114 90.6753 16.47 89.6113 16.47C88.5333 16.47 87.6933 17.114 87.5393 18.22ZM92.8593 18.71C92.8593 18.864 92.8593 19.06 92.8453 19.214H87.5393C87.6933 20.32 88.5333 20.992 89.6533 20.992C90.4373 20.992 91.1513 20.642 91.5293 19.984C91.8653 20.138 92.2713 20.25 92.6213 20.404C92.0613 21.566 90.8853 22.14 89.6113 22.14C87.7493 22.14 86.2653 20.782 86.2653 18.71C86.2653 16.638 87.7493 15.322 89.6113 15.322C91.4733 15.322 92.8593 16.638 92.8593 18.71ZM99.3893 18.472V22H98.1153V11.906H99.3893V16.442C99.7673 15.658 100.845 15.322 101.545 15.322C103.183 15.322 104.205 16.372 104.191 18.22V22H102.917V18.304C102.917 17.226 102.273 16.568 101.377 16.568C100.481 16.568 99.3893 17.072 99.3893 18.472ZM107.076 18.22H111.136C110.982 17.114 110.212 16.47 109.148 16.47C108.07 16.47 107.23 17.114 107.076 18.22ZM112.396 18.71C112.396 18.864 112.396 19.06 112.382 19.214H107.076C107.23 20.32 108.07 20.992 109.19 20.992C109.974 20.992 110.688 20.642 111.066 19.984C111.402 20.138 111.808 20.25 112.158 20.404C111.598 21.566 110.422 22.14 109.148 22.14C107.286 22.14 105.802 20.782 105.802 18.71C105.802 16.638 107.286 15.322 109.148 15.322C111.01 15.322 112.396 16.638 112.396 18.71ZM119.196 22V20.992C118.762 21.72 117.81 22.14 116.9 22.14C115.108 22.14 113.582 20.796 113.582 18.724C113.582 16.638 115.108 15.322 116.9 15.322C117.81 15.322 118.748 15.7 119.196 16.442V15.462H120.456V22H119.196ZM119.182 18.71C119.182 17.31 118.076 16.568 117.012 16.568C115.836 16.568 114.884 17.422 114.884 18.71C114.884 19.998 115.836 20.894 117.012 20.894C118.174 20.894 119.182 20.096 119.182 18.71ZM122.588 11.906H123.862V22H122.588V11.906ZM127.756 15.462H129.142V16.54H127.756V22H126.482V16.54H125.306V15.462H126.482V12.998H127.756V15.462ZM131.86 18.472V22H130.586V11.906H131.86V16.442C132.238 15.658 133.316 15.322 134.016 15.322C135.654 15.322 136.676 16.372 136.662 18.22V22H135.388V18.304C135.388 17.226 134.744 16.568 133.848 16.568C132.952 16.568 131.86 17.072 131.86 18.472Z" fill="#94A7BF"/>
<path d="M157.46 18.6835C158.494 19.7167 160.169 19.7165 161.202 18.6835C162.024 17.8618 162.192 16.635 161.708 15.6481C161.668 15.5655 161.653 15.4819 161.656 15.4218C161.658 15.3687 161.673 15.3547 161.674 15.3535L164.632 12.3953C164.876 12.1513 164.876 11.7556 164.632 11.5115C164.388 11.2674 163.993 11.2674 163.749 11.5115L160.79 14.4697C160.265 14.9953 160.362 15.7415 160.585 16.1982C160.841 16.72 160.751 17.3672 160.318 17.7998C159.773 18.3445 158.889 18.3447 158.344 17.7998C158.122 17.5776 157.992 17.2988 157.951 17.0096C158.303 16.8814 158.634 16.6785 158.916 16.3968C159.16 16.1528 159.16 15.757 158.916 15.513C158.672 15.2689 158.277 15.269 158.032 15.513C157.81 15.7356 157.532 15.8666 157.243 15.9077C156.822 15.9675 156.38 15.8356 156.057 15.513C155.512 14.9679 155.513 14.0839 156.057 13.5387C156.49 13.1062 157.137 13.0162 157.659 13.2718C158.116 13.4955 158.862 13.5922 159.387 13.0667L162.346 10.1085C162.59 9.86444 162.59 9.46881 162.346 9.22473C162.102 8.98075 161.706 8.98068 161.462 9.22473L158.504 12.1829C158.502 12.1842 158.488 12.1989 158.435 12.2016C158.375 12.2046 158.292 12.1892 158.209 12.1487C157.222 11.6653 155.995 11.8331 155.174 12.6549C154.141 13.6883 154.14 15.3635 155.174 16.3968C155.604 16.8275 156.147 17.077 156.708 17.1487C156.779 17.7093 157.029 18.2526 157.46 18.6835Z" fill="#94A7BF"/>
<path d="M152.524 13.625C152.869 13.625 153.149 13.3451 153.149 13V11.3333C153.149 10.9881 152.869 10.7083 152.524 10.7083C152.179 10.7083 151.899 10.9881 151.899 11.3333V13C151.899 13.3451 152.179 13.625 152.524 13.625Z" fill="#94A7BF"/>
<path d="M150.857 15.2916C151.202 15.2916 151.482 15.0118 151.482 14.6666C151.482 14.3214 151.202 14.0416 150.857 14.0416H149.19C148.845 14.0416 148.565 14.3214 148.565 14.6666C148.565 15.0118 148.845 15.2916 149.19 15.2916H150.857Z" fill="#94A7BF"/>
<path d="M149.369 26.7752C149.613 27.0192 150.008 27.0192 150.253 26.7752L153.211 23.817C153.212 23.8157 153.226 23.801 153.279 23.7983C153.339 23.7953 153.423 23.8107 153.505 23.8512C154.492 24.3346 155.719 24.1668 156.541 23.345C157.574 22.3117 157.574 20.6364 156.541 19.6031C156.11 19.1722 155.566 18.922 155.006 18.8504C154.934 18.2901 154.685 17.7471 154.254 17.3164C153.221 16.2832 151.545 16.2834 150.512 17.3164C149.69 18.1381 149.523 19.3649 150.006 20.3518C150.046 20.4344 150.062 20.518 150.059 20.5781C150.056 20.6312 150.041 20.6452 150.04 20.6464L147.082 23.6046C146.838 23.8487 146.838 24.2443 147.082 24.4884C147.326 24.7325 147.722 24.7325 147.966 24.4884L150.924 21.5302C151.449 21.0047 151.353 20.2584 151.129 19.8017C150.873 19.2799 150.963 18.6327 151.396 18.2002C151.941 17.6554 152.825 17.6552 153.37 18.2002C153.592 18.422 153.721 18.7006 153.762 18.9895C153.411 19.1177 153.08 19.3215 152.798 19.6031C152.554 19.8472 152.554 20.2429 152.798 20.4869C153.042 20.731 153.438 20.7309 153.682 20.4869C153.905 20.2643 154.183 20.1333 154.471 20.0922C154.893 20.0324 155.334 20.1643 155.657 20.4869C156.202 21.032 156.202 21.916 155.657 22.4612C155.224 22.8937 154.577 22.9837 154.055 22.7281C153.599 22.5044 152.852 22.4077 152.327 22.9332L149.369 25.8914C149.125 26.1355 149.125 26.5311 149.369 26.7752Z" fill="#94A7BF"/>
<path d="M162.524 21.9583C162.869 21.9583 163.149 21.6785 163.149 21.3333C163.149 20.9881 162.869 20.7083 162.524 20.7083H160.857C160.512 20.7083 160.232 20.9881 160.232 21.3333C160.232 21.6785 160.512 21.9583 160.857 21.9583H162.524Z" fill="#94A7BF"/>
<path d="M159.19 25.2916C159.536 25.2916 159.815 25.0118 159.815 24.6666V23C159.815 22.6548 159.536 22.375 159.19 22.375C158.845 22.375 158.565 22.6548 158.565 23V24.6666C158.565 25.0118 158.845 25.2916 159.19 25.2916Z" fill="#94A7BF"/>
</svg>
