<svg width="140" height="36" viewBox="0 0 140 36" fill="none" xmlns="http://www.w3.org/2000/svg">
<path d="M18 0.5H122C131.665 0.5 139.5 8.33502 139.5 18C139.5 27.665 131.665 35.5 122 35.5H18C8.33502 35.5 0.5 27.665 0.5 18C0.5 8.33502 8.33502 0.500001 18 0.5Z" stroke="#94A7BF"/>
<path d="M16.9419 17.198C16.9419 14.468 19.0699 12.242 21.8139 12.242C24.5719 12.242 26.7139 14.468 26.7139 17.198C26.7139 19.942 24.5719 22.14 21.8139 22.14C19.0699 22.14 16.9419 19.942 16.9419 17.198ZM18.2439 17.198C18.2439 19.256 19.7979 20.88 21.8139 20.88C23.8439 20.88 25.3979 19.256 25.3979 17.198C25.3979 15.14 23.8439 13.502 21.8139 13.502C19.7979 13.502 18.2439 15.14 18.2439 17.198ZM29.6681 18.472V22H28.3941V15.462H29.6681V16.442C30.0461 15.658 30.9981 15.322 31.7121 15.322C33.3501 15.322 34.2321 16.372 34.2321 18.22V22H32.9581V18.304C32.9581 17.198 32.4121 16.568 31.5161 16.568C30.5921 16.568 29.6681 17.086 29.6681 18.472ZM36.1848 18.122H41.0568V19.34H36.1848V18.122ZM48.2573 22V20.992C47.8233 21.72 46.8713 22.14 45.9613 22.14C44.1693 22.14 42.6573 20.796 42.6573 18.724C42.6573 16.638 44.1553 15.322 45.9473 15.322C46.9133 15.322 47.8233 15.7 48.2573 16.442V11.906H49.5313V22H48.2573ZM48.2433 18.71C48.2433 17.31 47.1373 16.568 46.0733 16.568C44.8973 16.568 43.9593 17.422 43.9593 18.71C43.9593 19.998 44.8973 20.894 46.0733 20.894C47.2353 20.894 48.2433 20.096 48.2433 18.71ZM52.5036 18.22H56.5636C56.4096 17.114 55.6396 16.47 54.5756 16.47C53.4976 16.47 52.6576 17.114 52.5036 18.22ZM57.8236 18.71C57.8236 18.864 57.8236 19.06 57.8096 19.214H52.5036C52.6576 20.32 53.4976 20.992 54.6176 20.992C55.4016 20.992 56.1156 20.642 56.4936 19.984C56.8296 20.138 57.2356 20.25 57.5856 20.404C57.0256 21.566 55.8496 22.14 54.5756 22.14C52.7136 22.14 51.2296 20.782 51.2296 18.71C51.2296 16.638 52.7136 15.322 54.5756 15.322C56.4376 15.322 57.8236 16.638 57.8236 18.71ZM66.9609 16.568C65.8829 16.568 65.2249 17.38 65.2249 18.472V22H63.9509V18.29C63.9509 17.212 63.3909 16.568 62.5369 16.568C61.6269 16.568 60.7169 17.1 60.7169 18.472V22H59.4429V15.462H60.7169V16.442C61.0529 15.714 61.9909 15.392 62.5229 15.35C62.7749 15.336 63.0129 15.35 63.2369 15.392C64.0629 15.518 64.6369 15.952 64.9449 16.666C65.5469 15.504 66.5829 15.322 67.2129 15.322C68.8509 15.322 69.7329 16.372 69.7329 18.22V22H68.4589V18.304C68.4589 17.226 67.9129 16.568 66.9609 16.568ZM76.9549 22V20.992C76.5209 21.72 75.5689 22.14 74.6589 22.14C72.8669 22.14 71.3409 20.796 71.3409 18.724C71.3409 16.638 72.8669 15.322 74.6589 15.322C75.5689 15.322 76.5069 15.7 76.9549 16.442V15.462H78.2149V22H76.9549ZM76.9409 18.71C76.9409 17.31 75.8349 16.568 74.7709 16.568C73.5949 16.568 72.6429 17.422 72.6429 18.71C72.6429 19.998 73.5949 20.894 74.7709 20.894C75.9329 20.894 76.9409 20.096 76.9409 18.71ZM81.6212 18.472V22H80.3472V15.462H81.6212V16.442C81.9992 15.658 82.9512 15.322 83.6652 15.322C85.3032 15.322 86.1852 16.372 86.1852 18.22V22H84.9112V18.304C84.9112 17.198 84.3652 16.568 83.4692 16.568C82.5452 16.568 81.6212 17.086 81.6212 18.472ZM93.4019 22V20.992C92.9679 21.72 92.0159 22.14 91.1059 22.14C89.3139 22.14 87.8019 20.796 87.8019 18.724C87.8019 16.638 89.2999 15.322 91.0919 15.322C92.0579 15.322 92.9679 15.7 93.4019 16.442V11.906H94.6759V22H93.4019ZM93.3879 18.71C93.3879 17.31 92.2819 16.568 91.2179 16.568C90.0419 16.568 89.1039 17.422 89.1039 18.71C89.1039 19.998 90.0419 20.894 91.2179 20.894C92.3799 20.894 93.3879 20.096 93.3879 18.71Z" fill="#94A7BF"/>
<path fill-rule="evenodd" clip-rule="evenodd" d="M112.631 11.125C113.738 11.1251 114.629 12.0276 114.629 13.1318V16.3268L116.44 16.6182C117.188 16.7311 117.78 16.8207 118.25 16.9233C118.722 17.0267 119.121 17.1536 119.472 17.3652C120.482 17.9744 121.292 18.9493 121.292 20.391C121.292 21.3251 121.048 21.9789 120.577 23.402C120.283 24.2916 120.101 24.8584 119.789 25.3153C119.296 26.0385 118.567 26.5672 117.728 26.8102C117.197 26.9638 116.604 26.9583 115.673 26.9583H114.85C113.612 26.9583 112.818 26.969 112.101 26.6719C111.978 26.6206 111.857 26.5627 111.739 26.4985C111.059 26.1267 110.567 25.4998 109.786 24.5324L107.153 21.269C106.564 20.5399 106.56 19.4977 107.143 18.7642C107.845 17.8804 109.139 17.757 109.994 18.4948L110.634 19.0474V13.1318C110.634 12.0276 111.524 11.1252 112.631 11.125ZM112.631 12.375C112.222 12.3752 111.884 12.7102 111.884 13.1318V20.4121C111.884 20.6564 111.742 20.8783 111.52 20.9801C111.297 21.0819 111.036 21.0446 110.851 20.8849L109.177 19.4412C108.861 19.1683 108.383 19.2132 108.122 19.5422C107.903 19.8176 107.904 20.21 108.125 20.4837L110.759 23.7471C111.606 24.7953 111.927 25.1765 112.339 25.4015C112.417 25.4443 112.498 25.4837 112.581 25.5179C113.013 25.6971 113.509 25.7083 114.85 25.7083H115.673C116.683 25.7083 117.061 25.7022 117.381 25.6099C117.94 25.4479 118.427 25.0949 118.758 24.6105C118.946 24.3338 119.072 23.9725 119.391 23.009C119.887 21.5113 120.042 21.0773 120.042 20.391C120.042 19.5064 119.576 18.8874 118.827 18.4354C118.645 18.3259 118.398 18.2351 117.982 18.144C117.772 18.0981 117.531 18.0546 117.247 18.0081L116.254 17.8543L116.249 17.8535L113.905 17.4767L113.795 17.4482C113.55 17.3613 113.379 17.1281 113.379 16.8599V13.1318C113.379 12.7102 113.04 12.3751 112.631 12.375Z" fill="#94A7BF"/>
<path d="M112.597 9.04167C114.783 9.04167 116.555 10.8139 116.555 13C116.555 13.3452 116.276 13.625 115.93 13.625C115.585 13.625 115.305 13.3452 115.305 13C115.305 11.5042 114.093 10.2917 112.597 10.2917C111.101 10.2917 109.889 11.5042 109.889 13C109.889 13.3452 109.609 13.625 109.264 13.625C108.919 13.625 108.639 13.3452 108.639 13C108.639 10.8139 110.411 9.04167 112.597 9.04167Z" fill="#94A7BF"/>
</svg>
