<svg width="15" height="18" viewBox="0 0 15 18" fill="none" xmlns="http://www.w3.org/2000/svg">
<path d="M0.617676 10.0417C0.272619 10.0418 -0.00732422 10.3216 -0.00732422 10.6667C-0.00732422 11.0118 0.272619 11.2915 0.617676 11.2917H2.61312C2.76444 11.2917 2.91316 11.3263 3.04688 11.391L4.74854 12.2137C5.05313 12.3611 5.38885 12.4375 5.72754 12.4375H6.59587C6.95123 12.4375 7.24338 12.6279 7.39014 12.8932L5.77881 13.3392C5.54463 13.4039 5.29339 13.3803 5.07731 13.2757L3.25846 12.396C2.94779 12.2458 2.57381 12.3759 2.4235 12.6865C2.27339 12.9971 2.40355 13.3711 2.71403 13.5215L4.53288 14.4012C5.02331 14.6385 5.58629 14.6888 6.11165 14.5436L8.22917 13.9585C8.5209 13.8778 8.74268 13.6106 8.74268 13.2847C8.74267 13.2604 8.74025 13.2363 8.73942 13.2122L12.1289 12.1714L12.1305 12.1706C12.545 12.0415 13.0031 12.1908 13.2756 12.5677C13.3721 12.7016 13.3216 12.8855 13.2039 12.9535L6.94092 16.5676C6.69009 16.7122 6.39721 16.7461 6.12467 16.6652L0.795085 15.084C0.464475 14.9863 0.116973 15.175 0.0187174 15.5055C-0.0794488 15.8364 0.109525 16.1844 0.440267 16.2827L5.76904 17.8639C6.37276 18.0431 7.0201 17.9648 7.56592 17.6499L13.8289 14.0366C14.6065 13.5879 14.8065 12.5533 14.2887 11.8361C13.7114 11.0369 12.7029 10.6849 11.7611 10.9775L8.31787 12.0347C7.92322 11.518 7.2934 11.1875 6.59587 11.1875H5.72754C5.57616 11.1875 5.4267 11.1537 5.29297 11.089L3.59131 10.2655C3.28676 10.1182 2.95171 10.0417 2.61312 10.0417H0.617676Z" fill="#94A7BF"/>
<path fill-rule="evenodd" clip-rule="evenodd" d="M8.95101 0.0416718C7.22524 0.0418143 5.82601 1.44087 5.82601 3.16667L5.82601 6.5C5.82601 8.22581 7.22524 9.62486 8.95101 9.625C10.6769 9.625 12.076 8.22589 12.076 6.5L12.076 3.16667C12.076 1.44078 10.6769 0.0416718 8.95101 0.0416718ZM10.826 6.5C10.826 7.53554 9.98654 8.375 8.95101 8.375C7.9156 8.37486 7.07601 7.53545 7.07601 6.5L7.07601 5.45834L10.826 5.45834V6.5ZM8.95101 1.29167C9.98654 1.29167 10.826 2.13114 10.826 3.16667L10.826 4.20834L7.07601 4.20834V3.16667C7.07601 2.13123 7.9156 1.29181 8.95101 1.29167Z" fill="#94A7BF"/>
</svg>
