<svg width="222" height="36" viewBox="0 0 222 36" fill="none" xmlns="http://www.w3.org/2000/svg">
<path d="M18.2856 0.5H203.286C212.951 0.5 220.786 8.33502 220.786 18C220.786 27.665 212.951 35.5 203.286 35.5H18.2856C8.62066 35.5 0.785645 27.665 0.785645 18C0.785645 8.33502 8.62066 0.5 18.2856 0.5Z" stroke="#94A7BF"/>
<path d="M18.0323 12.354H21.8823C23.9263 12.354 24.7523 13.866 24.7523 15.378C24.7523 16.89 23.9263 18.388 21.8823 18.388H19.3483V22H18.0323V12.354ZM21.8683 13.572H19.3483V17.17H21.7983C22.9743 17.17 23.4503 16.274 23.4503 15.378C23.4503 14.496 22.9883 13.572 21.8683 13.572ZM26.8644 18.22H30.9244C30.7704 17.114 30.0004 16.47 28.9364 16.47C27.8584 16.47 27.0184 17.114 26.8644 18.22ZM32.1844 18.71C32.1844 18.864 32.1844 19.06 32.1704 19.214H26.8644C27.0184 20.32 27.8584 20.992 28.9784 20.992C29.7624 20.992 30.4764 20.642 30.8544 19.984C31.1904 20.138 31.5964 20.25 31.9464 20.404C31.3864 21.566 30.2104 22.14 28.9364 22.14C27.0744 22.14 25.5904 20.782 25.5904 18.71C25.5904 16.638 27.0744 15.322 28.9364 15.322C30.7984 15.322 32.1844 16.638 32.1844 18.71ZM35.0777 19.62V22H33.8037V15.462H35.0777V16.932C35.4137 15.77 36.0437 15.322 36.8977 15.322C37.3597 15.322 37.8497 15.448 38.0317 15.574L37.8357 16.764C37.4857 16.596 37.1357 16.54 36.8697 16.54C35.6097 16.54 35.0777 17.884 35.0777 19.62ZM41.6525 19.326L40.7565 19.116C39.5665 18.794 38.8945 18.206 39.0065 16.988C39.1185 16.036 40.0985 15.322 41.2745 15.322C42.3805 15.322 43.4305 15.84 43.5425 17.17H42.3245C42.2545 16.68 41.8065 16.428 41.3025 16.428C40.8125 16.428 40.4205 16.666 40.3225 17.016C40.2665 17.226 40.2665 17.394 40.3365 17.534C40.4625 17.8 40.7705 17.94 41.1065 18.038L42.0725 18.276C43.4165 18.612 43.7665 19.438 43.7665 20.18C43.7665 21.412 42.5905 22.14 41.2325 22.14C40.0565 22.14 38.8385 21.384 38.7965 20.04H39.9585C40.0005 20.32 40.1685 20.628 40.4905 20.782C40.7845 20.964 41.1205 21.034 41.5265 21.006C42.1285 20.964 42.5065 20.642 42.5205 20.152C42.5345 19.662 42.1425 19.438 41.6525 19.326ZM48.4068 22.14C46.5448 22.14 44.9908 20.782 44.9908 18.71C44.9908 16.638 46.5448 15.322 48.4068 15.322C50.2688 15.322 51.8368 16.638 51.8368 18.71C51.8368 20.782 50.2688 22.14 48.4068 22.14ZM48.4068 20.908C49.5688 20.908 50.5628 20.054 50.5628 18.71C50.5628 17.394 49.5688 16.568 48.4068 16.568C47.2168 16.568 46.2508 17.394 46.2508 18.71C46.2508 20.054 47.2168 20.908 48.4068 20.908ZM54.8063 18.472V22H53.5323V15.462H54.8063V16.442C55.1843 15.658 56.1363 15.322 56.8503 15.322C58.4883 15.322 59.3703 16.372 59.3703 18.22V22H58.0963V18.304C58.0963 17.198 57.5503 16.568 56.6543 16.568C55.7303 16.568 54.8063 17.086 54.8063 18.472ZM66.6009 22V20.992C66.1669 21.72 65.2149 22.14 64.3049 22.14C62.5129 22.14 60.9869 20.796 60.9869 18.724C60.9869 16.638 62.5129 15.322 64.3049 15.322C65.2149 15.322 66.1529 15.7 66.6009 16.442V15.462H67.8609V22H66.6009ZM66.5869 18.71C66.5869 17.31 65.4809 16.568 64.4169 16.568C63.2409 16.568 62.2889 17.422 62.2889 18.71C62.2889 19.998 63.2409 20.894 64.4169 20.894C65.5789 20.894 66.5869 20.096 66.5869 18.71ZM69.9932 11.906H71.2672V22H69.9932V11.906ZM74.6575 15.462V22H73.3975V15.462H74.6575ZM73.1455 13.054C73.1455 12.564 73.5375 12.228 74.0275 12.228C74.5175 12.228 74.9095 12.564 74.9095 13.054C74.9095 13.544 74.5175 13.88 74.0275 13.88C73.5375 13.88 73.1455 13.544 73.1455 13.054ZM82.0661 15.462V16.512L78.1041 20.782H82.0661V22H76.3121V20.95L80.2041 16.68H76.5361V15.462H82.0661ZM84.5871 18.22H88.6471C88.4931 17.114 87.7231 16.47 86.6591 16.47C85.5811 16.47 84.7411 17.114 84.5871 18.22ZM89.9071 18.71C89.9071 18.864 89.9071 19.06 89.8931 19.214H84.5871C84.7411 20.32 85.5811 20.992 86.7011 20.992C87.4851 20.992 88.1991 20.642 88.5771 19.984C88.9131 20.138 89.3191 20.25 89.6691 20.404C89.1091 21.566 87.9331 22.14 86.6591 22.14C84.7971 22.14 83.3131 20.782 83.3131 18.71C83.3131 16.638 84.7971 15.322 86.6591 15.322C88.5211 15.322 89.9071 16.638 89.9071 18.71ZM96.6924 22V20.992C96.2584 21.72 95.3064 22.14 94.3964 22.14C92.6044 22.14 91.0924 20.796 91.0924 18.724C91.0924 16.638 92.5904 15.322 94.3824 15.322C95.3484 15.322 96.2584 15.7 96.6924 16.442V11.906H97.9664V22H96.6924ZM96.6784 18.71C96.6784 17.31 95.5724 16.568 94.5084 16.568C93.3324 16.568 92.3944 17.422 92.3944 18.71C92.3944 19.998 93.3324 20.894 94.5084 20.894C95.6704 20.894 96.6784 20.096 96.6784 18.71ZM105.009 15.462V16.484C105.457 15.742 106.367 15.322 107.291 15.322C109.083 15.322 110.567 16.68 110.567 18.752C110.567 20.824 109.083 22.14 107.291 22.14C106.367 22.14 105.457 21.762 105.009 21.02V25.178H103.735V15.462H105.009ZM105.023 18.766C105.023 20.166 106.115 20.894 107.165 20.894C108.341 20.894 109.279 20.068 109.279 18.766C109.279 17.464 108.341 16.568 107.165 16.568C106.017 16.568 105.023 17.38 105.023 18.766ZM113.541 19.62V22H112.267V15.462H113.541V16.932C113.877 15.77 114.507 15.322 115.361 15.322C115.823 15.322 116.313 15.448 116.495 15.574L116.299 16.764C115.949 16.596 115.599 16.54 115.333 16.54C114.073 16.54 113.541 17.884 113.541 19.62ZM120.608 22.14C118.746 22.14 117.192 20.782 117.192 18.71C117.192 16.638 118.746 15.322 120.608 15.322C122.47 15.322 124.038 16.638 124.038 18.71C124.038 20.782 122.47 22.14 120.608 22.14ZM120.608 20.908C121.77 20.908 122.764 20.054 122.764 18.71C122.764 17.394 121.77 16.568 120.608 16.568C119.418 16.568 118.452 17.394 118.452 18.71C118.452 20.054 119.418 20.908 120.608 20.908ZM127.007 15.462V16.484C127.455 15.742 128.365 15.322 129.289 15.322C131.081 15.322 132.565 16.68 132.565 18.752C132.565 20.824 131.081 22.14 129.289 22.14C128.365 22.14 127.455 21.762 127.007 21.02V25.178H125.733V15.462H127.007ZM127.021 18.766C127.021 20.166 128.113 20.894 129.163 20.894C130.339 20.894 131.277 20.068 131.277 18.766C131.277 17.464 130.339 16.568 129.163 16.568C128.015 16.568 127.021 17.38 127.021 18.766ZM135.539 18.472V22H134.265V11.906H135.539V16.442C135.917 15.658 136.995 15.322 137.695 15.322C139.333 15.322 140.355 16.372 140.341 18.22V22H139.067V18.304C139.067 17.226 138.423 16.568 137.527 16.568C136.631 16.568 135.539 17.072 135.539 18.472ZM144.04 25.178H142.71L144.082 21.804L141.464 15.462H142.822L144.782 20.194L146.742 15.462H148.1L144.04 25.178ZM149.399 11.906H150.673V22H149.399V11.906ZM157.984 22V20.992C157.55 21.72 156.598 22.14 155.688 22.14C153.896 22.14 152.37 20.796 152.37 18.724C152.37 16.638 153.896 15.322 155.688 15.322C156.598 15.322 157.536 15.7 157.984 16.442V15.462H159.244V22H157.984ZM157.97 18.71C157.97 17.31 156.864 16.568 155.8 16.568C154.624 16.568 153.672 17.422 153.672 18.71C153.672 19.998 154.624 20.894 155.8 20.894C156.962 20.894 157.97 20.096 157.97 18.71ZM160.942 15.462H162.468L163.812 17.38L165.17 15.462H166.696L164.554 18.416L167.144 22H165.632L163.812 19.466L161.978 22H160.48L163.07 18.416L160.942 15.462ZM169.636 15.462V22H168.376V15.462H169.636ZM168.124 13.054C168.124 12.564 168.516 12.228 169.006 12.228C169.496 12.228 169.888 12.564 169.888 13.054C169.888 13.544 169.496 13.88 169.006 13.88C168.516 13.88 168.124 13.544 168.124 13.054ZM174.147 19.326L173.251 19.116C172.061 18.794 171.389 18.206 171.501 16.988C171.613 16.036 172.593 15.322 173.769 15.322C174.875 15.322 175.925 15.84 176.037 17.17H174.819C174.749 16.68 174.301 16.428 173.797 16.428C173.307 16.428 172.915 16.666 172.817 17.016C172.761 17.226 172.761 17.394 172.831 17.534C172.957 17.8 173.265 17.94 173.601 18.038L174.567 18.276C175.911 18.612 176.261 19.438 176.261 20.18C176.261 21.412 175.085 22.14 173.727 22.14C172.551 22.14 171.333 21.384 171.291 20.04H172.453C172.495 20.32 172.663 20.628 172.985 20.782C173.279 20.964 173.615 21.034 174.021 21.006C174.623 20.964 175.001 20.642 175.015 20.152C175.029 19.662 174.637 19.438 174.147 19.326Z" fill="#94A7BF"/>
<path d="M188.618 19.0417C188.273 19.0418 187.993 19.3216 187.993 19.6667C187.993 20.0118 188.273 20.2915 188.618 20.2917H190.613C190.764 20.2917 190.913 20.3263 191.047 20.391L192.749 21.2137C193.053 21.3611 193.389 21.4375 193.728 21.4375H194.596C194.951 21.4375 195.243 21.6279 195.39 21.8932L193.779 22.3392C193.545 22.4039 193.293 22.3803 193.077 22.2757L191.258 21.396C190.948 21.2458 190.574 21.3759 190.424 21.6865C190.273 21.9971 190.404 22.3711 190.714 22.5215L192.533 23.4012C193.023 23.6385 193.586 23.6888 194.112 23.5436L196.229 22.9585C196.521 22.8778 196.743 22.6106 196.743 22.2847C196.743 22.2604 196.74 22.2363 196.739 22.2122L200.129 21.1714L200.131 21.1706C200.545 21.0415 201.003 21.1908 201.276 21.5677C201.372 21.7016 201.322 21.8855 201.204 21.9535L194.941 25.5676C194.69 25.7122 194.397 25.7461 194.125 25.6652L188.795 24.084C188.464 23.9863 188.117 24.175 188.019 24.5055C187.921 24.8364 188.11 25.1844 188.44 25.2827L193.769 26.8639C194.373 27.0431 195.02 26.9648 195.566 26.6499L201.829 23.0366C202.606 22.5879 202.807 21.5533 202.289 20.8361C201.711 20.0369 200.703 19.6849 199.761 19.9775L196.318 21.0347C195.923 20.518 195.293 20.1875 194.596 20.1875H193.728C193.576 20.1875 193.427 20.1537 193.293 20.089L191.591 19.2655C191.287 19.1182 190.952 19.0417 190.613 19.0417H188.618Z" fill="#94A7BF"/>
<path fill-rule="evenodd" clip-rule="evenodd" d="M196.951 9.04167C195.225 9.04181 193.826 10.4409 193.826 12.1667V15.5C193.826 17.2258 195.225 18.6249 196.951 18.625C198.677 18.625 200.076 17.2259 200.076 15.5V12.1667C200.076 10.4408 198.677 9.04167 196.951 9.04167ZM198.826 15.5C198.826 16.5355 197.987 17.375 196.951 17.375C195.916 17.3749 195.076 16.5355 195.076 15.5V14.4583L198.826 14.4583V15.5ZM196.951 10.2917C197.987 10.2917 198.826 11.1311 198.826 12.1667V13.2083L195.076 13.2083V12.1667C195.076 11.1312 195.916 10.2918 196.951 10.2917Z" fill="#94A7BF"/>
</svg>
