<svg width="19" height="20" viewBox="0 0 19 20" fill="none" xmlns="http://www.w3.org/2000/svg">
<path fill-rule="evenodd" clip-rule="evenodd" d="M9.42887 19.1667C14.4718 19.1667 18.5955 15.043 18.5955 10C18.5955 4.95706 14.4718 0.833344 9.42887 0.833344C4.38593 0.833344 0.262207 4.95706 0.262207 10C0.262207 15.043 4.38593 19.1667 9.42887 19.1667ZM9.42887 17.8975C5.08668 17.8975 1.5314 14.3422 1.5314 10C1.5314 8.00803 2.28125 6.1831 3.51041 4.7896C3.52935 4.84085 3.54973 4.89164 3.56706 4.94361C3.97337 6.16255 4.73605 7.22084 5.74256 7.99002C5.75102 8.19546 5.77071 8.3995 5.80009 8.6016C4.84409 8.38564 3.81071 8.71286 3.11656 9.40701L3.07761 9.44596C2.41543 10.1085 2.41523 11.183 3.07761 11.8454C3.40471 12.1724 3.8323 12.3378 4.26095 12.3419C4.25416 12.479 4.25197 12.6228 4.25918 12.7712C4.29984 13.6055 4.59106 14.6216 5.4496 15.4804C6.94154 16.9723 9.36086 16.9721 10.853 15.4804L11.3787 14.9546C12.4002 13.933 12.9707 12.6308 13.0931 11.2966C13.5624 11.1105 14.0031 10.8282 14.3826 10.4487C15.8747 8.95668 15.8747 6.53745 14.3826 5.04539C12.8906 3.55386 10.4721 3.55385 8.98014 5.04539C8.69064 5.33497 8.45806 5.65984 8.28094 6.00569C8.06333 5.8817 7.81567 5.80234 7.54899 5.78531C6.91651 5.74588 6.34431 6.05887 6.02136 6.55443C5.4575 5.99648 5.02626 5.3092 4.77075 4.54267C4.69162 4.30528 4.5971 4.07488 4.49195 3.85055C5.84696 2.75917 7.56483 2.10253 9.42887 2.10253C13.7711 2.10253 17.3263 5.65782 17.3263 10C17.3263 14.3422 13.7711 17.8975 9.42887 17.8975ZM9.95637 14.5838C8.95981 15.58 7.34349 15.5802 6.34706 14.5838C5.75768 13.9944 5.55552 13.3022 5.5266 12.7101C5.51212 12.4124 5.54285 12.1465 5.58679 11.9454C5.62396 11.7755 5.66148 11.6906 5.6691 11.671L5.66467 11.6737L5.95232 11.2922L5.66556 10.9107L5.65494 10.8957L5.21594 10.3116L4.57958 10.9479C4.41252 11.1146 4.1411 11.1148 3.97419 10.9479C3.80766 10.781 3.80778 10.5104 3.97419 10.3434L4.01402 10.3045C4.57587 9.74262 5.43685 9.64838 6.00631 10.0584L6.14261 10.1682C6.24413 10.2599 6.32814 10.3629 6.39839 10.4718C6.43555 10.5439 6.47422 10.6153 6.51434 10.6859C6.75013 11.2309 6.64549 11.8859 6.20102 12.3304L7.09848 13.2279C8.01855 12.3077 8.15135 10.8991 7.50119 9.83804C7.13642 9.10733 6.96311 8.28536 7.01529 7.45189L7.02945 7.36604C7.08168 7.17403 7.26293 7.04023 7.46844 7.05273C7.70588 7.06798 7.88397 7.26955 7.86938 7.505C7.80305 8.56145 8.17284 9.64142 8.98014 10.4487C9.35485 10.8234 9.78942 11.1053 10.2538 11.2922L10.4901 10.7036L10.7273 10.1151C10.4186 9.99085 10.1283 9.80377 9.87672 9.55216C8.88034 8.55575 8.88059 6.93942 9.87672 5.94285C10.8733 4.94631 12.4895 4.94634 13.486 5.94285C14.4825 6.9394 14.4826 8.55564 13.486 9.55216C13.1529 9.88516 12.7508 10.1055 12.3257 10.216L11.8584 10.3372L11.8504 10.8205C11.8502 10.837 11.8499 10.8534 11.8495 10.8691L11.8398 11.0869C11.7624 12.1699 11.3099 13.2302 10.4821 14.0581L9.95637 14.5838Z" fill="#94A7BF"/>
</svg>
