<svg width="207" height="36" viewBox="0 0 207 36" fill="none" xmlns="http://www.w3.org/2000/svg">
<path d="M18.4285 0.5H188.428C198.093 0.5 205.928 8.33502 205.928 18C205.928 27.665 198.093 35.5 188.428 35.5H18.4285C8.76348 35.5 0.928467 27.665 0.928467 18C0.928467 8.33502 8.76348 0.5 18.4285 0.5Z" stroke="#94A7BF"/>
<path d="M17.9144 12.354H21.7644C23.8084 12.354 24.6344 13.866 24.6344 15.378C24.6344 16.89 23.8084 18.388 21.7644 18.388H19.2304V22H17.9144V12.354ZM21.7504 13.572H19.2304V17.17H21.6804C22.8564 17.17 23.3324 16.274 23.3324 15.378C23.3324 14.496 22.8704 13.572 21.7504 13.572ZM27.3446 19.62V22H26.0706V15.462H27.3446V16.932C27.6806 15.77 28.3106 15.322 29.1646 15.322C29.6266 15.322 30.1166 15.448 30.2986 15.574L30.1026 16.764C29.7526 16.596 29.4026 16.54 29.1366 16.54C27.8766 16.54 27.3446 17.884 27.3446 19.62ZM32.27 18.22H36.33C36.176 17.114 35.406 16.47 34.342 16.47C33.264 16.47 32.424 17.114 32.27 18.22ZM37.59 18.71C37.59 18.864 37.59 19.06 37.576 19.214H32.27C32.424 20.32 33.264 20.992 34.384 20.992C35.168 20.992 35.882 20.642 36.26 19.984C36.596 20.138 37.002 20.25 37.352 20.404C36.792 21.566 35.616 22.14 34.342 22.14C32.48 22.14 30.996 20.782 30.996 18.71C30.996 16.638 32.48 15.322 34.342 15.322C36.204 15.322 37.59 16.638 37.59 18.71ZM40.1893 22.938C40.5813 23.666 41.3513 24.058 42.0793 24.058C43.4933 24.058 44.4033 23.26 44.4033 21.09C44.4033 21.034 44.3893 20.992 44.3893 20.936C43.9833 21.72 43.0173 22.14 42.0933 22.14C40.3013 22.14 38.7753 20.824 38.7753 18.752C38.7753 16.68 40.3013 15.322 42.0933 15.322C43.0033 15.322 43.9413 15.742 44.3893 16.484V15.462H45.6493V21.006C45.6493 24.086 44.2493 25.262 42.0793 25.262C40.8613 25.262 39.7553 24.66 39.1253 23.498C39.2793 23.414 40.0213 23.008 40.1893 22.938ZM44.3753 18.738C44.3753 17.338 43.3673 16.568 42.2053 16.568C41.0293 16.568 40.0773 17.464 40.0773 18.738C40.0773 20.082 41.0293 20.894 42.2053 20.894C43.2693 20.894 44.3753 20.138 44.3753 18.738ZM49.0419 18.472V22H47.7679V15.462H49.0419V16.442C49.4199 15.658 50.3719 15.322 51.0859 15.322C52.7239 15.322 53.6059 16.372 53.6059 18.22V22H52.3319V18.304C52.3319 17.198 51.7859 16.568 50.8899 16.568C49.9659 16.568 49.0419 17.086 49.0419 18.472ZM60.8365 22V20.992C60.4025 21.72 59.4505 22.14 58.5405 22.14C56.7485 22.14 55.2225 20.796 55.2225 18.724C55.2225 16.638 56.7485 15.322 58.5405 15.322C59.4505 15.322 60.3885 15.7 60.8365 16.442V15.462H62.0965V22H60.8365ZM60.8225 18.71C60.8225 17.31 59.7165 16.568 58.6525 16.568C57.4765 16.568 56.5245 17.422 56.5245 18.71C56.5245 19.998 57.4765 20.894 58.6525 20.894C59.8145 20.894 60.8225 20.096 60.8225 18.71ZM65.5028 18.472V22H64.2288V15.462H65.5028V16.442C65.8808 15.658 66.8328 15.322 67.5468 15.322C69.1848 15.322 70.0668 16.372 70.0668 18.22V22H68.7928V18.304C68.7928 17.198 68.2468 16.568 67.3508 16.568C66.4268 16.568 65.5028 17.086 65.5028 18.472ZM71.6835 18.71C71.6835 16.638 73.2795 15.322 75.1415 15.322C76.1495 15.322 77.0455 15.7 77.6615 16.372L76.6955 17.184C76.3035 16.792 75.7435 16.568 75.1415 16.568C73.9655 16.568 72.9435 17.394 72.9435 18.71C72.9435 20.012 73.9655 20.908 75.1415 20.908C75.7435 20.908 76.3035 20.67 76.6955 20.264L77.6755 21.076C77.0595 21.748 76.1495 22.14 75.1415 22.14C73.2795 22.14 71.6835 20.782 71.6835 18.71ZM80.9908 25.178H79.6608L81.0328 21.804L78.4148 15.462H79.7728L81.7328 20.194L83.6928 15.462H85.0508L80.9908 25.178ZM92.5291 16.092H94.4191V14.846H95.6231V16.106H96.8411V17.128H95.6231V19.046C95.6231 20.11 95.8051 20.95 97.0791 20.95V22.126C96.0151 22.126 95.2451 21.692 94.8671 21.09C94.3771 21.762 93.4531 22.126 92.4871 22.126C90.6251 22.126 89.3371 20.768 89.3371 19.046C89.3371 17.982 89.8691 17.058 90.7651 16.498C90.3171 16.064 90.0791 15.434 90.0791 14.762C90.0791 13.432 91.1851 12.354 92.5851 12.354C93.5791 12.354 94.4191 12.9 94.9091 13.726L93.8731 14.37C93.5931 13.88 93.1311 13.572 92.5851 13.572C91.8431 13.572 91.2971 14.076 91.2971 14.762C91.2971 15.434 91.8011 16.092 92.5291 16.092ZM94.4191 17.128H92.5011C91.3811 17.128 90.5551 18.052 90.5551 19.046C90.5551 20.11 91.3251 20.908 92.4871 20.908C93.5931 20.908 94.3771 20.138 94.4191 19.13V17.128ZM102.035 18.71C102.035 16.638 103.631 15.322 105.493 15.322C106.501 15.322 107.397 15.7 108.013 16.372L107.047 17.184C106.655 16.792 106.095 16.568 105.493 16.568C104.317 16.568 103.295 17.394 103.295 18.71C103.295 20.012 104.317 20.908 105.493 20.908C106.095 20.908 106.655 20.67 107.047 20.264L108.027 21.076C107.411 21.748 106.501 22.14 105.493 22.14C103.631 22.14 102.035 20.782 102.035 18.71ZM110.907 18.472V22H109.633V11.906H110.907V16.442C111.285 15.658 112.363 15.322 113.063 15.322C114.701 15.322 115.723 16.372 115.709 18.22V22H114.435V18.304C114.435 17.226 113.791 16.568 112.895 16.568C111.999 16.568 110.907 17.072 110.907 18.472ZM119.014 15.462V22H117.754V15.462H119.014ZM117.502 13.054C117.502 12.564 117.894 12.228 118.384 12.228C118.874 12.228 119.266 12.564 119.266 13.054C119.266 13.544 118.874 13.88 118.384 13.88C117.894 13.88 117.502 13.544 117.502 13.054ZM121.145 11.906H122.419V22H121.145V11.906ZM129.715 22V20.992C129.281 21.72 128.329 22.14 127.419 22.14C125.627 22.14 124.115 20.796 124.115 18.724C124.115 16.638 125.613 15.322 127.405 15.322C128.371 15.322 129.281 15.7 129.715 16.442V11.906H130.989V22H129.715ZM129.701 18.71C129.701 17.31 128.595 16.568 127.531 16.568C126.355 16.568 125.417 17.422 125.417 18.71C125.417 19.998 126.355 20.894 127.531 20.894C128.693 20.894 129.701 20.096 129.701 18.71ZM134.395 20.992V22H133.121V11.906H134.395V16.442C134.829 15.7 135.739 15.322 136.691 15.322C138.497 15.322 139.995 16.638 139.995 18.724C139.995 20.796 138.469 22.14 136.677 22.14C135.767 22.14 134.829 21.72 134.395 20.992ZM134.409 18.71C134.409 20.096 135.417 20.894 136.579 20.894C137.755 20.894 138.693 19.998 138.693 18.71C138.693 17.422 137.755 16.568 136.579 16.568C135.515 16.568 134.409 17.31 134.409 18.71ZM142.954 15.462V22H141.694V15.462H142.954ZM141.442 13.054C141.442 12.564 141.834 12.228 142.324 12.228C142.814 12.228 143.206 12.564 143.206 13.054C143.206 13.544 142.814 13.88 142.324 13.88C141.834 13.88 141.442 13.544 141.442 13.054ZM146.358 19.62V22H145.084V15.462H146.358V16.932C146.694 15.77 147.324 15.322 148.178 15.322C148.64 15.322 149.13 15.448 149.312 15.574L149.116 16.764C148.766 16.596 148.416 16.54 148.15 16.54C146.89 16.54 146.358 17.884 146.358 19.62ZM152.372 15.462H153.758V16.54H152.372V22H151.098V16.54H149.922V15.462H151.098V12.998H152.372V15.462ZM156.475 18.472V22H155.201V11.906H156.475V16.442C156.853 15.658 157.931 15.322 158.631 15.322C160.269 15.322 161.291 16.372 161.277 18.22V22H160.003V18.304C160.003 17.226 159.359 16.568 158.463 16.568C157.567 16.568 156.475 17.072 156.475 18.472Z" fill="#94A7BF"/>
<path fill-rule="evenodd" clip-rule="evenodd" d="M180.428 27.1667C185.471 27.1667 189.595 23.043 189.595 18C189.595 12.9571 185.471 8.83334 180.428 8.83334C175.385 8.83334 171.262 12.9571 171.262 18C171.262 23.043 175.385 27.1667 180.428 27.1667ZM180.428 25.8975C176.086 25.8975 172.531 22.3422 172.531 18C172.531 16.008 173.281 14.1831 174.51 12.7896C174.529 12.8408 174.549 12.8916 174.567 12.9436C174.973 14.1626 175.736 15.2208 176.742 15.99C176.751 16.1955 176.77 16.3995 176.8 16.6016C175.844 16.3856 174.81 16.7129 174.116 17.407L174.077 17.446C173.415 18.1085 173.415 19.183 174.077 19.8454C174.404 20.1724 174.832 20.3378 175.26 20.3419C175.254 20.479 175.251 20.6228 175.259 20.7712C175.299 21.6055 175.591 22.6216 176.449 23.4804C177.941 24.9723 180.36 24.9721 181.852 23.4804L182.378 22.9546C183.4 21.933 183.97 20.6308 184.093 19.2966C184.562 19.1105 185.003 18.8282 185.382 18.4487C186.874 16.9567 186.874 14.5374 185.382 13.0454C183.89 11.5539 181.472 11.5539 179.98 13.0454C179.69 13.335 179.458 13.6598 179.28 14.0057C179.063 13.8817 178.815 13.8023 178.548 13.7853C177.916 13.7459 177.344 14.0589 177.021 14.5544C176.457 13.9965 176.026 13.3092 175.77 12.5427C175.691 12.3053 175.597 12.0749 175.491 11.8505C176.846 10.7592 178.564 10.1025 180.428 10.1025C184.771 10.1025 188.326 13.6578 188.326 18C188.326 22.3422 184.771 25.8975 180.428 25.8975ZM180.956 22.5838C179.959 23.58 178.343 23.5802 177.347 22.5838C176.757 21.9944 176.555 21.3022 176.526 20.7101C176.512 20.4124 176.542 20.1465 176.586 19.9454C176.623 19.7755 176.661 19.6906 176.669 19.671L176.664 19.6737L176.952 19.2922L176.665 18.9107L176.654 18.8957L176.215 18.3116L175.579 18.9479C175.412 19.1146 175.141 19.1148 174.974 18.9479C174.807 18.781 174.807 18.5104 174.974 18.3434L175.014 18.3045C175.575 17.7426 176.436 17.6484 177.006 18.0584L177.142 18.1682C177.244 18.2599 177.328 18.3629 177.398 18.4718C177.435 18.5439 177.474 18.6153 177.514 18.6859C177.75 19.2309 177.645 19.8859 177.201 20.3304L178.098 21.2279C179.018 20.3077 179.151 18.8991 178.501 17.838C178.136 17.1073 177.963 16.2854 178.015 15.4519L178.029 15.366C178.081 15.174 178.262 15.0402 178.468 15.0527C178.705 15.068 178.883 15.2695 178.869 15.505C178.803 16.5615 179.172 17.6414 179.98 18.4487C180.354 18.8234 180.789 19.1053 181.253 19.2922L181.49 18.7036L181.727 18.1151C181.418 17.9908 181.128 17.8038 180.876 17.5522C179.88 16.5558 179.88 14.9394 180.876 13.9429C181.873 12.9463 183.489 12.9463 184.486 13.9429C185.482 14.9394 185.482 16.5556 184.486 17.5522C184.152 17.8852 183.75 18.1055 183.325 18.216L182.858 18.3372L182.85 18.8205C182.85 18.837 182.849 18.8534 182.849 18.8691L182.839 19.0869C182.762 20.1699 182.309 21.2302 181.482 22.0581L180.956 22.5838Z" fill="#94A7BF"/>
</svg>
