<svg width="112" height="36" viewBox="0 0 112 36" fill="none" xmlns="http://www.w3.org/2000/svg">
<path d="M18.7144 0.5H93.7144C103.379 0.500001 111.214 8.33502 111.214 18C111.214 27.665 103.379 35.5 93.7144 35.5H18.7144C9.04937 35.5 1.21436 27.665 1.21436 18C1.21436 8.33502 9.04937 0.5 18.7144 0.5Z" stroke="#94A7BF"/>
<path d="M17.8613 19.214H19.1633C19.1633 20.054 20.0173 20.922 21.2353 20.922C22.4673 20.922 23.0693 20.236 23.1813 19.508C23.2513 18.472 22.4113 17.982 21.5433 17.786L20.2973 17.478C18.2393 16.96 17.9453 15.798 17.9453 14.958C17.9453 13.334 19.4293 12.242 21.0673 12.242C22.8173 12.242 24.1753 13.334 24.1753 15.07H22.8733C22.8733 14.104 22.1173 13.488 21.0533 13.488C20.1013 13.488 19.2473 14.062 19.2473 14.944C19.2473 15.364 19.4013 15.994 20.6193 16.288L21.8793 16.596C23.6853 17.058 24.6653 18.066 24.4553 19.62C24.2733 21.02 23.1393 22.14 21.2353 22.14C19.2753 22.14 17.8613 20.726 17.8613 19.214ZM30.6203 18.99V15.462H31.8943V22H30.6203V21.02C30.2143 21.804 29.3043 22.14 28.5903 22.14C26.9523 22.14 26.0563 21.09 26.0703 19.242V15.462H27.3443V19.158C27.3443 20.264 27.8763 20.894 28.7723 20.894C29.6963 20.894 30.6203 20.39 30.6203 18.99ZM35.2897 19.62V22H34.0157V15.462H35.2897V16.932C35.6257 15.77 36.2557 15.322 37.1097 15.322C37.5717 15.322 38.0617 15.448 38.2437 15.574L38.0477 16.764C37.6977 16.596 37.3477 16.54 37.0817 16.54C35.8217 16.54 35.2897 17.884 35.2897 19.62ZM40.355 22.938C40.747 23.666 41.517 24.058 42.245 24.058C43.659 24.058 44.569 23.26 44.569 21.09C44.569 21.034 44.555 20.992 44.555 20.936C44.149 21.72 43.183 22.14 42.259 22.14C40.467 22.14 38.941 20.824 38.941 18.752C38.941 16.68 40.467 15.322 42.259 15.322C43.169 15.322 44.107 15.742 44.555 16.484V15.462H45.815V21.006C45.815 24.086 44.415 25.262 42.245 25.262C41.027 25.262 39.921 24.66 39.291 23.498C39.445 23.414 40.187 23.008 40.355 22.938ZM44.541 18.738C44.541 17.338 43.533 16.568 42.371 16.568C41.195 16.568 40.243 17.464 40.243 18.738C40.243 20.082 41.195 20.894 42.371 20.894C43.435 20.894 44.541 20.138 44.541 18.738ZM48.7736 18.22H52.8336C52.6796 17.114 51.9096 16.47 50.8456 16.47C49.7676 16.47 48.9276 17.114 48.7736 18.22ZM54.0936 18.71C54.0936 18.864 54.0936 19.06 54.0796 19.214H48.7736C48.9276 20.32 49.7676 20.992 50.8876 20.992C51.6716 20.992 52.3856 20.642 52.7636 19.984C53.0996 20.138 53.5056 20.25 53.8556 20.404C53.2956 21.566 52.1196 22.14 50.8456 22.14C48.9836 22.14 47.4996 20.782 47.4996 18.71C47.4996 16.638 48.9836 15.322 50.8456 15.322C52.7076 15.322 54.0936 16.638 54.0936 18.71ZM56.9869 19.62V22H55.7129V15.462H56.9869V16.932C57.3229 15.77 57.9529 15.322 58.8069 15.322C59.2689 15.322 59.7589 15.448 59.9409 15.574L59.7449 16.764C59.3949 16.596 59.0449 16.54 58.7789 16.54C57.5189 16.54 56.9869 17.884 56.9869 19.62ZM63.0004 25.178H61.6704L63.0424 21.804L60.4244 15.462H61.7824L63.7424 20.194L65.7024 15.462H67.0604L63.0004 25.178Z" fill="#94A7BF"/>
<path d="M85.5721 25.1382C85.8935 25.1383 86.1542 25.4058 86.1542 25.7358C86.1542 26.0657 85.8935 26.3332 85.5721 26.3333H84.2085C83.887 26.3333 83.6264 26.0658 83.6264 25.7358C83.6264 25.4057 83.887 25.1382 84.2085 25.1382H85.5721ZM88.6768 25.1382C88.9983 25.1382 89.259 25.4057 89.259 25.7358C89.259 26.0658 88.9983 26.3333 88.6768 26.3333H87.3132C86.9917 26.3333 86.7311 26.0658 86.7311 25.7358C86.7311 25.4057 86.9917 25.1382 87.3132 25.1382L88.6768 25.1382ZM91.1941 25.1382C91.5156 25.1382 91.7762 25.4057 91.7762 25.7358C91.7762 26.0658 91.5156 26.3333 91.1941 26.3333H90.4179C90.0965 26.3332 89.8358 26.0657 89.8358 25.7358C89.8358 25.4058 90.0965 25.1383 90.4179 25.1382H91.1941ZM94.2988 25.1382C94.6203 25.1382 94.8809 25.4057 94.8809 25.7358C94.8809 26.0658 94.6203 26.3333 94.2988 26.3333H92.945C92.6237 26.3332 92.3629 26.0657 92.3629 25.7358C92.3629 25.4058 92.6237 25.1383 92.945 25.1382H94.2988ZM90.0063 10.3681C90.5757 9.78351 91.2694 9.59315 91.9362 9.69116C92.5804 9.78589 93.1702 10.1425 93.6151 10.5984C94.0598 11.0543 94.4035 11.6536 94.5103 12.2924C94.6202 12.9499 94.4745 13.6519 93.9342 14.2065C93.488 14.6646 93.3605 14.7784 93.1444 14.9839C92.9355 15.1824 92.6271 15.4822 91.8043 16.3269C90.9613 17.1922 90.1429 18.0331 89.4765 18.7172L87.9529 20.2812C87.9435 20.291 87.9358 20.298 87.931 20.303L87.9241 20.31L87.6801 20.5613L86.8622 20.3154C86.7949 20.2997 86.7237 20.2839 86.6507 20.2719C86.4705 20.2422 86.3036 20.2328 86.1709 20.2493C86.0353 20.2662 85.9914 20.3029 85.9837 20.3108C85.9632 20.3318 85.9003 20.4471 85.9193 20.759C85.9362 21.0363 86.0094 21.3285 86.0656 21.5145C86.1129 21.6713 86.1122 21.8325 86.0928 21.9604C86.0747 22.08 86.0249 22.2724 85.8814 22.4327C85.673 22.6652 85.151 23.2217 83.8431 24.5647C82.6638 25.7756 81.1211 25.9941 79.8402 25.8945C78.5575 25.7947 77.4449 25.3712 76.9978 25.181C76.507 24.9722 76.403 24.3353 76.7575 23.964L78.8692 21.7604C79.8906 20.6982 81.1562 19.3877 82.4447 18.0652L87.8771 12.4885C88.7874 11.5541 89.1087 11.2404 89.3143 11.0466C89.5113 10.8609 89.5802 10.8056 90.0063 10.3681ZM83.0238 19.1607C80.9755 21.2657 79.0216 23.3032 78.0597 24.3087C78.5467 24.4712 79.2113 24.6466 79.9281 24.7024C81.0362 24.7886 82.1774 24.5849 83.02 23.7197C84.1369 22.5728 84.6665 22.0093 84.9165 21.7378C84.8531 21.5075 84.7782 21.1772 84.7573 20.8337C84.739 20.5333 84.7546 20.1079 84.9566 19.742L83.0238 19.1607ZM83.9614 18.1974L87.1419 19.1537C87.2169 19.1716 87.2864 19.1918 87.3496 19.2098L88.2281 18.3079L85.9723 16.1331C85.2975 16.8258 84.6207 17.5207 83.9614 18.1974ZM91.7709 10.8739C91.4505 10.8269 91.1279 10.9068 90.8295 11.2131C90.3832 11.6714 90.2968 11.7437 90.1018 11.9274C89.9153 12.1033 89.608 12.4017 88.7003 13.3335C88.0871 13.963 87.4462 14.6201 86.7963 15.2873L89.052 17.4621C89.6341 16.8646 90.2997 16.1813 90.9811 15.4818C91.8088 14.6321 92.1286 14.3203 92.3531 14.1069C92.5701 13.9007 92.6825 13.8015 93.111 13.3615C93.3468 13.1194 93.4181 12.8262 93.3627 12.4947C93.3041 12.1444 93.1003 11.7603 92.7919 11.4442C92.4836 11.1283 92.114 10.9243 91.7709 10.8739Z" fill="#94A7BF"/>
</svg>
