<svg width="147" height="36" viewBox="0 0 147 36" fill="none" xmlns="http://www.w3.org/2000/svg">
<path d="M18.5713 0.5H128.571C138.236 0.5 146.071 8.33502 146.071 18C146.071 27.665 138.236 35.5 128.571 35.5H18.5713C8.90631 35.5 1.07129 27.665 1.07129 18C1.07129 8.33502 8.90631 0.5 18.5713 0.5Z" stroke="#94A7BF"/>
<path d="M28.0216 12.354H29.4216L26.1596 22H25.0256L23.3176 15.98L21.6236 22H20.4896L17.2276 12.354H18.6276L21.0496 19.9L22.8276 13.656H23.8216L25.5996 19.9L28.0216 12.354ZM30.9527 12.354H32.2547V22H30.9527V12.354ZM34.8902 12.354H36.1922V20.782H40.1262V22H34.8902V12.354ZM40.7883 18.122H45.6603V19.34H40.7883V18.122ZM47.9469 12.354H51.7969C53.8409 12.354 54.6669 13.866 54.6669 15.378C54.6669 16.89 53.8409 18.388 51.7969 18.388H49.2629V22H47.9469V12.354ZM51.7829 13.572H49.2629V17.17H51.7129C52.8889 17.17 53.3649 16.274 53.3649 15.378C53.3649 14.496 52.9029 13.572 51.7829 13.572ZM60.4831 18.346L63.0591 22H61.4771L58.9851 18.388H57.7531V22H56.4371V12.354H60.1471C62.1771 12.354 63.0031 13.866 63.0031 15.378C63.0031 16.806 62.2891 18.192 60.4831 18.346ZM60.1051 13.572H57.7531V17.17H60.0491C61.2251 17.17 61.6591 16.274 61.6591 15.378C61.6591 14.496 61.2251 13.572 60.1051 13.572ZM64.4751 17.198C64.4751 14.468 66.6031 12.242 69.3471 12.242C72.1051 12.242 74.2471 14.468 74.2471 17.198C74.2471 19.942 72.1051 22.14 69.3471 22.14C66.6031 22.14 64.4751 19.942 64.4751 17.198ZM65.7771 17.198C65.7771 19.256 67.3311 20.88 69.3471 20.88C71.3771 20.88 72.9311 19.256 72.9311 17.198C72.9311 15.14 71.3771 13.502 69.3471 13.502C67.3311 13.502 65.7771 15.14 65.7771 17.198ZM76.2476 12.354H80.0976C82.1416 12.354 82.9676 13.866 82.9676 15.378C82.9676 16.89 82.1416 18.388 80.0976 18.388H77.5636V22H76.2476V12.354ZM80.0836 13.572H77.5636V17.17H80.0136C81.1896 17.17 81.6656 16.274 81.6656 15.378C81.6656 14.496 81.2036 13.572 80.0836 13.572ZM92.0179 12.354V22H90.7019V17.8H86.0399V22H84.7379V12.354H86.0399V16.61H90.7019V12.354H92.0179ZM98.402 22H97.058V17.562L93.404 12.354H94.958L97.73 16.26L100.53 12.354H102.098L98.402 17.562V22Z" fill="#94A7BF"/>
<path fill-rule="evenodd" clip-rule="evenodd" d="M127.939 18.52C126.386 15.8298 122.946 14.9078 120.256 16.4611C117.565 18.0144 116.643 21.4547 118.197 24.145C119.75 26.8354 123.19 27.7572 125.881 26.2039C128.571 24.6506 129.493 21.2104 127.939 18.52ZM127.13 19.7082C127.928 21.6961 127.165 24.0194 125.256 25.1216C123.347 26.2236 120.953 25.7231 119.631 24.0384L127.13 19.7082ZM120.881 17.5435C122.789 16.4417 125.182 16.942 126.505 18.6258L119.006 22.9561C118.208 20.9684 118.972 18.6454 120.881 17.5435Z" fill="#94A7BF"/>
<path d="M128.177 11.0298C127.108 9.13444 124.726 8.47307 122.859 9.57633L114.384 14.5845C112.525 15.6829 111.899 18.1025 112.964 19.9897C113.606 21.1289 114.723 21.8227 115.919 21.9543C116.262 21.9918 116.57 21.7447 116.608 21.4017C116.646 21.0588 116.398 20.7503 116.056 20.7124C115.251 20.6239 114.493 20.1562 114.053 19.3753C113.316 18.0692 113.759 16.4057 115.02 15.6603L118.719 13.4736L119.616 14.9857C119.792 15.2825 120.176 15.3806 120.473 15.2046C120.769 15.0284 120.868 14.6444 120.692 14.3477L119.796 12.8372L123.495 10.6522C124.748 9.91268 126.356 10.346 127.088 11.6434C127.678 12.6896 127.512 13.9721 126.767 14.8229C126.539 15.0825 126.566 15.4776 126.825 15.7051C127.085 15.9325 127.48 15.9068 127.708 15.6473C128.795 14.4065 129.034 12.5488 128.177 11.0298Z" fill="#94A7BF"/>
</svg>
