<svg width="14" height="14" viewBox="0 0 14 14" fill="none" xmlns="http://www.w3.org/2000/svg">
<path fill-rule="evenodd" clip-rule="evenodd" d="M9.96229 5.49996C10.7634 5.49996 11.4212 5.49845 11.9245 5.57353C12.4413 5.65063 12.903 5.82308 13.2129 6.25517C13.521 6.68471 13.5415 7.17909 13.4577 7.69918C13.3757 8.20844 13.1755 8.84521 12.9323 9.62431L12.4532 11.1595C12.1548 12.1153 11.8413 12.8413 11.2481 13.2884C10.6515 13.738 9.8694 13.8333 8.86007 13.8333H5.14002C4.13071 13.8333 3.34862 13.738 2.752 13.2884C2.15885 12.8413 1.84527 12.1153 1.54692 11.1595L1.06776 9.62431C0.824581 8.84521 0.624387 8.20844 0.542364 7.69918C0.458643 7.1791 0.47914 6.6847 0.787156 6.25517C1.09709 5.82307 1.55876 5.65064 2.07557 5.57353C2.57889 5.49844 3.2367 5.49996 4.03781 5.49996H9.96229ZM4.03781 6.49996C3.20408 6.49996 2.63549 6.50101 2.22335 6.56246C1.82472 6.62194 1.68158 6.72364 1.59966 6.83785C1.51602 6.95451 1.46393 7.13002 1.52999 7.54033C1.59788 7.96181 1.76962 8.51695 2.02218 9.32613L2.50135 10.8619C2.79995 11.8186 3.04031 12.2541 3.35356 12.4902C3.6634 12.7237 4.14098 12.8333 5.14002 12.8333H8.86007C9.85911 12.8333 10.3367 12.7237 10.6465 12.4902C10.9598 12.2541 11.2001 11.8186 11.4987 10.8619L11.9779 9.32613C12.2305 8.51694 12.4022 7.96181 12.4701 7.54033C12.5362 7.12999 12.4841 6.95451 12.4004 6.83785C12.3185 6.72364 12.1754 6.62193 11.7767 6.56246C11.3646 6.50102 10.796 6.49996 9.96229 6.49996H4.03781Z" fill="url(#paint0_linear_2060_2812)"/>
<path d="M8.67062 2.83329C9.46268 2.83329 10.1139 2.83221 10.6127 2.90686C11.1256 2.98366 11.5839 3.15507 11.8926 3.5846C12.0401 3.78976 12.1258 4.01602 12.1615 4.26103C12.2013 4.53424 12.0122 4.78819 11.739 4.82809C11.4658 4.86786 11.2118 4.67871 11.1719 4.40556C11.1572 4.30447 11.1265 4.23155 11.0808 4.16793C10.9993 4.05467 10.8581 3.95468 10.4649 3.89579C10.0575 3.8348 9.49568 3.83329 8.67062 3.83329H5.32947C4.50441 3.83329 3.94257 3.83479 3.5352 3.89579C3.14196 3.95469 3.00076 4.05466 2.91932 4.16793C2.87361 4.23154 2.8429 4.30449 2.82817 4.40556C2.78827 4.67873 2.53432 4.86791 2.26111 4.82809C1.98798 4.78815 1.79878 4.5342 1.83859 4.26103C1.87432 4.01603 1.96003 3.78975 2.10747 3.5846C2.41618 3.15506 2.87455 2.98367 3.38742 2.90686C3.88623 2.8322 4.53741 2.83329 5.32947 2.83329H8.67062Z" fill="url(#paint1_linear_2060_2812)"/>
<path d="M7.67713 0.166627C8.28173 0.166627 8.79019 0.165675 9.18234 0.221966C9.58562 0.279899 9.97289 0.411633 10.2409 0.763632C10.4559 1.04599 10.514 1.36604 10.4974 1.69202C10.4834 1.96777 10.2485 2.17996 9.9727 2.16598C9.69694 2.15197 9.48476 1.91701 9.49875 1.64124C9.50729 1.47239 9.47552 1.40947 9.44536 1.36975C9.40889 1.32186 9.33292 1.25363 9.03976 1.21155C8.73542 1.16789 8.31304 1.16663 7.67713 1.16663H6.32296C5.68705 1.16663 5.26467 1.16788 4.96033 1.21155C4.66717 1.25364 4.5912 1.32186 4.55473 1.36975C4.52457 1.40947 4.4928 1.47242 4.50135 1.64124C4.51533 1.91702 4.30318 2.15199 4.02739 2.16598C3.75164 2.17993 3.51667 1.96776 3.50265 1.69202C3.48613 1.36605 3.5442 1.04599 3.75916 0.763632C4.0272 0.411629 4.41448 0.279903 4.81776 0.221966C5.20991 0.165671 5.71836 0.166627 6.32296 0.166627H7.67713Z" fill="url(#paint2_linear_2060_2812)"/>
<defs>
<linearGradient id="paint0_linear_2060_2812" x1="0.5" y1="0.166626" x2="14.9138" y2="1.86988" gradientUnits="userSpaceOnUse">
<stop stop-color="#F79548"/>
<stop offset="1" stop-color="#E94262"/>
</linearGradient>
<linearGradient id="paint1_linear_2060_2812" x1="0.5" y1="0.166626" x2="14.9138" y2="1.86988" gradientUnits="userSpaceOnUse">
<stop stop-color="#F79548"/>
<stop offset="1" stop-color="#E94262"/>
</linearGradient>
<linearGradient id="paint2_linear_2060_2812" x1="0.5" y1="0.166626" x2="14.9138" y2="1.86988" gradientUnits="userSpaceOnUse">
<stop stop-color="#F79548"/>
<stop offset="1" stop-color="#E94262"/>
</linearGradient>
</defs>
</svg>
