<svg width="16" height="16" viewBox="0 0 16 16" fill="none" xmlns="http://www.w3.org/2000/svg">
<path d="M5.64645 3.64645C5.84171 3.45118 6.15822 3.45118 6.35348 3.64645L9.88212 7.17509C9.98323 7.2762 10.0951 7.38707 10.1757 7.4928C10.2652 7.61009 10.3619 7.77766 10.3619 7.99996C10.3619 8.22227 10.2652 8.38983 10.1757 8.50712C10.0951 8.61286 9.98323 8.72373 9.88212 8.82483L6.35348 12.3535C6.15822 12.5487 5.84171 12.5487 5.64645 12.3535C5.45118 12.1582 5.45118 11.8417 5.64645 11.6464L9.17509 8.1178C9.22159 8.0713 9.25886 8.03312 9.29098 7.99996C9.25886 7.9668 9.22159 7.92862 9.17509 7.88212L5.64645 4.35348C5.45118 4.15822 5.45118 3.84171 5.64645 3.64645Z" fill="url(#paint0_linear_4393_17174)"/>
<defs>
<linearGradient id="paint0_linear_4393_17174" x1="5.5" y1="3.5" x2="10.9414" y2="3.86517" gradientUnits="userSpaceOnUse">
<stop stop-color="#F79548"/>
<stop offset="1" stop-color="#E94262"/>
</linearGradient>
</defs>
</svg>
