<svg width="40" height="40" viewBox="0 0 40 40" fill="none" xmlns="http://www.w3.org/2000/svg">
<path d="M20.0148 26.2497C20.7052 26.2497 21.2648 26.8093 21.2648 27.4997C21.2648 28.19 20.7052 28.7497 20.0148 28.7497H20.0002C19.3098 28.7497 18.7502 28.19 18.7502 27.4997C18.7502 26.8093 19.3098 26.2497 20.0002 26.2497H20.0148Z" fill="#94A7BF" fill-opacity="0.2"/>
<path d="M20.0002 12.083C22.4351 12.083 24.5831 13.9275 24.5835 16.4092C24.5835 17.2914 24.3033 18.1101 23.8315 18.7871C23.5402 19.2051 23.1995 19.6029 22.8892 19.959C22.5644 20.3316 22.2738 20.6565 22.0103 20.9909C21.4683 21.6786 21.2504 22.1579 21.2502 22.5632V23.333C21.2502 24.0234 20.6905 24.583 20.0002 24.583C19.3098 24.583 18.7502 24.0234 18.7502 23.333V22.5632C18.7504 21.2696 19.4364 20.2181 20.0474 19.443C20.3605 19.0457 20.7098 18.6547 21.0044 18.3167C21.3131 17.9626 21.5726 17.6543 21.7791 17.3581C21.9756 17.0763 22.0835 16.7518 22.0835 16.4092C22.083 15.4928 21.2465 14.583 20.0002 14.583C18.7538 14.583 17.9173 15.4928 17.9168 16.4092C17.9168 17.0995 17.3572 17.6592 16.6668 17.6592C15.9765 17.6592 15.4168 17.0995 15.4168 16.4092C15.4173 13.9275 17.5652 12.083 20.0002 12.083Z" fill="#94A7BF" fill-opacity="0.2"/>
<path fill-rule="evenodd" clip-rule="evenodd" d="M20.0002 2.08301C29.8413 2.08301 37.9165 9.73004 37.9168 19.277C37.9168 28.8242 29.8414 36.471 20.0002 36.471C18.8404 36.4724 17.6837 36.3659 16.5448 36.152C16.1497 36.0778 15.8982 36.0312 15.7114 36.0055C15.6367 35.9953 15.5885 35.9863 15.5601 35.9844C15.6041 35.9766 15.5713 35.973 15.3794 36.0641C15.1886 36.1547 14.9349 36.2903 14.5461 36.4971C12.1599 37.766 9.37475 38.2156 6.68962 37.7161C6.25629 37.6353 5.89765 37.3324 5.74561 36.9186C5.59366 36.5047 5.67092 36.0417 5.94906 35.6995L6.229 35.3301C6.85734 34.4492 7.29446 33.4287 7.50179 32.3402C7.56524 31.9984 7.41999 31.5346 6.97445 31.082C3.94978 28.0107 2.0835 23.8565 2.0835 19.277C2.08379 9.73004 10.1591 2.08301 20.0002 2.08301ZM20.0002 4.58301C11.4342 4.58301 4.58379 11.214 4.5835 19.277C4.5835 23.1586 6.16144 26.6936 8.75505 29.3275C9.54535 30.13 10.2264 31.3814 9.95785 32.8057V32.8089L9.82113 33.4193C9.64498 34.1107 9.39294 34.777 9.07894 35.4115C10.5703 35.3771 12.0469 34.994 13.3709 34.29C13.7385 34.0946 14.0525 33.9275 14.3068 33.8066C14.5471 33.6925 14.8479 33.5633 15.1727 33.5137L15.4071 33.4909C15.6389 33.4802 15.8598 33.502 16.0516 33.5283C16.3141 33.5643 16.6372 33.6265 17.007 33.696C17.9934 33.8812 18.9947 33.9739 19.9985 33.9727C28.5647 33.9727 35.4168 27.3403 35.4168 19.277C35.4165 11.214 28.5661 4.58301 20.0002 4.58301Z" fill="#94A7BF" fill-opacity="0.2"/>
</svg>
