<svg width="13" height="11" viewBox="0 0 13 11" fill="none" xmlns="http://www.w3.org/2000/svg">
<path d="M12.0744 0.0391576C12.398 -0.0808432 12.7575 0.0842236 12.8776 0.40781C12.9976 0.731404 12.8325 1.09097 12.509 1.21103C11.5899 1.55207 10.5985 2.25454 9.61019 3.16253C8.62893 4.06408 7.68568 5.13492 6.86117 6.17034C6.03781 7.20431 5.33998 8.193 4.84782 8.92344C4.60206 9.28818 4.40862 9.58809 4.27653 9.79583C4.2105 9.89967 4.15975 9.98064 4.12598 10.0351C4.10917 10.0622 4.09607 10.0825 4.08773 10.0961C4.08358 10.1029 4.08075 10.1083 4.07878 10.1116C4.07783 10.1131 4.07677 10.1141 4.07633 10.1148C3.96154 10.3041 3.7549 10.4196 3.53353 10.4168C3.31217 10.4139 3.1087 10.294 2.99886 10.1018C2.19738 8.69925 1.52536 8.04918 1.10026 7.75156C0.888619 7.60341 0.736391 7.54172 0.656738 7.51637C0.616597 7.5036 0.592887 7.49928 0.587565 7.49847C0.588552 7.49857 0.590591 7.49908 0.593262 7.49928C0.596287 7.4995 0.60035 7.49991 0.605469 7.5001H0.623372C0.62345 7.5001 0.624109 7.50013 0.624186 7.49928C0.279383 7.49884 0 7.22 0 6.8751C0 6.52992 0.279822 6.2501 0.625 6.2501V6.7278C0.625108 6.2501 0.625967 6.25009 0.626628 6.2501H0.637207C0.64165 6.25018 0.646777 6.25072 0.651855 6.25091C0.661959 6.25128 0.673486 6.2516 0.686035 6.25254C0.71129 6.25442 0.741732 6.25785 0.776367 6.26312C0.845847 6.27371 0.93312 6.29224 1.03597 6.32497C1.24273 6.39076 1.50732 6.51146 1.81641 6.7278C2.30344 7.06872 2.8959 7.6451 3.5498 8.61826C3.62931 8.4975 3.71697 8.36601 3.81185 8.22519C4.3169 7.47563 5.03442 6.45899 5.88379 5.39235C6.73201 4.32716 7.71933 3.20168 8.76465 2.24131C9.8029 1.28745 10.9348 0.461986 12.0744 0.0391576Z" fill="white"/>
</svg>
