<svg width="22" height="22" viewBox="0 0 22 22" fill="none" xmlns="http://www.w3.org/2000/svg">
<path d="M9.08082 1.25647C4.47023 2.19237 1 6.26865 1 11.1554C1 16.7341 5.52238 21.2565 11.101 21.2565C15.9878 21.2565 20.0641 17.7862 21 13.1756" stroke="#B5C2D3" stroke-width="1.5" stroke-linecap="round"/>
<path d="M17.9375 17.2565C18.3216 17.1731 18.6771 17.0405 19 16.8595M13.6875 16.5971C14.2831 16.858 14.8576 17.0513 15.4051 17.1783M9.85461 14.2042C10.2681 14.4945 10.71 14.8426 11.1403 15.1429M2 13.0814C2.32234 12.924 2.67031 12.7433 3.0625 12.5886M5.45105 12.2565C6.01293 12.3189 6.64301 12.4791 7.35743 12.7797" stroke="#B5C2D3" stroke-width="1.5" stroke-linecap="round" stroke-linejoin="round"/>
<path d="M17 6.75647C17 5.92804 16.3284 5.25647 15.5 5.25647C14.6716 5.25647 14 5.92804 14 6.75647C14 7.5849 14.6716 8.25647 15.5 8.25647C16.3284 8.25647 17 7.5849 17 6.75647Z" stroke="#B5C2D3" stroke-width="1.5"/>
<path d="M16.488 12.8766C16.223 13.1203 15.8687 13.2565 15.5001 13.2565C15.1315 13.2565 14.7773 13.1203 14.5123 12.8766C12.0855 10.6321 8.83336 8.12462 10.4193 4.48427C11.2769 2.51596 13.3353 1.25647 15.5001 1.25647C17.6649 1.25647 19.7234 2.51596 20.5809 4.48427C22.1649 8.12003 18.9207 10.6398 16.488 12.8766Z" stroke="#B5C2D3" stroke-width="1.5"/>
</svg>


