<svg width="14" height="14" viewBox="0 0 14 14" fill="none" xmlns="http://www.w3.org/2000/svg">
<path d="M12.3922 0.724593C12.6363 0.480515 13.0319 0.480515 13.276 0.724593C13.5201 0.96867 13.5201 1.3643 13.276 1.60838L7.88456 6.99982L13.276 12.3913C13.5201 12.6353 13.5201 13.031 13.276 13.275C13.0319 13.5191 12.6363 13.5191 12.3922 13.275L7.00077 7.88361L1.60933 13.275C1.36525 13.5191 0.969616 13.5191 0.725539 13.275C0.481461 13.031 0.481461 12.6353 0.725539 12.3913L6.11698 6.99982L0.725539 1.60838C0.481461 1.3643 0.481461 0.96867 0.725539 0.724593C0.969616 0.480515 1.36525 0.480515 1.60933 0.724593L7.00077 6.11603L12.3922 0.724593Z" fill="#94A7BF"/>
</svg>
