<svg width="8" height="8" viewBox="0 0 8 8" fill="none" xmlns="http://www.w3.org/2000/svg">
<path d="M7.10984 0.109835C7.25628 -0.0366117 7.49366 -0.0366117 7.64011 0.109835C7.78656 0.256282 7.78656 0.493662 7.64011 0.640108L4.40525 3.87497L7.64011 7.10984C7.78656 7.25628 7.78656 7.49366 7.64011 7.64011C7.49366 7.78656 7.25628 7.78656 7.10984 7.64011L3.87497 4.40525L0.640108 7.64011C0.493662 7.78656 0.256282 7.78656 0.109835 7.64011C-0.0366117 7.49366 -0.0366117 7.25628 0.109835 7.10984L3.3447 3.87497L0.109835 0.640108C-0.0366117 0.493662 -0.0366117 0.256282 0.109835 0.109835C0.256282 -0.0366117 0.493662 -0.0366117 0.640108 0.109835L3.87497 3.3447L7.10984 0.109835Z" fill="white"/>
</svg>
