<svg width="14" height="15" viewBox="0 0 14 15" fill="none" xmlns="http://www.w3.org/2000/svg">
<path d="M11.75 3.08398L11.3368 9.76738C11.2313 11.475 11.1785 12.3287 10.7505 12.9426C10.5389 13.246 10.2664 13.5022 9.95047 13.6947C9.31141 14.084 8.45599 14.084 6.74516 14.084C5.03208 14.084 4.17554 14.084 3.53604 13.6939C3.21987 13.5011 2.94733 13.2445 2.73579 12.9405C2.30792 12.3257 2.2563 11.4707 2.15307 9.76075L1.75 3.08398" stroke="#E94262" stroke-width="1.5" stroke-linecap="round"/>
<path d="M0.75 3.08333H12.75M9.45382 3.08333L8.9987 2.14448C8.69638 1.52084 8.54522 1.20901 8.28448 1.01454C8.22664 0.9714 8.1654 0.933028 8.10135 0.899801C7.81261 0.75 7.46608 0.75 6.77302 0.75C6.06255 0.75 5.70732 0.75 5.41379 0.90608C5.34873 0.940672 5.28666 0.980597 5.2282 1.02545C4.96443 1.2278 4.81709 1.55104 4.5224 2.19751L4.11862 3.08333" stroke="#E94262" stroke-width="1.5" stroke-linecap="round"/>
</svg>
