<svg
                      width="18"
                      height="16"
                      viewBox="0 0 18 16"
                      fill="none"
                      xmlns="http://www.w3.org/2000/svg"
                    >
                      <path
                        d="M15.9108 9.45801C16.0258 9.13274 16.383 8.96232 16.7083 9.07715C17.0336 9.19216 17.204 9.54929 17.0892 9.87467L16.8947 10.4264C16.5203 11.4874 16.2226 12.3323 15.9059 12.985C15.5823 13.6521 15.2131 14.1756 14.6633 14.5646C14.1135 14.9536 13.4973 15.1276 12.7606 15.2108C12.0397 15.2922 11.144 15.2913 10.0189 15.2913H7.98113C6.85606 15.2913 5.96035 15.2922 5.23943 15.2108C4.50268 15.1276 3.88655 14.9536 3.33676 14.5646C2.78695 14.1756 2.41773 13.6521 2.09408 12.985C1.77742 12.3323 1.47976 11.4874 1.10531 10.4264L0.910814 9.87467C0.795983 9.5493 0.966405 9.19216 1.29167 9.07715C1.61705 8.96231 1.97418 9.13274 2.0892 9.45801L2.28451 10.0106C2.66843 11.0984 2.93994 11.8651 3.21876 12.4398C3.49062 13.0001 3.74318 13.3209 4.0586 13.5441C4.37403 13.7673 4.76058 13.899 5.3794 13.9689C6.0141 14.0406 6.82767 14.0413 7.98113 14.0413H10.0189C11.1723 14.0413 11.9859 14.0406 12.6206 13.9689C13.2394 13.899 13.626 13.7673 13.9414 13.5441C14.2568 13.3209 14.5094 13.0001 14.7813 12.4398C15.0601 11.8651 15.3316 11.0984 15.7155 10.0106L15.9108 9.45801Z"
                        fill="#94A7BF"
                      />
                      <path
                        d="M9.00001 0.708008C9.34513 0.708069 9.62501 0.987868 9.62501 1.33301V8.38379C9.62648 8.38207 9.62842 8.38064 9.62989 8.37891C9.81909 8.15562 10.0046 7.91831 10.176 7.7002C10.336 7.49645 10.5041 7.28224 10.6349 7.14762C10.8755 6.90024 11.2712 6.89427 11.5187 7.1346C11.7661 7.3751 11.772 7.77087 11.5317 8.01839C11.4578 8.09443 11.3358 8.24634 11.1582 8.47249C10.9917 8.68443 10.791 8.94227 10.5837 9.18701C10.3787 9.42894 10.149 9.68007 9.9196 9.87549C9.8047 9.97336 9.6748 10.0702 9.53549 10.1449C9.40098 10.2168 9.2152 10.2913 9.00001 10.2913C8.78482 10.2913 8.59905 10.2168 8.46453 10.1449C8.32521 10.0703 8.19533 9.97336 8.08041 9.87549C7.85104 9.68008 7.62136 9.42895 7.41635 9.18701C7.20897 8.94227 7.00827 8.68443 6.8418 8.47249C6.66419 8.24636 6.54219 8.09446 6.46827 8.01839C6.22792 7.77086 6.23385 7.37511 6.48129 7.1346C6.72883 6.89431 7.12459 6.9002 7.36508 7.14762C7.49588 7.28225 7.66404 7.49647 7.82406 7.7002C7.99539 7.91831 8.18093 8.15563 8.37012 8.37891C8.3716 8.38063 8.37354 8.38206 8.37501 8.38379V1.33301C8.37501 0.98783 8.65483 0.708008 9.00001 0.708008Z"
                        fill="#94A7BF"
                      />
                    </svg>