<svg width="16" height="16" viewBox="0 0 16 16" fill="none" xmlns="http://www.w3.org/2000/svg">
<path d="M9.38215 2.58998C9.87894 2.05173 10.1273 1.78261 10.3913 1.62563C11.0282 1.24685 11.8124 1.23507 12.4599 1.59456C12.7283 1.74354 12.9843 2.00509 13.4964 2.52818C14.0084 3.05128 14.2645 3.31282 14.4103 3.58696C14.7622 4.24842 14.7507 5.04954 14.3799 5.70014C14.2262 5.96978 13.9628 6.22352 13.4359 6.73101L7.16676 12.7692C6.16826 13.7309 5.66901 14.2118 5.04505 14.4555C4.42109 14.6992 3.73514 14.6813 2.36325 14.6454L2.17659 14.6405C1.75894 14.6296 1.55012 14.6241 1.42873 14.4864C1.30734 14.3486 1.32392 14.1359 1.35706 13.7105L1.37506 13.4794C1.46835 12.282 1.51499 11.6833 1.74881 11.1452C1.98263 10.607 2.38596 10.17 3.19263 9.29601L9.38215 2.58998Z" stroke="#4CC6CF" stroke-width="1.5" stroke-linejoin="round"/>
<path d="M8.66699 2.66699L13.3337 7.33366" stroke="#4CC6CF" stroke-width="1.5" stroke-linejoin="round"/>
<path d="M9.33301 14.667L14.6663 14.667" stroke="#4CC6CF" stroke-width="1.5" stroke-linecap="round" stroke-linejoin="round"/>
</svg>
