<svg width="29" height="29" viewBox="0 0 29 29" fill="none" xmlns="http://www.w3.org/2000/svg">
<path d="M14.3346 19.6667C15.071 19.6667 15.668 20.2636 15.668 21C15.668 21.7364 15.071 22.3333 14.3346 22.3333H14.3229C13.5865 22.3333 12.9896 21.7364 12.9896 21C12.9896 20.2636 13.5865 19.6667 14.3229 19.6667H14.3346Z" fill="white"/>
<path d="M14.3333 6.66667C16.3584 6.66667 18 8.30829 18 10.3333C18 11.0618 17.7861 11.743 17.418 12.3151C17.1874 12.6734 16.9178 13.0153 16.6693 13.3242C16.4102 13.6461 16.177 13.9297 15.9648 14.2214C15.5336 14.8141 15.3333 15.2597 15.3333 15.6667V16.3333C15.3333 16.8856 14.8856 17.3333 14.3333 17.3333C13.781 17.3333 13.3333 16.8856 13.3333 16.3333V15.6667C13.3333 14.601 13.8563 13.7196 14.3477 13.0443C14.5968 12.7018 14.8755 12.3655 15.112 12.0716C15.3589 11.7647 15.5691 11.494 15.737 11.2331C15.9035 10.9741 16 10.6665 16 10.3333C16 9.41286 15.2538 8.66667 14.3333 8.66667C13.4129 8.66667 12.6667 9.41286 12.6667 10.3333C12.6667 10.8856 12.219 11.3333 11.6667 11.3333C11.1144 11.3333 10.6667 10.8856 10.6667 10.3333C10.6667 8.30829 12.3083 6.66667 14.3333 6.66667Z" fill="white"/>
<path fill-rule="evenodd" clip-rule="evenodd" d="M14.3333 0C22.2494 0 28.6667 6.41725 28.6667 14.3333C28.6667 22.2494 22.2494 28.6667 14.3333 28.6667C6.41725 28.6667 0 22.2494 0 14.3333C0 6.41725 6.41725 0 14.3333 0ZM14.3333 2C7.52182 2 2 7.52182 2 14.3333C2 21.1448 7.52182 26.6667 14.3333 26.6667C21.1448 26.6667 26.6667 21.1448 26.6667 14.3333C26.6667 7.52182 21.1448 2 14.3333 2Z" fill="white"/>
</svg>
