<svg width="16" height="14" viewBox="0 0 16 14" fill="none" xmlns="http://www.w3.org/2000/svg">
<path d="M0.615385 2.72277H3.07692C3.07692 3.40154 3.62892 3.95354 4.30769 3.95354H5.53846C6.21723 3.95354 6.76923 3.40154 6.76923 2.72277H15.3846C15.7243 2.72277 16 2.44769 16 2.10738C16 1.76708 15.7243 1.492 15.3846 1.492H6.76923C6.76923 0.81323 6.21723 0.26123 5.53846 0.26123H4.30769C3.62892 0.26123 3.07692 0.81323 3.07692 1.492H0.615385C0.275692 1.492 0 1.76708 0 2.10738C0 2.44769 0.275692 2.72277 0.615385 2.72277Z" fill="#183B4D"/>
<path d="M15.3846 6.41461H11.6923C11.6923 5.73584 11.1403 5.18384 10.4615 5.18384H9.23077C8.552 5.18384 8 5.73584 8 6.41461H0.615385C0.275692 6.41461 0 6.68968 0 7.02999C0 7.3703 0.275692 7.64538 0.615385 7.64538H8C8 8.32415 8.552 8.87615 9.23077 8.87615H10.4615C11.1403 8.87615 11.6923 8.32415 11.6923 7.64538H15.3846C15.7243 7.64538 16 7.3703 16 7.02999C16 6.68968 15.7243 6.41461 15.3846 6.41461Z" fill="#183B4D"/>
<path d="M15.3846 11.3382H6.76923C6.76923 10.6594 6.21723 10.1074 5.53846 10.1074H4.30769C3.62892 10.1074 3.07692 10.6594 3.07692 11.3382H0.615385C0.275692 11.3382 0 11.6133 0 11.9536C0 12.2939 0.275692 12.569 0.615385 12.569H3.07692C3.07692 13.2477 3.62892 13.7997 4.30769 13.7997H5.53846C6.21723 13.7997 6.76923 13.2477 6.76923 12.569H15.3846C15.7243 12.569 16 12.2939 16 11.9536C16 11.6133 15.7243 11.3382 15.3846 11.3382Z" fill="#183B4D"/>
</svg>
