<svg width="13" height="12" viewBox="0 0 13 12" fill="none" xmlns="http://www.w3.org/2000/svg">
<path fill-rule="evenodd" clip-rule="evenodd" d="M8.5 6.66667C8.80379 6.66667 9.05676 6.66622 9.26367 6.68034C9.47504 6.69477 9.67492 6.72581 9.86849 6.80599C10.3176 6.99206 10.6746 7.34906 10.8607 7.79818C10.9409 7.99174 10.9719 8.19163 10.9863 8.403C10.9918 8.48376 10.9935 8.57158 10.9954 8.66667H12.5C12.7761 8.66667 13 8.89053 13 9.16667C13 9.44281 12.7761 9.66667 12.5 9.66667H10.9954C10.9935 9.76175 10.9918 9.84957 10.9863 9.93034C10.9719 10.1417 10.9409 10.3416 10.8607 10.5352C10.6746 10.9843 10.3176 11.3413 9.86849 11.5273C9.67492 11.6075 9.47504 11.6386 9.26367 11.653C9.05676 11.6671 8.80379 11.6667 8.5 11.6667C8.19621 11.6667 7.94324 11.6671 7.73633 11.653C7.52496 11.6386 7.32508 11.6075 7.13151 11.5273C6.68239 11.3413 6.32539 10.9843 6.13932 10.5352C6.05915 10.3416 6.0281 10.1417 6.01367 9.93034C5.99955 9.72343 6 9.47045 6 9.16667C6 8.86288 5.99955 8.6099 6.01367 8.403C6.0281 8.19163 6.05915 7.99174 6.13932 7.79818C6.32539 7.34906 6.68239 6.99206 7.13151 6.80599C7.32508 6.72581 7.52496 6.69477 7.73633 6.68034C7.94324 6.66622 8.19621 6.66667 8.5 6.66667ZM8.5 7.66667C8.18265 7.66667 7.96964 7.66714 7.80469 7.67839C7.64421 7.68934 7.56576 7.70851 7.51432 7.72982C7.31013 7.8144 7.14773 7.9768 7.06315 8.18099C7.04185 8.23243 7.02267 8.31088 7.01172 8.47135C7.00047 8.63631 7 8.84931 7 9.16667C7 9.48402 7.00047 9.69703 7.01172 9.86198C7.02267 10.0225 7.04185 10.1009 7.06315 10.1523C7.14773 10.3565 7.31013 10.5189 7.51432 10.6035C7.56576 10.6248 7.64421 10.644 7.80469 10.6549C7.96964 10.6662 8.18265 10.6667 8.5 10.6667C8.81735 10.6667 9.03036 10.6662 9.19531 10.6549C9.35579 10.644 9.43424 10.6248 9.48568 10.6035C9.68987 10.5189 9.85227 10.3565 9.93685 10.1523C9.95815 10.1009 9.97733 10.0225 9.98828 9.86198C9.99953 9.69703 10 9.48402 10 9.16667C10 8.84931 9.99953 8.63631 9.98828 8.47135C9.97733 8.31088 9.95815 8.23243 9.93685 8.18099C9.85227 7.9768 9.68987 7.8144 9.48568 7.72982C9.43424 7.70851 9.35579 7.68934 9.19531 7.67839C9.03036 7.66714 8.81735 7.66667 8.5 7.66667Z" fill="#94A7BF"/>
<path d="M4.5 8.66667C4.77614 8.66667 5 8.89053 5 9.16667C5 9.44281 4.77614 9.66667 4.5 9.66667H0.5C0.223858 9.66667 0 9.44281 0 9.16667C0 8.89053 0.223858 8.66667 0.5 8.66667H4.5Z" fill="#94A7BF"/>
<path fill-rule="evenodd" clip-rule="evenodd" d="M4.5 1.56919e-06C4.80379 1.56919e-06 5.05676 -0.000443718 5.26367 0.0136734C5.47504 0.0280996 5.67492 0.0591469 5.86849 0.139324C6.31761 0.325394 6.67461 0.682391 6.86068 1.13151C6.94086 1.32508 6.9719 1.52496 6.98633 1.73633C7.00045 1.94324 7 2.19622 7 2.5C7 2.80379 7.00045 3.05676 6.98633 3.26367C6.9719 3.47504 6.94086 3.67492 6.86068 3.86849C6.67461 4.31761 6.31761 4.67461 5.86849 4.86068C5.67492 4.94086 5.47504 4.9719 5.26367 4.98633C5.05676 5.00045 4.80379 5 4.5 5C4.19621 5 3.94324 5.00045 3.73633 4.98633C3.52496 4.9719 3.32508 4.94086 3.13151 4.86068C2.68239 4.67461 2.32539 4.31761 2.13932 3.86849C2.05915 3.67492 2.0281 3.47504 2.01367 3.26367C2.00816 3.18291 2.00652 3.09509 2.00456 3H0.5C0.223858 3 0 2.77614 0 2.5C0 2.22386 0.223858 2 0.5 2H2.00456C2.00652 1.90492 2.00816 1.8171 2.01367 1.73633C2.0281 1.52496 2.05914 1.32508 2.13932 1.13151C2.32539 0.682391 2.68239 0.325394 3.13151 0.139324C3.32508 0.0591465 3.52496 0.0280997 3.73633 0.0136734C3.94324 -0.000443811 4.19621 1.56764e-06 4.5 1.56919e-06ZM4.5 1C4.18265 1 3.96964 1.00048 3.80469 1.01172C3.64421 1.02267 3.56576 1.04185 3.51432 1.06315C3.31013 1.14773 3.14773 1.31013 3.06315 1.51432C3.04185 1.56576 3.02267 1.64421 3.01172 1.80469C3.00047 1.96964 3 2.18265 3 2.5C3 2.81735 3.00047 3.03036 3.01172 3.19531C3.02267 3.35579 3.04185 3.43424 3.06315 3.48568C3.14773 3.68987 3.31013 3.85227 3.51432 3.93685C3.56576 3.95815 3.64421 3.97733 3.80469 3.98828C3.96964 3.99953 4.18265 4 4.5 4C4.81735 4 5.03036 3.99953 5.19531 3.98828C5.35579 3.97733 5.43424 3.95815 5.48568 3.93685C5.68987 3.85227 5.85227 3.68987 5.93685 3.48568C5.95815 3.43424 5.97733 3.35579 5.98828 3.19531C5.99953 3.03036 6 2.81735 6 2.5C6 2.18265 5.99953 1.96964 5.98828 1.80469C5.97733 1.64421 5.95815 1.56576 5.93685 1.51432C5.85227 1.31014 5.68987 1.14773 5.48568 1.06315C5.43424 1.04185 5.35579 1.02267 5.19531 1.01172C5.03036 1.00048 4.81735 1 4.5 1Z" fill="#94A7BF"/>
<path d="M12.5 2C12.7761 2 13 2.22386 13 2.5C13 2.77614 12.7761 3 12.5 3H8.5C8.22386 3 8 2.77614 8 2.5C8 2.22386 8.22386 2 8.5 2H12.5Z" fill="#94A7BF"/>
</svg>
