<svg width="20" height="18" viewBox="0 0 20 18" fill="none" xmlns="http://www.w3.org/2000/svg">
<path d="M3.70222 13.5869C7.25617 11.4709 11.7606 11.4708 15.3145 13.5869C15.7052 13.8195 16.4454 14.2124 17.1016 14.6465C17.7593 15.0816 18.496 15.6578 18.9132 16.3711C19.1222 16.7287 19.0022 17.1884 18.6446 17.3975C18.2871 17.6064 17.8273 17.4864 17.6182 17.1289C17.3851 16.7301 16.8993 16.3108 16.2745 15.8975C15.648 15.4831 15.0455 15.1728 14.5469 14.876C11.4659 13.0415 7.55087 13.0415 4.4698 14.876C3.97129 15.1728 3.36871 15.4831 2.74226 15.8975C2.1173 16.3109 1.63069 16.73 1.39753 17.1289C1.18842 17.4862 0.728656 17.6064 0.371164 17.3975C0.0139483 17.1883 -0.10631 16.7285 0.10261 16.3711C0.51975 15.6577 1.25639 15.0816 1.91413 14.6465C2.57048 14.2123 3.31148 13.8196 3.70222 13.5869Z" fill="#B5C2D3"/>
<path fill-rule="evenodd" clip-rule="evenodd" d="M9.50788 0C12.4074 0 14.7579 2.3505 14.7579 5.25C14.7579 8.14949 12.4074 10.5 9.50788 10.5C6.60839 10.5 4.25788 8.14949 4.25788 5.25C4.25788 2.3505 6.60839 0 9.50788 0ZM9.50788 1.5C7.43682 1.5 5.75788 3.17893 5.75788 5.25C5.75788 7.32107 7.43682 9 9.50788 9C11.579 9 13.2579 7.32107 13.2579 5.25C13.2579 3.17893 11.579 1.5 9.50788 1.5Z" fill="#B5C2D3"/>
</svg>
