<svg width="20" height="20" viewBox="0 0 20 20" fill="none" xmlns="http://www.w3.org/2000/svg">
<path d="M9.36833 8.54199C9.54705 8.54199 9.74392 8.54101 9.90869 8.56315C10.0915 8.58772 10.325 8.65067 10.5215 8.84717C10.718 9.04367 10.7809 9.27719 10.8055 9.45996C10.8276 9.62474 10.8267 9.8216 10.8267 10.0003V14.167C10.8267 14.5122 10.5468 14.792 10.2017 14.792C9.85648 14.792 9.57666 14.5122 9.57666 14.167V10.0003C9.57666 9.91769 9.57597 9.85072 9.57503 9.79281C9.51731 9.79188 9.45057 9.79199 9.36833 9.79199C9.02315 9.79199 8.74333 9.51217 8.74333 9.16699C8.74333 8.82182 9.02315 8.54199 9.36833 8.54199Z" fill="#4CC6CF"/>
<path d="M10.0007 5.83366C10.4609 5.83366 10.834 6.20676 10.834 6.66699C10.834 7.12723 10.4609 7.50033 10.0007 7.50033H9.99333C9.53309 7.50033 9.15999 7.12723 9.15999 6.66699C9.15999 6.20676 9.53309 5.83366 9.99333 5.83366H10.0007Z" fill="#4CC6CF"/>
<path fill-rule="evenodd" clip-rule="evenodd" d="M9.99984 1.04199C14.9474 1.04199 18.9582 5.05277 18.9582 10.0003C18.9582 14.9479 14.9474 18.9587 9.99984 18.9587C5.05229 18.9587 1.0415 14.9479 1.0415 10.0003C1.0415 5.05277 5.05229 1.04199 9.99984 1.04199ZM9.99984 2.29199C5.74264 2.29199 2.2915 5.74313 2.2915 10.0003C2.2915 14.2575 5.74264 17.7087 9.99984 17.7087C14.257 17.7087 17.7082 14.2575 17.7082 10.0003C17.7082 5.74313 14.257 2.29199 9.99984 2.29199Z" fill="#4CC6CF"/>
</svg>
