<svg width="29" height="29" viewBox="0 0 29 29" fill="none" xmlns="http://www.w3.org/2000/svg">
<path fill-rule="evenodd" clip-rule="evenodd" d="M4.33333 20C4.88562 20 5.33333 20.4477 5.33333 21C5.33333 20.9936 5.35101 21.145 5.54818 21.4635C5.72523 21.7495 5.98575 22.0717 6.29036 22.3763C6.59498 22.6809 6.91718 22.9414 7.20313 23.1185C7.52163 23.3157 7.67304 23.3333 7.66667 23.3333C8.21895 23.3333 8.66667 23.781 8.66667 24.3333C8.66667 24.8856 8.21895 25.3333 7.66667 25.3333C7.67304 25.3333 7.52163 25.351 7.20313 25.5482C6.91718 25.7252 6.59498 25.9858 6.29036 26.2904C5.98575 26.595 5.72523 26.9172 5.54818 27.2031C5.35101 27.5216 5.33333 27.673 5.33333 27.6667C5.33333 28.219 4.88562 28.6667 4.33333 28.6667C3.78105 28.6667 3.33333 28.219 3.33333 27.6667C3.33333 27.673 3.31566 27.5216 3.11849 27.2031C2.94144 26.9172 2.68092 26.595 2.3763 26.2904C2.07169 25.9858 1.74949 25.7252 1.46354 25.5482C1.14503 25.351 0.993628 25.3333 1 25.3333C0.447715 25.3333 0 24.8856 0 24.3333C0 23.781 0.447715 23.3333 1 23.3333C0.993628 23.3333 1.14503 23.3157 1.46354 23.1185C1.74949 22.9414 2.07169 22.6809 2.3763 22.3763C2.68092 22.0717 2.94144 21.7495 3.11849 21.4635C3.31566 21.145 3.33333 20.9936 3.33333 21C3.33333 20.4477 3.78105 20 4.33333 20ZM4.33333 23.1888C4.16297 23.3975 3.98022 23.6005 3.79036 23.7904C3.60051 23.9802 3.39745 24.163 3.1888 24.3333C3.39745 24.5037 3.60051 24.6864 3.79036 24.8763C3.97999 25.0659 4.16315 25.2682 4.33333 25.4766C4.50352 25.2682 4.68668 25.0659 4.8763 24.8763C5.06592 24.6867 5.26819 24.5035 5.47656 24.3333C5.26819 24.1631 5.06592 23.98 4.8763 23.7904C4.68644 23.6005 4.5037 23.3975 4.33333 23.1888Z" fill="white"/>
<path fill-rule="evenodd" clip-rule="evenodd" d="M14.3333 1.33333C14.8856 1.33333 15.3333 1.78105 15.3333 2.33333C15.3333 5.0081 16.6807 7.76665 18.7904 9.8763C20.9 11.986 23.6586 13.3333 26.3333 13.3333C26.8856 13.3333 27.3333 13.781 27.3333 14.3333C27.3333 14.8856 26.8856 15.3333 26.3333 15.3333C23.6586 15.3333 20.9 16.6807 18.7904 18.7904C16.6807 20.9 15.3333 23.6586 15.3333 26.3333C15.3333 26.8856 14.8856 27.3333 14.3333 27.3333C13.781 27.3333 13.3333 26.8856 13.3333 26.3333C13.3333 23.6586 11.986 20.9 9.8763 18.7904C7.76665 16.6807 5.0081 15.3333 2.33333 15.3333C1.78105 15.3333 1.33333 14.8856 1.33333 14.3333C1.33333 13.781 1.78105 13.3333 2.33333 13.3333C5.0081 13.3333 7.76665 11.986 9.8763 9.8763C11.986 7.76665 13.3333 5.0081 13.3333 2.33333C13.3333 1.78105 13.781 1.33333 14.3333 1.33333ZM14.3333 6.8763C13.6171 8.51051 12.5595 10.0212 11.2904 11.2904C10.0212 12.5595 8.51051 13.6171 6.8763 14.3333C8.51051 15.0496 10.0212 16.1071 11.2904 17.3763C12.5593 18.6452 13.6171 20.1553 14.3333 21.7891C15.0496 20.1553 16.1074 18.6452 17.3763 17.3763C18.6452 16.1074 20.1553 15.0496 21.7891 14.3333C20.1553 13.6171 18.6452 12.5593 17.3763 11.2904C16.1071 10.0212 15.0496 8.51051 14.3333 6.8763Z" fill="white"/>
<path fill-rule="evenodd" clip-rule="evenodd" d="M23.6667 0C24.219 0 24.6667 0.447715 24.6667 1V1.00391C24.6667 1.00391 24.6674 1.00977 24.668 1.01432C24.6691 1.02388 24.6707 1.03813 24.6745 1.05599C24.6823 1.09223 24.697 1.14056 24.7201 1.20182C24.7672 1.32704 24.8437 1.48257 24.9544 1.66146C25.1766 2.02032 25.4996 2.41891 25.8737 2.79297C26.2478 3.16703 26.6463 3.49005 27.0052 3.71224C27.1841 3.82298 27.3396 3.89945 27.4648 3.94661C27.5261 3.96968 27.5744 3.9844 27.6107 3.99219C27.6285 3.99601 27.6428 3.9976 27.6523 3.9987C27.6569 3.99922 27.6628 4 27.6628 4H27.6667C28.219 4 28.6667 4.44772 28.6667 5C28.6667 5.55229 28.219 6 27.6667 6H27.6628C27.6628 6 27.6569 6.00078 27.6523 6.0013C27.6428 6.0024 27.6285 6.00399 27.6107 6.00781C27.5744 6.0156 27.5261 6.03032 27.4648 6.05339C27.3396 6.10055 27.1841 6.17702 27.0052 6.28776C26.6463 6.50995 26.2478 6.83297 25.8737 7.20703C25.4996 7.58109 25.1766 7.97968 24.9544 8.33854C24.8437 8.51743 24.7672 8.67296 24.7201 8.79818C24.697 8.85944 24.6823 8.90777 24.6745 8.94401C24.6707 8.96187 24.6691 8.97612 24.668 8.98568C24.6674 8.99023 24.6667 8.99609 24.6667 8.99609V9C24.6667 9.55229 24.219 10 23.6667 10C23.1144 10 22.6667 9.55229 22.6667 9V8.99609C22.6667 8.99609 22.6659 8.99023 22.6654 8.98568C22.6643 8.97612 22.6627 8.96187 22.6589 8.94401C22.6511 8.90777 22.6363 8.85944 22.6133 8.79818C22.5661 8.67296 22.4896 8.51743 22.3789 8.33854C22.1567 7.97968 21.8337 7.58109 21.4596 7.20703C21.0856 6.83297 20.687 6.50995 20.3281 6.28776C20.1492 6.17702 19.9937 6.10055 19.8685 6.05339C19.8072 6.03032 19.7589 6.0156 19.7227 6.00781C19.7048 6.00399 19.6905 6.0024 19.681 6.0013C19.6764 6.00078 19.6706 6 19.6706 6H19.6667C19.1144 6 18.6667 5.55229 18.6667 5C18.6667 4.44772 19.1144 4 19.6667 4H19.6706C19.6706 4 19.6764 3.99922 19.681 3.9987C19.6905 3.9976 19.7048 3.99601 19.7227 3.99219C19.7589 3.9844 19.8072 3.96968 19.8685 3.94661C19.9937 3.89945 20.1492 3.82298 20.3281 3.71224C20.687 3.49005 21.0856 3.16703 21.4596 2.79297C21.8337 2.41891 22.1567 2.02032 22.3789 1.66146C22.4896 1.48257 22.5661 1.32704 22.6133 1.20182C22.6363 1.14056 22.6511 1.09223 22.6589 1.05599C22.6627 1.03813 22.6643 1.02388 22.6654 1.01432C22.6659 1.00977 22.6667 1.00391 22.6667 1.00391V1C22.6667 0.447715 23.1144 0 23.6667 0ZM23.6667 3.30078C23.4254 3.61493 23.1573 3.92343 22.8737 4.20703C22.5901 4.49063 22.2816 4.75871 21.9674 5C22.2816 5.24129 22.5901 5.50937 22.8737 5.79297C23.1571 6.07632 23.4255 6.38405 23.6667 6.69792C23.9078 6.38405 24.1763 6.07632 24.4596 5.79297C24.743 5.50961 25.0507 5.24113 25.3646 5C25.0507 4.75887 24.743 4.49039 24.4596 4.20703C24.176 3.92343 23.908 3.61493 23.6667 3.30078Z" fill="white"/>
</svg>
