<svg width="7" height="12" viewBox="0 0 7 12" fill="none" xmlns="http://www.w3.org/2000/svg">
<path d="M0.183058 0.183058C0.427136 -0.0610194 0.82277 -0.0610194 1.06685 0.183058L5.47765 4.59387C5.60403 4.72024 5.74384 4.85883 5.84468 4.991C5.95654 5.13761 6.07743 5.34707 6.07743 5.62495C6.07743 5.90283 5.95654 6.11229 5.84468 6.2589C5.74384 6.39107 5.60403 6.52966 5.47765 6.65604L1.06685 11.0668C0.82277 11.3109 0.427136 11.3109 0.183058 11.0668C-0.0610194 10.8228 -0.0610194 10.4271 0.183058 10.1831L4.59387 5.77225C4.65199 5.71413 4.69857 5.66641 4.73872 5.62495C4.69857 5.5835 4.65199 5.53578 4.59387 5.47765L0.183058 1.06685C-0.0610194 0.82277 -0.0610194 0.427136 0.183058 0.183058Z" fill="white"/>
</svg>
