<svg width="24" height="26" viewBox="0 0 24 26" fill="none" xmlns="http://www.w3.org/2000/svg">
<mask id="mask0_148_40" style="mask-type:alpha" maskUnits="userSpaceOnUse" x="0" y="0" width="24" height="26">
<path d="M24 26H0C2.86961 25.9858 4.38688 25.7304 7 25C11.5727 23.3561 13.7529 22.027 17 19C21.995 13.1484 23.9743 9.54864 24 0V26Z" fill="#D9D9D9"/>
</mask>
<g mask="url(#mask0_148_40)">
<path d="M156 2C156 15.2548 166.745 26 180 26H925C938.255 26 949 36.7452 949 50V160C949 173.255 938.255 184 925 184H-419C-432.255 184 -443 173.255 -443 160V50C-443 36.7452 -432.255 26 -419 26H1.07288e-05C13.2548 26 24 15.2548 24 2V-13C24 -26.2548 34.7452 -37 48 -37H132C145.255 -37 156 -26.2548 156 -13V2Z" fill="white"/>
</g>
</svg>
