<svg width="18" height="17" viewBox="0 0 18 17" fill="none" xmlns="http://www.w3.org/2000/svg">
<path d="M8.41407 0.132407C10.4833 0.081785 12.0493 1.66477 12.1242 3.54387C12.1379 3.88874 11.8693 4.17957 11.5244 4.19328C11.1798 4.20659 10.8896 3.93814 10.8758 3.59351C10.8276 2.38637 9.82118 1.34874 8.44499 1.38241C8.14354 1.38985 7.74393 1.49754 6.71241 1.78849C4.37983 2.44649 2.62935 3.47777 2.20476 5.64266C2.12808 6.034 2.12501 6.48505 2.12501 7.55916V8.95402C2.12501 10.0282 2.12805 10.4792 2.20476 10.8705C2.62936 13.0354 4.37981 14.0667 6.71241 14.7247C7.74393 15.0157 8.14354 15.1233 8.44499 15.1308C9.82115 15.1644 10.8276 14.1268 10.8758 12.9197C10.8895 12.575 11.1798 12.3066 11.5244 12.3199C11.8692 12.3336 12.1377 12.6238 12.1242 12.9685C12.0495 14.8477 10.4835 16.4314 8.41407 16.3808C7.91406 16.3684 7.32234 16.1961 6.37305 15.9283C3.93671 15.2411 1.54706 14.011 0.978358 11.1114C0.872548 10.5719 0.875005 9.97461 0.875005 8.95402V7.55916C0.875005 6.53861 0.872572 5.94127 0.978358 5.40178C1.54705 2.50219 3.93672 1.27214 6.37305 0.584881C7.32233 0.317119 7.91406 0.144779 8.41407 0.132407Z" fill="white"/>
<path d="M8.9821 5.72485C9.22964 5.4845 9.62538 5.49043 9.86589 5.73788C10.1062 5.98542 10.1003 6.38118 9.85287 6.62166C9.71824 6.75246 9.50402 6.92064 9.3003 7.08065C9.08219 7.25197 8.84486 7.43752 8.62159 7.62671C8.6197 7.62831 8.61777 7.63 8.61589 7.63159H16.5008C16.846 7.63159 17.1258 7.91142 17.1258 8.25659C17.1257 8.6017 16.8459 8.88159 16.5008 8.88159H8.61589C8.61777 8.88319 8.6197 8.88488 8.62159 8.88648C8.84487 9.07567 9.08219 9.26122 9.3003 9.43254C9.50404 9.59256 9.71826 9.76073 9.85287 9.89152C10.1002 10.132 10.1062 10.5278 9.86589 10.7753C9.6254 11.0226 9.22962 11.0286 8.9821 10.7883C8.90606 10.7144 8.75415 10.5924 8.528 10.4148C8.31607 10.2483 8.05822 10.0476 7.81348 9.84025C7.57156 9.63525 7.32042 9.40555 7.12501 9.17619C7.02714 9.06129 6.93025 8.93138 6.85564 8.79208C6.79262 8.67432 6.72756 8.51713 6.71241 8.33553L6.70915 8.25659L6.71241 8.17765C6.72753 7.99606 6.79262 7.83889 6.85564 7.72111C6.93024 7.5818 7.02714 7.45191 7.12501 7.337C7.32041 7.10763 7.57155 6.87794 7.81348 6.67293C8.05821 6.46556 8.31607 6.26485 8.528 6.09839C8.75411 5.92079 8.90603 5.79878 8.9821 5.72485Z" fill="white"/>
</svg>
