<svg width="15" height="15" viewBox="0 0 15 15" fill="none" xmlns="http://www.w3.org/2000/svg">
<path d="M0.391204 4.62571C1.68155 1.22031 5.38292 -0.716021 8.98886 0.246808C12.8294 1.27251 15.1153 5.20121 14.0872 9.02545C13.059 12.8492 9.10898 15.1119 5.26881 14.0867C2.41619 13.3249 0.422855 10.9626 0.00578763 8.23183C-0.0358348 7.95891 0.151494 7.70388 0.424407 7.66217C0.697226 7.62066 0.952314 7.808 0.994069 8.08079C1.3529 10.4303 3.06937 12.4642 5.52727 13.1205C8.83946 14.0047 12.2381 12.0517 13.1217 8.76569C14.0048 5.48045 12.0418 2.09725 8.7304 1.21295C5.85305 0.444798 2.91111 1.8189 1.6093 4.34707L2.56243 4.40566C2.83781 4.42264 3.04786 4.65953 3.03118 4.93496C3.01434 5.21045 2.77672 5.42035 2.50123 5.40371L0.828053 5.3015C0.669545 5.29183 0.525022 5.20758 0.43873 5.07428C0.352479 4.94087 0.334972 4.77429 0.391204 4.62571Z" fill="url(#paint0_linear_4073_899)"/>
<path d="M7.16594 4.00006C7.44201 4.0001 7.66586 4.22401 7.66594 4.50006V6.9597L8.85279 8.14655C9.04802 8.34177 9.04795 8.65831 8.85279 8.85358C8.65753 9.04884 8.34102 9.04884 8.14576 8.85358L6.81243 7.52025C6.71869 7.42648 6.66594 7.29932 6.66594 7.16673V4.50006C6.66603 4.22399 6.88985 4.00006 7.16594 4.00006Z" fill="url(#paint1_linear_4073_899)"/>
<defs>
<linearGradient id="paint0_linear_4073_899" x1="0" y1="0" x2="15.8691" y2="1.97137" gradientUnits="userSpaceOnUse">
<stop stop-color="#F79548"/>
<stop offset="1" stop-color="#E94262"/>
</linearGradient>
<linearGradient id="paint1_linear_4073_899" x1="0" y1="0" x2="15.8691" y2="1.97137" gradientUnits="userSpaceOnUse">
<stop stop-color="#F79548"/>
<stop offset="1" stop-color="#E94262"/>
</linearGradient>
</defs>
</svg>
