<svg width="22" height="21" viewBox="0 0 22 21" fill="none" xmlns="http://www.w3.org/2000/svg">
<path d="M11 13.2565L11 14.7565" stroke="#B5C2D3" stroke-width="1.5" stroke-linecap="round" stroke-linejoin="round"/>
<path d="M2 9.25647L2.15288 12.1197C2.31714 15.7335 2.39927 17.5403 3.55885 18.6484C4.71843 19.7565 6.52716 19.7565 10.1446 19.7565H11.8554C15.4728 19.7565 17.2816 19.7565 18.4412 18.6484C19.6007 17.5403 19.6829 15.7335 19.8471 12.1197L20 9.25647" stroke="#B5C2D3" stroke-width="1.5" stroke-linecap="round" stroke-linejoin="round"/>
<path d="M1.84718 8.69953C3.54648 11.9309 7.3792 13.2565 11 13.2565C14.6208 13.2565 18.4535 11.9309 20.1528 8.69953C20.964 7.15703 20.3498 4.25647 18.352 4.25647H3.648C1.65023 4.25647 1.03603 7.15703 1.84718 8.69953Z" stroke="#B5C2D3" stroke-width="1.5"/>
<path d="M15 4.25647L14.9117 3.94741C14.4717 2.40736 14.2517 1.63734 13.7279 1.1969C13.2041 0.75647 12.5084 0.75647 11.117 0.75647H10.883C9.49159 0.75647 8.79587 0.75647 8.2721 1.1969C7.74832 1.63734 7.52832 2.40736 7.0883 3.94741L7 4.25647" stroke="#B5C2D3" stroke-width="1.5"/>
</svg>
