<svg width="18" height="18" viewBox="0 0 18 18" fill="none" xmlns="http://www.w3.org/2000/svg">
<path fill-rule="evenodd" clip-rule="evenodd" d="M6.49984 0.041626C2.933 0.041626 0.0415039 2.93312 0.0415039 6.49996C0.0415039 10.0668 2.933 12.9583 6.49984 12.9583C8.05879 12.9582 9.48879 12.4059 10.6047 11.4861L11.8896 12.7719C11.5632 13.4613 11.6831 14.3093 12.2534 14.8797L14.7876 17.4139C15.5131 18.1393 16.6891 18.1393 17.4146 17.4139C18.14 16.6884 18.14 15.5124 17.4146 14.7869L14.8804 12.2527C14.3102 11.6827 13.4627 11.5622 12.7734 11.8881L11.4876 10.6023C12.4062 9.48678 12.9582 8.05783 12.9582 6.49996C12.9582 2.93323 10.0665 0.0417961 6.49984 0.041626ZM13.1372 13.1365C13.3745 12.8992 13.7593 12.8993 13.9966 13.1365L16.5308 15.6707C16.7681 15.908 16.7681 16.2928 16.5308 16.5301C16.2934 16.7673 15.9087 16.7674 15.6714 16.5301L13.1372 13.9959C12.9 13.7586 12.9 13.3738 13.1372 13.1365ZM6.49984 1.29163C9.37618 1.2918 11.7082 3.62358 11.7082 6.49996C11.7082 9.37634 9.37618 11.7081 6.49984 11.7083C3.62335 11.7083 1.2915 9.37644 1.2915 6.49996C1.2915 3.62348 3.62335 1.29163 6.49984 1.29163Z" fill="white"/>
</svg>
