<svg width="30" height="30" viewBox="0 0 30 30" fill="none" xmlns="http://www.w3.org/2000/svg">
<rect width="30" height="30" rx="15" fill="#B5C2D3" fill-opacity="0.05"/>
<g clip-path="url(#clip0_3520_19474)">
<path d="M20.3907 8.72456C20.6348 8.48048 21.0305 8.48048 21.2745 8.72456C21.5186 8.96864 21.5186 9.36427 21.2745 9.60835L15.8831 14.9998L21.2745 20.3912C21.5186 20.6353 21.5186 21.0309 21.2745 21.275C21.0305 21.5191 20.6348 21.5191 20.3907 21.275L14.9993 15.8836L9.60786 21.275C9.36379 21.5191 8.96815 21.5191 8.72407 21.275C8.48 21.0309 8.48 20.6353 8.72407 20.3912L14.1155 14.9998L8.72407 9.60835C8.48 9.36427 8.48 8.96864 8.72407 8.72456C8.96815 8.48048 9.36379 8.48048 9.60786 8.72456L14.9993 14.116L20.3907 8.72456Z" fill="#94A7BF"/>
</g>
<defs>
<clipPath id="clip0_3520_19474">
<rect width="14" height="14" fill="white" transform="translate(8 8)"/>
</clipPath>
</defs>
</svg>
