<svg width="20" height="20" viewBox="0 0 20 20" fill="none" xmlns="http://www.w3.org/2000/svg">
<path fill-rule="evenodd" clip-rule="evenodd" d="M14.2754 1.56983C15.0659 1.46614 15.801 1.42692 16.4141 1.48601C16.9974 1.54228 17.6083 1.69975 17.9977 2.11915C18.3755 2.52622 18.4992 3.13819 18.5316 3.72071C18.5658 4.33512 18.5045 5.06876 18.3802 5.85857C18.131 7.44219 17.6136 9.34756 16.9927 11.1743C16.3715 13.002 15.6377 14.7793 14.9444 16.1043C14.5995 16.7634 14.2522 17.3335 13.9222 17.7458C13.758 17.9509 13.5807 18.1389 13.3924 18.2788C13.2137 18.4115 12.9529 18.5547 12.6397 18.5409C12.1364 18.5185 11.7538 18.2425 11.4727 17.8776C11.2034 17.528 10.9903 17.054 10.8013 16.5064C10.4221 15.4078 10.0666 13.7872 9.60744 11.6992C9.50885 11.2509 9.42556 11.0984 9.35109 11.0181C9.33526 11.001 9.31545 10.9844 9.29087 10.966C9.25963 10.9494 9.22836 10.9321 9.19973 10.9098C9.10374 10.8588 8.95766 10.7998 8.7204 10.7332C8.37958 10.6376 7.80915 10.5297 7.07896 10.3784C6.36964 10.2315 5.54423 10.05 4.75962 9.81609C3.98327 9.58457 3.20187 9.28871 2.60223 8.89649C2.01484 8.51222 1.46326 7.93966 1.45803 7.12973C1.45608 6.8212 1.60051 6.56499 1.73798 6.3851C1.88213 6.19647 2.07404 6.01903 2.28404 5.8545C2.70576 5.52412 3.28603 5.18043 3.95477 4.8405C5.29884 4.15733 7.09408 3.44422 8.93524 2.85157C10.775 2.25938 12.6901 1.77781 14.2754 1.56983ZM16.2936 2.73031C15.8127 2.68398 15.1826 2.71161 14.4382 2.80925C12.9537 3.00398 11.1163 3.46242 9.31773 4.04135C7.52032 4.61992 5.79049 5.30942 4.52118 5.9546C3.88343 6.27876 3.38448 6.58083 3.05471 6.8392C2.88919 6.9689 2.78708 7.07183 2.73163 7.14437C2.72317 7.15545 2.71715 7.16526 2.7121 7.17286C2.73421 7.34832 2.86904 7.5776 3.28664 7.85075C3.73397 8.14334 4.37765 8.39772 5.11688 8.61817C5.84767 8.83608 6.62923 9.00884 7.33205 9.15447C8.01403 9.29577 8.66185 9.41845 9.05812 9.52963C9.19499 9.56803 9.3283 9.61019 9.45689 9.65821L12.0578 7.05811C12.3019 6.81403 12.6975 6.81403 12.9416 7.05811C13.1856 7.30219 13.1856 7.69784 12.9416 7.9419L10.4611 10.4216C10.6465 10.7166 10.747 11.0616 10.8281 11.4307C11.2948 13.5527 11.6334 15.0851 11.9829 16.0978C12.1582 16.6056 12.3185 16.9274 12.4631 17.1151C12.5439 17.22 12.6035 17.2605 12.6429 17.2778L12.647 17.2754C12.7159 17.2242 12.8171 17.1262 12.9465 16.9645C13.2036 16.6432 13.5076 16.1532 13.8368 15.5241C14.492 14.2719 15.2024 12.5584 15.8094 10.7723C16.4168 8.98535 16.9114 7.15306 17.1457 5.66407C17.2632 4.91755 17.3113 4.2807 17.284 3.78988C17.255 3.2676 17.1462 3.03945 17.0814 2.96957C17.0172 2.9004 16.8042 2.77952 16.2936 2.73031Z" fill="white"/>
</svg>
