<svg width="32" height="32" viewBox="0 0 32 32" fill="none" xmlns="http://www.w3.org/2000/svg">
<circle cx="17" cy="16" r="2" fill="#E94262"/>
<circle cx="14" cy="20" r="2" fill="#4CC6CF"/>
<circle cx="12" cy="17" r="1" fill="#F06C55"/>
<circle cx="19" cy="17" r="1" fill="#F79548"/>
<circle cx="15" cy="23" r="1" fill="#7DB8A8"/>
<circle cx="19" cy="21" r="1" fill="#183B4D"/>
<circle cx="11.5" cy="22.5" r="0.5" fill="#F79548"/>
<circle cx="18.5" cy="19.5" r="0.5" fill="#4CC6CF"/>
<circle cx="12.5" cy="15.5" r="0.5" fill="#7DB8A8"/>
<g clip-path="url(#clip0_1709_4340)">
<path d="M17.3398 4.12715C17.9244 3.90461 18.583 3.97575 19.1934 4.32833C20.1724 4.89406 20.4437 6.53976 20.0469 9.50606C19.8944 10.6459 19.6748 11.7346 19.5146 12.4602H24.7393C26.1038 12.4602 27.2146 13.5703 27.2148 14.9348C27.2148 15.4564 27.052 15.9416 26.7754 16.341C27.4973 16.7738 27.9824 17.5638 27.9824 18.465C27.9824 19.3663 27.4975 20.1572 26.7754 20.59C27.052 20.9895 27.2148 21.4737 27.2148 21.9953C27.2148 22.9729 26.6443 23.8201 25.8193 24.2219C26.0549 24.6006 26.1914 25.0477 26.1914 25.5256C26.1912 26.89 25.0812 28 23.7168 28.0002H18.0234C15.415 28.0002 12.8584 27.5647 10.4082 26.7063V13.8781C11.7303 12.8801 13.8614 11.0748 14.5576 9.35567L15.9307 5.75997C16.2782 4.72218 16.8882 4.29924 17.3398 4.12715Z" fill="#F9B57F"/>
<path d="M8.98828 14.5451V26.3928H4.71094C4.3189 26.3928 4.00004 26.0749 4 25.6828V15.2551C4 14.863 4.31883 14.5451 4.71094 14.5451H8.98828Z" fill="#F9B57F"/>
<path d="M27.9818 18.465C27.9818 17.5638 27.4975 16.7734 26.7755 16.3406C27.0521 15.9412 27.2144 15.4566 27.2144 14.935C27.2144 13.5704 26.1041 12.4601 24.7394 12.4601H19.5148C19.675 11.7345 19.894 10.6456 20.0464 9.50575C20.4433 6.53946 20.1721 4.89438 19.193 4.32864C18.5826 3.976 17.9245 3.90447 17.3398 4.12703C16.8882 4.29907 16.2782 4.72202 15.9307 5.76007L14.5575 9.35542C13.6468 11.6046 10.2786 14.0006 9.48142 14.5444H4.70997C4.31786 14.5444 4 14.8623 4 15.2544V25.6821C4 26.0742 4.31791 26.392 4.70997 26.392H9.56261C12.2677 27.4589 15.1134 28 18.0233 28H23.7161C25.0808 28 26.191 26.8897 26.191 25.525C26.191 25.0472 26.0549 24.6004 25.8193 24.2217C26.6444 23.8199 27.2143 22.9727 27.2143 21.995C27.2143 21.4734 27.052 20.9889 26.7754 20.5895C27.4975 20.1566 27.9818 19.3663 27.9818 18.465ZM8.98745 24.9722H5.41994V15.9644H8.98745V24.9722ZM25.5068 19.52H24.7394C24.3473 19.52 24.0294 19.8379 24.0294 20.23C24.0294 20.6221 24.3473 20.94 24.7394 20.94C25.3211 20.94 25.7944 21.4133 25.7944 21.995C25.7944 22.5768 25.3211 23.05 24.7394 23.05H23.7161C23.324 23.05 23.0062 23.368 23.0062 23.76C23.0062 24.1521 23.3241 24.47 23.7161 24.47C24.2979 24.47 24.7712 24.9433 24.7712 25.525C24.7712 26.1067 24.2979 26.58 23.7161 26.58H18.0234C15.4085 26.58 12.8489 26.1148 10.4075 25.1964V15.6322C11.4797 14.8925 14.8558 12.4144 15.877 9.88033C15.8786 9.8763 15.8802 9.87227 15.8817 9.86824L17.2628 6.25216C17.2667 6.24203 17.2704 6.23177 17.2737 6.2215C17.4076 5.81603 17.6106 5.54346 17.8453 5.45407C18.073 5.3673 18.3175 5.46278 18.4826 5.55817C18.4887 5.56169 19.081 6.00339 18.6405 9.30658C18.3903 11.1826 17.936 12.9768 17.9315 12.9948C17.8773 13.2071 17.9245 13.4327 18.0588 13.6057C18.1934 13.7788 18.4002 13.8801 18.6195 13.8801H24.7395C25.3212 13.8801 25.7945 14.3534 25.7945 14.9351C25.7945 15.5168 25.3212 15.9901 24.7395 15.9901C24.3474 15.9901 24.0295 16.308 24.0295 16.7001C24.0295 17.0922 24.3474 17.41 24.7395 17.41H25.5069C26.0886 17.41 26.5619 17.8833 26.5619 18.4651C26.5619 19.0467 26.0885 19.52 25.5068 19.52Z" fill="#F79548"/>
</g>
<defs>
<clipPath id="clip0_1709_4340">
<rect width="24" height="24" fill="white" transform="translate(4 4)"/>
</clipPath>
</defs>
</svg>
