<svg width="9" height="11" viewBox="0 0 9 11" fill="none" xmlns="http://www.w3.org/2000/svg">
<path fill-rule="evenodd" clip-rule="evenodd" d="M6.97568 0C7.85463 0 8.70871 0.603815 8.74814 1.56152C8.79475 2.69565 8.01567 3.35603 7.36484 3.90527C6.90125 4.29651 6.58071 4.5677 6.36631 4.7998C6.15659 5.02686 6.09259 5.17091 6.08018 5.29688C6.07508 5.34873 6.07508 5.40127 6.08018 5.45312C6.09259 5.57909 6.15659 5.72314 6.36631 5.9502C6.58071 6.1823 6.90125 6.45349 7.36484 6.84473C7.56381 7.01264 7.78416 7.19221 7.99033 7.37354C8.52815 7.84658 8.77552 8.52219 8.74814 9.18848C8.70871 10.1462 7.85463 10.75 6.97568 10.75H1.77451C0.8956 10.75 0.0414816 10.1462 0.00205021 9.18848C-0.0450447 8.04273 0.728301 7.39922 1.38535 6.84473C1.84894 6.4535 2.16947 6.1823 2.38389 5.9502C2.59363 5.72313 2.6576 5.57909 2.67002 5.45312C2.67511 5.40126 2.67511 5.34874 2.67002 5.29688C2.6576 5.17091 2.59363 5.02687 2.38389 4.7998C2.16947 4.5677 1.84894 4.2965 1.38535 3.90527C0.742277 3.36257 -0.0430561 2.65925 0.00205021 1.56152C0.0414817 0.603847 0.8956 4.46031e-05 1.77451 0H6.97568ZM1.77451 0.75C1.19575 0.750043 0.770548 1.13118 0.751562 1.59229C0.723304 2.27959 1.1937 2.76193 1.86924 3.33203C2.31757 3.71039 2.68109 4.01652 2.93467 4.29102C3.19281 4.57048 3.3811 4.86249 3.4166 5.22363C3.42648 5.32423 3.42648 5.42577 3.4166 5.52637C3.3811 5.88751 3.19281 6.17952 2.93467 6.45898C2.68109 6.73348 2.31757 7.03961 1.86924 7.41797C1.17136 8.00692 0.721495 8.42673 0.751562 9.15771C0.770548 9.61882 1.19575 9.99996 1.77451 10H2.50205C2.50612 9.86966 2.52082 9.73585 2.57725 9.61133C2.58948 9.58437 2.60334 9.55779 2.61826 9.53223C2.72184 9.35486 2.89623 9.2398 3.04941 9.13037C3.29469 8.95515 3.50136 8.80698 3.6832 8.70312C3.87203 8.59531 4.06266 8.51764 4.28281 8.50293C4.34425 8.49883 4.40594 8.49883 4.46738 8.50293C4.68754 8.51764 4.87816 8.59531 5.06699 8.70312C5.24883 8.80698 5.4555 8.95515 5.70078 9.13037C5.85396 9.2398 6.02836 9.35486 6.13193 9.53223C6.14685 9.55779 6.16072 9.58437 6.17295 9.61133C6.22937 9.73585 6.24407 9.86966 6.24814 10H6.97568C7.55449 10 7.97964 9.61885 7.99863 9.15771C8.01768 8.6945 7.8464 8.24543 7.49521 7.93652C7.29602 7.76133 7.09507 7.59867 6.88096 7.41797C6.43262 7.03961 6.06909 6.73349 5.81553 6.45898C5.5574 6.17953 5.36908 5.88749 5.33359 5.52637C5.32372 5.42577 5.32372 5.32423 5.33359 5.22363C5.36908 4.86251 5.5574 4.57047 5.81553 4.29102C6.06909 4.01651 6.43262 3.71039 6.88096 3.33203C7.57086 2.74981 8.02825 2.31254 7.99863 1.59229C7.97964 1.13115 7.55449 0.75 6.97568 0.75H1.77451ZM4.33262 9.25146C4.26705 9.25586 4.18878 9.27797 4.05478 9.35449C3.91372 9.43507 3.74302 9.55672 3.48545 9.74072C3.39019 9.80877 3.33626 9.84752 3.29844 9.87939C3.27644 9.89795 3.26798 9.90721 3.26572 9.91016C3.26372 9.91359 3.26198 9.91732 3.26035 9.9209C3.26229 9.91655 3.25788 9.92226 3.25449 9.96387C3.2536 9.97487 3.25358 9.9869 3.25303 10H5.49717C5.49661 9.9869 5.4966 9.97487 5.4957 9.96387C5.49231 9.92226 5.48791 9.91655 5.48984 9.9209C5.48822 9.91732 5.48647 9.91359 5.48447 9.91016C5.48221 9.90721 5.47375 9.89795 5.45176 9.87939C5.41393 9.84752 5.36 9.80877 5.26475 9.74072C5.00718 9.55672 4.83648 9.43507 4.69541 9.35449C4.56142 9.27797 4.48314 9.25586 4.41758 9.25146C4.38935 9.24958 4.36084 9.24958 4.33262 9.25146Z" fill="white"/>
</svg>
