<svg width="18" height="13" viewBox="0 0 18 13" fill="none" xmlns="http://www.w3.org/2000/svg">
<path d="M8.95833 5.625C9.41857 5.625 9.79167 5.9981 9.79167 6.45833C9.79167 6.91857 9.41857 7.29167 8.95833 7.29167H3.95833C3.4981 7.29167 3.125 6.91857 3.125 6.45833C3.125 5.9981 3.4981 5.625 3.95833 5.625H8.95833Z" fill="#94A7BF"/>
<path d="M13.9583 5.625C14.4186 5.625 14.7917 5.9981 14.7917 6.45833C14.7917 6.91857 14.4186 7.29167 13.9583 7.29167H12.2917C11.8314 7.29167 11.4583 6.91857 11.4583 6.45833C11.4583 5.9981 11.8314 5.625 12.2917 5.625H13.9583Z" fill="#94A7BF"/>
<path fill-rule="evenodd" clip-rule="evenodd" d="M13.125 0C15.7714 0 17.9167 2.1453 17.9167 4.79167V8.125C17.9167 10.7714 15.7714 12.9167 13.125 12.9167H4.79167C2.1453 12.9167 5.3688e-08 10.7714 0 8.125V4.79167C5.36898e-08 2.1453 2.1453 0 4.79167 0H13.125ZM4.79167 1.25C2.83566 1.25 1.25 2.83566 1.25 4.79167V8.125C1.25 10.081 2.83566 11.6667 4.79167 11.6667H13.125C15.081 11.6667 16.6667 10.081 16.6667 8.125V4.79167C16.6667 2.83566 15.081 1.25 13.125 1.25H4.79167Z" fill="#94A7BF"/>
</svg>
