<svg width="611" height="235" viewBox="0 0 611 235" fill="none" xmlns="http://www.w3.org/2000/svg">
<path d="M317.929 0C290.814 1.8078 284.651 21.7699 279.452 47.7666L250.037 197.085C245.697 219.117 226.379 235.001 203.925 235.001H151.624C175.005 234.207 184.066 217.402 188.685 194.313L219.985 37.8066C224.378 15.846 243.655 0.0351422 266.05 0.0244141L317.929 0ZM44.7822 7.24219C64.279 7.24219 78.9148 25.2708 74.7344 44.3145L46.6045 196.513C42.4854 218.798 23.05 234.97 0.387695 234.97H-50.8926C-21.97 231.397 -17.6172 213.243 -12.418 187.246L16.5166 30.6914C19.0281 17.1032 30.9641 7.24234 44.7822 7.24219ZM323.469 7.24219C337.287 7.24219 349.223 17.1031 351.734 30.6914L380.67 187.246C385.869 213.243 390.222 231.397 419.145 234.97H367.864C345.202 234.97 325.767 218.798 321.647 196.513L293.517 44.3145C289.336 25.271 303.972 7.24262 323.469 7.24219ZM538.459 99.4297C467.962 39.7728 516.769 -11.5557 557.494 17.9336C586.411 38.8727 618.966 96.489 608.102 149.896C596.304 207.892 543.881 249.468 480.613 216.93C580.035 235.007 590.883 143.792 538.459 99.4297ZM-83.2559 90.3887C-60.356 90.3887 -40.7889 106.894 -36.9287 129.467L-26.2988 191.63C-23.0683 210.522 -37.6204 227.774 -56.7861 227.774C-71.005 227.774 -83.1067 217.42 -85.3066 203.372L-95.5254 138.113C-100.725 112.117 -105.077 93.9617 -134 90.3887H-83.2559ZM534.897 0.243164C508.915 2.59027 487.216 21.7699 482.017 47.7666L453.081 204.32C450.57 217.909 438.634 227.771 424.815 227.771C405.319 227.77 390.683 209.742 394.863 190.698L422.997 38.4844C427.115 16.2062 446.539 0.0357934 469.194 0.0263672L534.954 0L534.897 0.243164ZM101.676 0.00976562C124.338 0.00982439 143.773 16.1825 147.892 38.4678L176.022 190.666C180.203 209.71 165.567 227.738 146.07 227.738C132.252 227.738 120.316 217.876 117.805 204.288L88.8701 47.7344C83.6709 21.7377 79.3181 3.58279 50.3955 0.00976562H101.676Z" fill="white" fill-opacity="0.06"/>
</svg>
