<svg width="304" height="186" viewBox="0 0 304 186" fill="none" xmlns="http://www.w3.org/2000/svg">
<path d="M289.427 168.314L295.405 152.361H301.547L287.408 186H281.265L286.212 174.622L277.061 152.361H283.533L289.427 168.314ZM70.2261 151.99C72.4246 151.99 74.4173 152.484 76.2036 153.474C77.9899 154.436 79.3909 155.81 80.4077 157.597C81.452 159.383 81.9741 161.444 81.9741 163.78C81.9741 166.116 81.4385 168.178 80.3667 169.964C79.3224 171.75 77.8933 173.138 76.0796 174.127C74.2933 175.089 72.2871 175.57 70.061 175.57C67.8625 175.57 65.8834 175.089 64.1245 174.127C62.3659 173.138 60.9782 171.75 59.9614 169.964C58.9721 168.178 58.4771 166.116 58.4771 163.78C58.4771 161.444 58.9857 159.383 60.0024 157.597C61.0468 155.81 62.4622 154.436 64.2485 153.474C66.0348 152.484 68.0276 151.99 70.2261 151.99ZM244.858 151.99C247.029 151.99 248.967 152.457 250.67 153.392C252.402 154.326 253.734 155.659 254.668 157.391C255.63 159.094 256.112 161.059 256.112 163.285C256.112 164.11 256.057 164.852 255.947 165.512H239.251C239.389 167.161 239.966 168.452 240.983 169.387C242 170.321 243.25 170.788 244.734 170.788C246.877 170.788 248.403 169.868 249.31 168.026H255.535C254.875 170.225 253.61 172.039 251.742 173.468C249.873 174.869 247.578 175.57 244.858 175.57C242.659 175.57 240.68 175.089 238.921 174.127C237.19 173.138 235.83 171.75 234.84 169.964C233.878 168.178 233.398 166.116 233.398 163.78C233.398 161.417 233.879 159.342 234.84 157.556C235.802 155.769 237.149 154.395 238.88 153.433C240.612 152.471 242.604 151.99 244.858 151.99ZM33.813 166.625C33.8129 169.428 33.0017 171.613 31.3804 173.18C29.759 174.718 27.5881 175.487 24.8677 175.487C22.1195 175.487 19.8929 174.691 18.189 173.097C16.5128 171.503 15.6754 169.277 15.6753 166.419H21.4458C21.4733 167.655 21.7625 168.617 22.312 169.304C22.8891 169.991 23.7131 170.335 24.7847 170.335C25.8289 170.335 26.6266 170.005 27.1763 169.346C27.7258 168.686 28.0004 167.779 28.0005 166.625V146.425H33.813V166.625ZM111.148 164.935C111.148 166.748 111.601 168.15 112.508 169.14C113.415 170.101 114.652 170.582 116.218 170.582C117.812 170.582 119.062 170.101 119.969 169.14C120.876 168.15 121.33 166.748 121.33 164.935V152.361H127.142V175.199H121.33V172.313C120.588 173.303 119.612 174.086 118.403 174.663C117.221 175.213 115.929 175.487 114.528 175.487C112.742 175.487 111.162 175.117 109.788 174.375C108.413 173.605 107.328 172.492 106.531 171.035C105.761 169.551 105.376 167.792 105.376 165.759V152.361H111.148V164.935ZM164.991 158.091H163.465C161.652 158.091 160.278 158.517 159.343 159.369C158.436 160.221 157.983 161.705 157.983 163.821V175.199H152.211V152.361H157.983V155.906C158.725 154.697 159.687 153.749 160.869 153.062C162.078 152.375 163.452 152.031 164.991 152.031V158.091ZM200.909 152.031C203.629 152.031 205.828 152.897 207.504 154.628C209.181 156.332 210.019 158.724 210.019 161.802V175.199H204.248V162.585C204.248 160.771 203.794 159.383 202.887 158.421C201.98 157.432 200.744 156.937 199.177 156.937C197.583 156.937 196.319 157.432 195.384 158.421C194.477 159.383 194.024 160.771 194.024 162.585V175.199H188.253V152.361H194.024V155.205C194.793 154.216 195.769 153.447 196.951 152.897C198.16 152.32 199.48 152.031 200.909 152.031ZM70.1431 157.02C68.4943 157.02 67.1067 157.61 65.98 158.792C64.8807 159.946 64.3306 161.609 64.3306 163.78C64.3306 165.951 64.8672 167.628 65.939 168.81C67.0382 169.964 68.4122 170.541 70.061 170.541C71.1053 170.541 72.0809 170.294 72.9878 169.799C73.9222 169.277 74.6647 168.507 75.2144 167.49C75.7639 166.473 76.0386 165.237 76.0386 163.78C76.0386 161.609 75.4613 159.946 74.3071 158.792C73.1804 157.61 71.792 157.02 70.1431 157.02ZM244.693 156.73C243.264 156.73 242.054 157.17 241.065 158.05C240.103 158.902 239.512 160.098 239.292 161.637H250.134C250.107 160.153 249.571 158.97 248.527 158.091C247.483 157.184 246.204 156.73 244.693 156.73ZM184.5 35.3301C173.458 36.0664 170.949 44.1958 168.832 54.7822L156.853 115.588C155.086 124.56 147.219 131.028 138.075 131.028H116.776C126.297 130.705 129.987 123.862 131.868 114.46L144.615 50.7256C146.403 41.7827 154.254 35.3441 163.374 35.3398L184.5 35.3301ZM73.2671 38.2793C81.2067 38.2793 87.1667 45.6209 85.4644 53.376L74.0093 115.355C72.3318 124.43 64.4175 131.016 55.189 131.017H34.3062C46.0841 129.562 47.8569 122.168 49.9741 111.582L61.7573 47.8281C62.7802 42.2949 67.6402 38.2795 73.2671 38.2793ZM186.756 38.2793C192.383 38.2794 197.243 42.2947 198.266 47.8281L210.049 111.581C212.167 122.168 213.939 129.561 225.717 131.016H204.834C195.606 131.015 187.691 124.43 186.014 115.354L174.559 53.376C172.857 45.6209 178.817 38.2793 186.756 38.2793ZM274.306 75.8203C245.598 51.5265 265.473 30.6243 282.057 42.6328C293.833 51.1597 307.09 74.6231 302.666 96.3721C297.861 119.989 276.514 136.92 250.75 123.67C291.236 131.031 295.655 93.8859 274.306 75.8203ZM21.1265 72.1387C30.4518 72.1387 38.4206 78.8597 39.9927 88.0518L44.3218 113.366C45.6374 121.06 39.7106 128.086 31.9058 128.086C26.1156 128.086 21.1874 123.869 20.2915 118.148L16.1304 91.5732C14.0131 80.9867 12.2404 73.5937 0.462402 72.1387H21.1265ZM272.855 35.4297C262.274 36.3856 253.438 44.1958 251.321 54.7822L239.538 118.535C238.515 124.069 233.654 128.084 228.027 128.084C220.087 128.084 214.127 120.742 215.83 112.987L227.287 51.002C228.963 41.9297 236.873 35.3447 246.099 35.3408L272.878 35.3301L272.855 35.4297ZM96.436 35.334C105.665 35.3341 113.579 41.92 115.256 50.9951L126.712 112.974C128.415 120.729 122.454 128.07 114.515 128.07C108.888 128.07 104.027 124.055 103.004 118.521L91.2212 54.7686C89.1039 44.182 87.3313 36.789 75.5532 35.334H96.436ZM40.2339 36.8076C48.3649 36.8077 54.9565 43.3991 54.9565 51.5303C54.9564 59.6613 48.3648 66.2529 40.2339 66.2529C32.1029 66.2529 25.5114 59.6614 25.5112 51.5303C25.5112 43.3991 32.1028 36.8076 40.2339 36.8076ZM130.02 0C139.777 0.000223425 147.687 7.90988 147.687 17.667C147.687 27.4243 139.777 35.3347 130.02 35.335C120.263 35.335 112.353 27.4244 112.353 17.667C112.353 7.90974 120.263 0 130.02 0ZM212.463 0C222.22 0.000223425 230.13 7.90988 230.13 17.667C230.13 27.4243 222.22 35.3347 212.463 35.335C202.706 35.335 194.796 27.4244 194.796 17.667C194.797 7.90974 202.706 0 212.463 0Z" fill="white"/>
</svg>
