<svg width="66" height="40" viewBox="0 0 66 40" fill="none" xmlns="http://www.w3.org/2000/svg">
<path d="M49.391 3.79943C49.391 5.8978 47.6899 7.59887 45.5916 7.59887C43.4933 7.59887 41.7922 5.8978 41.7922 3.79943C41.7922 1.70106 43.4933 0 45.5916 0C47.6899 0 49.391 1.70106 49.391 3.79943Z" fill="url(#paint0_linear_1758_2740)"/>
<path d="M39.5781 7.59861C37.2036 7.75691 36.6633 9.50466 36.208 11.7812L33.6318 24.8584C33.2516 26.7877 31.5601 28.1787 29.5938 28.1787H25.0137C27.0612 28.1091 27.8543 26.6372 28.2588 24.6152L31 10.9092C31.3846 8.98607 33.0731 7.60164 35.0342 7.60056L39.5781 7.59861ZM40.0625 8.2324C41.2726 8.2324 42.3181 9.0961 42.5381 10.2861L45.0723 23.9961C45.5276 26.2726 45.9088 27.8627 48.4414 28.1758H43.9512C41.9665 28.1758 40.264 26.7592 39.9033 24.8076L37.4395 11.4785C37.0737 9.81106 38.3555 8.23269 40.0625 8.2324ZM58.8916 16.3056C52.7177 11.0812 56.9921 6.58538 60.5586 9.16795C63.091 11.0017 65.9417 16.0484 64.9902 20.7256C63.9569 25.8043 59.3658 29.4452 53.8252 26.5957C62.5319 28.1788 63.4824 20.1908 58.8916 16.3056ZM58.5664 7.62009C56.2913 7.82584 54.3909 9.50484 53.9355 11.7812L51.4014 25.4922C51.1813 26.6818 50.1366 27.5457 48.9268 27.5459C47.2193 27.5459 45.9376 25.9666 46.3037 24.2988L48.7676 10.9687C49.1282 9.01784 50.8286 7.60157 52.8125 7.60056L58.5723 7.59861L58.5664 7.62009ZM20.6396 7.59861C22.6242 7.59877 24.3258 9.01524 24.6865 10.9668L27.1504 24.2949C27.5165 25.9626 26.2347 27.5419 24.5273 27.542C23.3172 27.542 22.2717 26.6783 22.0518 25.4883L19.5176 11.7783C19.0623 9.50162 18.6814 7.91152 16.1484 7.59861H20.6396Z" fill="url(#paint1_linear_1758_2740)"/>
<path d="M31.6613 3.79943C31.6613 5.8978 29.9602 7.59887 27.8619 7.59887C25.7635 7.59887 24.0625 5.8978 24.0625 3.79943C24.0625 1.70106 25.7635 0 27.8619 0C29.9602 0 31.6613 1.70106 31.6613 3.79943Z" fill="url(#paint2_linear_1758_2740)"/>
<path d="M3.36942 19.6935C2.91409 17.4168 2.53292 15.8269 0 15.514L4.44397 15.514C6.44944 15.514 8.16299 16.9594 8.50105 18.9362L9.43204 24.3802C9.71497 26.0346 8.44055 27.5455 6.76208 27.5455C5.51684 27.5455 4.45704 26.6388 4.26439 25.4085L3.36942 19.6935Z" fill="#00ADBA"/>
<path d="M11.719 11.0818C11.719 12.8305 10.3015 14.248 8.55286 14.248C6.80425 14.248 5.38672 12.8305 5.38672 11.0818C5.38672 9.33319 6.80425 7.91563 8.55286 7.91563C10.3015 7.91563 11.719 9.33319 11.719 11.0818Z" fill="url(#paint3_linear_1758_2740)"/>
<path d="M11.7692 28.1756C13.7539 28.1756 15.4559 26.7593 15.8166 24.8077L18.2802 11.4789C18.6463 9.81114 17.3646 8.2323 15.6571 8.2323C14.447 8.2323 13.4017 9.09589 13.1817 10.2859L10.6477 23.9962C10.1924 26.2729 9.81124 27.8627 7.27832 28.1757L11.7692 28.1756Z" fill="#00ADBA"/>
<path d="M7.17217 31.4893V35.8333C7.17217 36.4361 6.99783 36.906 6.64913 37.2429C6.30043 37.5738 5.83353 37.7393 5.24843 37.7393C4.65741 37.7393 4.17869 37.5679 3.81226 37.2251C3.45174 36.8823 3.27148 36.4036 3.27148 35.789H4.51261C4.51852 36.0549 4.58058 36.2618 4.69878 36.4095C4.8229 36.5573 5.0002 36.6312 5.23069 36.6312C5.45528 36.6312 5.62667 36.5602 5.74488 36.4184C5.86308 36.2765 5.92218 36.0815 5.92218 35.8333V31.4893H7.17217Z" fill="url(#paint4_linear_1758_2740)"/>
<path d="M14.9675 37.7571C14.4946 37.7571 14.0691 37.6536 13.6909 37.4468C13.3126 37.234 13.0142 36.9355 12.7955 36.5514C12.5827 36.1672 12.4763 35.7239 12.4763 35.2216C12.4763 34.7192 12.5857 34.2759 12.8043 33.8918C13.0289 33.5076 13.3333 33.2121 13.7175 33.0052C14.1016 32.7925 14.5301 32.6861 15.0029 32.6861C15.4757 32.6861 15.9042 32.7925 16.2884 33.0052C16.6725 33.2121 16.974 33.5076 17.1926 33.8918C17.4172 34.2759 17.5295 34.7192 17.5295 35.2216C17.5295 35.7239 17.4143 36.1672 17.1838 36.5514C16.9592 36.9355 16.6518 37.234 16.2618 37.4468C15.8776 37.6536 15.4462 37.7571 14.9675 37.7571ZM14.9675 36.6755C15.192 36.6755 15.4019 36.6223 15.5969 36.5159C15.7978 36.4036 15.9574 36.2381 16.0756 36.0195C16.1938 35.8008 16.2529 35.5348 16.2529 35.2216C16.2529 34.7547 16.1288 34.3971 15.8806 34.1489C15.6383 33.8947 15.3398 33.7677 14.9852 33.7677C14.6306 33.7677 14.3321 33.8947 14.0898 34.1489C13.8534 34.3971 13.7352 34.7547 13.7352 35.2216C13.7352 35.6885 13.8504 36.049 14.0809 36.3031C14.3173 36.5514 14.6129 36.6755 14.9675 36.6755Z" fill="url(#paint5_linear_1758_2740)"/>
<path d="M27.2431 32.7659V37.6773H25.9931V37.0567C25.8335 37.2695 25.6237 37.4379 25.3636 37.562C25.1095 37.6802 24.8317 37.7393 24.5303 37.7393C24.1462 37.7393 23.8063 37.6595 23.5108 37.5C23.2153 37.3345 22.9819 37.0951 22.8105 36.7819C22.645 36.4627 22.5622 36.0845 22.5622 35.6471V32.7659H23.8034V35.4698C23.8034 35.8599 23.9009 36.1613 24.0959 36.3741C24.291 36.5809 24.5569 36.6844 24.8938 36.6844C25.2366 36.6844 25.5055 36.5809 25.7005 36.3741C25.8956 36.1613 25.9931 35.8599 25.9931 35.4698V32.7659H27.2431Z" fill="url(#paint6_linear_1758_2740)"/>
<path d="M33.8754 33.5283C34.035 33.2682 34.2418 33.0643 34.496 32.9166C34.756 32.7688 35.0515 32.6949 35.3825 32.6949V33.9982H35.0545C34.6644 33.9982 34.3689 34.0898 34.168 34.273C33.9729 34.4562 33.8754 34.7753 33.8754 35.2304V37.6773H32.6343V32.7659H33.8754V33.5283Z" fill="url(#paint7_linear_1758_2740)"/>
<path d="M43.1067 32.6949C43.6918 32.6949 44.1646 32.8811 44.5252 33.2535C44.8857 33.6199 45.0659 34.1341 45.0659 34.796V37.6773H43.8248V34.9645C43.8248 34.5744 43.7273 34.2759 43.5323 34.0691C43.3372 33.8563 43.0713 33.7499 42.7344 33.7499C42.3916 33.7499 42.1197 33.8563 41.9188 34.0691C41.7238 34.2759 41.6262 34.5744 41.6262 34.9645V37.6773H40.3851V32.7659H41.6262V33.3776C41.7917 33.1648 42.0015 32.9993 42.2557 32.8811C42.5157 32.757 42.7994 32.6949 43.1067 32.6949Z" fill="url(#paint8_linear_1758_2740)"/>
<path d="M54.9784 35.1152C54.9784 35.2925 54.9666 35.4521 54.943 35.5939H51.3526C51.3821 35.9485 51.5062 36.2263 51.7249 36.4273C51.9436 36.6282 52.2125 36.7287 52.5316 36.7287C52.9926 36.7287 53.3206 36.5307 53.5157 36.1347H54.8543C54.7125 36.6075 54.4406 36.9976 54.0387 37.3049C53.6368 37.6064 53.1433 37.7571 52.5582 37.7571C52.0854 37.7571 51.6599 37.6536 51.2816 37.4468C50.9093 37.234 50.6167 36.9355 50.404 36.5514C50.1971 36.1672 50.0937 35.7239 50.0937 35.2216C50.0937 34.7133 50.1971 34.2671 50.404 33.8829C50.6108 33.4987 50.9004 33.2032 51.2728 32.9964C51.6451 32.7895 52.0736 32.6861 52.5582 32.6861C53.0251 32.6861 53.4418 32.7866 53.8082 32.9875C54.1805 33.1885 54.4672 33.4751 54.6681 33.8474C54.875 34.2139 54.9784 34.6365 54.9784 35.1152ZM53.693 34.7606C53.6871 34.4414 53.5718 34.1873 53.3472 33.9982C53.1226 33.8031 52.8478 33.7056 52.5228 33.7056C52.2154 33.7056 51.9554 33.8002 51.7426 33.9893C51.5358 34.1725 51.4087 34.4296 51.3614 34.7606H53.693Z" fill="url(#paint9_linear_1758_2740)"/>
<path d="M64.7495 32.7659L61.7088 40H60.3879L61.4517 37.5532L59.4836 32.7659H60.8754L62.1432 36.1968L63.4286 32.7659H64.7495Z" fill="url(#paint10_linear_1758_2740)"/>
<defs>
<linearGradient id="paint0_linear_1758_2740" x1="41.9505" y1="9.49858" x2="35.1433" y2="9.02367" gradientUnits="userSpaceOnUse">
<stop stop-color="#F79548"/>
<stop offset="1" stop-color="#E94262"/>
</linearGradient>
<linearGradient id="paint1_linear_1758_2740" x1="40.5274" y1="18.047" x2="59.8406" y2="18.047" gradientUnits="userSpaceOnUse">
<stop stop-color="#F79548"/>
<stop offset="1" stop-color="#E94262"/>
</linearGradient>
<linearGradient id="paint2_linear_1758_2740" x1="31.5029" y1="10.4484" x2="42.5845" y2="9.65692" gradientUnits="userSpaceOnUse">
<stop stop-color="#F79548"/>
<stop offset="1" stop-color="#E94262"/>
</linearGradient>
<linearGradient id="paint3_linear_1758_2740" x1="12.0356" y1="11.8734" x2="23.7504" y2="7.91575" gradientUnits="userSpaceOnUse">
<stop stop-color="#00ADBA"/>
<stop offset="1" stop-color="#183B4D"/>
</linearGradient>
<linearGradient id="paint4_linear_1758_2740" x1="10.1711" y1="34.5111" x2="64.908" y2="34.5111" gradientUnits="userSpaceOnUse">
<stop stop-color="#00ADBA"/>
<stop offset="0.30898" stop-color="#F79548"/>
<stop offset="1" stop-color="#E94262"/>
</linearGradient>
<linearGradient id="paint5_linear_1758_2740" x1="10.1711" y1="34.5111" x2="64.908" y2="34.5111" gradientUnits="userSpaceOnUse">
<stop stop-color="#00ADBA"/>
<stop offset="0.30898" stop-color="#F79548"/>
<stop offset="1" stop-color="#E94262"/>
</linearGradient>
<linearGradient id="paint6_linear_1758_2740" x1="10.1711" y1="34.5111" x2="64.908" y2="34.5111" gradientUnits="userSpaceOnUse">
<stop stop-color="#00ADBA"/>
<stop offset="0.30898" stop-color="#F79548"/>
<stop offset="1" stop-color="#E94262"/>
</linearGradient>
<linearGradient id="paint7_linear_1758_2740" x1="10.1711" y1="34.5111" x2="64.908" y2="34.5111" gradientUnits="userSpaceOnUse">
<stop stop-color="#00ADBA"/>
<stop offset="0.30898" stop-color="#F79548"/>
<stop offset="1" stop-color="#E94262"/>
</linearGradient>
<linearGradient id="paint8_linear_1758_2740" x1="10.1711" y1="34.5111" x2="64.908" y2="34.5111" gradientUnits="userSpaceOnUse">
<stop stop-color="#00ADBA"/>
<stop offset="0.30898" stop-color="#F79548"/>
<stop offset="1" stop-color="#E94262"/>
</linearGradient>
<linearGradient id="paint9_linear_1758_2740" x1="10.1711" y1="34.5111" x2="64.908" y2="34.5111" gradientUnits="userSpaceOnUse">
<stop stop-color="#00ADBA"/>
<stop offset="0.30898" stop-color="#F79548"/>
<stop offset="1" stop-color="#E94262"/>
</linearGradient>
<linearGradient id="paint10_linear_1758_2740" x1="10.1711" y1="34.5111" x2="64.908" y2="34.5111" gradientUnits="userSpaceOnUse">
<stop stop-color="#00ADBA"/>
<stop offset="0.30898" stop-color="#F79548"/>
<stop offset="1" stop-color="#E94262"/>
</linearGradient>
</defs>
</svg>
