<svg width="20" height="20" viewBox="0 0 20 20" fill="none" xmlns="http://www.w3.org/2000/svg">
<path d="M10.002 12.4998C10.4621 12.4998 10.8352 12.873 10.8353 13.3332C10.8353 13.7934 10.4622 14.1665 10.002 14.1665H9.99463C9.5344 14.1665 9.1613 13.7934 9.1613 13.3332C9.16141 12.873 9.53446 12.4998 9.99463 12.4998H10.002Z" fill="#F79548"/>
<path d="M10.0011 6.87483C10.3463 6.87483 10.626 7.15475 10.6261 7.49983V10.8332C10.6261 11.1783 10.3463 11.4582 10.0011 11.4582C9.65597 11.4582 9.37614 11.1783 9.37614 10.8332V7.49983C9.37625 7.15475 9.65603 6.87483 10.0011 6.87483Z" fill="#F79548"/>
<path fill-rule="evenodd" clip-rule="evenodd" d="M8.6364 1.6787C9.52319 1.38446 10.4791 1.38442 11.3659 1.6787C12.2492 1.97193 12.9429 2.66784 13.6397 3.64485C14.3386 4.62504 15.1118 5.99423 16.1104 7.76106C17.1089 9.52805 17.8833 10.8968 18.3646 12.005C18.8451 13.1115 19.0844 14.0674 18.8936 14.9852C18.7013 15.909 18.2272 16.7492 17.537 17.3843C16.8482 18.0178 15.9101 18.2853 14.7293 18.4137C13.5471 18.5423 11.9977 18.5415 10.0011 18.5415C8.00458 18.5415 6.45524 18.5423 5.27295 18.4137C4.09209 18.2853 3.1541 18.0178 2.46534 17.3843C1.77504 16.7492 1.30101 15.9091 1.10873 14.9852C0.917824 14.0674 1.15718 13.1115 1.6377 12.005C2.11904 10.8968 2.89337 9.528 3.89193 7.76106C4.89041 5.99428 5.66366 4.62502 6.36264 3.64485C7.05937 2.66788 7.7531 1.9719 8.6364 1.6787ZM10.972 2.86523C10.3409 2.65582 9.66139 2.65586 9.03028 2.86523C8.53366 3.03008 8.03373 3.45392 7.37989 4.37076C6.72831 5.28451 5.99259 6.58452 4.97999 8.3763C3.9674 10.168 3.23331 11.4694 2.78435 12.5031C2.33466 13.5385 2.22201 14.1983 2.33269 14.7305C2.47238 15.4017 2.81577 16.0085 3.31169 16.4647C3.7012 16.823 4.30818 17.0515 5.40805 17.1711C6.50672 17.2905 7.97505 17.2915 10.0011 17.2915C12.0272 17.2915 13.4956 17.2905 14.5942 17.1711C15.694 17.0515 16.3011 16.8229 16.6906 16.4647C17.1864 16.0085 17.5299 15.4016 17.6696 14.7305C17.7803 14.1983 17.6676 13.5385 17.2179 12.5031C16.769 11.4694 16.0349 10.1681 15.0223 8.3763C14.0097 6.58447 13.274 5.28453 12.6224 4.37076C11.9685 3.45388 11.4686 3.0301 10.972 2.86523Z" fill="#F79548"/>
</svg>
